<?xml version="1.0" encoding="UTF-8"?>
<svg id="Layer_2" data-name="Layer 2" xmlns="http://www.w3.org/2000/svg" viewBox="0 0 397.55 76.84">
  <defs>
    <style>
      .cls-1 {
        fill: #0751a0;
      }

      .cls-2, .cls-3 {
        fill-rule: evenodd;
      }

      .cls-2, .cls-4 {
        fill: #ec2227;
      }

      .cls-5, .cls-3 {
        fill: #2e3690;
      }
    </style>
  </defs>
  <g id="Layer_1-2" data-name="Layer 1">
    <g>
      <path class="cls-4" d="M128.22,64.21h-11.34l19.02-50.29h12.75l20.14,53.24h164.24v9.68h-172.3l-11.93-33.43,2.39-2.44s1.57-1.94.45-3.94c-1.12-2.01-4.4-1.65-5.3-1.01l-4.1-10.83-14.02,39.03Z"/>
      <path class="cls-1" d="M141.34,45.7l3.73-5.24s.45-.29.82-.29.45-.43.15-.79c-.22-.36-.37-1.58.67-2.3,1.04-.72,2.46-.57,3.28.14.82.72,1.05,1.87.6,2.51-.45.72-.97,1.29-1.56,1.36-.6.07-.75.21-.67.5.15.29,0,.93-.6,1.72-.6.86-1.42,2.3-1.42,2.3h-5.15l.15.07Z"/>
      <path class="cls-5" d="M65.34,32.5s1.86,1.72,4.62,1.72c3.13,0,5.52-2.65,5.52-2.65v31.78h-10.29l.22-30.92-.07.07Z"/>
      <path class="cls-3" d="M28.34,41.69h15.74s6.64.5,6.64,6.46-6.27,6.82-6.27,6.82h-16.11v-13.28ZM28.42,22.46h12.98s7.91-.43,7.91,5.52c0,5.09-6.49,5.31-6.49,5.31h-14.47v-10.83h.07ZM17.83,13.78h25.66s16.26-.36,16.26,13.06c0,0,1.12,7.82-6.41,9.9,0,0,8.35,2.65,8.35,12.27s-8.35,14.35-15.66,14.35h-28.04V13.78h-.15Z"/>
      <path class="cls-3" d="M98.38,33.94c10.67,0,9.92,9.25,9.92,9.25,0,0,1.94,13.13-9.7,13.13s-9.4-11.19-9.4-11.19c0,0-1.42-11.19,9.1-11.19M98.6,25.83c19.47,0,20.06,18.94,20.06,18.94,0,0,.97,19.66-20.36,19.66s-19.62-19.01-19.62-19.01c0,0-.75-19.52,19.91-19.52v-.07Z"/>
      <path class="cls-4" d="M65.12,26.26l5.37-5.02s2.54-1.36,5.44.64c2.83,2.01,2.31,4.95,1.57,5.81-.67.86-5.3,4.74-5.3,4.74,0,0-2.69,1.43-5.52-.72-2.83-2.22-2.09-4.81-1.49-5.45"/>
      <path class="cls-5" d="M72.2,19.66l5.82-4.88s3.21-1.94,6.41.93c2.46,2.22,1.04,4.95,1.04,4.95l-6.49,6.31s.67-3.8-1.64-5.45c-3.13-2.3-5.07-1.79-5.07-1.79"/>
      <path class="cls-5" d="M191.32,50.3h10.14s-1.27,14.06-17.3,14.06-18.57-12.27-18.57-19.01,1.64-19.66,18.27-19.66,17.68,14.06,17.68,14.06h-10.37s0-6.17-7.76-6.17-7.83,8.68-7.83,12.27,1.57,10.48,8.05,10.48,7.61-6.1,7.61-6.1"/>
      <path class="cls-5" d="M227.94,39.32h9.55v11.84s-.15,13.34-15.59,13.34-16.26-11.98-16.26-14.42V16.65h10.14v10.19h21.63v6.67h-21.56v15.86s-.67,6.89,5.89,6.89,6.19-5.88,6.19-6.67v-10.26Z"/>
      <path class="cls-5" d="M257.25,26.76h11.34l8.43,24.04,8.21-24.11h10.81l-13.95,36.59h-10.89l-13.95-36.52Z"/>
      <path class="cls-2" d="M137.61,64.21h-2.69s-.3-3.09,2.16-3.09c0,0,.6-.43,0-1-.52-.57-1.86-2.3-1.86-3.95v-10.4h13.28v10.4c0,1.72-1.34,3.44-1.87,3.95-.52.58,0,1,0,1,2.46,0,2.16,3.09,2.16,3.09h-11.26.07ZM147.16,46.14h.97v9.83s0,2.44-1.94,3.8c0,0-.45-.29.15-1.15.67-.86.9-1.08.9-2.37v-10.05l-.07-.07Z"/>
      <path class="cls-3" d="M306.4,41.47s1.05-7.96,7.83-7.96,8.43,7.17,8.43,7.96h-16.26ZM321.99,52.73h10.59s-2.54,11.7-17.31,11.7-19.24-8.32-19.24-18.15,3.73-20.45,17.75-20.45,19.24,9.18,19.24,21.81h-27.15s.3,9.33,8.5,9.33c7.53,0,7.68-4.23,7.68-4.23h-.07Z"/>
      <path class="cls-5" d="M331.54,14.13h54.82v10.83h-20.36v51.87h-13.2V24.97h-21.26v-10.83Z"/>
      <path class="cls-5" d="M242.63,32.5s1.86,1.72,4.62,1.72c3.13,0,5.52-2.65,5.52-2.65v31.78h-10.29l.22-30.92-.07.07Z"/>
      <path class="cls-4" d="M242.48,26.26l5.37-5.02s2.54-1.36,5.44.64c2.83,2.01,2.31,4.95,1.56,5.81-.67.86-5.3,4.74-5.3,4.74,0,0-2.68,1.43-5.52-.72-2.83-2.22-2.09-4.81-1.49-5.45"/>
      <path class="cls-5" d="M249.49,19.66l5.82-4.88s3.21-1.94,6.41.93c2.46,2.22,1.05,4.95,1.05,4.95l-6.49,6.31s.67-3.8-1.64-5.45c-3.13-2.3-5.15-1.79-5.15-1.79"/>
      <path class="cls-4" d="M0,67.16h127.47l-3.58,9.68H0v-9.68Z"/>
      <path class="cls-4" d="M0,.36h139.85l-3.58,9.69H10.37v57.11H0V.36Z"/>
      <path class="cls-3" d="M391.21.86c2.98,0,5.37,2.3,5.37,5.17s-2.39,5.16-5.37,5.16-5.37-2.3-5.37-5.16,2.39-5.17,5.37-5.17ZM391.21,0c3.5,0,6.34,2.73,6.34,6.1s-2.83,6.1-6.34,6.1-6.34-2.72-6.34-6.1,2.83-6.1,6.34-6.1Z"/>
      <path class="cls-5" d="M389.57,5.96h2.01s.6-.07.82-.29c.22-.14.3-.43.3-.79,0-.72-.37-1.08-1.12-1.08h-2.01v2.15ZM394.19,4.95c0,.58-.15,1.01-.37,1.36-.22.36-.6.64-1.05.79l1.49,2.37h-1.57l-1.27-2.23h-1.79v2.23h-1.42V2.65h3.51c.37,0,.75,0,1.04.14.3.07.6.29.82.43.22.21.37.43.52.72.15.29.15.57.15.93l-.07.07Z"/>
      <path class="cls-4" d="M128.22,64.21h-11.34l19.02-50.29h12.75l20.14,53.24h164.24v9.68h-172.3l-11.93-33.43,2.39-2.44s1.57-1.94.45-3.94c-1.12-2.01-4.4-1.65-5.3-1.01l-4.1-10.83-14.02,39.03Z"/>
      <path class="cls-1" d="M141.34,45.7l3.73-5.24s.45-.29.82-.29.45-.43.15-.79c-.22-.36-.37-1.58.67-2.3,1.04-.72,2.46-.57,3.28.14.82.72,1.05,1.87.6,2.51-.45.72-.97,1.29-1.56,1.36-.6.07-.75.21-.67.5.15.29,0,.93-.6,1.72-.6.86-1.42,2.3-1.42,2.3h-5.15l.15.07Z"/>
      <path class="cls-5" d="M65.34,32.5s1.86,1.72,4.62,1.72c3.13,0,5.52-2.65,5.52-2.65v31.78h-10.29l.22-30.92-.07.07Z"/>
      <path class="cls-3" d="M28.34,41.69h15.74s6.64.5,6.64,6.46-6.27,6.82-6.27,6.82h-16.11v-13.28ZM28.42,22.46h12.98s7.91-.43,7.91,5.52c0,5.09-6.49,5.31-6.49,5.31h-14.47v-10.83h.07ZM17.83,13.78h25.66s16.26-.36,16.26,13.06c0,0,1.12,7.82-6.41,9.9,0,0,8.35,2.65,8.35,12.27s-8.35,14.35-15.66,14.35h-28.04V13.78h-.15Z"/>
      <path class="cls-3" d="M98.38,33.94c10.67,0,9.92,9.25,9.92,9.25,0,0,1.94,13.13-9.7,13.13s-9.4-11.19-9.4-11.19c0,0-1.42-11.19,9.1-11.19M98.6,25.83c19.47,0,20.06,18.94,20.06,18.94,0,0,.97,19.66-20.36,19.66s-19.62-19.01-19.62-19.01c0,0-.75-19.52,19.91-19.52v-.07Z"/>
      <path class="cls-4" d="M65.12,26.26l5.37-5.02s2.54-1.36,5.44.64c2.83,2.01,2.31,4.95,1.57,5.81-.67.86-5.3,4.74-5.3,4.74,0,0-2.69,1.43-5.52-.72-2.83-2.22-2.09-4.81-1.49-5.45"/>
      <path class="cls-5" d="M72.2,19.66l5.82-4.88s3.21-1.94,6.41.93c2.46,2.22,1.04,4.95,1.04,4.95l-6.49,6.31s.67-3.8-1.64-5.45c-3.13-2.3-5.07-1.79-5.07-1.79"/>
      <path class="cls-5" d="M191.32,50.3h10.14s-1.27,14.06-17.3,14.06-18.57-12.27-18.57-19.01,1.64-19.66,18.27-19.66,17.68,14.06,17.68,14.06h-10.37s0-6.17-7.76-6.17-7.83,8.68-7.83,12.27,1.57,10.48,8.05,10.48,7.61-6.1,7.61-6.1"/>
      <path class="cls-5" d="M227.94,39.32h9.55v11.84s-.15,13.34-15.59,13.34-16.26-11.98-16.26-14.42V16.65h10.14v10.19h21.63v6.67h-21.56v15.86s-.67,6.89,5.89,6.89,6.19-5.88,6.19-6.67v-10.26Z"/>
      <path class="cls-5" d="M257.25,26.76h11.34l8.43,24.04,8.21-24.11h10.81l-13.95,36.59h-10.89l-13.95-36.52Z"/>
      <path class="cls-2" d="M137.61,64.21h-2.69s-.3-3.09,2.16-3.09c0,0,.6-.43,0-1-.52-.57-1.86-2.3-1.86-3.95v-10.4h13.28v10.4c0,1.72-1.34,3.44-1.87,3.95-.52.58,0,1,0,1,2.46,0,2.16,3.09,2.16,3.09h-11.26.07ZM147.16,46.14h.97v9.83s0,2.44-1.94,3.8c0,0-.45-.29.15-1.15.67-.86.9-1.08.9-2.37v-10.05l-.07-.07Z"/>
      <path class="cls-3" d="M306.4,41.47s1.05-7.96,7.83-7.96,8.43,7.17,8.43,7.96h-16.26ZM321.99,52.73h10.59s-2.54,11.7-17.31,11.7-19.24-8.32-19.24-18.15,3.73-20.45,17.75-20.45,19.24,9.18,19.24,21.81h-27.15s.3,9.33,8.5,9.33c7.53,0,7.68-4.23,7.68-4.23h-.07Z"/>
      <path class="cls-5" d="M331.54,14.13h54.82v10.83h-20.36v51.87h-13.2V24.97h-21.26v-10.83Z"/>
      <path class="cls-5" d="M242.63,32.5s1.86,1.72,4.62,1.72c3.13,0,5.52-2.65,5.52-2.65v31.78h-10.29l.22-30.92-.07.07Z"/>
      <path class="cls-4" d="M242.48,26.26l5.37-5.02s2.54-1.36,5.44.64c2.83,2.01,2.31,4.95,1.56,5.81-.67.86-5.3,4.74-5.3,4.74,0,0-2.68,1.43-5.52-.72-2.83-2.22-2.09-4.81-1.49-5.45"/>
      <path class="cls-5" d="M249.49,19.66l5.82-4.88s3.21-1.94,6.41.93c2.46,2.22,1.05,4.95,1.05,4.95l-6.49,6.31s.67-3.8-1.64-5.45c-3.13-2.3-5.15-1.79-5.15-1.79"/>
      <path class="cls-4" d="M0,67.16h127.47l-3.58,9.68H0v-9.68Z"/>
      <path class="cls-4" d="M0,.36h139.85l-3.58,9.69H10.37v57.11H0V.36Z"/>
      <path class="cls-3" d="M391.21.86c2.98,0,5.37,2.3,5.37,5.17s-2.39,5.16-5.37,5.16-5.37-2.3-5.37-5.16,2.39-5.17,5.37-5.17ZM391.21,0c3.5,0,6.34,2.73,6.34,6.1s-2.83,6.1-6.34,6.1-6.34-2.72-6.34-6.1,2.83-6.1,6.34-6.1Z"/>
      <path class="cls-5" d="M389.57,5.96h2.01s.6-.07.82-.29c.22-.14.3-.43.3-.79,0-.72-.37-1.08-1.12-1.08h-2.01v2.15ZM394.19,4.95c0,.58-.15,1.01-.37,1.36-.22.36-.6.64-1.05.79l1.49,2.37h-1.57l-1.27-2.23h-1.79v2.23h-1.42V2.65h3.51c.37,0,.75,0,1.04.14.3.07.6.29.82.43.22.21.37.43.52.72.15.29.15.57.15.93l-.07.07Z"/>
    </g>
  </g>
</svg>