<?xml version="1.0" encoding="UTF-8"?>
<svg id="Layer_2" data-name="Layer 2" xmlns="http://www.w3.org/2000/svg" viewBox="0 0 257.51 123.28">
  <defs>
    <style>
      .cls-1 {
        fill: #d01f26;
      }
    </style>
  </defs>
  <g id="Layer_1-2" data-name="Layer 1">
    <g>
      <path class="cls-1" d="M140.55,19.08c0-10.52-8.57-19.08-19.08-19.08h-19.07v57.23h38.15c10.51,0,19.07-8.56,19.07-19.08s-8.56-19.07-19.07-19.07M107.16,4.76h14.3c7.6,0,13.83,5.96,14.29,13.45l.03.86h-14.32c-4.34,0-8.33,1.45-11.55,3.91-.63.47-1.23.99-1.8,1.55-.33.32-.66.66-.96,1V4.76ZM134.96,23.84c-2.01,5.67-7.4,9.55-13.49,9.55h-13.48c2-5.68,7.39-9.55,13.48-9.55h13.49ZM140.55,52.46h-33.39v-14.32h14.3c7.18,0,13.43-3.97,16.69-9.84h0c.76-1.4,1.37-2.89,1.77-4.46h.89c7.76.15,14.03,6.51,14.03,14.3s-6.42,14.32-14.3,14.32Z"/>
      <path class="cls-1" d="M14.03,88.97c-4.28,0-8.18,2.28-11.17,4.88v-13.5H0v33.88h2.12l.56-4.5c3.02,2.64,6.99,4.9,11.35,4.9,5.56,0,10.33-4.26,10.33-12.83s-4.77-12.84-10.33-12.84M14.03,111.97c-4.18,0-7.89-2.51-11.17-5.55v-9.44c3.28-2.89,6.99-5.33,11.17-5.33s7.41,3.34,7.41,10.17-3.43,10.15-7.41,10.15Z"/>
      <rect class="cls-1" x="31.59" y="80.36" width="2.86" height="4.83"/>
      <rect class="cls-1" x="31.59" y="89.39" width="2.86" height="24.85"/>
      <path class="cls-1" d="M54.44,88.97c-6.31,0-12.76,4.28-12.76,12.84s6.46,12.83,12.76,12.83,12.76-4.26,12.76-12.83-6.46-12.84-12.76-12.84M54.44,111.97c-4.83,0-9.81-3.38-9.81-10.15s4.98-10.17,9.81-10.17,9.79,3.39,9.79,10.17-4.98,10.15-9.79,10.15Z"/>
      <path class="cls-1" d="M88.54,88.97c-4.36,0-8.32,2.36-11.33,5.03l-.58-4.61h-2.13v33.88h2.86v-13.38c3,2.59,6.9,4.75,11.17,4.75,5.57,0,10.34-4.26,10.34-12.83s-4.77-12.84-10.34-12.84M88.54,111.97c-4.19,0-7.89-2.51-11.17-5.55v-9.44c3.28-2.89,6.99-5.33,11.17-5.33s7.41,3.34,7.41,10.17-3.43,10.15-7.41,10.15Z"/>
      <path class="cls-1" d="M120.61,88.97c-4.35,0-8.04,2.19-11.18,4.85v-13.46h-2.86v33.88h2.86v-17.28c3.45-3.11,7.02-5.32,11.18-5.32,3.76,0,6.3,2.21,6.3,6.62v15.98h2.86v-15.98c0-6.21-3.71-9.29-9.16-9.29"/>
      <path class="cls-1" d="M170.81,94.02l-.58-4.62h-2.13v24.85h2.86v-17.24c2.6-2.86,5.41-5.35,8.96-5.35,1,0,2.01.15,3.07.61l1.12-2.62c-1.27-.41-2.49-.61-3.66-.61-3.91,0-6.94,2.17-9.64,4.98"/>
      <path class="cls-1" d="M219.33,88.97c-3.9,0-7.45,2.35-10.12,5.16-1.3-3.45-4.32-5.16-8.11-5.16s-7,2.24-9.59,4.87l-.57-4.45h-2.12v24.86h2.86v-17.2c2.44-2.85,5.93-5.4,9.42-5.4s5.94,1.95,5.94,7.08v15.51h2.86v-15.98c0-.4,0-.79-.05-1.17,2.44-2.86,5.95-5.45,9.48-5.45s5.93,1.95,5.93,7.08v15.51h2.86v-15.98c0-6.21-3.7-9.29-8.78-9.29"/>
      <path class="cls-1" d="M149.68,88.97c-4.98,0-8.2,1.65-11.59,3.76l1.44,2.2c3.81-2.36,5.98-3.38,10.05-3.38,3.76,0,6.73,1.94,6.73,7.39v3.17c-2.69-1.74-6.05-3.12-9.64-3.12-5.29,0-10,2.88-10,7.97s3.85,7.7,8.79,7.7c4.45,0,8.08-2.33,11-5.15l.59,4.73h2.13v-15.98c0-6.21-4.03-9.29-9.49-9.29M146.03,112.08c-3.54,0-6.45-1.7-6.45-5.13s2.74-5.4,7.09-5.4c3.8,0,6.85,1.46,9.64,3.32v1.87c-3.1,2.94-6.47,5.33-10.28,5.33Z"/>
      <path class="cls-1" d="M248.03,88.97c-4.97,0-8.21,1.65-11.59,3.76l1.43,2.2c3.81-2.36,5.98-3.38,10.06-3.38,3.76,0,6.72,1.94,6.72,7.39v3.17c-2.68-1.74-6.05-3.12-9.63-3.12-5.3,0-10.01,2.88-10.01,7.97s3.85,7.7,8.78,7.7c4.46,0,8.09-2.33,11.01-5.15l.59,4.73h2.11v-15.98c0-6.21-4.02-9.29-9.47-9.29M244.38,112.08c-3.55,0-6.46-1.7-6.46-5.13s2.75-5.4,7.1-5.4c3.79,0,6.86,1.46,9.63,3.32v1.87c-3.1,2.94-6.47,5.33-10.27,5.33Z"/>
    </g>
  </g>
</svg>