<?xml version="1.0" encoding="UTF-8"?>
<svg id="Layer_2" data-name="Layer 2" xmlns="http://www.w3.org/2000/svg" viewBox="0 0 648.21 304.56">
  <defs>
    <style>
      .cls-1 {
        fill: #00b2a0;
      }

      .cls-2 {
        fill: #0a82ab;
      }
    </style>
  </defs>
  <g id="Layer_1-2" data-name="Layer 1">
    <g>
      <g>
        <path class="cls-2" d="M118.22,0h91.43v40.58h-97.36c-17.59,0-30.92,3.23-39.99,9.7-12.36,6.47-21.84,18.99-28.4,37.53-1.45,6.29-2.17,11.69-2.17,16.24,0,15.74,5.89,30.52,17.68,44.33,7.73,7.44,14.98,12.36,21.74,14.77,7.44,3.39,17.62,5.08,30.57,5.08h121.67v40.55h-117.03c-23.85,0-41.53-2.88-53.03-8.7-25.71-11.21-44.1-29.54-55.22-55.05C2.71,132.28,0,118.72,0,104.33c0-31.11,12.3-57.68,36.95-79.7C53.08,12.47,67.67,5.26,80.71,3.05,87.36,1.02,99.88,0,118.22,0h0Z"/>
        <path class="cls-2" d="M285.42.14h140.69v42.9h-141.98c-11.12,0-17.93,5.46-20.44,16.36v3.05c0,6.47,3.63,11.87,10.89,16.22,2.21.86,4.53,1.31,6.93,1.31h71.44c18.34,0,30.81,1.87,37.39,5.64,16.24,7.24,27.43,18.3,33.63,33.18,3.47,9.18,5.21,18.11,5.21,26.8,0,20.88-9.77,38.45-29.28,52.75-5.78,3.66-12.47,6.5-19.99,8.55-5.61,1.26-14.93,1.87-27.97,1.87h-132.71l-.14-40.55,142.58-2.32c11.98,0,19.6-5.89,22.9-17.67l.29-3.92c0-8.32-4.11-14.68-12.32-19.13-2.91-1.54-6.61-2.32-11.16-2.32h-80.13c-20.94,0-38.44-9.18-52.45-27.52-6.07-10.15-9.13-20.44-9.13-30.88v-5.64c0-21.45,10.44-38.4,31.29-50.85,8.69-5.23,20.19-7.83,34.49-7.83h0Z"/>
        <path class="cls-2" d="M424.6.14h111.34c22.11,0,40.08,3.63,53.89,10.87,6,2.8,12.65,7.01,20.01,12.61,25.58,22.02,38.37,49.02,38.37,81s-13.08,59.35-39.25,81.56c-12.85,10.17-28.06,17.07-45.64,20.73-8.3,1.26-17.1,1.87-26.37,1.87h-94.61c-2.8-.47-4.2-2.26-4.2-5.35v-35.06h95.78c16.11,0,28.01-2.08,35.64-6.23,15.25-6.95,26.17-18.84,32.75-35.64,2.7-8.41,4.06-16.09,4.06-23.05,0-18.45-8.4-35.01-25.22-49.69-10.92-8.6-24.63-12.9-41.14-12.9l-118.38,2.17L424.6.14h0Z"/>
      </g>
      <path class="cls-1" d="M63.43,303.66H11.16v-69.34h51.41v13.9h-30.5v12.72h29.1v13.98h-29.1v14.8h31.36v13.94ZM125.91,283.51c0,4.35-1.11,8.08-3.34,11.24-2.21,3.16-5.32,5.61-9.27,7.29-3.97,1.69-8.51,2.51-13.65,2.51-1.44,0-3.2-.07-5.28-.25-2.08-.22-4.85-.72-8.3-1.54-3.45-.83-7.06-2.05-10.78-3.7v-16.99c3.48,2.16,6.93,3.95,10.31,5.39,3.4,1.44,7.02,2.16,10.89,2.16,3.57,0,5.89-.61,6.93-1.8,1.04-1.15,1.58-2.26,1.58-3.3,0-1.87-.9-3.45-2.71-4.74-1.8-1.26-4.42-2.59-7.85-3.95-3.81-1.62-7.15-3.34-10.01-5.24-2.86-1.87-5.21-4.24-7.02-7.08-1.83-2.84-2.73-6.18-2.73-10.06s.92-7.12,2.75-10.13c1.83-3.02,4.63-5.43,8.41-7.22,3.77-1.8,8.37-2.69,13.81-2.69,3.86,0,7.44.36,10.72,1.11,3.29.75,5.98,1.62,8.14,2.51,2.12.97,3.59,1.69,4.38,2.23v16.24c-2.84-2.01-6-3.84-9.48-5.46-3.48-1.58-7.19-2.37-11.17-2.37-2.59,0-4.49.5-5.64,1.47-1.18,1.01-1.76,2.26-1.76,3.74,0,1.36.58,2.51,1.76,3.52,1.15,1.01,3.23,2.23,6.25,3.66,5.34,2.52,9.59,4.74,12.79,6.75,3.22,2.01,5.71,4.31,7.55,6.94,1.82,2.62,2.73,5.85,2.73,9.77h0ZM182.42,283.15c0-5.93-4.29-8.91-12.9-8.91h-8.52v17.78h8.52c8.6,0,12.9-2.94,12.9-8.87ZM179.03,254.3c0-3.34-1.09-5.57-3.3-6.65-2.21-1.11-5.62-1.65-10.3-1.65h-4.42v16.6h4.51c4.76,0,8.21-.54,10.33-1.65,2.12-1.12,3.18-3.31,3.18-6.65h0ZM203.44,284.01c0,5.96-2.05,10.74-6.14,14.3-4.06,3.56-9.77,5.35-17.12,5.35h-40.08v-69.34h33.52c4.35,0,8.12.43,11.34,1.26,3.22.82,5.8,1.98,7.78,3.41,1.98,1.47,3.43,3.16,4.4,5.14.97,1.97,1.45,4.13,1.45,6.47,0,2.51-.5,4.89-1.51,7-1.01,2.16-2.23,3.95-3.74,5.32-1.47,1.4-2.96,2.37-4.46,2.94,4.72,1.87,8.33,4.2,10.81,7.08,2.48,2.84,3.74,6.54,3.74,11.07h0ZM312.64,298.78c-1.49.54-2.78,1.01-3.86,1.4-1.02.34-2.04.67-3.07.97-.99.33-2.4.72-4.28,1.19-3.18.72-6.32,1.29-9.47,1.65-3.16.39-6.48.57-9.99.57-7.04,0-13.55-1.29-19.51-3.84-5.96-2.55-10.74-6.54-14.33-11.96-3.59-5.39-5.39-12.04-5.39-19.9,0-5.07.93-10.06,2.78-14.94,1.85-4.89,4.69-8.77,8.48-11.71,3.14-2.44,6.3-4.31,9.54-5.57,3.22-1.29,6.36-2.16,9.42-2.59,3.09-.43,6.46-.65,10.17-.65,6.11,0,11.14.47,15.11,1.36,3.97.94,8.32,2.12,13.06,3.63v16.42c-3.14-1.83-6.47-3.38-9.95-4.6-3.52-1.26-7.87-1.87-13.11-1.87-6.04,0-10.87,1.15-14.48,3.45-3.63,2.26-6.14,4.99-7.54,8.15-1.44,3.16-2.14,6.25-2.14,9.2,0,3.52.81,6.75,2.46,9.7,1.62,2.95,4.1,5.32,7.4,7.11,3.3,1.76,7.27,2.66,11.95,2.66,2.68,0,5.52-.36,8.5-1.04v-8.16h-9.39v-13.98h27.66v33.34h0ZM367.8,256.24c0-3.2-1.04-5.43-3.14-6.69-2.1-1.29-5.51-1.9-10.26-1.9h-4.4v16.71h4.51c5.1,0,8.59-.58,10.47-1.69,1.89-1.11,2.82-3.27,2.82-6.43h0ZM396.22,303.66h-22.45l-5.46-12.29c-1.99-4.52-3.79-7.8-5.39-9.88-1.62-2.09-3.16-3.45-4.69-4.03-1.51-.58-3.47-.86-5.87-.86h-2.36v27.05h-20.91v-69.34h35.57c5.73,0,10.44,1.19,14.1,3.52,3.67,2.34,6.33,5.17,7.94,8.48,1.62,3.34,2.42,6.54,2.42,9.52,0,3.52-.68,6.47-2.03,8.88-1.35,2.41-2.77,4.17-4.28,5.28-1.51,1.11-3.2,2.16-5.07,3.16,2.25,1.29,4.1,2.84,5.53,4.63,1.45,1.76,3.43,5.39,5.93,10.81l7.01,15.06h0ZM458.59,268.96c0-2.62-.36-4.99-1.15-7.15-.75-2.12-1.91-3.99-3.47-5.61-1.55-1.58-3.43-2.8-5.68-3.7-2.24-.86-4.81-1.29-7.74-1.29-5.6,0-10.02,1.62-13.22,4.89-3.2,3.27-4.79,7.55-4.79,12.86s1.6,9.59,4.83,12.86c3.21,3.3,7.61,4.96,13.18,4.96,3.83,0,7.1-.79,9.79-2.3,2.71-1.51,4.76-3.63,6.16-6.29,1.4-2.69,2.08-5.79,2.08-9.23h0ZM479.91,268.96c0,6.47-1.49,12.43-4.47,17.85-2.98,5.43-7.44,9.74-13.33,12.97-5.91,3.2-13.1,4.78-21.56,4.78s-15.84-1.65-21.77-4.99c-5.93-3.34-10.34-7.72-13.22-13.15-2.89-5.46-4.35-11.24-4.35-17.46s1.44-12.07,4.31-17.5c2.87-5.42,7.29-9.77,13.22-13.11,5.96-3.3,13.22-4.96,21.81-4.96,6.4,0,12.11.93,17.14,2.84,4.99,1.9,9.13,4.49,12.36,7.72,3.24,3.27,5.7,7.04,7.37,11.35,1.65,4.35,2.5,8.88,2.5,13.65h0ZM565.15,272.62c0,5.93-1.11,10.99-3.32,15.16-2.21,4.2-5.16,7.51-8.8,9.92-3.65,2.44-7.6,4.2-11.8,5.28-4.22,1.04-8.44,1.58-12.65,1.58-5.86,0-11.57-1.01-17.12-2.98-5.55-2.01-10.2-5.42-13.94-10.2-3.72-4.82-5.58-11.07-5.58-18.75v-38.3h20.84v32.87c0,4.56.68,8.34,1.98,11.32,1.33,3.02,3.16,5.17,5.52,6.58,2.35,1.36,5.12,2.08,8.32,2.08s5.78-.68,8.16-2.05c2.37-1.37,4.22-3.56,5.53-6.5,1.33-2.98,1.98-6.76,1.98-11.32v-32.98h20.91v38.3h0ZM620.28,256.24c0-3.31-.99-5.57-2.93-6.76-1.94-1.22-5.44-1.83-10.49-1.83h-4.38v16.71h4.49c3.48,0,6.14-.22,8.01-.65,1.87-.43,3.22-1.26,4.06-2.41.83-1.19,1.24-2.87,1.24-5.07h0ZM641.6,256.13c0,2.59-.47,5.1-1.33,7.54-.9,2.44-2.31,4.74-4.27,6.86-1.98,2.12-4.63,3.81-8,5.14-3.36,1.33-7.29,1.98-11.84,1.98h-13.69v26.01h-20.91v-69.34h34.6c4.55,0,8.48.68,11.84,2.01,3.36,1.33,6.02,3.05,8,5.21,1.96,2.12,3.38,4.46,4.27,6.93.86,2.52,1.33,5.07,1.33,7.65h0ZM99.86,124.47h109.11v-40.15h-109.11v40.15ZM439.73,124.54h109.09v-40.15h-109.09v40.15Z"/>
    </g>
  </g>
</svg>