<?xml version="1.0" encoding="UTF-8"?>
<svg id="Layer_2" data-name="Layer 2" xmlns="http://www.w3.org/2000/svg" viewBox="0 0 240.36 123.17">
  <defs>
    <style>
      .cls-1 {
        fill: #00b190;
      }
    </style>
  </defs>
  <g id="Layer_1-2" data-name="Layer 1">
    <g>
      <path class="cls-1" d="M112.68,60.09h0c-8.25-.05-14.93-6.73-14.93-14.96s6.72-15.01,15.02-15.01,15.01,6.72,15.02,14.99h15.03V0h-15.09v19.06c-4.41-2.55-9.51-4.01-14.96-4.01-16.59,0-30.05,13.47-30.05,30.06s13.46,29.95,30.05,29.95c.1,0,30.04,0,30.04,0v-14.97h-30.14Z"/>
      <path class="cls-1" d="M240.36,104.64c-.4-6.9-6.2-12.44-13.17-12.44s-12.81,5.53-13.21,12.44v17.97h7.28v-5.74h11.84v5.74h7.26v-17.97ZM221.27,104.54c.1-3.22,2.7-5.74,5.92-5.74s5.81,2.52,5.91,5.74v5.59s-11.84,0-11.84,0v-5.59Z"/>
      <rect class="cls-1" x="139.65" y="92.74" width="7.25" height="29.87"/>
      <path class="cls-1" d="M205.49,95.91c-.86-.71-2.23-1.7-4.03-2.43-3.15-1.28-7.24-1.9-10.64-.39-2.54,1.14-4.53,3.29-5.12,6.73-.61,3.57,1.07,7.19,5.57,8.79,3.63,1.29,6.21,2.22,7.46,2.67,1.25.44,1.98,1.61,1.7,2.77-.21.88-.81,1.58-2.11,2.08-1.31.5-4.46.94-7.36-.87-.83-.51-1.63-1.28-1.63-1.28l-4.68,4.68s.46.54,1.75,1.51c1.29.96,3.3,2.09,5.61,2.6,2.31.51,5,.59,7.68-.11,2.68-.69,4.92-2.14,6.19-4.21,1.26-2.07,1.68-4.75.78-7.54-.89-2.8-3.13-4.95-6.6-6.13-2.27-.78-5.98-2.1-6.79-2.4-.81-.29-1.26-1.11-1.08-1.94.18-.77.88-1.2,1.79-1.4.91-.19,2.38-.38,4.56.37,1.28.44,2.18,1.11,2.71,1.57.37-.44,3.75-4.48,4.25-5.06"/>
      <polygon class="cls-1" points="154.82 99.38 163.66 99.38 163.66 122.61 170.87 122.61 170.87 99.38 179.71 99.38 179.71 92.75 154.82 92.75 154.82 99.38"/>
      <path class="cls-1" d="M130.61,104.64c-.4-6.91-6.2-12.44-13.17-12.44s-12.81,5.53-13.21,12.44v17.97h7.29v-17.62c.1-3.22,2.7-6.04,5.92-6.04s5.81,2.82,5.91,6.04v17.62h7.26v-17.97Z"/>
      <path class="cls-1" d="M69.62,92.74v29.87h7.25v-7.74h6.21l4.82,7.74h8.64l-6.23-9.5c3.15-2.1,4.9-5.78,4.89-9.24-.01-5.35-3.92-11.12-11.06-11.12-10.68,0-14.53,0-14.53,0M76.92,99.42c2.22,0,5.1,0,7.28,0,1.93,0,3.71,1.88,3.71,4.39,0,2.75-1.95,4.29-3.69,4.29h-7.3v-8.68Z"/>
      <path class="cls-1" d="M60.92,104.64c-.4-6.9-6.2-12.43-13.17-12.43s-12.78,5.53-13.18,12.43h-.03v17.97h7.28v-5.74h11.85v5.74h7.29v-17.97h-.03ZM41.81,104.87v-.33c.11-3.22,2.71-5.74,5.93-5.74s5.81,2.52,5.92,5.74v.21s0,.05,0,.09v5.29h-11.85v-5.26Z"/>
      <path class="cls-1" d="M11.31,92.75H0v29.86h11.31c9.79,0,15.63-5.58,15.63-14.93s-5.84-14.93-15.63-14.93M11.31,116.1h-4.07v-16.84h4.07c5.48,0,8.26,2.83,8.26,8.43s-2.78,8.42-8.26,8.42Z"/>
    </g>
  </g>
</svg>