<?xml version="1.0" encoding="UTF-8"?>
<svg id="Layer_2" data-name="Layer 2" xmlns="http://www.w3.org/2000/svg" viewBox="0 0 227 90.76">
  <defs>
    <style>
      .cls-1 {
        fill: #2a70b8;
      }
    </style>
  </defs>
  <g id="Layer_1-2" data-name="Layer 1">
    <g>
      <path class="cls-1" d="M34.22,5.85l8.11,5.9,8.06,5.9v23.67l-8.06,5.91-8.11,5.9-8.4-5.9-8.11-5.91v-23.67l8.11-5.9,8.4-5.9Z"/>
      <path class="cls-1" d="M16.16,43.48l8.41,5.91,8.1,5.9v23.67l-8.1,5.9-8.41,5.91-8.06-5.91-8.11-5.9v-23.67l8.11-5.9,8.06-5.91Z"/>
      <path class="cls-1" d="M51.93,43.18l8.11,5.91,8.1,5.9v23.67l-8.1,5.9-8.11,5.91-8.06-5.91-8.4-5.9v-23.67l8.4-5.9,8.06-5.91Z"/>
      <path class="cls-1" d="M125.08,70.14c-1.65,0-3,1.35-3,3s1.35,3,3,3,3-1.35,3-3-1.35-3-3-3Z"/>
      <path class="cls-1" d="M171.66,70.04c-1.65,0-3,1.35-3,3s1.35,3,3,3,3-1.35,3-3-1.35-3-3-3Z"/>
      <path class="cls-1" d="M224,70.04c-1.65,0-3,1.35-3,3s1.35,3,3,3,3-1.35,3-3-1.35-3-3-3Z"/>
      <path class="cls-1" d="M107.77,58.99l-5.15-8.56h-8.71l9.86,14.76v10.66h7.91v-10.66l9.91-14.76h-8.71l-5.1,8.56Z"/>
      <path class="cls-1" d="M162.46,60.69c-1.5-.75-3.95-1.5-7.4-2.25-1.4-.3-2.25-.6-2.65-.95-.4-.3-.55-.7-.55-1.1,0-.55.25-1,.7-1.4.45-.4,1.15-.6,2.05-.6,1.1,0,2,.25,2.6.75.65.5,1.05,1.35,1.25,2.45l7.45-.4c-.3-2.65-1.35-4.55-3.05-5.75-1.7-1.2-4.2-1.8-7.45-1.8-2.65,0-4.75.35-6.25,1-1.55.65-2.65,1.6-3.4,2.75-.75,1.15-1.15,2.4-1.15,3.7,0,2,.75,3.65,2.25,4.9,1.45,1.3,3.95,2.3,7.4,3.1,2.1.45,3.45.95,4.05,1.45.6.5.85,1.1.85,1.75,0,.7-.3,1.3-.9,1.85-.6.5-1.45.8-2.6.8-1.5,0-2.65-.5-3.45-1.55-.5-.65-.85-1.55-1-2.8l-7.5.45c.2,2.55,1.15,4.7,2.85,6.35,1.65,1.65,4.65,2.5,9,2.5,2.45,0,4.5-.35,6.15-1.05,1.6-.7,2.9-1.75,3.8-3.15.9-1.35,1.35-2.85,1.35-4.5,0-1.4-.35-2.65-1-3.75-.7-1.1-1.75-2.05-3.25-2.8"/>
      <path class="cls-1" d="M208.28,50.68h-13.06v25.42h7.96v-9.36h4.3c3.15,0,5.5-.7,7.05-2.15,1.55-1.45,2.3-3.45,2.3-6.05s-.7-4.45-2.1-5.81c-1.4-1.35-3.55-2.05-6.4-2.05M208.24,60.79c-.6.55-1.65.8-3.15.8h-1.9v-5.65h2.25c1.45,0,2.45.3,3,.85.55.55.8,1.25.8,2.05s-.3,1.5-.9,2l-.1-.05Z"/>
      <path class="cls-1" d="M67.19,0c1.85,0,3.6.45,5.3,1.4,1.7.95,3.05,2.25,4,4,.95,1.75,1.45,3.55,1.45,5.4s-.5,3.65-1.45,5.35c-.95,1.7-2.3,3.05-4,4-1.7.95-3.5,1.45-5.35,1.45s-3.65-.5-5.35-1.45c-1.7-.95-3.05-2.3-4-4-.95-1.7-1.45-3.5-1.45-5.35s.5-3.7,1.45-5.4c.95-1.75,2.3-3.05,4-4,1.7-.9,3.45-1.4,5.3-1.4M67.19,2.1c-1.5,0-2.9.35-4.25,1.1-1.35.75-2.45,1.8-3.2,3.2-.8,1.4-1.15,2.85-1.15,4.35s.4,2.95,1.15,4.3c.75,1.35,1.85,2.45,3.2,3.2,1.35.75,2.8,1.15,4.3,1.15s2.95-.4,4.3-1.15c1.35-.75,2.45-1.85,3.2-3.2.75-1.35,1.15-2.8,1.15-4.3s-.4-3-1.2-4.35c-.8-1.4-1.85-2.45-3.2-3.2-1.35-.75-2.8-1.1-4.25-1.1h-.05ZM62.34,16.56V5.1h5.95c.75.05,1.35.2,1.8.45.45.25.8.6,1.05,1.1.3.5.45,1.05.45,1.65,0,.85-.25,1.55-.8,2.1-.55.6-1.3.95-2.25,1.1.35.15.6.25.8.45.2.15.45.45.75.9.1.1.35.6.85,1.4l1.35,2.3h-2.85l-.95-1.85c-.65-1.25-1.2-2.05-1.6-2.35s-.95-.5-1.6-.5h-.6v4.7h-2.35ZM64.64,10.05h.95c1.35,0,2.15-.05,2.5-.15.3-.1.6-.3.75-.55.2-.25.3-.55.3-.9s-.1-.6-.25-.85c-.2-.25-.45-.4-.8-.55-.35-.1-1.15-.15-2.5-.15h-.95v3.15Z"/>
      <path class="cls-1" d="M34.22,5.85l8.11,5.9,8.06,5.9v23.67l-8.06,5.91-8.11,5.9-8.4-5.9-8.11-5.91v-23.67l8.11-5.9,8.4-5.9Z"/>
      <path class="cls-1" d="M16.16,43.48l8.41,5.91,8.1,5.9v23.67l-8.1,5.9-8.41,5.91-8.06-5.91-8.11-5.9v-23.67l8.11-5.9,8.06-5.91Z"/>
      <path class="cls-1" d="M51.93,43.18l8.11,5.91,8.1,5.9v23.67l-8.1,5.9-8.11,5.91-8.06-5.91-8.4-5.9v-23.67l8.4-5.9,8.06-5.91Z"/>
      <path class="cls-1" d="M125.08,70.14c-1.65,0-3,1.35-3,3s1.35,3,3,3,3-1.35,3-3-1.35-3-3-3Z"/>
      <path class="cls-1" d="M171.66,70.04c-1.65,0-3,1.35-3,3s1.35,3,3,3,3-1.35,3-3-1.35-3-3-3Z"/>
      <path class="cls-1" d="M224,70.04c-1.65,0-3,1.35-3,3s1.35,3,3,3,3-1.35,3-3-1.35-3-3-3Z"/>
      <path class="cls-1" d="M107.77,58.99l-5.15-8.56h-8.71l9.86,14.76v10.66h7.91v-10.66l9.91-14.76h-8.71l-5.1,8.56Z"/>
      <path class="cls-1" d="M162.46,60.69c-1.5-.75-3.95-1.5-7.4-2.25-1.4-.3-2.25-.6-2.65-.95-.4-.3-.55-.7-.55-1.1,0-.55.25-1,.7-1.4.45-.4,1.15-.6,2.05-.6,1.1,0,2,.25,2.6.75.65.5,1.05,1.35,1.25,2.45l7.45-.4c-.3-2.65-1.35-4.55-3.05-5.75-1.7-1.2-4.2-1.8-7.45-1.8-2.65,0-4.75.35-6.25,1-1.55.65-2.65,1.6-3.4,2.75-.75,1.15-1.15,2.4-1.15,3.7,0,2,.75,3.65,2.25,4.9,1.45,1.3,3.95,2.3,7.4,3.1,2.1.45,3.45.95,4.05,1.45.6.5.85,1.1.85,1.75,0,.7-.3,1.3-.9,1.85-.6.5-1.45.8-2.6.8-1.5,0-2.65-.5-3.45-1.55-.5-.65-.85-1.55-1-2.8l-7.5.45c.2,2.55,1.15,4.7,2.85,6.35,1.65,1.65,4.65,2.5,9,2.5,2.45,0,4.5-.35,6.15-1.05,1.6-.7,2.9-1.75,3.8-3.15.9-1.35,1.35-2.85,1.35-4.5,0-1.4-.35-2.65-1-3.75-.7-1.1-1.75-2.05-3.25-2.8"/>
      <path class="cls-1" d="M208.28,50.68h-13.06v25.42h7.96v-9.36h4.3c3.15,0,5.5-.7,7.05-2.15,1.55-1.45,2.3-3.45,2.3-6.05s-.7-4.45-2.1-5.81c-1.4-1.35-3.55-2.05-6.4-2.05M208.24,60.79c-.6.55-1.65.8-3.15.8h-1.9v-5.65h2.25c1.45,0,2.45.3,3,.85.55.55.8,1.25.8,2.05s-.3,1.5-.9,2l-.1-.05Z"/>
      <path class="cls-1" d="M67.19,0c1.85,0,3.6.45,5.3,1.4,1.7.95,3.05,2.25,4,4,.95,1.75,1.45,3.55,1.45,5.4s-.5,3.65-1.45,5.35c-.95,1.7-2.3,3.05-4,4-1.7.95-3.5,1.45-5.35,1.45s-3.65-.5-5.35-1.45c-1.7-.95-3.05-2.3-4-4-.95-1.7-1.45-3.5-1.45-5.35s.5-3.7,1.45-5.4c.95-1.75,2.3-3.05,4-4,1.7-.9,3.45-1.4,5.3-1.4M67.19,2.1c-1.5,0-2.9.35-4.25,1.1-1.35.75-2.45,1.8-3.2,3.2-.8,1.4-1.15,2.85-1.15,4.35s.4,2.95,1.15,4.3c.75,1.35,1.85,2.45,3.2,3.2,1.35.75,2.8,1.15,4.3,1.15s2.95-.4,4.3-1.15c1.35-.75,2.45-1.85,3.2-3.2.75-1.35,1.15-2.8,1.15-4.3s-.4-3-1.2-4.35c-.8-1.4-1.85-2.45-3.2-3.2-1.35-.75-2.8-1.1-4.25-1.1h-.05ZM62.34,16.56V5.1h5.95c.75.05,1.35.2,1.8.45.45.25.8.6,1.05,1.1.3.5.45,1.05.45,1.65,0,.85-.25,1.55-.8,2.1-.55.6-1.3.95-2.25,1.1.35.15.6.25.8.45.2.15.45.45.75.9.1.1.35.6.85,1.4l1.35,2.3h-2.85l-.95-1.85c-.65-1.25-1.2-2.05-1.6-2.35s-.95-.5-1.6-.5h-.6v4.7h-2.35ZM64.64,10.05h.95c1.35,0,2.15-.05,2.5-.15.3-.1.6-.3.75-.55.2-.25.3-.55.3-.9s-.1-.6-.25-.85c-.2-.25-.45-.4-.8-.55-.35-.1-1.15-.15-2.5-.15h-.95v3.15Z"/>
    </g>
  </g>
</svg>