<?xml version="1.0" encoding="UTF-8"?>
<svg id="Layer_2" data-name="Layer 2" xmlns="http://www.w3.org/2000/svg" viewBox="0 0 284.23 167.1">
  <defs>
    <style>
      .cls-1 {
        fill: #ae72a8;
      }

      .cls-1, .cls-2 {
        fill-rule: evenodd;
      }

      .cls-2 {
        fill: #000001;
      }
    </style>
  </defs>
  <g id="Layer_1-2" data-name="Layer 1">
    <g>
      <path class="cls-2" d="M.13,86.88v.15c.01,3.03.12,4.85,1.49,7.6,1.6,3.19,4.47,5.76,7.87,6.89,2.25.75,3.8.71,6.78.71l25.83-.06c2.19-.01,2.33.41,3.2.61.01.45.16.91.22,1.26.17.98.46,4.16-.27,4.83-.25.23-.84.43-1.29.43l-41.33.1.03,11.19,42.07-.09c.95,0,2.19-.27,2.94-.51,1.48-.49,2.79-1.04,4.04-2,3.02-2.32,4.7-5.48,5.35-9.27.61-3.56.32-6.55-1.1-9.85l-.66-1.31c-.78-1.43-2.46-3.25-3.92-4.21-.48-.32-.7-.45-1.22-.74l-1.31-.66c-2.68-1.22-6.22-.97-9.23-.96l-22.14.05c-1.38,0-1.33-.11-1.96-.12-1.18-.01-2.97.11-3.4-.65-.29-.51-1.03-4.68-.03-5.83.51-.6,1.36-.52,2.43-.53,13.06-.03,26.47-.17,39.49-.09.55,0,1.11.16,1.11-.37l-.02-9.35c0-1.05-.55-1.6-1.6-1.6l-36.41.08-5.96.33c-3.72.72-6.73,2.82-8.59,5.92-1.47,2.45-2.4,5.1-2.39,8.05"/>
      <path class="cls-2" d="M214.5,119.97l11.07-.02-.08-36.41c.38-.03.44-.12.86-.12l33.71-.08c1.19,0,2.05.57,2.46,1.35.81,1.53.99,6.1-.32,7.54-.7.77-2.17.95-3.6.95l-26.81.06c.07.84,1.11,1.75,1.7,2.36.25.26.22.3.43.55l20.84,23.21c.93.88,1.74.64,3.42.63l12.3-.03c-.13-.48-.47-.61-.77-.95l-2.15-2.4c-.21-.25-.18-.29-.43-.55-.37-.39-.54-.5-.88-.96-.3-.4-.59-.56-.89-.96l-5.63-6.3c-.18-.19-.31-.29-.5-.49-.24-.24-.19-.21-.39-.48l-1.34-1.49c-.43-.43-.54-.47-.83-1.01,2.82,0,5.22.18,7.87-.51.94-.24,2.2-.78,2.93-1.26l2.33-1.86c2.95-3.57,4.69-7.22,4.68-12.16,0-3.94-1.31-9.44-4-12.14-.22-.22-.3-.39-.44-.54-.15-.15-.32-.23-.54-.44-1.03-1.02-2.34-1.74-3.73-2.29-1.87-.74-4.39-1.17-6.94-1.16l-44.41.1.11,47.85Z"/>
      <path class="cls-2" d="M106.9,83.31c0,.28.09.37.37.37l15.25-.04c4.65.01,5.9-1.1,5.91,2.33l.07,32.85c0,.68.12.81.13,1.35l11.07-.03-.08-35.18c0-2.16,2.59-1.36,5.16-1.36l16.48-.04-.02-7.26c0-1.64.78-4.06-1.98-4.06l-52.4.12.03,10.95Z"/>
      <path class="cls-1" d="M79.54,7.23c.44.65,1.82,1.56,2.43,2.12l1.23.98c.42.35.84.77,1.26,1.07l9.27,7.7c.14.12.17.18.32.3l13.42,11.17c1.61,1.45,3.47,2.68,5.05,4.17l2.47,2.08c1.5,1.18,2.88,2.6,4.46,3.65-.13.25-.17.29-.24.62-.96,0-2.38-.21-3.23-.33l-7.97-.87c-1.97-.1-5.91-.61-8.11-.85-2.09-.23-4.24-.55-6.41-.71-2.09-.16-4.29-.61-6.4-.72-1.07-.06-2.18-.31-3.2-.36-1.06-.06-2.19-.28-3.2-.36l-16.07-1.74c-1.1-.19-2.11-.18-3.22-.34-2.04-.29-4.24-.47-6.42-.71-2.44-.26-7.28-.95-9.61-1.07-2.11-.11-4.31-.57-6.4-.72l-9.62-1.06c-1.11-.16-2.12-.15-3.22-.34l-8.07-.89c-.68-.04-.94-.12-1.72-.12-.15-.28-.21-.32-.25-.74.67-.16.93-.37,1.47-.62l2.88-1.31c.63-.26.94-.46,1.51-.71l4.41-1.99c.31-.13.45-.22.74-.37.31-.15.51-.2.78-.33l11.06-5.07c.26-.13.48-.25.75-.35l15.47-7.07c1.74-.78,3.46-1.68,5.23-2.4l1.44-.65c.62-.26.84-.49,1.56-.66-.12-.24-.18-.44-.25-.74-1.01.09-2.39.9-3.21,1.22-.59.23-.91.43-1.53.68l-15.18,6.98c-.59.23-.91.44-1.53.69-.31.12-.45.22-.74.37-.3.15-.51.2-.78.32l-16.71,7.67c-.27.12-.48.18-.78.33l-2.28,1.05c-.51.2-.99.51-1.51.71l-2.27,1.05c-1.18.59-2.72,1.03-1.18,2.45.8.74,3.64.58,4.76.77,1.05.18,2.22.25,3.18.38l9.82,1.11c6.56.59,12.98,1.58,19.56,2.18l13.06,1.43c1.89.21,4.93.41,6.56.68,1.14.19,2.12.15,3.25.32.37.06,1.22.18,1.63.21l8.23.86c2.11.23,4.34.55,6.53.72,2.56.19,7.41.96,9.72,1.08,2.19.12,4.37.53,6.53.72,1.76.16,8.91.83,9.72,1.21v.49c-.43.04-.77.17-1.22.26l-9.16,1.93c-1.77.42-3.39.7-5.19,1.1l-20.94,4.43c-.83.17-1.74.35-2.64.56-2.6.61-5.21,1.01-7.82,1.67-1.68.42-3.54.68-5.19,1.09-3.45.85-7,1.39-10.48,2.21-3.47.82-6.97,1.43-10.47,2.22-1.78.4-3.39.72-5.19,1.1-1.26.27-4.07,1.06-5.32,1.09.07.29.12.37.12.74,1.18,0,2.14-.2,3.17-.41l38.03-8.04c8.16-1.63,16.21-3.53,24.39-5.18,3.68-.74,7.26-1.55,10.9-2.28,2.09-.42,6.19-1.22,8.11-1.75,2.84-.78,2.05-2.06.75-3.72-.37-.47-1.41-1.23-1.87-1.57l-29.93-24.8c-1.51-1.19-3.7-3.19-5.07-4.15-.34-.24-1.06-.74-1.48-.86.11-.47.26-.52.37-.99l44.41-.1v-.74c-.39-.03-.44-.12-.86-.12l-43.05.1c-.54,0-1.11.15-1.52.33l-1.31.54Z"/>
      <path class="cls-1" d="M125.13,41.81c0,2.59.68,3.28,1.47,5.3.15.38.2.5.41.82.42.64.59.82,1.19,1.27.43.32,1.03.72,1.5.96.85.43.47.35,1.64.82,2.77,1.11,4.99,1.18,7.76.07,2.19-.88,3.46-2.72,4.66-4.69,1.73-2.85,1.35-5.25.13-8.24-.44-1.07-1.21-2.23-1.96-2.97-.53-.52-1.37-1.28-2.02-1.67-2.71-1.59-6.03-1.87-8.9-.55-1.13.52-2.06,1.15-2.91,2.01-.97.97-.96,1.05-1.6,2.09-.23.37-.22.46-.39.84-.47,1.05-.98,2.44-.98,3.94"/>
      <path class="cls-1" d="M148.63,40.28c-.27.1-.11,0-.3.2l-.68.91c.09,1.03.71,1.56,1.65,1.79,1.75.43,6.76,1.21,8.93,1.64,5.57,1.11,12.12,2.2,17.78,3.22l44.51,8.06c1,.2,1.96.38,2.99.57l17.82,3.3c.62.09.92.12,1.58.15.28.01.62.11.7.07.19-.09.23-.44.12-.64-.14-.23-.59-.19-1.39-.34l-7.47-1.38c-5.83-.97-11.9-2.21-17.74-3.26l-29.68-5.45c-4.01-.77-7.85-1.37-11.84-2.16l-20.76-3.8c-.51-.1-1.03-.18-1.45-.27-.52-.1-1.06-.26-1.57-.27.04-.52-.09-.43,1.18-.67,1.16-.22,2.01-.17,3.3-.4l6.74-.77c.65-.1,1.16-.09,1.81-.17l8.38-.98c.65-.07,1.16-.07,1.81-.16,2.12-.32,4.9-.47,6.76-.75l17.02-1.95c2.29-.34,6.27-.59,8.55-.93.37-.06,1.22-.19,1.63-.22,2.88-.23,7.62-.98,10.2-1.13,2.42-.14,7.83-1.03,10.21-1.13.51-.02.38-.07.75-.11,1.93-.22,4.19-.33,6.04-.61,1.45-.22,5.37-.43,6.93-.71,1.15-.2,2.29-.17,3.44-.38l10.13-1.21c1.27-.12,2.14-.26,2.71-1.11-.72-1.06-2.66-1.52-4.19-2.2l-4.56-1.84c-2.58-1.16-7.44-3.04-10.22-4.16l-12.54-5.04c-.59-.23-4.21-1.39-4.94-1.45,1.44,1.25,10.59,4.71,12.56,5.51.74.3,1.4.58,2.18.9l10.85,4.38c1.43.56,2.81,1.14,4.29,1.73l3.66,1.62c.31.24.2.12.2.67l-6.75.77c-.42.05-1.2.17-1.62.22l-5.12.54c-.37.05-1.22.19-1.63.22l-6.76.75c-.58.05-1.2.08-1.79.18l-13.55,1.48c-.35.05-1.24.2-1.63.22-.64.05-1.18.06-1.82.15-2.15.32-4.5.48-6.78.74l-45.76,5.13c-.65.05-1.18.06-1.82.16l-6.79.72c-.92.04-4.45.64-5.1.44-.42-.13-.94-.44-1.18-.79"/>
      <path class="cls-1" d="M261.16,28.71c0,1.4.01,2.26.62,3.57.35.76.84,1.26,1.39,1.81,2.6,2.61,8.03,2.68,10.5-2.25.28-.56.71-1.86.6-2.61-.14-1.06-.3-1.72-.66-2.55-.63-1.46-1.82-2.63-3.24-3.28-.34-.15-.77-.29-1.2-.39-4.08-.98-8.02,2.4-8.01,5.71"/>
      <path class="cls-1" d="M0,29.8c0,1.83.69,3.45,1.89,4.64.84.83,1.78,1.48,3.02,1.78,2.52.6,5.37-.31,6.91-2.5,1.26-1.79,1.51-4.18.65-6.33-.6-1.5-1.59-2.79-3.09-3.43C4.92,22.07-.01,25.01,0,29.8"/>
      <path class="cls-1" d="M127.64,6.5c0,2.89,3.23,6.26,5.92,6.26,1.28,0,1.89-.08,3.09-.6,1.21-.53,2.45-1.72,2.97-2.94.89-2.12.78-4.52-.6-6.39-.62-.83-.72-.93-1.53-1.54-2.56-1.92-5.68-1.38-7.86.81-.93.93-1.99,2.61-1.99,4.4"/>
      <path class="cls-1" d="M190.25,6.36c0,.69.35,1.83.58,2.38.36.84.65,1.24,1.24,1.83,1.32,1.31,2.19,1.93,4.46,1.93,2.26,0,4.67-1.59,5.57-3.41,1.27-2.57.72-5.19-1.13-7.21-1.58-1.72-4.4-2.48-6.93-1.3-1.23.57-2.58,2.05-3.15,3.25-.27.56-.65,1.79-.65,2.55"/>
      <path class="cls-1" d="M77.82,6.99c0-2.66-1.13-4.64-3.41-5.95-2.05-1.18-4.72-.8-6.54.59-.96.74-1.48,1.37-2.04,2.51-2.01,4.09,1.89,10.51,7.97,8.06,1.26-.51,1.29-.7,2.03-1.3,1.07-.85,1.98-2.46,1.98-3.92"/>
      <path class="cls-2" d="M257.86,149.27l2.46.12c.18.27.37.41.37.86l.03,14.02c0,.45-.19.6-.37.86l-2.46.13v.86s8.37-.02,8.37-.02v-.86c-.69,0-2.83.26-2.83-.61l-.02-7.26c2.99,0,4.58.31,5.03,3.34.49,3.38.18,5.63,3.48,5.62,1.91,0,2.7-2.09,2.7-4.07h-.86c-.01.74-.27,2.77-1.35,2.35-.73-.29-1.43-3.93-1.62-4.54-.33-1.02-.48-1.19-1.19-1.89-.44-.43-1.37-.89-2.13-.95.35-.48,1.1-.12,2.76-.81.8-.33,1.53-.96,1.99-1.71,1.56-2.57-.35-6.35-4.4-6.34l-9.96.02v.86ZM263.91,156.51h-.49l-.02-6.89c.81-.43,2.09-.25,3.44-.25,2.65,0,2.96,1.72,2.96,3.93,0,2.79-2.56,3.05-4.67,3.21-.36.03-.85,0-1.23,0Z"/>
      <path class="cls-2" d="M106.56,149.62c1.29,0,2.7-.08,2.71.98l.03,14.02c0,1.15-1.52.99-2.7.99v.86s8.24-.02,8.24-.02v-.86c-.82,0-1.53.06-2.32-.14-.39-.1-.64-.3-.64-.84v-4.06c-.01-.35,2.69-3.08,2.69-3.08l3.85,5.5c.52.78,1.21,1.54,1.21,2.24-.53.28-1.78.37-2.58.37v.86s8.12-.02,8.12-.02v-.86c-1.79,0-2.26-.36-3.08-1.59l-5.68-8.35c0-.41,1.31-1.49,1.63-1.82l1.65-1.79c.58-.58,1.08-1.21,1.8-1.65.78-.47,1.59-.79,2.78-.79v-.86s-7.38.02-7.38.02v.86c.22,0,1.06.09,1.33.14,2.35.43-1.17,3.34-1.74,4.11l-4.61,4.86-.02-7.88c.02-.63.13-.48.25-.98,1.33-.31,1.35-.25,2.71-.25v-.86s-8.24.02-8.24.02v.86Z"/>
      <path class="cls-2" d="M1.38,149.86l2.34.11c.29.33.35.32.37.61.13,2.15.03,11.97.04,14.89-.78.42-1.74.37-2.71.38v.86s9.97-.02,9.97-.02c1.4,0,3.24-.72,4.11-1.31,1.75-1.19,2.44-3.34,1.48-5.29-.63-1.28-2.78-2.51-4.26-2.63v-.24c2.5-.21,5.57-4.03,2.23-7.05-.62-.56-2.09-1.19-3.23-1.19l-10.33.03v.86ZM8.9,157.1h-2.09s-.01-6.27-.01-6.27c0-1.21,1.38-.87,3.44-.87,4.51,0,3.41,5.52,2.04,6.44-.41.28-.82.52-1.41.57-.76.05-1.12.12-1.97.13ZM8.92,165.83c-1.04,0-2.09-.02-2.09-.98l-.02-6.89c1.77,0,4.86-.2,6.06.7,1.99,1.5,2.01,5.45-.09,6.59-.87.47-2.54.58-3.85.58Z"/>
      <path class="cls-1" d="M251.4,65.76c1.58,0,2.46-.13,3.78-1.27.83-.71,1.28-1.23,1.79-2.27,2.52-5.13-4.52-11.41-9.56-6.45-2.53,2.48-2.05,6.27-.16,8.25.84.88,2.48,1.74,4.16,1.74"/>
      <path class="cls-1" d="M20.86,60.38c0,.98.23,1.69.58,2.5.52,1.22,1.79,2.38,2.96,2.95,2.8,1.37,7.21-.05,8.08-4.07.27-1.25.19-1.29.05-2.51-.16-1.41-.86-2.44-1.87-3.3-1.16-.99-2.3-1.11-3.81-1.35-.62-.1-2.02.24-2.47.43-1.9.82-3.52,3.09-3.51,5.34"/>
      <path class="cls-2" d="M89.34,149.66c.67,0,1.12-.04,1.74.1.61.13.29.09.72.38l.03,14.52c0,.53-.24.75-.64.84l-1.82.15v.86s14.76-.03,14.76-.03l.12-3.32c-.01-1.28.12-2.06.12-3.32h-.99c-.02.81-.31,1.74-.53,2.42-1.1,3.35-3.53,3.38-6.47,3.38-.88,0-1.85,0-1.85-.61l-.02-7.26c2.33,0,4.18.23,4.19,3.8h.98s-.02-8.25-.02-8.25h-.98c0,.44-.13,1.19-.22,1.5-.59,1.99-1.88,2.08-3.95,2.08l-.02-6.64c0-1.13,5.18-.5,5.52-.37,1.9.69,2.81,3.23,2.85,4.9h.98s-.23-2.98-.23-2.98c-.08-.52.01-1.05-.03-1.58-.04-.52-.13-.76-.13-1.48l-14.15.04v.86Z"/>
      <path class="cls-2" d="M241.13,149.31c1.35,0,1.6-.09,2.46.49l.03,14.51c0,.53-.24.75-.64.84l-1.82.15v.86s14.76-.03,14.76-.03c0-2.37.24-4.48.23-6.64h-.98c-.01.81-.31,1.74-.53,2.42-.35,1.07-.98,2.06-1.92,2.63-.28.17-.75.4-1.1.5-.65.19-4.7.45-5.17,0-.28-.26-.14-6.76-.14-7.63,2.34,0,4.18.23,4.19,3.8h.98l-.02-8.24h-.98c0,2.56-1.2,3.57-3.68,3.58h-.49l-.02-6.64c0-1.12,5.18-.5,5.52-.37,1.9.69,2.81,3.23,2.85,4.9h.99l-.38-6.03-14.15.03v.86Z"/>
      <path class="cls-2" d="M125.63,149.57c.49,0,1.45.09,1.73.24.23.12.98.81.98,1.11l.03,12.18c0,1.35-1.1,2.34-2.7,2.34v.99s6.89-.02,6.89-.02c0-1.61-.33-.66-1.56-1.15-.57-.23-.84-.45-1.12-.98-.61-1.13-.41-2.55-.41-3.78,0-2.79-.01-5.57-.02-8.36.3.2.45.47.69.79l9.64,12.51c.26.31.47.6.65.95h1.35s-.03-14.52-.03-14.52c0-.63.43-1.48.77-1.82,1.03-1.03,1.81.51,1.81-1.39l-6.4.02c0,1.55.23.69,1.31,1.15.42.18.8.58,1,.97.44.89.29,2.41.29,3.66,0,2.62.01,5.25.02,7.87l-9.84-12.68c-.26-.3-.54-.57-.65-.95h-4.43s0,.87,0,.87Z"/>
      <path class="cls-2" d="M46.67,157.75c0,.46.1,1.44.2,1.9.14.7.25,1.06.44,1.65.65,1.94,1.95,3.62,3.66,4.71,2.64,1.68,6.59,1.39,8.91-.63,1.21-1.05,1.92-1.74,2.63-3.52,1.04-2.59,1.06-5.51.04-8.1-1.12-2.85-4.11-5.27-6.92-5.26-1.85,0-2.96.02-4.62,1.04-1.48.9-2.24,1.85-3.07,3.21-.78,1.29-1.27,3.46-1.27,5M55.55,165.97c-1.54,0-1.94.11-3.33-.85-.57-.39-1.03-.96-1.36-1.6-1.36-2.66-1.39-8.83.06-11.49,1.47-2.7,4.79-3.13,6.9-1.54,3.65,2.75,3.42,15.46-2.27,15.47Z"/>
      <path class="cls-2" d="M181.49,157.44c0,3.26,1.56,6.52,4.3,8.26,2.28,1.45,5.37,1.41,7.74.16.63-.33,1.87-1.27,2.27-1.79,2.4-3.08,3.02-6.95,1.57-10.62l-1.05-1.9c-1.29-1.76-3.73-3.36-5.86-3.36-1.85,0-2.96.02-4.63,1.04-.87.53-1.59,1.2-2.23,1.96-1.37,1.63-2.11,4.14-2.11,6.25M190.37,165.66c-1.54,0-1.94.12-3.32-.85-3.11-2.16-2.78-10.37-1.3-13.08,1.68-3.08,5.83-3.22,7.69-.74.82,1.09,1.12,2.19,1.35,3.57.42,2.56.32,6.26-.73,8.38-.39.79-.72,1.25-1.38,1.82-.53.45-1.37.89-2.31.9Z"/>
      <path class="cls-2" d="M145.94,157.52c0,1.18.29,2.49.64,3.55.65,1.94,1.95,3.62,3.66,4.71,2.29,1.45,5.37,1.41,7.74.16,1.72-.91,3.07-2.49,3.81-4.31,1.04-2.6,1.06-5.51.04-8.1l-1.06-1.9c-1.29-1.76-3.73-3.36-5.86-3.36-1.85,0-2.96.02-4.62,1.04-.87.53-1.59,1.2-2.23,1.96l-.84,1.25c-.78,1.29-1.27,3.46-1.27,5M154.82,165.74c-1.54,0-1.94.12-3.33-.85-3.11-2.16-2.78-10.37-1.3-13.08,1.47-2.7,4.79-3.13,6.89-1.54.72.54,1.01,1.04,1.43,1.89,1.73,3.42,1.54,13.57-3.7,13.58Z"/>
      <path class="cls-2" d="M72,155.6h.98c.15-.66.25-1.24.41-1.92.16-.64.36-1.3.64-1.81.86-1.6,1.91-2.05,3.48-2.06.69,0,.86.42.86,1.11l.03,13.9c0,1.1-1.47.87-2.95.87v.86s8.37-.02,8.37-.02v-.86c-1.36,0-1.38.07-2.71-.24-.31-1.33-.15-12.92-.16-15.25.56-.49.33-.37,1.6-.37,2.29,0,3.35,3.17,3.65,4.96.14.83-.17.81,1.04.81,0-1.7-.26-4.17-.26-5.29,0-.6.19-1.48-.37-1.48l-14.27.04-.35,6.77Z"/>
      <path class="cls-2" d="M27.83,149.55c0,.61,1.01.25,1.68.53.79.34,2.26,2.98,2.85,3.91l3.04,4.71c.14.22.44.55.44.79v5.78s-.38.34-.38.34l-2.43.16v.86s8.24-.02,8.24-.02v-.86c-3.54,0-2.83.27-2.85-6.14,0-.41.4-1.08.59-1.38l3.21-5.89c1.05-2.08,1.44-2.47,3.44-2.47v-.98s-6.89.01-6.89.01v.86c.52,0,1.25.04,1.68.17,1.36.39.55,2.16.12,2.86l-2.89,4.98c-.11-.39-1.95-3.09-2.23-3.56-.17-.3-.38-.58-.59-.89-2.17-3.24-2.56-3.53.95-3.54v-.86s-8,.02-8,.02v.62Z"/>
      <path class="cls-1" d="M162.87,28.32c1.14-.1,2.74-1.74,3.56-2.35l4.84-4.02c.6-.45,1.02-.88,1.62-1.33l2.8-2.37c.23-.17.19-.12.41-.33l10.89-9.41,1.54-1.78c-1.85-.89-2.75-.61-5.17-.6l-38.38.09c-.49,0-.99,0-1.48,0-.62,0-.67.13-1.35.13v.74c1.04,0,1.62.12,2.71.12,13.44-.04,27.07.03,40.47-.09,1.4-.01,1.6.33,1.6,1.35-.95,0-1.27.22-1.93.78l-14.92,12.39c-1.25,1.14-3.46,2.8-4.54,3.82-1.19,1.12-1.72,1.05-2.67,2.87"/>
      <path class="cls-2" d="M223.91,149.35c2.33,0,2.83-.16,2.83,1.47,0,1.94.15,12.63-.08,13.67-.13.61-.09.29-.38.72l-2.34.13v.86s14.89-.03,14.89-.03l.24-3.32c.05-.66-.05-1.12.07-1.77.1-.56.05-1.21.04-1.8h-.98c0,1.41-.93,3.65-1.57,4.46-.39.5-1.12,1.05-1.79,1.28-1.58.55-3.76.18-5.12.18-.18-.27-.37-.41-.37-.86l-.03-14.02c0-1.24,1.59-.99,2.95-.99v-.86s-8.37.02-8.37.02v.86Z"/>
      <path class="cls-2" d="M164.62,149.48c2.33,0,2.83-.16,2.83,1.47,0,1.94.15,12.63-.08,13.67-.13.61-.09.29-.38.72l-2.34.13v.86s14.89-.03,14.89-.03l.31-5.1c.1-.56.05-1.2.05-1.8h-.98c0,1.82-1.15,4.97-3.36,5.74-1.58.56-3.76.18-5.12.18-.18-.26-.37-.41-.37-.86l-.03-14.02c0-1.24,1.59-.99,2.95-.99v-.86s-8.37.02-8.37.02v.86Z"/>
      <path class="cls-2" d="M204.48,149.39l2.09.12c.57.06.86.24.86.86l.03,11.57c.01,5.29-6.97,4.17-6.15.63.75,0,.9.12,1.6.12.52,0,1.23-.78,1.23-1.6,0-2.75-4.31-2.36-4.3.63,0,1.5-.03,1.87.87,3.07,1.49,2.01,4.8,2.13,6.81,1.13,2.22-1.1,2.65-2.88,2.65-5.46,0-1.94-.19-9.58.1-10.83l2.21-.25v-.86s-8,.02-8,.02v.86Z"/>
      <path class="cls-2" d="M18.97,149.82l1.97.12c.57.06.86.24.86.86l.03,14.03c0,.45-.19.59-.37.86l-2.46.13v.86s8.24-.02,8.24-.02v-.86c-2.45,0-2.83.06-2.84-1.47,0-1.82-.17-13.07.08-13.91.2-.67.98-.61,2.35-.61h.37v-.86s-8.24.02-8.24.02v.86Z"/>
      <path class="cls-2" d="M275.95,149.23c1.3,0,2.83-.11,2.83.98l.03,14.02c0,.45-.19.6-.37.86l-2.46.13v.86s8.24-.02,8.24-.02v-.86c-2.46,0-2.83.06-2.84-1.47,0-1.81-.17-13.07.08-13.91.2-.67.98-.61,2.35-.61h.37s0-.86,0-.86l-8.24.02v.86Z"/>
      <path class="cls-2" d="M213.95,149.37c1.3,0,2.83-.11,2.83.98l.03,14.03c0,.45-.19.59-.37.86l-2.46.13v.86s8.24-.02,8.24-.02v-.86c-2.46,0-2.83.06-2.83-1.47,0-1.82-.17-13.07.08-13.91.2-.67.98-.61,2.35-.61h.37v-.86s-8.24.02-8.24.02v.86Z"/>
      <path class="cls-1" d="M222.5,14.28c-.54-.81-.96-.83-1.85-1.23-.73-.33-1.5-.58-2.26-.94l-9.02-3.64c-1.52-.6-3.24-1.54-4.85-1.54.29,1.09,2.5,1.7,3.98,2.29,2.2.87,11.73,4.87,14,5.05"/>
      <path class="cls-1" d="M148.63,40.28c1.2-.1,2.09-1.21,2.95-1.85.3-.22.64-.5.95-.77l7.12-5.92c1.02-.86,1.69-1.79,2.39-2.53.63-.67.68-.47.83-.89-1.61.43-2.99,1.96-4.28,2.98-.23.18-.24.14-.48.38-.31.3-.53.44-.86.74l-.87.73c-.23.18-.24.14-.48.38l-3.5,3.02c-.24.2-.25.15-.49.37-.65.59-2.75,2.56-3.28,3.36"/>
      <path class="cls-1" d="M133.84,30.35c.4.03.62.23.61-.25l-.03-15.5c0-.41-.22-.36-.62-.37l.04,16.11Z"/>
      <path class="cls-2" d="M216.77,144.19c0,1.88,2.59,1.69,2.58.24,0-2.04-2.59-1.55-2.58-.24"/>
      <path class="cls-2" d="M278.76,144.05c0,1.88,2.59,1.69,2.59.24,0-1.65-1.69-1.58-2.24-1-.13.13-.35.54-.35.76"/>
      <path class="cls-2" d="M21.79,144.64c0,1.51,1.72,1.65,2.25,1.01.68-.83.28-2.12-.77-2.12-.46,0-.77-.03-1.13.35-.12.13-.35.54-.35.76"/>
      <polygon class="cls-1" points="222.99 14.53 222.86 14.29 222.5 14.28 222.63 14.52 222.99 14.53"/>
    </g>
  </g>
</svg>