<?xml version="1.0" encoding="UTF-8"?>
<svg id="Layer_2" data-name="Layer 2" xmlns="http://www.w3.org/2000/svg" viewBox="0 0 395.93 78.71">
  <defs>
    <style>
      .cls-1 {
        fill: #2c3481;
      }
    </style>
  </defs>
  <g id="Layer_1-2" data-name="Layer 1">
    <g>
      <path class="cls-1" d="M232.68,64.12h6.92c3.42,0,4.29,2.15,4.29,3.58,0,2.01-1.12,2.61-1.7,2.9,1.72.64,2.15,1.99,2.15,3.36,0,1.2-.45,4.2-5.63,4.2h-6.03v-14.04ZM235.6,69.61h3.42c1.16,0,2.07-.44,2.07-1.57s-.81-1.51-2.14-1.51h-3.35v3.08ZM235.6,75.74h3.56c1.43,0,2.26-.64,2.26-2.07,0-1.22-1.05-1.7-2.11-1.7h-3.71v3.77Z"/>
      <polygon class="cls-1" points="263.55 64.12 263.55 66.53 256.1 66.53 256.1 69.44 262.93 69.44 262.93 71.85 256.1 71.85 256.1 75.74 263.86 75.74 263.86 78.16 253.19 78.16 253.19 64.12 263.55 64.12"/>
      <path class="cls-1" d="M280.13,64.12l4.93,14.04h-3.17l-.91-2.9h-5.16l-.99,2.9h-3.07l4.99-14.04h3.38ZM276.59,72.84h3.75l-1.92-5.55h-.04l-1.8,5.55Z"/>
      <path class="cls-1" d="M295.93,64.12v9.13c0,1.95,1.12,2.81,2.49,2.81,2.01,0,2.82-.97,2.82-2.67v-9.26h2.92v9.09c0,3.69-2.15,5.32-5.69,5.32-2.38,0-5.47-.93-5.47-5.13v-9.28h2.92Z"/>
      <polygon class="cls-1" points="319.56 78.16 316.64 78.16 316.64 66.53 312.41 66.53 312.41 64.12 323.79 64.12 323.79 66.53 319.56 66.53 319.56 78.16"/>
      <polygon class="cls-1" points="334.43 64.12 337.33 70.23 340.1 64.12 343.42 64.12 338.72 72.86 338.72 78.16 335.81 78.16 335.81 72.86 331.11 64.12 334.43 64.12"/>
      <rect class="cls-1" x="190.07" y="64.3" width="2.92" height="14.04"/>
      <polygon class="cls-1" points="205.4 64.3 210.97 74.07 211.01 74.07 211.01 64.3 213.74 64.3 213.74 78.34 210.8 78.34 205.09 68.32 205.04 68.32 205.04 78.34 202.31 78.34 202.31 64.3 205.4 64.3"/>
      <path class="cls-1" d="M50.49,74.01c0,.79.43,2.28,2.98,2.28,1.39,0,2.94-.35,2.94-1.82,0-1.1-1.07-1.38-2.55-1.74l-2.82-.7c-1.99-.49-3.13-1.66-3.13-3.79,0-1.55.85-4.31,5.4-4.31,4.29,0,5.45,2.82,5.45,4.54h-2.8c-.08-.63-.31-2.13-2.86-2.13-1.12,0-2.46.43-2.46,1.68,0,1.1.91,1.33,1.49,1.47l3.42.83c1.91.49,3.67,1.26,3.67,3.77,0,4.23-4.29,4.6-5.53,4.6-5.11,0-6-2.96-6-4.7h2.81Z"/>
      <path class="cls-1" d="M77.01,68.9c-.23-.85-.7-2.49-3.11-2.49-1.41,0-3.54,1-3.54,4.97,0,2.51,1.06,4.86,3.54,4.86,1.62,0,2.76-.99,3.11-2.71h2.92c-.58,3.06-2.57,5.18-6.09,5.18-3.73,0-6.4-2.53-6.4-7.37s2.82-7.4,6.44-7.4c4.2,0,5.9,2.9,6.05,4.97h-2.92Z"/>
      <rect class="cls-1" x="88.65" y="64.3" width="2.92" height="14.04"/>
      <polygon class="cls-1" points="111.26 64.3 111.26 66.72 103.82 66.72 103.82 69.62 110.64 69.62 110.64 72.04 103.82 72.04 103.82 75.92 111.57 75.92 111.57 78.34 100.9 78.34 100.9 64.3 111.26 64.3"/>
      <polygon class="cls-1" points="123.5 64.3 129.07 74.07 129.11 74.07 129.11 64.3 131.84 64.3 131.84 78.34 128.9 78.34 123.19 68.32 123.14 68.32 123.14 78.34 120.41 78.34 120.41 64.3 123.5 64.3"/>
      <path class="cls-1" d="M150.25,68.9c-.23-.85-.7-2.49-3.11-2.49-1.41,0-3.54,1-3.54,4.97,0,2.51,1.06,4.86,3.54,4.86,1.63,0,2.76-.99,3.11-2.71h2.92c-.58,3.06-2.57,5.18-6.09,5.18-3.73,0-6.4-2.53-6.4-7.37s2.82-7.4,6.44-7.4c4.2,0,5.9,2.9,6.05,4.97h-2.92Z"/>
      <polygon class="cls-1" points="172.26 64.3 172.26 66.72 164.81 66.72 164.81 69.62 171.64 69.62 171.64 72.04 164.81 72.04 164.81 75.92 172.57 75.92 172.57 78.34 161.89 78.34 161.89 64.3 172.26 64.3"/>
      <polygon class="cls-1" points="48.48 0 29.54 28.99 12.31 3.09 12.31 3.01 10.26 0 0 0 0 49.23 12.31 49.23 12.31 23.39 29.54 49.23 46.77 23.39 46.77 49.23 59.08 49.23 59.08 0 48.48 0"/>
      <polygon class="cls-1" points="217.88 0 175.92 0 175.92 12.31 190.74 12.31 190.74 49.23 203.05 49.23 203.05 12.31 217.88 12.31 217.88 0"/>
      <rect class="cls-1" x="226.27" y="0" width="12.31" height="49.23"/>
      <polygon class="cls-1" points="343.98 12.31 343.98 0 302.02 0 302.02 49.23 343.98 49.23 343.98 36.92 314.33 36.92 314.33 30.77 343.98 30.77 343.98 18.46 314.33 18.46 314.33 12.31 343.98 12.31"/>
      <polygon class="cls-1" points="278.97 0 278.97 27.27 260.78 0 249.32 0 249.32 49.23 261.62 49.23 261.62 22.02 280.13 49.23 291.28 49.23 291.28 0 278.97 0"/>
      <polygon class="cls-1" points="395.93 0 382.32 0 372.7 14.36 372.7 14.38 363.11 0 349.47 0 365.92 24.55 349.47 49.23 362.94 49.23 372.7 34.87 372.57 34.87 372.7 34.67 372.7 34.87 372.77 34.78 382.45 49.23 395.93 49.23 379.53 24.62 395.93 0"/>
      <path class="cls-1" d="M153.11,22.16h-15.94v-9.85h15.94c2.72,0,4.92,2.21,4.92,4.92s-2.2,4.93-4.92,4.93M170.33,17.23C170.33,7.72,162.62,0,153.11,0h-28.24v49.23h12.31v-14.76h9.74l9.95,14.76h13.48l-10.7-16.05c6.28-2.58,10.7-8.74,10.7-15.95Z"/>
      <path class="cls-1" d="M124.86,49.23L92.04,0l-11.56,17.14s4.61-6.94,9.29-.01l8.35,12.41h-25.93l-13.13,19.69h13.47l5.01-7.45c8.25-12.25,20.56-12.25,20.57-12.25l13.26,19.69h13.47Z"/>
    </g>
  </g>
</svg>