<?xml version="1.0" encoding="UTF-8"?>
<svg id="Layer_2" data-name="Layer 2" xmlns="http://www.w3.org/2000/svg" xmlns:xlink="http://www.w3.org/1999/xlink" viewBox="0 0 2009.75 595.98">
  <defs>
    <style>
      .cls-1 {
        fill: #231f20;
      }

      .cls-2 {
        fill: url(#linear-gradient);
      }

      .cls-2, .cls-3 {
        fill-rule: evenodd;
      }

      .cls-3 {
        fill: #c7c8c9;
      }
    </style>
    <linearGradient id="linear-gradient" x1="998.04" y1="71.19" x2="1013.35" y2="71.19" gradientTransform="translate(-20106.15 1790.81) scale(20.9 -20.9)" gradientUnits="userSpaceOnUse">
      <stop offset="0" stop-color="#75c044"/>
      <stop offset="1" stop-color="#0756a5"/>
    </linearGradient>
  </defs>
  <g id="Layer_1-2" data-name="Layer 1">
    <g>
      <path class="cls-2" d="M963.05,9.71s-311.43,268.49-109.79,586.27c0,0-334.58-309.19,109.79-586.27"/>
      <path class="cls-3" d="M883.51,0s-311.43,268.49-109.79,586.27c0,0-334.58-309.19,109.79-586.27"/>
      <path class="cls-1" d="M196.42,334.21h-115.01l56.01-138.91M221.81,391.34c5.97,14.56,8.96,23.53,8.96,27.26s-1.49,7.47-4.11,8.96c-2.61,1.49-7.84,2.24-15.68,2.24h-3.36v11.58h87.01v-11.58h-2.61c-5.6,0-10.46-2.61-14.19-7.47-4.11-4.85-9.34-15.31-16.06-30.99l-107.55-252.81h-11.95l-104.18,252.81c-5.97,14.94-11.58,25.02-16.43,30.62-4.85,5.23-11.2,8.22-18.67,8.22H0v11.58h72.44v-11.58h-2.99c-13.07-1.49-19.42-5.97-19.42-13.82s2.61-11.2,7.84-23.53l17.92-43.69h128.08l17.92,42.57v-.37Z"/>
      <path class="cls-1" d="M454.08,167.67c16.06,5.6,30.99,16.06,44.06,31.37,22.41,25.77,33.61,58.63,33.61,97.84s-9.34,72.07-28.01,95.6c-18.67,23.9-43.69,35.85-75.06,35.85s-63.11-12.32-63.11-36.6v-232.64h20.16c29.5,0,52.28,2.99,68.34,8.59M484.33,432.42c19.04-6.35,35.85-17.92,49.66-34.35,26.51-31.74,39.96-70.2,39.96-114.64s-14.56-81.41-44.06-104.18c-17.55-12.32-33.98-20.54-49.66-24.27-15.31-4.11-41.82-6.35-79.17-7.09h-109.41v11.95h3.73c13.07,0,21.28,2.61,25.39,7.47,4.11,4.85,5.97,15.31,5.97,31.37v194.18c0,15.68-1.87,26.14-5.97,30.99-4.11,4.85-12.32,7.47-25.39,7.47h-3.73v11.95h109.41c36.6,0,64.23-2.99,83.27-9.34v-1.49Z"/>
      <path class="cls-1" d="M658.34,398.07c-17.92-26.89-26.89-61.61-26.89-103.81s8.96-76.55,26.89-103.44c17.92-27.26,40.7-40.7,68.71-40.7s50.79,13.44,68.71,40.7c17.92,27.26,26.89,61.61,26.89,103.44s-8.96,76.55-26.89,103.81c-17.92,26.89-40.7,40.33-68.71,40.33s-50.79-13.44-68.71-40.33M827.87,406.66c26.14-29.13,39.21-66.84,39.21-112.4s-4.48-46.3-13.07-68.34c-8.96-22.03-20.91-39.96-35.85-54.15-23.53-22.41-53.77-33.23-90.74-33.23s-74.68,14.56-100.82,43.69c-26.14,29.13-39.21,66.47-39.21,112.4s13.07,83.27,39.21,112.4c26.14,29.13,59.75,43.69,100.82,43.69s74.68-14.56,100.82-43.69l-.37-.37Z"/>
      <path class="cls-1" d="M1042.22,167.67c16.06,5.6,30.99,16.06,44.06,31.37,22.41,25.77,33.61,58.63,33.61,97.84s-9.34,72.07-28.01,95.6c-18.67,23.9-43.69,35.85-75.06,35.85s-63.11-12.32-63.11-36.6v-232.64h20.16c29.5,0,52.28,2.99,68.34,8.59M1072.84,432.42c19.04-6.35,35.47-17.92,49.66-34.35,26.51-31.74,39.96-70.2,39.96-114.64s-14.56-81.41-44.06-104.18c-17.55-12.32-33.98-20.54-49.66-24.27-15.31-4.11-41.82-6.35-79.17-7.09h-109.41v11.95h3.73c13.07,0,21.29,2.61,25.39,7.47,4.11,4.85,5.97,15.31,5.97,31.37v194.18c0,15.68-1.87,26.14-5.97,30.99-4.11,4.85-12.7,7.47-25.39,7.47h-3.73v11.95h109.41c36.6,0,64.23-2.99,83.27-9.34v-1.49Z"/>
      <path class="cls-1" d="M1292.04,292.76h-44.06v100.08c0,12.7,5.23,21.29,16.06,26.51,10.83,4.85,29.5,7.47,56.39,7.47h7.84c11.58,0,20.54-2.99,26.14-8.96,5.6-5.97,9.71-16.43,11.95-31.37l.75-3.73h14.94l-5.97,64.23c-24.27-1.49-42.2-2.61-53.77-2.61s-27.26-.37-44.06-1.49c-16.43-.75-26.51-1.49-29.87-1.49h-73.56v-11.58h3.36c12.7,0,21.29-2.61,25.39-7.84,4.11-5.23,6.35-15.31,6.35-30.62v-193.81c0-16.06-1.87-26.89-5.97-31.37-4.11-4.85-12.7-7.09-25.77-7.09h-3.36v-11.95h194.18l5.97,54.52h-14.94l-.75-4.11c-2.24-16.43-7.09-26.89-14.19-30.25-7.09-3.73-25.77-5.6-56.01-5.6h-40.7v119.12h44.06c20.16,0,33.23-1.87,38.84-5.23,5.6-3.36,8.59-11.58,8.59-23.9v-3.36h14.56v76.55h-14.56v-2.99c0-11.2-2.24-19.04-7.09-23.9-3.73-3.73-17.18-5.6-40.33-5.6"/>
      <path class="cls-1" d="M1500.03,159.08c27.26,0,47.05,4.48,59.37,13.44,12.32,8.96,18.67,23.15,18.67,42.57s-4.48,34.73-13.44,48.17c-8.96,13.07-21.66,22.03-38.09,27.26h-42.57v-131.07M1606.08,441.76h56.76v-11.58h-2.24c-6.72,0-12.7-2.99-18.67-9.34-5.97-6.35-15.31-19.79-28.75-40.7l-19.04-30.99c-13.07-20.54-21.66-33.61-26.51-39.21-4.85-5.97-11.58-11.2-19.79-16.43,23.15-8.22,40.7-19.79,52.28-33.98,11.58-14.19,17.55-31.74,17.55-52.28s-7.09-37.34-21.66-46.3-39.21-13.44-74.31-13.44h-111.28v11.95h2.99c13.44,0,22.03,2.61,26.14,7.47s5.97,15.31,5.97,30.99v194.18c0,15.68-2.24,26.14-5.97,30.99-4.11,4.85-13.07,7.47-26.14,7.47h-2.99v11.58h107.55v-11.58h-1.87c-13.07,0-21.66-2.61-25.77-7.47-4.11-4.85-6.35-15.31-6.35-30.99v-89.62h37.72l84.77,140.03-.37-.75Z"/>
      <path class="cls-1" d="M1826.03,413l-111.28-215.46v194.18c0,15.68,2.24,26.14,6.35,30.99,4.11,4.85,13.07,7.47,26.51,7.47h2.61v11.95h-89.62v-11.95h2.61c13.44,0,22.03-2.61,26.51-7.47,4.11-4.85,6.35-15.31,6.35-30.99v-194.18c0-15.68-2.24-26.14-6.35-30.99s-13.07-7.47-26.51-7.47h-2.61v-11.95h68.34l109.41,211.73,100.45-211.73h70.95v11.95h-2.99c-13.44,0-22.03,2.61-26.14,7.47-4.11,4.85-6.35,15.31-6.35,30.99v187.08c0,20.91,2.24,33.61,6.35,38.46,4.11,4.85,13.07,7.47,26.14,7.47h2.99v11.95h-106.05v-11.95h2.24c13.44,0,22.41-2.24,26.51-7.47,4.11-4.85,6.35-15.31,6.35-30.99v-213.97"/>
    </g>
  </g>
</svg>