<?xml version="1.0" encoding="UTF-8"?>
<svg id="Layer_2" data-name="Layer 2" xmlns="http://www.w3.org/2000/svg" viewBox="0 0 176.18 206.52">
  <defs>
    <style>
      .cls-1 {
        fill: #008bb4;
        fill-rule: evenodd;
      }
    </style>
  </defs>
  <g id="Layer_1-2" data-name="Layer 1">
    <path class="cls-1" d="M23.04,33.13h0c5.96-1.04-3.44,9.73.58,18.69,10.09,14.24,29.59,3.68,34.05.89,1.17-3.84-1.23-3.69-2.56-3.84-3.2-.26-4.99.09-11.05,0,.55-11.3,6.79-12.93,6.8-12.87,1.13-.42.09-1.81.04-2.96-3.02-3.64-2.94-9.51-.07-12.25,3.65-3.46,6.89-3.53,11.46-2.32,5.27.99,8.45,9.24,2.51,14.46-3.07,2.74-5.96,2.95-5.14,5.78,9.78,1.63,3.13,15.25-.4,20.39-9.6,13.99-34.82,20.01-41.04-.31,0,0-1.94-17.96,4.81-25.66M169.86,173.3h0V18.91c0-5.81-3-13.13-15.47-13.13H20.26c-6.78,0-14.26,3.22-14.26,13.64v103.81H.09V19.42C.09,4.59,11.59,0,20.26,0h134.13c16.48,0,21.41,10.68,21.41,18.91l.07,162.29-6.02-7.9ZM.4,140.35h31.22c-8.21,51.73,56.39,48.46,47.67-.07h30.33c2.87,43.65-20.57,64.99-55.06,66.12-22.49.77-58.75-15.49-54.16-66.05ZM115.73,153.81h30.41c3,20.57,33.77,42.31,29.66,52.72h-30.5c-1.99-9.18-29.59-34.78-29.57-52.72ZM146.12,140.38h0l-30.39-.02c7.53-41.38-49.87-42.44-42.86.04h-30.67c-1.44-39.39,19.92-59.67,53.89-59.25,20.88.24,53.72,14.45,50.03,59.23ZM161.37,38.71h0c-.06-.57,3.68,2.98-3.62,9.31-12.8,1.34-70.64,33.15-82.18,10.02-1.17-14.43-1.24-25.38-.15-32.84,3.44-10.2,5.18-8.67,5.78-8.98-1.01,14.24-.62,25.14.46,31.95,10.1,9.8,38,5.63,79.71-9.45ZM53.98,32.2c3.84,1.15,5.89-1.46,5.37-3.16-.07-1.17-.49-1.81-1.26-1.81-1.28-.24-2.71-.51-4.23,1.15-.58.93-.49,2.61.11,3.82Z"/>
  </g>
</svg>