<?xml version="1.0" encoding="UTF-8"?>
<svg id="Layer_2" data-name="Layer 2" xmlns="http://www.w3.org/2000/svg" viewBox="0 0 457.69 86.16">
  <defs>
    <style>
      .cls-1 {
        fill: #007f51;
      }

      .cls-1, .cls-2 {
        fill-rule: evenodd;
      }

      .cls-2 {
        fill: #214489;
      }
    </style>
  </defs>
  <g id="Layer_1-2" data-name="Layer 1">
    <g>
      <path class="cls-2" d="M93.94,45.75h-47.08c-1.41.58-10.73,18.38-11.89,22.87h-10.56c.25-2.66,6.32-14.06,8.4-17.46,1.08-1.83,2.33-3.58,3.33-5.49H2.28c-.42,4.74-3.49,9.65-1.75,18.96,1,5.32,3.83,10.73,8.07,14.22,9.98,8.32,23.54,8.48,35.68,5.65,11.06-2.58,20.38-8.07,29.44-14.72,6.32-4.66,17.72-16.72,20.29-24.12"/>
      <path class="cls-2" d="M347.03,66.21h9.15l11.73-24.45h8.15c-.42,1.83-11.31,22.96-11.48,24.45h9.4c.33-1.33,11.23-23.95,11.64-24.45,1.66,0,5.82-.33,7.15.5.33,4.24-10.23,21.04-10.31,23.95h8.98c.66-.83,9.73-20.04,10.31-21.29,3.33-7.49.92-11.23-7.4-11.23h-31.86l-3.99,7.9c-1.25,2.75-2.58,5.49-3.91,8.23-1,2-7.57,15.39-7.65,16.38"/>
      <path class="cls-2" d="M102.92,77.69h8.98s.08,0,.33-.5c.08-.25.25-.5.42-.75l5.07-10.15c7.24,0,12.73.75,19.05-3.41,4.82-3.24,7.9-6.99,10.48-12.14,1.25-2.41,2.5-5.99,2.58-8.65,0-2.99-1.42-6.15-4.16-7.32-3.16-1.33-6.41-1-10.23-1h-11.48c-.75.83-2.16,4.33-2.66,5.41l-7.98,16.47c-1.41,3.49-3.66,7.4-5.24,10.9-1.16,2.66-4.66,8.82-5.24,11.15M121.3,58.39l8.07-16.8c2.16-.17,8.73-.42,9.98,1.25,1.5,2-1.08,6.65-2.16,8.48-4.16,7.4-8.9,6.99-15.89,6.99v.08Z"/>
      <path class="cls-2" d="M197.32,77.69h9.23l5.57-11.4c6.4-.67,11.73,1.58,19.21-3.49,10.06-6.74,18.38-23.87,8.65-28.19-2.91-1.33-6.82-.92-10.31-.92h-11.48c-.5,2.33-8.48,17.96-10.31,21.96-1.58,3.58-3.83,7.32-5.32,10.9-1.5,3.58-3.49,7.65-5.24,11.15ZM215.95,58.39l8.07-16.8c2.33,0,8.57-.5,9.9,1.33,1.66,2.25-2.66,11.73-7.82,14.22-3.24,1.58-6.41,1.25-10.15,1.25Z"/>
      <path class="cls-1" d="M6.44,37.68h14.39c2.58,0,2,.08,3.08-1.83,2.33-4.32,5.49-7.4,8.4-11.14,2.25-2.83,7.32-6.9,10.31-8.98,3.58-2.58,8.48-5.41,12.56-6.99,10.06-3.74,21.71-5.65,31.19.58,3.99,2.66,6.82,6.74,8.23,11.23,2,6.15,1.08,11.06,0,17.22h2.66c1.33-6.49,2.74-11.89.58-18.55-1.66-5.32-3.91-9.15-8.4-12.73C80.21-.83,65.91-1.16,55.01,1.59c-10.56,2.66-19.88,7.23-28.61,13.81-3.41,2.58-8.48,6.74-11.15,9.98-2.33,2.83-7.9,9.07-8.98,12.39"/>
      <path class="cls-2" d="M411.9,41.26c4.33.33,15.97-.5,18.13.5,2,.83.75,2.83.17,4.24-10.06,1.16-21.37-3.66-28.03,11.06-1,2.33-1.83,5.24,0,7.32,1.91,2.16,5.16,1.83,7.98,1.83h19.71c2.16-4.32,4.74-9.23,6.57-13.64,1.66-4.16,6.32-10.56,4.49-15.05-2.16-5.16-11.64-3.83-16.38-3.83h-4.91c-1.25,0-3.91-.5-4.57.58-.67,1-3.16,6.15-3.24,6.99M424.05,58.89c-2.58-.08-10.81.5-12.39-.58-.25-2.74,2.41-4.57,4.91-4.82,2.16-.25,7.9-.17,10.06,0l-2.58,5.4Z"/>
      <path class="cls-2" d="M291.14,41.26c4.32.33,15.97-.5,18.13.5,1.91.83.75,2.75.17,4.24-6.41.75-11.98-.92-18.3,1.16-7.49,2.5-12.97,13.39-9.65,17.22,1.91,2.16,5.16,1.83,7.98,1.83h19.71c2.08-4.16,10.31-20.63,11.06-23.95,1.5-6.32-2.41-8.65-8.15-8.57-5.74,0-11.81-.25-17.47,0-.5.58-3.49,6.9-3.58,7.57M303.36,58.89c-2.66-.08-10.81.5-12.39-.58-.25-2.74,2.58-4.66,4.91-4.82,2.16-.25,7.9-.17,10.06,0l-2.58,5.4Z"/>
      <path class="cls-2" d="M241.57,66.21h9.23c2.08-3.99,3.83-8.15,5.74-12.22l5.99-12.23c2-.17,7.9-.5,9.23.58.67,1.75-1.25,4.66-2,6.24l-8.4,17.63h9.4c.25-1.08,3.91-8.56,4.74-10.06,1.66-3.33,3.24-6.74,4.82-10.15,1.58-3.24,3.58-7.98-.25-10.81-2.91-2.16-9.65-1.16-13.56-1.5.17-1,2-4.41,2.58-5.66.58-1.08,2.5-4.82,2.58-5.74h-8.9c-.92,1.25-16.97,35.02-18.47,38.34-.67,1.5-2.33,4.16-2.66,5.57"/>
      <path class="cls-2" d="M174.95,33.19c-5.32.83-8.32,1.66-12.81,4.91-3.49,2.49-6.32,5.82-8.4,9.48-3.41,5.91-5.91,15.22,2.25,18.3,2.74,1,4.99.92,7.82.75,15.47-.83,27.61-20.13,23.7-28.44-2.24-4.74-7.82-5.74-12.48-4.99M177.61,46.25c-1,4.07-3.33,8.23-6.9,10.56-3.91,2.58-11.4,3.91-9.9-3.16.83-3.83,3.74-8.23,6.9-10.56,3.49-2.58,11.73-3.91,9.9,3.16Z"/>
      <path class="cls-2" d="M317.42,66.21h8.98l1.83-3.33c2.91-5.74,7.4-16.39,10.23-21.46.33-.58-.33-.58,2.16-.58h2.66c0,2.58-2.49,5.07-2.66,7.15h8.73c1.91-3.74,6.57-11.31,2.58-13.56-2.24-1.25-6.32-.83-9.07-.83h-9.9c-2.66,5.41-5.16,10.81-7.82,16.13-1.33,2.58-2.5,5.49-3.83,8.07-1,2.08-3.33,6.32-3.83,8.32"/>
      <path class="cls-2" d="M184.34,66.21h9.4l21.13-43.91h-9.48s-.08.08-.33.5l-1,2.16c-4.74,9.15-9.73,20.79-14.47,30.19l-5.24,11.14v-.08Z"/>
      <path class="cls-1" d="M42.12,37.68h10.98c2.5-3.33,4.99-7.32,7.82-10.4,1-1,8.23-9.31,8.32-9.81h-5.82c-5.07,0-4.49-1.41-11.06,6.74-1.75,2.16-9.81,11.73-10.31,13.47"/>
      <path class="cls-2" d="M443.76,28.95c.41,3.49,4.41,6.4,8.07,5.66,3.74-.83,6.49-4.08,5.74-7.98-1.58-8.73-14.97-7.32-13.81,2.33ZM454.32,31.94c-5.91,4.66-12.81-3.66-7.15-8.49,6.24-4.82,12.31,4.49,7.15,8.49Z"/>
      <path class="cls-2" d="M447.59,31.44h2.16v-3.16c1,.33,1.08,1.75,2.16,3.16h2c-.5-1.16-1-2.33-1.5-3.33.17-.08,2.58-1.16,1.5-3.08-.75-1.33-2.33-1.41-3.74-1.5-2.99,0-2.75-.41-2.66,2.5v5.32M449.83,26.87v-1.75c.83,0,2.16-.25,2.16.83,0,1.16-1.33.92-2.16.83v.08Z"/>
      <path class="cls-2" d="M93.94,45.75h-47.08c-1.41.58-10.73,18.38-11.89,22.87h-10.56c.25-2.66,6.32-14.06,8.4-17.46,1.08-1.83,2.33-3.58,3.33-5.49H2.28c-.42,4.74-3.49,9.65-1.75,18.96,1,5.32,3.83,10.73,8.07,14.22,9.98,8.32,23.54,8.48,35.68,5.65,11.06-2.58,20.38-8.07,29.44-14.72,6.32-4.66,17.72-16.72,20.29-24.12"/>
      <path class="cls-2" d="M347.03,66.21h9.15l11.73-24.45h8.15c-.42,1.83-11.31,22.96-11.48,24.45h9.4c.33-1.33,11.23-23.95,11.64-24.45,1.66,0,5.82-.33,7.15.5.33,4.24-10.23,21.04-10.31,23.95h8.98c.66-.83,9.73-20.04,10.31-21.29,3.33-7.49.92-11.23-7.4-11.23h-31.86l-3.99,7.9c-1.25,2.75-2.58,5.49-3.91,8.23-1,2-7.57,15.39-7.65,16.38"/>
      <path class="cls-2" d="M102.92,77.69h8.98s.08,0,.33-.5c.08-.25.25-.5.42-.75l5.07-10.15c7.24,0,12.73.75,19.05-3.41,4.82-3.24,7.9-6.99,10.48-12.14,1.25-2.41,2.5-5.99,2.58-8.65,0-2.99-1.42-6.15-4.16-7.32-3.16-1.33-6.41-1-10.23-1h-11.48c-.75.83-2.16,4.33-2.66,5.41l-7.98,16.47c-1.41,3.49-3.66,7.4-5.24,10.9-1.16,2.66-4.66,8.82-5.24,11.15M121.3,58.39l8.07-16.8c2.16-.17,8.73-.42,9.98,1.25,1.5,2-1.08,6.65-2.16,8.48-4.16,7.4-8.9,6.99-15.89,6.99v.08Z"/>
      <path class="cls-2" d="M197.32,77.69h9.23l5.57-11.4c6.4-.67,11.73,1.58,19.21-3.49,10.06-6.74,18.38-23.87,8.65-28.19-2.91-1.33-6.82-.92-10.31-.92h-11.48c-.5,2.33-8.48,17.96-10.31,21.96-1.58,3.58-3.83,7.32-5.32,10.9-1.5,3.58-3.49,7.65-5.24,11.15ZM215.95,58.39l8.07-16.8c2.33,0,8.57-.5,9.9,1.33,1.66,2.25-2.66,11.73-7.82,14.22-3.24,1.58-6.41,1.25-10.15,1.25Z"/>
      <path class="cls-1" d="M6.44,37.68h14.39c2.58,0,2,.08,3.08-1.83,2.33-4.32,5.49-7.4,8.4-11.14,2.25-2.83,7.32-6.9,10.31-8.98,3.58-2.58,8.48-5.41,12.56-6.99,10.06-3.74,21.71-5.65,31.19.58,3.99,2.66,6.82,6.74,8.23,11.23,2,6.15,1.08,11.06,0,17.22h2.66c1.33-6.49,2.74-11.89.58-18.55-1.66-5.32-3.91-9.15-8.4-12.73C80.21-.83,65.91-1.16,55.01,1.59c-10.56,2.66-19.88,7.23-28.61,13.81-3.41,2.58-8.48,6.74-11.15,9.98-2.33,2.83-7.9,9.07-8.98,12.39"/>
      <path class="cls-2" d="M411.9,41.26c4.33.33,15.97-.5,18.13.5,2,.83.75,2.83.17,4.24-10.06,1.16-21.37-3.66-28.03,11.06-1,2.33-1.83,5.24,0,7.32,1.91,2.16,5.16,1.83,7.98,1.83h19.71c2.16-4.32,4.74-9.23,6.57-13.64,1.66-4.16,6.32-10.56,4.49-15.05-2.16-5.16-11.64-3.83-16.38-3.83h-4.91c-1.25,0-3.91-.5-4.57.58-.67,1-3.16,6.15-3.24,6.99M424.05,58.89c-2.58-.08-10.81.5-12.39-.58-.25-2.74,2.41-4.57,4.91-4.82,2.16-.25,7.9-.17,10.06,0l-2.58,5.4Z"/>
      <path class="cls-2" d="M291.14,41.26c4.32.33,15.97-.5,18.13.5,1.91.83.75,2.75.17,4.24-6.41.75-11.98-.92-18.3,1.16-7.49,2.5-12.97,13.39-9.65,17.22,1.91,2.16,5.16,1.83,7.98,1.83h19.71c2.08-4.16,10.31-20.63,11.06-23.95,1.5-6.32-2.41-8.65-8.15-8.57-5.74,0-11.81-.25-17.47,0-.5.58-3.49,6.9-3.58,7.57M303.36,58.89c-2.66-.08-10.81.5-12.39-.58-.25-2.74,2.58-4.66,4.91-4.82,2.16-.25,7.9-.17,10.06,0l-2.58,5.4Z"/>
      <path class="cls-2" d="M241.57,66.21h9.23c2.08-3.99,3.83-8.15,5.74-12.22l5.99-12.23c2-.17,7.9-.5,9.23.58.67,1.75-1.25,4.66-2,6.24l-8.4,17.63h9.4c.25-1.08,3.91-8.56,4.74-10.06,1.66-3.33,3.24-6.74,4.82-10.15,1.58-3.24,3.58-7.98-.25-10.81-2.91-2.16-9.65-1.16-13.56-1.5.17-1,2-4.41,2.58-5.66.58-1.08,2.5-4.82,2.58-5.74h-8.9c-.92,1.25-16.97,35.02-18.47,38.34-.67,1.5-2.33,4.16-2.66,5.57"/>
      <path class="cls-2" d="M174.95,33.19c-5.32.83-8.32,1.66-12.81,4.91-3.49,2.49-6.32,5.82-8.4,9.48-3.41,5.91-5.91,15.22,2.25,18.3,2.74,1,4.99.92,7.82.75,15.47-.83,27.61-20.13,23.7-28.44-2.24-4.74-7.82-5.74-12.48-4.99M177.61,46.25c-1,4.07-3.33,8.23-6.9,10.56-3.91,2.58-11.4,3.91-9.9-3.16.83-3.83,3.74-8.23,6.9-10.56,3.49-2.58,11.73-3.91,9.9,3.16Z"/>
      <path class="cls-2" d="M317.42,66.21h8.98l1.83-3.33c2.91-5.74,7.4-16.39,10.23-21.46.33-.58-.33-.58,2.16-.58h2.66c0,2.58-2.49,5.07-2.66,7.15h8.73c1.91-3.74,6.57-11.31,2.58-13.56-2.24-1.25-6.32-.83-9.07-.83h-9.9c-2.66,5.41-5.16,10.81-7.82,16.13-1.33,2.58-2.5,5.49-3.83,8.07-1,2.08-3.33,6.32-3.83,8.32"/>
      <path class="cls-2" d="M184.34,66.21h9.4l21.13-43.91h-9.48s-.08.08-.33.5l-1,2.16c-4.74,9.15-9.73,20.79-14.47,30.19l-5.24,11.14v-.08Z"/>
      <path class="cls-1" d="M42.12,37.68h10.98c2.5-3.33,4.99-7.32,7.82-10.4,1-1,8.23-9.31,8.32-9.81h-5.82c-5.07,0-4.49-1.41-11.06,6.74-1.75,2.16-9.81,11.73-10.31,13.47"/>
      <path class="cls-2" d="M443.76,28.95c.41,3.49,4.41,6.4,8.07,5.66,3.74-.83,6.49-4.08,5.74-7.98-1.58-8.73-14.97-7.32-13.81,2.33ZM454.32,31.94c-5.91,4.66-12.81-3.66-7.15-8.49,6.24-4.82,12.31,4.49,7.15,8.49Z"/>
      <path class="cls-2" d="M447.59,31.44h2.16v-3.16c1,.33,1.08,1.75,2.16,3.16h2c-.5-1.16-1-2.33-1.5-3.33.17-.08,2.58-1.16,1.5-3.08-.75-1.33-2.33-1.41-3.74-1.5-2.99,0-2.75-.41-2.66,2.5v5.32M449.83,26.87v-1.75c.83,0,2.16-.25,2.16.83,0,1.16-1.33.92-2.16.83v.08Z"/>
    </g>
  </g>
</svg>