<?xml version="1.0" encoding="UTF-8"?>
<svg id="Layer_2" data-name="Layer 2" xmlns="http://www.w3.org/2000/svg" viewBox="0 0 253.85 125.3">
  <defs>
    <style>
      .cls-1 {
        fill: #263b8d;
        fill-rule: evenodd;
      }
    </style>
  </defs>
  <g id="Layer_1-2" data-name="Layer 1">
    <g>
      <path class="cls-1" d="M0,125.16v-34.24h16.34c2.68,0,4.64.34,5.85,1.03,1.4.81,2.47,2.13,3.21,3.99.52,1.27.77,2.59.77,3.97,0,1.76-.41,3.4-1.23,4.94-.82,1.53-1.87,2.6-3.15,3.2,2.93,1.51,4.38,4.19,4.38,8.06,0,2.21-.47,4.09-1.4,5.63-.79,1.3-1.84,2.2-3.12,2.7-1.28.49-3.18.74-5.67.74H0ZM6.43,104.99h8.02c.9,0,1.56-.05,1.98-.16.42-.1.83-.32,1.23-.68.94-.81,1.41-1.94,1.41-3.38,0-1.35-.45-2.37-1.33-3.06-.65-.47-1.71-.7-3.17-.7H6.43v7.97ZM6.43,119.07h8.02c.9,0,1.57-.05,2-.15.44-.1.84-.33,1.21-.68.94-.81,1.41-1.94,1.41-3.38,0-1.36-.45-2.38-1.33-3.06-.65-.47-1.71-.7-3.17-.7H6.43v7.98ZM95.51,100.05v25.11h-6.14v-34.24h8.24l12.02,25.51v-25.51h6.14v34.24h-7.93l-12.33-25.11ZM150.1,90.92h6.43v19.21c0,1.1.07,2.19.07,2.8s.11,1.34.22,2.06c.19,1.54.85,2.6,1.98,3.19,1.13.59,3.09.88,5.88.88h3.1v6.1h-3.77c-3.15,0-5.61-.21-7.05-.63-3.32-1.1-5.44-3.5-6.34-7.2-.17-.75-.31-1.7-.39-2.85-.09-1.14-.14-2.6-.14-4.35v-19.21ZM171.38,125.16v-34.24h6.43v34.24h-6.43ZM181.66,125.16v-6.1h2.47c1.98,0,3.42-.08,4.32-.24.9-.15,1.6-.47,2.11-.94.66-.57,1.11-1.41,1.36-2.54.24-1.11.36-2.86.36-5.21v-19.21h6.43v19.21c0,2.33-.08,4.33-.22,5.53-.15,1.2-.45,2.34-.91,3.43-1.16,2.89-3.25,4.77-6.29,5.62-1.45.3-3.78.45-6.5.45h-3.14ZM225.52,90.92v6.1h-7.16c-2.02,0-3.86.26-4.78.5-.92.24-1.83,1-2.51,2-.42.62-.7,1.27-.88,1.95-.17.69-.32,1.89-.45,3.59h15.78v6.1h-15.78c.22,2.96.98,5.02,2.27,6.17,1.3,1.16,3.51,1.73,6.64,1.73h6.87v6.1h-7.16c-2.15,0-4.31-.16-6-.48-2.71-.5-4.87-1.84-6.49-4.03-2.29-3.15-3.43-7.42-3.43-12.79,0-5.98,1.62-10.62,4.85-13.92,1.1-1.1,2.36-1.98,3.53-2.34,1.17-.36,2.93-.68,5.07-.68h9.64ZM236.18,90.92v34.24h-6.13v-34.24h6.13ZM236.38,107.83l9.38-16.91h8.07l-10.38,16.91,10.4,17.33h-8.08l-9.38-17.33ZM118.16,125.16l11.84-34.24h7.3l11.83,34.24h-7.43l-2.87-7.93h-10.34l-2.88,7.93h-7.43ZM133.65,99.15l-3.77,11.99h7.51l-3.74-11.99ZM42.56,90.64c2.83,0,5.32.58,7.47,1.75,2.52,1.37,4.29,3.71,5.31,7,.8,2.61,1.2,5.64,1.2,9.09s-.49,6.51-1.47,9.05c-1.21,3.06-3.07,5.2-5.58,6.42-1.87.9-4.03,1.35-6.5,1.35-3.18,0-5.96-.72-8.33-2.16-1.96-1.21-3.47-3.08-4.52-5.64-1.06-2.56-1.58-5.68-1.58-9.36,0-6.52,1.34-11.16,4.03-13.94,1.15-1.17,2.55-2.05,4.19-2.66,1.65-.6,3.57-.9,5.77-.9ZM42.59,96.41c-2.79,0-4.78,1.1-5.97,3.29-.94,1.72-1.41,4.46-1.41,8.22,0,4.02.59,6.95,1.76,8.83,1.18,1.88,3.05,2.81,5.64,2.81s4.33-.94,5.51-2.82c1.18-1.88,1.77-4.8,1.77-8.74,0-3.56-.47-6.29-1.43-8.2-1.13-2.25-3.09-3.38-5.87-3.38ZM60.3,125.16v-6.1h12.77c2.03,0,3.4-.25,4.1-.75.99-.7,1.47-1.78,1.47-3.24,0-1.63-.57-2.85-1.72-3.64-.67-.44-1.71-.65-3.13-.65h-5.19c-3.14,0-5.42-.7-6.84-2.11-.87-.87-1.55-1.98-2.04-3.34-.5-1.35-.75-2.79-.75-4.32,0-2.39.57-4.59,1.72-6.59,1.09-1.89,2.89-3.01,5.39-3.36.82-.1,2.06-.15,3.72-.15h13.86v6.1h-12.51c-1.84,0-3.09.1-3.73.3-1.26.38-1.89,1.55-1.89,3.49,0,1.63.52,2.74,1.58,3.31.34.18.8.32,1.39.42.59.1,1.29.15,2.13.15h4.48c1.14,0,2.13.06,2.99.18.86.11,1.58.3,2.15.55,1.96.81,3.33,2.24,4.08,4.31.6,1.67.9,3.44.9,5.32,0,2.04-.39,3.9-1.17,5.6-1.08,2.3-2.72,3.7-4.93,4.19-1.16.21-2.76.32-4.8.32h-14.05Z"/>
      <path class="cls-1" d="M126.39,0c17.99,0,32.58,14.59,32.58,32.58s-14.59,32.58-32.58,32.58-32.58-14.59-32.58-32.58S108.39,0,126.39,0M129.68,58.44c11.78-1.48,21.1-10.82,22.57-22.6h-22.57v22.6ZM129.68,6.72c11.78,1.48,21.11,10.82,22.57,22.6h-22.57V6.72Z"/>
    </g>
  </g>
</svg>