<?xml version="1.0" encoding="UTF-8"?>
<svg id="Layer_2" data-name="Layer 2" xmlns="http://www.w3.org/2000/svg" viewBox="0 0 145.07 61.36">
  <defs>
    <style>
      .cls-1 {
        fill: #fff;
      }

      .cls-2 {
        fill-rule: evenodd;
      }

      .cls-2, .cls-3 {
        fill: #808285;
      }

      .cls-4 {
        fill: #00ab9c;
      }
    </style>
  </defs>
  <g id="Layer_1-2" data-name="Layer 1">
    <g>
      <path class="cls-3" d="M26.46,0h20.46v9.08h-21.79c-3.94,0-6.92.72-8.95,2.17-2.77,1.45-4.89,4.25-6.36,8.4-.33,1.41-.49,2.62-.49,3.63,0,3.52,1.32,6.83,3.96,9.92,1.73,1.66,3.35,2.77,4.86,3.3,1.66.76,3.94,1.14,6.84,1.14h27.23v9.08h-26.19c-5.34,0-9.29-.64-11.87-1.95-5.75-2.51-9.87-6.61-12.36-12.32-1.21-2.85-1.81-5.89-1.81-9.11,0-6.96,2.75-12.91,8.27-17.84C11.88,2.79,15.14,1.18,18.06.68c1.49-.45,4.29-.68,8.39-.68"/>
      <path class="cls-3" d="M63.88.03h31.49v9.6h-31.78c-2.49,0-4.01,1.22-4.57,3.66v.68c0,1.45.81,2.66,2.44,3.63.49.19,1.01.29,1.55.29h15.99c4.1,0,6.9.42,8.37,1.26,3.63,1.62,6.14,4.1,7.53,7.42.78,2.05,1.17,4.05,1.17,6,0,4.67-2.19,8.61-6.55,11.81-1.29.82-2.79,1.45-4.47,1.91-1.25.28-3.34.42-6.26.42h-29.7l-.03-9.08,31.91-.52c2.68,0,4.39-1.32,5.13-3.96l.06-.88c0-1.86-.92-3.28-2.76-4.28-.65-.35-1.48-.52-2.5-.52h-17.93c-4.69,0-8.6-2.05-11.74-6.16-1.36-2.27-2.04-4.58-2.04-6.91v-1.26c0-4.8,2.34-8.6,7-11.38,1.95-1.17,4.52-1.75,7.72-1.75"/>
      <path class="cls-4" d="M15.53,26.88c-.94-1.9-1.06-4.52.28-6.81,0,0,17.83,3,25.12-.51,0,0-1.11,1.61-1.28,4.03.17,2.41,1.28,4.03,1.28,4.03-7.29-3.51-25.4-.74-25.4-.74"/>
      <path class="cls-4" d="M42.04,27.87c.95,0,1.73-1.92,1.73-4.28s-.77-4.28-1.73-4.28-1.73,1.92-1.73,4.28.77,4.28,1.73,4.28"/>
      <path class="cls-1" d="M40.74,20.46c.2-.16.42-.29.67-.38.77-.3,1.41-.01,1.89.45.14.25.26.55.36.88-.41-.79-1.03-1.38-1.94-1.17-.49.12-.91.4-1.25.79.08-.21.17-.4.27-.57"/>
      <path class="cls-1" d="M42.29,22.17c.83.27.59,1.46.06,1.86-.86.67-1.53-.49-1.52-1.05.02-.58.46-1.82,1.5-1.64,1.37.24,1.32,2.02.94,2.78-.4.81-1.49,1.75-2.71,1.35-.02,0-.04-.01-.06-.02-.05-.13-.1-.26-.15-.4.62.36,1.4.3,2.05-.27.72-.63,1.01-1.61.65-2.41-.26-.58-.96-1.1-1.52-.42-.27.33-.41.79-.38,1.18.03.46.58,1.21,1.1.59.22-.26.46-1.14-.05-1.3-.19-.06-.11-.3.08-.24"/>
      <path class="cls-1" d="M30.03,20.41c-.98,1.81-1.13,3.49-.15,5.34.41.76-.75,1.44-1.16.68-1.21-2.27-1.06-4.46.15-6.69.41-.76,1.57-.08,1.16.68"/>
      <path class="cls-3" d="M26.93,25.13c0,1.13.92,2.05,2.05,2.05s2.05-.92,2.05-2.05-.92-2.05-2.05-2.05-2.05.92-2.05,2.05"/>
      <polygon class="cls-3" points="29.4 25.28 32.32 28.78 31 28.83 30.79 29.91 27.94 26.5 29.4 25.28"/>
      <polygon class="cls-3" points="28.55 25.28 25.63 28.78 26.95 28.83 27.16 29.91 30.01 26.5 28.55 25.28"/>
      <path class="cls-4" d="M99.14,26.88c-.94-1.9-1.06-4.52.27-6.81,0,0,17.83,3,25.12-.51,0,0-1.11,1.61-1.28,4.03.17,2.41,1.28,4.03,1.28,4.03-7.29-3.51-25.4-.74-25.4-.74"/>
      <path class="cls-4" d="M125.65,27.87c.95,0,1.73-1.92,1.73-4.28s-.77-4.28-1.73-4.28-1.73,1.92-1.73,4.28.77,4.28,1.73,4.28"/>
      <path class="cls-1" d="M124.36,20.46c.2-.16.42-.29.67-.38.77-.3,1.41-.01,1.89.45.14.25.26.55.36.88-.41-.79-1.03-1.38-1.94-1.17-.49.12-.91.4-1.25.79.08-.21.17-.4.27-.57"/>
      <path class="cls-1" d="M125.91,22.17c.83.27.59,1.46.06,1.86-.86.67-1.53-.49-1.52-1.05.02-.58.46-1.82,1.5-1.64,1.37.24,1.32,2.02.94,2.78-.4.81-1.49,1.75-2.71,1.35-.02,0-.04-.01-.06-.02-.05-.13-.1-.26-.15-.4.62.36,1.4.3,2.05-.27.72-.63,1.01-1.61.65-2.41-.26-.58-.96-1.1-1.52-.42-.27.33-.41.79-.38,1.18.03.46.58,1.21,1.1.59.22-.26.46-1.14-.05-1.3-.19-.06-.11-.3.08-.24"/>
      <path class="cls-1" d="M113.65,20.41c-.98,1.81-1.13,3.49-.15,5.34.41.76-.75,1.44-1.16.68-1.21-2.27-1.06-4.46.15-6.69.41-.76,1.57-.08,1.16.68"/>
      <path class="cls-3" d="M110.54,25.13c0,1.13.92,2.05,2.05,2.05s2.05-.92,2.05-2.05-.92-2.05-2.05-2.05-2.05.92-2.05,2.05"/>
      <polygon class="cls-3" points="113.01 25.28 115.94 28.78 114.62 28.83 114.41 29.91 111.55 26.5 113.01 25.28"/>
      <polygon class="cls-3" points="112.17 25.28 109.25 28.78 110.56 28.83 110.78 29.91 113.63 26.5 112.17 25.28"/>
      <path class="cls-2" d="M100.13,40.41l-2.4,1.8,2.74,2.05c.4-.47.64-1.09.64-1.75,0-.75-.31-1.44-.8-1.93-.06-.06-.12-.12-.18-.17M104.2,40.79c.39.22.67.77.67,1.4,0,.6-.25,1.11-.6,1.36h12.92v.24h-13.05c.43.2.73.76.73,1.43,0,.83-.48,1.51-1.07,1.51h16.38c2.07,0,4.04-.14,5.9-.42,3.94-.82,7.34-2.36,10.22-4.64,5.86-4.97,8.78-11.06,8.78-18.25s-2.86-13.2-8.59-18.13c-1.65-1.25-3.14-2.19-4.48-2.82-3.09-1.62-7.11-2.43-12.06-2.43h-24.92l-.67,9.6,1.01-.02,25.49-.47c3.69,0,6.76.96,9.21,2.89,3.76,3.28,5.64,6.99,5.64,11.12,0,1.56-.31,3.28-.91,5.16-1.47,3.76-3.92,6.42-7.33,7.98-1.71.93-4.37,1.39-7.98,1.39h-15.43c.46.17.81.76.81,1.46,0,.64-.29,1.19-.69,1.41h13.01v.24h-12.99ZM103.68,43.69c.06,0,.12-.02.18-.05v-.1h.18c.36-.24.6-.76.6-1.36,0-.63-.28-1.17-.67-1.4h-.12v-.06c-.06-.02-.12-.04-.18-.05.04,0,.07,0,.11,0,.02,0,.05,0,.07,0v-.04s-.05,0-.07,0c-.04,0-.07,0-.11,0,.06,0,.12-.02.18-.05v-.04h.09c.4-.22.69-.77.69-1.41,0-.7-.34-1.29-.81-1.46h-.08l-3.29,2.47s.09.08.14.13c.57.57.92,1.36.92,2.23,0,.76-.27,1.46-.72,2.01l2.93,2.19c.51-.11.91-.74.91-1.49,0-.67-.31-1.23-.73-1.43h-.05v-.02c-.06-.02-.12-.04-.18-.05.04,0,.07,0,.11,0,.02,0,.05,0,.07,0v-.02s-.05,0-.07,0c-.04,0-.07,0-.11,0Z"/>
      <polygon class="cls-4" points="14.17 54.4 14.17 61.23 11.56 61.23 11.56 54.4 9.7 54.4 9.7 52.24 16.03 52.24 16.03 54.4 14.17 54.4"/>
      <path class="cls-4" d="M19.57,55.88h1.18c.35,0,.62-.07.83-.22.21-.15.32-.36.32-.64,0-.58-.35-.86-1.06-.86h-1.27v1.72ZM24.8,61.23h-3.05l-1.32-3.43h-.85v3.43h-2.76v-8.98h4.69c1.03,0,1.84.24,2.41.73.57.48.86,1.12.86,1.92,0,.52-.11.98-.32,1.37-.21.4-.64.75-1.28,1.05l1.62,3.91Z"/>
      <path class="cls-4" d="M28.63,57.5h1.44l-.72-2.6-.72,2.6ZM31.07,61.23l-.49-1.76h-2.45l-.53,1.76h-2.24l2.78-8.98h2.91l2.83,8.98h-2.81Z"/>
      <rect class="cls-4" x="34.69" y="52.24" width="2.76" height="8.98"/>
      <path class="cls-4" d="M46.69,61.23h-2.25l-2.47-3.96c-.32-.51-.63-1.13-.94-1.87.15.58.22,1.07.22,1.47v4.35h-2.24v-8.98h2.6l2.09,3.29c.42.65.73,1.23.94,1.73-.14-.77-.21-1.55-.21-2.36v-2.66h2.25v8.98Z"/>
      <rect class="cls-4" x="48.25" y="52.24" width="2.76" height="8.98"/>
      <path class="cls-4" d="M60.25,61.23h-2.25l-2.47-3.96c-.32-.51-.63-1.13-.94-1.87.15.58.22,1.07.22,1.47v4.35h-2.24v-8.98h2.6l2.09,3.29c.42.65.73,1.23.94,1.73-.14-.77-.21-1.55-.21-2.36v-2.66h2.25v8.98Z"/>
      <path class="cls-4" d="M69.57,56.19v5.04h-1.35c-.11-.37-.23-.69-.36-.94-.56.72-1.38,1.08-2.48,1.08-1.16,0-2.11-.4-2.86-1.21-.75-.81-1.12-1.9-1.12-3.28s.36-2.47,1.08-3.38c.72-.91,1.8-1.37,3.22-1.37,1.07,0,1.93.27,2.59.81.65.55,1.08,1.32,1.27,2.32l-2.67.26c-.13-.93-.55-1.4-1.24-1.4-.91,0-1.36.86-1.36,2.58,0,1.04.15,1.72.44,2.06.29.33.64.5,1.06.5.33,0,.62-.1.86-.3.24-.2.35-.48.36-.83h-1.49v-1.91h4.05Z"/>
      <path class="cls-4" d="M76.91,57.5h1.44l-.72-2.6-.72,2.6ZM79.35,61.23l-.49-1.76h-2.45l-.53,1.76h-2.24l2.78-8.98h2.91l2.83,8.98h-2.81Z"/>
      <path class="cls-4" d="M87.63,57.81l2.52.15c-.12,1.1-.53,1.94-1.22,2.52-.69.59-1.55.88-2.56.88-1.22,0-2.2-.4-2.95-1.21-.75-.81-1.12-1.92-1.12-3.34s.35-2.54,1.06-3.41c.71-.86,1.7-1.29,2.97-1.29,1.19,0,2.1.33,2.74.98.64.66,1,1.53,1.08,2.61l-2.57.14c0-.6-.11-1.03-.34-1.3-.23-.27-.5-.4-.81-.4-.86,0-1.3.87-1.3,2.62,0,.98.11,1.65.34,2,.23.35.54.53.95.53.72,0,1.13-.49,1.22-1.48"/>
      <path class="cls-4" d="M93.54,57.5h1.44l-.72-2.6-.72,2.6ZM95.98,61.23l-.49-1.76h-2.45l-.53,1.76h-2.24l2.78-8.98h2.91l2.83,8.98h-2.81Z"/>
      <path class="cls-4" d="M102.36,59.17h.72c.46,0,.84-.22,1.15-.67.31-.44.47-1.05.47-1.81,0-.66-.14-1.22-.42-1.7-.28-.47-.68-.71-1.21-.71h-.72v4.89ZM99.6,61.23v-8.98h3.47c1.51,0,2.64.45,3.39,1.34.75.9,1.12,1.93,1.12,3.11,0,1.34-.4,2.43-1.21,3.27-.8.84-1.85,1.26-3.13,1.26h-3.65Z"/>
      <polygon class="cls-4" points="126.36 52.24 126.36 61.23 123.8 61.23 123.8 54.8 122.13 61.23 120.38 61.23 118.65 54.8 118.65 61.23 116.59 61.23 116.59 52.24 120.19 52.24 121.49 57.02 122.73 52.24 126.36 52.24"/>
      <polygon class="cls-4" points="135.37 52.24 132.56 57.43 132.56 61.23 129.88 61.23 129.88 57.43 126.86 52.24 129.88 52.24 131.46 55.2 132.96 52.24 135.37 52.24"/>
      <polygon class="cls-4" points="115.51 59.09 115.51 61.23 108.75 61.23 108.75 52.24 115.51 52.24 115.51 54.32 111.46 54.32 111.46 55.62 114.73 55.62 114.73 57.62 111.46 57.62 111.46 59.09 115.51 59.09"/>
    </g>
  </g>
</svg>