<?xml version="1.0" encoding="UTF-8"?>
<svg id="Layer_2" data-name="Layer 2" xmlns="http://www.w3.org/2000/svg" viewBox="0 0 267.84 80.12">
  <defs>
    <style>
      .cls-1 {
        fill: #3f4196;
        fill-rule: evenodd;
      }
    </style>
  </defs>
  <g id="Layer_1-2" data-name="Layer 1">
    <g>
      <path class="cls-1" d="M0,6.71c3.06,2.27,16.61,5.84,24.3,20.38,2.58,4.88,5.25,11.3,5.49,16.91.26,5.98.03,16.37-.93,22.15-2.92,3.46-6.38,1.8-9.85-.17-5.31-3.02-3.64-4.78-2.81-9.32-1.89-1.67-4.85-2.79-7.36-4.9-1.45-1.22-5.09-5.12-6.02-5.63-.03-.01,5.6,17.96,5.6,17.96,0,0-6.59-17.43-6.62-17.39-3.26,3.96.47,13.94,3.46,17.21l3.16.18c9.25,10.06,12.25,11.56,25.43,16.03,3.41-.92,11.25-4.03,14.35-5.82,6.33-3.67,6.53-5.28,10.96-10.13l3.29.1c3.32-3.78,6.78-13.11,3.86-17.45,0,0-7.14,17.36-7.14,17.35-.01,0,6.12-18.01,6.1-18.01-1.96.56-3.98,3.73-5.67,5.26-2.42,2.18-5.9,3.52-7.94,5.24.96,4.74,2.78,5.1-2.28,8.92-2.86,2.17-6.6,3.61-9.85,1.62-1.83-5.26-1.19-15.32-1.19-21.23-.01-8.98,9.74-25.06,15.65-30.48,1.77-1.62,12.67-9.07,12.82-9.45-8.66-1.14-21.6,5.72-27.69,15.01-1.87,2.85-3.09,7.46-4.6,9.37-2.05-3.01-2.25-11.91-11.72-18.33C18.12,8.92,4.65,4.09,0,6.71h0Z"/>
      <path class="cls-1" d="M87.51,63.38c-.85-3-.85-43.66,0-46.65,22.08-6.97,32.95,28.96,20.2,41.95-2.35,2.39-4.01,4.37-7.57,4.95-2.74.45-10.11.47-12.64-.25ZM75.78,11.59c-.49,2.28.66,2.65,1.19,5,1.02,4.49-.8,46.94.65,52.07,3.62,1.02,14.28.39,18.72.4,5.85.02,9.95-1.07,14.77-4.34,18.2-12.36,18.85-54.37-16.75-54.32-2.65,0-16.95.62-18.58,1.19h0Z"/>
      <path class="cls-1" d="M160.65,22.66c.78,12.94,1.43,46.36,1.43,46.36h5.66s.04-33.06.04-33.06l24.96,26.96c3.61,3.85,6.16,6.28,12.1,5.6.06-1.66-.1-45.43-.26-45.89-2.41.03-5.24.06-7.48.03.08,2.57.48,23.9.47,32.02-1.89-.5-21.66-23.09-25.93-27.31-3.39-3.34-4.64-5.6-10.98-4.71h0Z"/>
      <path class="cls-1" d="M230.38,31.23c8.59-3.33,13.28-5.66,24.25-3.43-.24.88-12.22,17.53-13.97,20.16-2.18,3.29-13.45,21.09-13.45,21.09,2.85.03,35.19-.02,38.89,0,1.99-2.21,2.37-6.55.66-8.95-2.38,1.38-2,3.71-10.93,3.7l-15.33.04c1.26-5.63,26.79-41.17,26.79-41.17-.98-.27-34.65-.88-36.11-.66-2.43,2.32-2.77,6.5-.79,9.23h0Z"/>
      <path class="cls-1" d="M127.84,22.63c0,2.1.66,2.7,1.17,4.53,1.05,3.73.74,41.91.74,41.91,0,0,17.02-.1,21.13-.09,0,0,4.38,1.15,3.72-5.46,0,0-12.25.37-16.34-.13-.76-2.68-.76-12.35,0-15.02,2.91-.82,13.68-.22,13.68-.22,0,0,.24-3.79-.1-5.58-3.93-.03-9.61-.09-13.58-.1-.9-3.19-.89-12.21.66-15.18,8.6-2.43,11.39,3.1,14.5,3.29,1.72-2.41,1.17-5.67-.57-7.92-.18-.11-21.08-.06-25.01-.02h0Z"/>
      <path class="cls-1" d="M214.96,21.6l2.08-3.79,9.87,1.8s-4.74-3.83-6.28-5.79l4.52-3.59-7.41.07c-2.09-1.39-2.87-2.73-5.14-4.65l.17,5.8-6.59,3.8,5.64,1.51c1.19,3.57.21,5.94.21,5.94,4.82,1.36,3.88,34.39,3.98,45.95l9.06.1c.14-11.11-.38-31.36-.85-42.86-.34-5.29-4.05-4.29-9.26-4.29h0Z"/>
      <path class="cls-1" d="M32.42.52c-9.95,3.71-4.82,20.51,4.54,17.09,8.93-3.26,5.47-20.81-4.54-17.09Z"/>
    </g>
  </g>
</svg>