<?xml version="1.0" encoding="UTF-8"?>
<svg id="Layer_2" data-name="Layer 2" xmlns="http://www.w3.org/2000/svg" viewBox="0 0 920.17 296.38">
  <defs>
    <style>
      .cls-1 {
        fill: #0d82ab;
      }
    </style>
  </defs>
  <g id="Layer_1-2" data-name="Layer 1">
    <g>
      <path class="cls-1" d="M167.82,0h129.8v57.61h-138.22c-24.96,0-43.89,4.58-56.76,13.77-17.54,9.18-31,26.95-40.31,53.27-2.07,8.93-3.08,16.6-3.08,23.05,0,22.34,8.36,43.33,25.09,62.93,10.96,10.56,21.26,17.55,30.85,20.97,10.55,4.82,25.02,7.21,43.4,7.21h152.39l202.39-3.29c17.01,0,27.82-8.37,32.51-25.09l.41-5.56c0-11.8-5.84-20.83-17.49-27.16-4.13-2.19-9.38-3.28-15.83-3.28h-113.76c-29.73,0-54.57-13.03-74.46-39.07-8.62-14.41-12.95-29.02-12.95-43.84v-8.01c0-30.45,14.81-54.52,44.42-72.18C368.56,3.9,384.88.2,405.17.2h355.63c31.39,0,56.89,5.16,76.5,15.43,8.52,3.98,17.95,9.94,28.41,17.9,36.31,31.27,54.46,69.59,54.46,114.98s-18.57,84.25-55.71,115.78c-18.23,14.43-39.84,24.23-64.8,29.43-11.78,1.78-24.28,2.66-37.44,2.66h-134.3c-3.98-.66-5.97-3.22-5.97-7.6v-49.77h135.96c22.87,0,39.75-2.96,50.6-8.85,21.64-9.87,37.15-26.75,46.48-50.59,3.83-11.93,5.77-22.85,5.77-32.72,0-26.19-11.93-49.7-35.8-70.54-15.5-12.21-34.96-18.3-58.4-18.3l-161.67,2.96v.12h-201.55c-15.78,0-25.45,7.75-29.02,23.23v4.34c0,9.18,5.15,16.85,15.46,23.02,3.13,1.23,6.42,1.87,9.84,1.87h101.42c26.04,0,43.73,2.65,53.07,8.01,23.05,10.28,38.94,25.99,47.73,47.1,4.92,13.03,7.4,25.7,7.4,38.05,0,29.64-13.88,54.58-41.57,74.88-8.21,5.2-17.69,9.23-28.38,12.14-7.96,1.78-21.19,2.66-39.71,2.66H165.16c-33.86,0-58.96-4.08-75.28-12.35-36.49-15.91-62.6-41.93-78.38-78.15C3.85,187.78,0,168.53,0,148.1c0-44.17,17.47-81.88,52.45-113.14,22.89-17.27,43.6-27.49,62.12-30.63,9.43-2.88,27.21-4.33,53.25-4.33"/>
      <rect class="cls-1" x="141.75" y="119.69" width="154.89" height="57"/>
      <rect class="cls-1" x="624.21" y="119.8" width="154.86" height="56.99"/>
    </g>
  </g>
</svg>