<?xml version="1.0" encoding="UTF-8"?>
<svg id="Layer_2" data-name="Layer 2" xmlns="http://www.w3.org/2000/svg" viewBox="0 0 191.52 97.26">
  <defs>
    <style>
      .cls-1 {
        fill: #15a1db;
      }

      .cls-2 {
        fill: #353e48;
      }
    </style>
  </defs>
  <g id="Layer_1-2" data-name="Layer 1">
    <g>
      <path class="cls-1" d="M156.7,97.26c13.41,0,25.57-5.45,34.37-14.21.6-.6.6-1.65-.05-2.25l-2.55-2.4c-.6-.6-1.6-.6-2.15,0-7.61,7.56-18.06,12.21-29.57,12.21s-22.01-4.65-29.57-12.21c-.6-.6-1.55-.6-2.15,0l-2.55,2.4c-.65.6-.7,1.65-.05,2.25,8.81,8.8,20.96,14.21,34.37,14.21"/>
      <path class="cls-1" d="M156.7,0c13.41,0,25.57,5.45,34.37,14.21.6.6.6,1.65-.05,2.25l-2.55,2.4c-.6.55-1.6.55-2.15,0-7.61-7.55-18.06-12.21-29.57-12.21s-22.01,4.65-29.57,12.21c-.6.6-1.55.6-2.15,0l-2.55-2.4c-.65-.6-.7-1.65-.05-2.25,8.81-8.81,20.96-14.21,34.37-14.21"/>
      <path class="cls-2" d="M74.6,36.37c-1.4-.9-3-1.3-4.85-1.3-2.9,0-5.15.95-6.76,2.9v-1c0-.85-.7-1.6-1.6-1.6h-3.4c-.85,0-1.6.7-1.6,1.6v23.77c0,.85.7,1.6,1.6,1.6h3.55c.85,0,1.6-.7,1.6-1.6v-14.66c0-1.6.45-2.85,1.4-3.75.85-.8,1.8-1.2,2.95-1.2.9,0,1.75.25,2.55.8.65.4,1.45.35,2-.2l2.85-2.85c.7-.7.6-1.9-.25-2.45M22.66,26.62c.85,0,1.6-.7,1.6-1.6v-3.25c0-.85-.7-1.6-1.6-1.6H1.6c-.85,0-1.6.7-1.6,1.6v38.92c0,.85.7,1.6,1.6,1.6h4c.85,0,1.6-.7,1.6-1.6v-18.91h12.96c.85,0,1.6-.7,1.6-1.6v-3.25c0-.85-.7-1.6-1.6-1.6H7.2v-8.76h15.46v.05ZM134.64,35.02c-3.45,0-6.25.85-8.41,2.5-.75.6-.8,1.7-.1,2.35l2,2c.55.55,1.45.6,2.05.1,1.15-.85,2.5-1.3,4.15-1.3,3.35,0,5,1.4,5,4.25v1.35h-6.35c-3,0-5.3.75-6.9,2.25-1.5,1.4-2.25,3.25-2.25,5.55,0,2.5.75,4.5,2.2,6.05,1.6,1.6,3.85,2.4,6.86,2.4,2.7,0,4.9-.85,6.6-2.6v.75c0,.85.7,1.6,1.6,1.6h3.4c.85,0,1.6-.7,1.6-1.6v-16.16c0-6.35-3.8-9.51-11.46-9.51ZM139.39,52.33c0,1.65-.35,2.8-1,3.4-.9.85-2.3,1.3-4.25,1.3-2.6,0-3.85-1.05-3.85-3.1s1.25-3.05,3.75-3.05h5.3v1.45h.05ZM108.97,35.02c-3.2,0-5.9,1.15-8.05,3.4-1.65-2.25-4.05-3.4-7.15-3.4-2.7,0-4.9.95-6.71,2.8v-.9c0-.85-.7-1.6-1.6-1.6h-3.4c-.85,0-1.6.7-1.6,1.6v23.77c0,.85.7,1.6,1.6,1.6h3.55c.85,0,1.6-.7,1.6-1.6v-14.71c0-1.7.5-2.95,1.45-3.8.8-.7,1.8-1.1,3.05-1.1s2.2.35,3,1.1c.95.85,1.45,2.15,1.45,3.8v14.71c0,.85.7,1.6,1.6,1.6h3.55c.85,0,1.6-.7,1.6-1.6v-14.86c0-1.6.5-2.85,1.5-3.7.8-.7,1.8-1.05,3-1.05s2.2.35,3,1.1c.95.85,1.45,2.15,1.45,3.8v14.71c0,.85.7,1.6,1.6,1.6h3.55c.85,0,1.6-.7,1.6-1.6v-15.61c0-3.15-1-5.7-2.95-7.66-1.6-1.6-3.8-2.4-6.61-2.4h-.1ZM36.12,46.28c-3,0-5.3.75-6.9,2.25-1.5,1.4-2.25,3.25-2.25,5.55,0,2.5.75,4.5,2.2,6.05,1.6,1.6,3.85,2.4,6.86,2.4,2.7,0,4.9-.85,6.6-2.6v.75c0,.85.7,1.6,1.6,1.6h3.4c.85,0,1.6-.7,1.6-1.6v-16.16c0-6.35-3.8-9.51-11.46-9.51-3.45,0-6.25.85-8.41,2.5-.75.6-.8,1.7-.1,2.35l2,2c.55.55,1.45.6,2.05.1,1.15-.85,2.5-1.3,4.15-1.3,3.35,0,5,1.4,5,4.25v1.35h-6.35ZM42.48,52.33c0,1.65-.35,2.8-1,3.4-.9.85-2.3,1.3-4.25,1.3-2.6,0-3.85-1.05-3.85-3.1s1.25-3.05,3.75-3.05h5.3v1.45h.05ZM183.17,70.44l-16.21-22.21,10.91-10.15c1.05-1,.35-2.75-1.1-2.75h-5.2c-.4,0-.8.15-1.1.4l-10.46,9.81V14.76c0-.85-.7-1.6-1.6-1.6h-3.55c-.85,0-1.6.7-1.6,1.6v45.93c0,.85.7,1.6,1.6,1.6h3.55c.85,0,1.6-.7,1.6-1.6v-5.95l2-1.85,15.71,21.56c.5.7,1.5.85,2.2.35l2.85-2.1c.7-.5.85-1.5.35-2.2l.05-.05Z"/>
    </g>
  </g>
</svg>