<?xml version="1.0" encoding="UTF-8"?>
<svg id="Layer_2" data-name="Layer 2" xmlns="http://www.w3.org/2000/svg" viewBox="0 0 382.55 382.6">
  <defs>
    <style>
      .cls-1 {
        fill: #3aace2;
      }
    </style>
  </defs>
  <g id="Layer_1-2" data-name="Layer 1">
    <g>
      <path class="cls-1" d="M54.44,0h273.95c28.62,1.04,53.08,25.56,54.16,54.12v273.75c-1.01,30.19-27.2,54.39-57.17,54.71-91.03-.22-182.09.38-273.1-.3-28.27-2.7-51.23-26.19-52.29-54.69V54.69C1.04,25.52,25.26,1.17,54.44,0ZM54.96,5.55C27.13,7.28,5.98,29.62,5.46,57.41v267.44c.9,29.23,22.59,50.67,51.71,51.96h267.93c28.15-.55,50.54-22.09,52-50.23V55.69c-1.37-27.32-22.64-48.75-49.99-50.22l-272.14.08Z"/>
      <path class="cls-1" d="M116.38,27.63v32.24h31.98v54.69h-32.55v32.53h-38.89v-13.53h25.35v-32.53h33.7v-27.63h-31.98v-32.96s-.4-.43-.43-.43h-29.53v32.82h-31.69v28.35s.4.43.43.43h31.83v170.41h27.65v-88.37h13.54v101.32h-53.58V115.14H29.24s-.43-.4-.43-.43v-54.26h32.98s.43-.4.43-.43V27.63h54.16Z"/>
      <path class="cls-1" d="M119.55,197.75v-14.39h59.21c35.62-3.02,59.3-38.53,47.38-72.69-6.01-17.23-21.11-30.89-38.94-35.06-11.19-2.62-23.37-.8-34.81-1.35v-14.39c11.33.45,23.16-1,34.33.95,23.83,4.18,44.25,21.22,52.59,43.88,15.98,43.41-13.84,89.2-59.42,93.04h-60.35Z"/>
      <path class="cls-1" d="M206.54,205.09c.1-.32.66-.47.99-.45,13.57.59,27.72-.73,41.22,0,10.34.56,19.88,3.74,22.75,14.69,2.57,9.82.53,22.85-9.35,27.79-1.52.76-3.01.99-4.51,1.54-.31.11-.5-.15-.38.44l18.71,31.25h-17.72l-17-29.65h-18.58v29.65h-16.13v-75.27ZM222.68,237.19h23.77c.96,0,3.89-.76,4.9-1.15,6.78-2.56,6.81-14.25,0-16.71-1.09-.39-4.43-1.14-5.48-1.14h-23.19v19Z"/>
      <path class="cls-1" d="M343.38,204.66v13.24h-29.24c-1.12,0-4.37.93-5.53,1.39-6.67,2.63-9.31,9.4-9.31,16.17h44.07v13.24h-44.36c.29,8.14,1.84,15.42,10.66,17.71.62.16,2.88.72,3.32.72h29.96s.43.4.43.43v12.81h-32.4c-12.66-.42-23.26-7.82-27.44-19.79-3.64-10.41-3.23-27.55.94-37.78,9.83-24.07,38.25-17.02,58.9-18.14Z"/>
      <path class="cls-1" d="M141.15,204.66v47.08c.62,11.94,4.56,17.42,17.14,17.42,9.97,0,16.13-3.84,16.81-14.3.71-16.7.15-33.47.33-50.19h15.84v49.38c1.17,24.61-23.09,29.62-42.74,26.58-14.77-2.29-23.71-10.74-23.24-26.29v-49.67h15.86Z"/>
      <path class="cls-1" d="M120.12,156.02v-14.39h44.79c7.06,0,12.53-8.48,11.95-15.11-.44-5.11-5.96-12.24-11.37-12.24h-12.96s-.43-.4-.43-.43v-13.96h14.84c2.35,0,8.07,2.36,10.23,3.59,17.14,9.81,18.99,33.58,3.87,46.2-3.28,2.73-10.71,6.34-14.97,6.34h-45.95Z"/>
      <path class="cls-1" d="M261.42,293.9l11.81,34.83,12.1-34.83h13.97v46.06h-9.51l.72-35.41-12.09,35.43c-1.45-.25-9.6.38-10.1-.3l-11.95-35.12.86,35.4h-9.79v-46.06h13.97Z"/>
      <path class="cls-1" d="M227.14,293.9c6.83.69,11.38,4.72,11.95,11.66.59,7.13-1.85,13.32-9.21,15.25l11.23,19.15h-10.51l-10.23-18.13h-11.52v18.13h-9.79v-46.06h28.09ZM208.85,313.76h13.4c.25,0,2.17-.28,2.53-.35,2.62-.55,4.28-1.93,4.53-4.68.23-2.48-.26-4.87-2.73-5.9-.67-.28-2.84-.86-3.46-.86h-14.26v11.8Z"/>
      <path class="cls-1" d="M67.7,323.83v16.12h-9.79v-46.06h27.51c16.41,0,18.93,25.92,3.09,29.28-6.58,1.4-14.09.29-20.81.66ZM67.7,315.77h12.82c.58,0,2.71-.46,3.38-.66,5.53-1.65,5.98-10.39.71-12.35-.57-.21-2.76-.81-3.22-.81h-13.68v13.82Z"/>
      <path class="cls-1" d="M115.52,293.9v18.71h17.43s.43-.4.43-.43v-18.28h9.51v46.06h-9.51v-19.29h-17.86v19.29h-9.79v-46.06h9.79Z"/>
      <path class="cls-1" d="M146.34,339.95l19.72-46.08,10.2.06,19.34,46.02h-10.66l-4.07-10.9h-19.94c-.41.14-.46.51-.63.83-1.47,2.84-2.37,7.04-3.6,10.08h-10.37ZM163.91,320.67h13.54l-7.05-17.27-6.48,17.27Z"/>
      <path class="cls-1" d="M302.76,339.95l19.72-46.08,10.2.06,19.34,46.02h-10.51l-4.35-10.96-20.25.05-3.77,10.91h-10.37ZM320.33,320.67h13.54l-7.05-17.27-6.48,17.27Z"/>
    </g>
  </g>
</svg>