<?xml version="1.0" encoding="UTF-8"?>
<svg id="Layer_2" data-name="Layer 2" xmlns="http://www.w3.org/2000/svg" xmlns:xlink="http://www.w3.org/1999/xlink" viewBox="0 0 257.74 182.83">
  <defs>
    <style>
      .cls-1 {
        clip-path: url(#clippath-6);
      }

      .cls-2 {
        clip-path: url(#clippath-7);
      }

      .cls-3 {
        clip-path: url(#clippath-4);
      }

      .cls-4 {
        fill: url(#linear-gradient-2);
      }

      .cls-5 {
        fill: url(#linear-gradient-10);
      }

      .cls-6 {
        clip-path: url(#clippath-9);
      }

      .cls-7 {
        fill: url(#linear-gradient-4);
      }

      .cls-8 {
        fill: #404041;
      }

      .cls-9 {
        fill: url(#linear-gradient-3);
      }

      .cls-10 {
        clip-path: url(#clippath-1);
      }

      .cls-11 {
        fill: url(#linear-gradient-5);
      }

      .cls-12 {
        clip-path: url(#clippath-5);
      }

      .cls-13 {
        clip-path: url(#clippath-8);
      }

      .cls-14 {
        fill: url(#linear-gradient-8);
      }

      .cls-15 {
        clip-path: url(#clippath-3);
      }

      .cls-16 {
        clip-rule: evenodd;
        fill: none;
      }

      .cls-17 {
        fill: url(#linear-gradient-7);
      }

      .cls-18 {
        fill: url(#linear-gradient-9);
      }

      .cls-19 {
        fill: url(#linear-gradient-6);
      }

      .cls-20 {
        clip-path: url(#clippath-2);
      }

      .cls-21 {
        fill: url(#linear-gradient);
      }

      .cls-22 {
        clip-path: url(#clippath);
      }
    </style>
    <clipPath id="clippath">
      <path class="cls-16" d="M50.55,127.35h-8.48c.28.89.39,1.28.39,2.01,0,.45-.05,1-.17,1.79-.06.5-.17.89-.22,1.12l-6.14,23.77-9.87-28.68H9.37c.34.89.39,1.28.39,2.01,0,.45-.06,1-.17,1.79-.05.5-.11.89-.17,1.12l-6.75,25.94c-.56,2.18-1.06,3.63-1.67,4.8-.22.39-.45.72-1,1.56h8.48c-.28-.89-.39-1.23-.39-2.01,0-.39.06-1,.17-1.78.05-.45.17-.84.22-1.12l5.97-23.21,9.65,28.12h15.73l7.98-30.86c.56-2.18,1.12-3.63,1.73-4.74.22-.39.45-.72,1-1.62"/>
    </clipPath>
    <linearGradient id="linear-gradient" x1="0" y1="145.96" x2="50.55" y2="145.96" gradientUnits="userSpaceOnUse">
      <stop offset="0" stop-color="#1b5f38"/>
      <stop offset="1" stop-color="#7bc143"/>
    </linearGradient>
    <clipPath id="clippath-1">
      <path class="cls-16" d="M53.34,164.57h10.27c2.06,0,3.07-.56,3.96-2.18l.11,2.18h12.33c-.28-.89-.33-1.23-.33-1.95,0-.45.06-1.06.11-1.84.11-.45.17-.84.22-1.12l5.8-22.43h-14.67c.34.89.39,1.23.39,2.01,0,.45-.06,1-.17,1.79-.06.45-.11.84-.22,1.11l-3.85,14.84c-.28,1.17-.33,1.28-.67,1.56-.45.45-1.34.73-2.23.73h-3.74c-1.51,0-2.12-.5-2.12-1.62,0-.22.06-.45.17-.95l5.02-19.47h-14.67c.28.89.34,1.23.34,2.01,0,.39,0,1-.11,1.79-.11.45-.17.84-.22,1.11l-3.4,13.22c-.22.89-.45,2.12-.45,2.62,0,2.62,1.95,5.3,4.52,6.14.77.27,2.29.44,3.62.45"/>
    </clipPath>
    <linearGradient id="linear-gradient-2" x1="45.2" y1="150.89" x2="85.82" y2="150.89" xlink:href="#linear-gradient"/>
    <clipPath id="clippath-2">
      <path class="cls-16" d="M98.75,164.57h13.68l1.62-6.14c-1.79.61-2.85.84-4.69.84h-3.51c-2.68,0-3.8-.61-3.8-2.06,0-.28.06-.56.11-.84l3.57-13.84h10.82l1.4-5.3h-10.82l1.56-6.02-13.61.84-1.34,5.19h-5.64l-1.39,5.3h5.64l-3.35,13c-.22.84-.33,1.62-.33,2.23,0,2.96,2.18,5.8,4.85,6.42.72.17,1.78.22,3.12.33,1.07.05,1.76.06,2.11.06"/>
    </clipPath>
    <linearGradient id="linear-gradient-3" x1="86.71" y1="147.88" x2="117.96" y2="147.88" xlink:href="#linear-gradient"/>
    <clipPath id="clippath-3">
      <path class="cls-16" d="M113.89,164.57h15.73c-.28-.89-.33-1.23-.33-1.95,0-.45.06-1.06.17-1.84.05-.45.11-.84.17-1.12l3.24-12.56c.45-1.78,1.34-2.34,3.74-2.34h4.69c2.01,0,3.4.45,4.58,1.4l2.34-8.93h-7.59c-2.06,0-3.4.28-4.57.95-1.23.73-1.95,1.56-3.07,3.68l.17-1.45.06-1.9.11-1.28h-12.55c.34.89.39,1.23.39,2.01,0,.39-.06,1-.17,1.79-.06.45-.11.84-.22,1.11l-4.13,16.07c-.56,2.18-1.12,3.63-1.73,4.8-.22.39-.45.72-1.01,1.56"/>
    </clipPath>
    <linearGradient id="linear-gradient-4" x1="113.89" y1="150.89" x2="148.21" y2="150.89" xlink:href="#linear-gradient"/>
    <clipPath id="clippath-4">
      <path class="cls-16" d="M157.97,157.65c0-.17,0-.28.06-.45,0-.06.06-.34.17-.67l.73-2.79c.5-2.01.84-2.23,3.07-2.23h6.42l-1.45,5.75c-.34,1.34-.39,1.45-.78,1.67-.33.22-1.17.33-2.29.33h-3.29c-2.01,0-2.62-.39-2.62-1.62ZM153.06,164.57h7.92c1.06,0,2.34-.22,3.24-.56.89-.39,1.4-.89,2.06-2.12v.61c0,.89.06,1.23.33,2.06h13.22c-.34-.89-.39-1.23-.39-2.01,0-.39.06-1,.17-1.78.06-.45.11-.84.22-1.12l3.07-11.83c.33-1.4.56-2.85.56-3.79,0-2.57-1.73-5.25-4.02-6.25-1-.45-1.56-.56-3.29-.56h-25.05l-2.9,6.36c1.01-.5,1.34-.61,2.51-.83,1.06-.17,1.84-.22,3.29-.22h13.28c2.23,0,2.9.33,2.9,1.51,0,1.28-.72,2.23-1.73,2.23h-13.67c-2.29,0-2.85.05-3.85.33-.61.17-1.23.45-1.73.73-1.67,1.06-2.57,2.57-3.35,5.36l-.73,2.68c-.22.89-.33,1.84-.33,2.57,0,4.02,3.24,6.64,8.26,6.64Z"/>
    </clipPath>
    <linearGradient id="linear-gradient-5" x1="144.81" y1="150.89" x2="183.47" y2="150.89" xlink:href="#linear-gradient"/>
    <clipPath id="clippath-5">
      <path class="cls-16" d="M206.97,127.35h-14.68c.28.89.34,1.28.34,2.01,0,.45-.06,1-.11,1.79-.11.5-.17.89-.22,1.12l-6.69,25.94c-.56,2.18-1.12,3.63-1.73,4.8-.22.39-.45.72-1,1.56h15.73c-.28-.89-.34-1.23-.34-1.95,0-.45.06-1.06.11-1.84.11-.45.17-.84.22-1.12l8.37-32.31Z"/>
    </clipPath>
    <linearGradient id="linear-gradient-6" x1="182.86" x2="206.97" xlink:href="#linear-gradient"/>
    <clipPath id="clippath-6">
      <path class="cls-16" d="M208.92,137.22c.33.89.39,1.23.39,2.01,0,.39-.06,1-.17,1.79-.06.45-.11.84-.22,1.11l-4.13,16.07c-.56,2.18-1.11,3.63-1.73,4.8-.22.39-.45.72-1,1.56h15.73c-.28-.89-.33-1.23-.33-1.95,0-.45.06-1.06.17-1.84.06-.45.11-.84.17-1.12l5.8-22.43h-14.67ZM226.16,127.35h-13.39l-1.9,7.25h13.39l1.9-7.25Z"/>
    </clipPath>
    <linearGradient id="linear-gradient-7" x1="202.06" x2="226.16" xlink:href="#linear-gradient"/>
    <clipPath id="clippath-7">
      <path class="cls-16" d="M232.41,164.57h18.19l2.4-5.97c-.95.39-1.45.5-2.23.56-.22,0-.67,0-1.39.05-.67,0-1,.06-1.12.06h-7.81c-2.68,0-3.74-.5-3.74-1.84,0-.22.06-.45.11-.73l.17-.67,2.79-10.71c.39-1.51.61-1.84,1.28-2.29.61-.45,1-.5,2.45-.5h9.21c.67,0,1.62.06,2.45.22.78.11,1.06.22,1.84.67l.73-6.2h-22.65c-.84,0-1.62.11-2.4.28-.89.17-1.73.5-2.34.89-1.73,1.06-2.85,2.73-3.52,5.24l-2.96,11.38c-.39,1.56-.5,2.23-.5,3.07,0,2.46,1.67,4.85,4.02,5.8,1.17.45,2.79.67,5.02.67"/>
    </clipPath>
    <linearGradient id="linear-gradient-8" x1="223.37" y1="150.89" x2="257.74" y2="150.89" xlink:href="#linear-gradient"/>
    <clipPath id="clippath-8">
      <path class="cls-16" d="M131.3,0c-26.53.02-68.86,23.39-58.15,70.53,11.06,48.7,63.24,61.76,94.58,35.65,35.3-29.4,34.83-65.69,22-63.01-12.26,2.56-21.09,36.45-33.89,38.34-4.32.64-8.67-5.73-12.69-12.09-3.91-6.19-7.49-12.37-10.41-12.13-6.61.56-9.22,35.18-27.76,27.51-14.1-5.84,10.46-48.34,14.05-53.92,3.59-5.58,12.82-7.7,19.33.4,11.01,13.69,13.94,22.29,22.62,11.96C171.48,30.78,189.72,0,131.39,0h-.1Z"/>
    </clipPath>
    <linearGradient id="linear-gradient-9" x1="79.22" y1="66.15" x2="193.26" y2="66.15" xlink:href="#linear-gradient"/>
    <clipPath id="clippath-9">
      <path class="cls-16" d="M73.15,70.54c11.06,48.7,63.24,61.75,94.58,35.65,30.03-25.01,34.16-54.99,26.83-61.74,5.56,7.76,1.45,32.13-25.22,54.35-29.77,24.8-79.35,12.4-89.85-33.87-6.64-29.24,8.2-48.85,26.31-58.95-21.18,9.68-40.23,31.14-32.64,64.55Z"/>
    </clipPath>
    <linearGradient id="linear-gradient-10" x1="76.56" y1="69.14" x2="194.18" y2="69.14" gradientUnits="userSpaceOnUse">
      <stop offset="0" stop-color="#7bc143"/>
      <stop offset="1" stop-color="#1b5f38"/>
    </linearGradient>
  </defs>
  <g id="Layer_1-2" data-name="Layer 1">
    <g>
      <path class="cls-8" d="M120.39,171.14l-1.64,6.56c-.35,1.42-1.23,2.13-2.65,2.13h-8.79c.12-.24.3-.7.54-1.39l2.01-8.04c.1-.41.15-.87.15-1.39h8.79c1.13,0,1.69.46,1.69,1.39,0,.22-.03.47-.1.74M117.27,170.97c.02-.08.03-.15.03-.22,0-.24-.16-.35-.47-.35h-3.79l-2.01,8.04h3.79c.39,0,.64-.19.73-.57l1.72-6.9Z"/>
      <path class="cls-8" d="M128.13,171.88l-.44,1.76c-.48-.11-1.08-.17-1.77-.17h-1.29c-.35,0-.57.18-.66.54l-1.06,4.26c-.15.59-.22,1.1-.22,1.56h-3.28c.25-.53.43-1.05.56-1.56l1.18-4.78c.16-.64.24-1.18.24-1.61h2.82l-.1.86h.03c.2-.58.7-.86,1.5-.86h2.48Z"/>
      <path class="cls-8" d="M138.71,171.88l-1.57,6.34c-.16.63-.24,1.17-.24,1.61h-2.94l.13-.81h-.03c-.28.54-.66.81-1.13.81h-3.68c-1,0-1.51-.43-1.51-1.3,0-.22.03-.48.1-.76l1.08-4.33c.15-.59.22-1.1.22-1.55h3.11l-1.54,6.15c-.02.08-.03.15-.03.22,0,.21.14.32.42.32h2.47c.35,0,.57-.18.66-.54l1.15-4.6c.15-.59.22-1.1.22-1.55h3.11Z"/>
      <path class="cls-8" d="M149.56,171.88c-.25.53-.43,1.05-.56,1.55l-1.83,7.35c-.15.59-.42,1.06-.81,1.42-.44.42-.99.63-1.64.63h-7.22l.15-1.44c.39.12.94.19,1.64.19h4.07c.45,0,.73-.24.84-.71l.46-1.86h-.03c-.19.29-.35.49-.47.59-.18.15-.41.22-.69.22h-3.65c-1,0-1.51-.43-1.51-1.28,0-.24.03-.5.1-.78l.96-3.84c.34-1.36,1.14-2.04,2.42-2.04h3.82c.41,0,.61.25.61.74h.03l.35-.74h2.94ZM146.01,173.67c.02-.09.03-.16.03-.22,0-.21-.12-.32-.35-.32h-2.64c-.35,0-.57.18-.66.54l-1.1,4.36c-.02.08-.03.15-.03.22,0,.21.14.32.42.32h2.57c.35,0,.57-.18.66-.54l1.1-4.36Z"/>
      <path class="cls-8" d="M159.4,171.88l-.12,1.37c-.3-.12-.82-.19-1.54-.19h-4.09c-.34,0-.54.15-.61.44l-.1.42c-.01.06-.02.11-.02.15,0,.2.13.3.39.3h3.72c1.07,0,1.61.4,1.61,1.2,0,.16-.02.33-.07.52l-.51,2.01c-.28,1.14-1.08,1.71-2.38,1.71h-6.83l.12-1.37c.28.12.77.19,1.45.19h4.04c.39,0,.64-.17.73-.53l.12-.47c.08-.33-.1-.49-.53-.49h-3.79c-.89,0-1.34-.42-1.34-1.27,0-.25.04-.52.12-.83l.29-1.13c.35-1.36,1.1-2.04,2.25-2.04h7.08Z"/>
      <path class="cls-8" d="M171.2,178.29l-.56,1.54h-3.25c-.42,0-.71-.13-.88-.39l-.41-.64-.68.64c-.27.26-.56.39-.88.39h-3.65c-.45,0-.82-.11-1.1-.33-.28-.22-.42-.54-.42-.95,0-.17.02-.34.07-.52l.86-3.48c.1-.39.33-.74.67-1.03.34-.29.71-.44,1.09-.44h.88l-.66-1.01c-.17-.26-.25-.54-.25-.83,0-.16.02-.32.07-.49.12-.51.39-.92.8-1.24.41-.32.9-.48,1.46-.48h6.56l-.25,1.64c-.36-.17-.83-.25-1.42-.25h-3.79c-.1,0-.14.04-.12.12l2.69,4.8.88-.88c.18-.18.31-.43.39-.76l.17-.68h1.39l-.24.95c-.11.46-.32.83-.61,1.11l-1.39,1.35.9,1.61c.16.28.4.42.73.42.18,0,.5-.05.95-.15M165.52,177.73l-1.93-3.45h-.03l-.93,3.68c-.08.32-.01.47.2.47h1.76c.15,0,.3-.08.47-.25l.46-.46Z"/>
      <path class="cls-8" d="M186.17,169.01c-.4.33-.79.79-1.17,1.39l-5.95,9.43h-2.89l-1.32-9.43c-.09-.62-.23-1.08-.41-1.39h3.9c-.07.15-.11.28-.14.39-.07.26-.07.59-.02,1l.9,7.1,4.36-7.1c.13-.21.3-.55.49-1,.02-.09.03-.22.03-.39h2.2Z"/>
      <path class="cls-8" d="M189.48,171.88l-1.59,6.39c-.15.59-.22,1.1-.22,1.56h-3.28c.25-.53.43-1.05.56-1.56l1.18-4.78c.16-.64.24-1.18.24-1.61h3.11ZM190.16,169.21l-.47,1.89h-2.94l.47-1.89h2.94Z"/>
      <path class="cls-8" d="M197.9,171.88l-.29,1.18h-2.86l-1.2,4.8c-.03.11-.05.21-.05.29,0,.28.17.42.52.42h1.49c.62,0,1.11-.06,1.49-.18l-.62,1.44h-4.31c-1,0-1.5-.46-1.5-1.39,0-.25.04-.52.12-.83l1.13-4.55h-1.54l.29-1.18h1.54l.4-1.62,3.04-.39-.51,2.01h2.86Z"/>
      <path class="cls-8" d="M208.55,173.94l-1.13,4.5c-.11.45-.17.91-.17,1.39h-2.69v-.83c-.35.55-.77.83-1.27.83h-3.8c-.96,0-1.44-.45-1.44-1.35,0-.33.06-.73.17-1.22l.08-.37c.2-.91.51-1.57.92-1.97.41-.4.97-.6,1.68-.6h4.19c.27,0,.44-.12.51-.37l.14-.54c.06-.22-.05-.34-.32-.34h-4.65c-.32,0-.74.06-1.27.17l.52-1.35h7.05c1.05,0,1.57.44,1.57,1.3,0,.22-.03.48-.1.76M205.2,175.57h-3.13c-.33,0-.54.18-.63.54l-.49,1.94c-.02.09-.03.16-.03.22,0,.2.11.3.34.3h2.69c.33,0,.54-.17.63-.52l.63-2.48Z"/>
      <path class="cls-8" d="M225.08,173.94l-1.08,4.33c-.15.59-.22,1.1-.22,1.56h-3.28c.25-.52.43-1.04.56-1.56l1.15-4.6c.02-.08.03-.15.03-.22,0-.21-.14-.32-.42-.32h-2.21c-.35,0-.57.18-.66.54l-1.15,4.6c-.15.59-.22,1.1-.22,1.56h-3.28c.25-.52.43-1.04.56-1.56l1.15-4.6c.02-.08.03-.15.03-.22,0-.21-.14-.32-.42-.32h-2.21c-.35,0-.57.18-.66.54l-1.15,4.6c-.15.59-.22,1.1-.22,1.56h-3.28c.25-.53.43-1.05.56-1.56l1.18-4.78c.16-.64.24-1.18.24-1.61h2.94l-.14.81h.04c.28-.54.66-.81,1.13-.81h4.12c.37,0,.61.06.73.17.11.11.18.31.2.59.37-.51.73-.76,1.08-.76h3.5c1,0,1.5.43,1.5,1.3,0,.23-.03.48-.1.76"/>
      <path class="cls-8" d="M229.88,171.88l-1.59,6.39c-.15.59-.22,1.1-.22,1.56h-3.28c.25-.53.43-1.05.56-1.56l1.18-4.78c.16-.64.24-1.18.24-1.61h3.11ZM230.55,169.21l-.47,1.89h-2.94l.47-1.89h2.94Z"/>
      <path class="cls-8" d="M240.12,173.94l-1.08,4.33c-.15.59-.22,1.1-.22,1.56h-3.28c.25-.52.43-1.04.56-1.56l1.15-4.6c.02-.08.03-.15.03-.22,0-.21-.14-.32-.42-.32h-2.47c-.35,0-.57.18-.66.54l-1.15,4.6c-.15.59-.22,1.1-.22,1.56h-3.28c.25-.53.43-1.05.56-1.56l1.18-4.78c.16-.64.24-1.18.24-1.61h2.94l-.14.81h.04c.28-.54.66-.81,1.13-.81h3.68c1,0,1.5.43,1.5,1.3,0,.23-.03.48-.1.76"/>
      <path class="cls-8" d="M250.63,171.88l-.12,1.37c-.3-.12-.82-.19-1.54-.19h-4.09c-.34,0-.54.15-.61.44l-.1.42c-.01.06-.02.11-.02.15,0,.2.13.3.39.3h3.72c1.07,0,1.61.4,1.61,1.2,0,.16-.02.33-.07.52l-.51,2.01c-.28,1.14-1.08,1.71-2.38,1.71h-6.83l.12-1.37c.28.12.77.19,1.45.19h4.04c.39,0,.64-.17.73-.53l.12-.47c.08-.33-.1-.49-.53-.49h-3.78c-.89,0-1.34-.42-1.34-1.27,0-.25.04-.52.12-.83l.29-1.13c.35-1.36,1.1-2.04,2.25-2.04h7.08Z"/>
      <g class="cls-22">
        <rect class="cls-21" y="127.35" width="50.55" height="37.22"/>
      </g>
      <g class="cls-10">
        <rect class="cls-4" x="45.2" y="137.22" width="40.62" height="27.34"/>
      </g>
      <g class="cls-20">
        <rect class="cls-9" x="86.71" y="131.2" width="31.25" height="33.37"/>
      </g>
      <g class="cls-15">
        <rect class="cls-7" x="113.89" y="137.22" width="34.32" height="27.34"/>
      </g>
      <g class="cls-3">
        <rect class="cls-11" x="144.81" y="137.22" width="38.67" height="27.34"/>
      </g>
      <g class="cls-12">
        <rect class="cls-19" x="182.86" y="127.35" width="24.1" height="37.22"/>
      </g>
      <g class="cls-1">
        <rect class="cls-17" x="202.06" y="127.35" width="24.1" height="37.22"/>
      </g>
      <g class="cls-2">
        <rect class="cls-14" x="223.37" y="137.22" width="34.37" height="27.34"/>
      </g>
      <g class="cls-13">
        <rect class="cls-18" x="62.44" width="140.59" height="132.29"/>
      </g>
      <g class="cls-6">
        <rect class="cls-5" x="65.56" y="5.99" width="136.33" height="126.3"/>
      </g>
    </g>
  </g>
</svg>