<?xml version="1.0" encoding="UTF-8"?>
<svg id="Layer_2" data-name="Layer 2" xmlns="http://www.w3.org/2000/svg" viewBox="0 0 345.44 143.36">
  <defs>
    <style>
      .cls-1 {
        stroke-width: 1.11px;
      }

      .cls-1, .cls-2 {
        fill: none;
        stroke: #ec7d23;
        stroke-miterlimit: 2.61;
      }

      .cls-2 {
        stroke-width: 2.76px;
      }

      .cls-3 {
        fill: #ec7d23;
      }
    </style>
  </defs>
  <g id="Layer_1-2" data-name="Layer 1">
    <g>
      <g>
        <path class="cls-3" d="M58.07,119.57v-34.32h5.2v4.82c1.08-1.68,2.51-3.03,4.3-4.06,1.79-1.02,3.82-1.54,6.11-1.54,2.54,0,4.63.53,6.25,1.58,1.63,1.06,2.77,2.53,3.44,4.43,2.71-4.01,6.25-6.01,10.6-6.01,3.4,0,6.02.94,7.85,2.83,1.83,1.89,2.75,4.79,2.75,8.71v23.56h-5.79v-21.62c0-2.33-.19-4-.57-5.03s-1.06-1.85-2.05-2.47c-.99-.62-2.15-.94-3.49-.94-2.41,0-4.42.8-6.01,2.41s-2.39,4.17-2.39,7.71v19.94h-5.82v-22.3c0-2.59-.47-4.52-1.42-5.82s-2.5-1.94-4.65-1.94c-1.64,0-3.15.43-4.54,1.29-1.39.86-2.4,2.12-3.02,3.78-.62,1.66-.94,4.05-.94,7.18v17.81h-5.82Z"/>
        <path class="cls-3" d="M136.71,108.51l6.01.74c-.95,3.51-2.7,6.24-5.27,8.18-2.56,1.94-5.84,2.91-9.83,2.91-5.02,0-9-1.55-11.94-4.64-2.94-3.09-4.41-7.43-4.41-13.01s1.49-10.26,4.46-13.44c2.97-3.19,6.83-4.78,11.57-4.78s8.34,1.56,11.25,4.69c2.91,3.12,4.36,7.52,4.36,13.19,0,.35-.01.86-.03,1.55h-25.6c.21,3.77,1.28,6.66,3.2,8.66,1.92,2,4.31,3.01,7.18,3.01,2.13,0,3.95-.56,5.46-1.68,1.51-1.12,2.7-2.91,3.59-5.36ZM117.61,99.11h19.17c-.26-2.89-.99-5.05-2.2-6.5-1.85-2.24-4.26-3.36-7.21-3.36-2.67,0-4.92.89-6.74,2.68-1.82,1.79-2.83,4.18-3.02,7.17Z"/>
        <path class="cls-3" d="M147.7,109.32l5.75-.9c.32,2.31,1.22,4.07,2.7,5.3,1.48,1.23,3.54,1.84,6.19,1.84s4.65-.54,5.95-1.63,1.94-2.36,1.94-3.83c0-1.31-.57-2.35-1.71-3.1-.8-.52-2.78-1.17-5.95-1.97-4.27-1.08-7.22-2.01-8.87-2.8s-2.9-1.88-3.75-3.26c-.85-1.39-1.28-2.92-1.28-4.61,0-1.53.35-2.95,1.05-4.25.7-1.3,1.65-2.39,2.86-3.25.91-.67,2.14-1.23,3.7-1.7,1.56-.46,3.24-.69,5.03-.69,2.69,0,5.06.39,7.09,1.16,2.04.78,3.54,1.83,4.51,3.15.97,1.33,1.64,3.1,2,5.32l-5.69.78c-.26-1.77-1.01-3.15-2.25-4.14s-2.99-1.49-5.25-1.49c-2.67,0-4.58.44-5.72,1.33-1.14.88-1.71,1.92-1.71,3.1,0,.75.24,1.43.71,2.04.47.62,1.22,1.14,2.23,1.55.58.22,2.29.71,5.14,1.49,4.12,1.1,6.99,2,8.61,2.7,1.63.7,2.9,1.72,3.83,3.05.93,1.34,1.39,3,1.39,4.98s-.57,3.77-1.7,5.48c-1.13,1.71-2.76,3.04-4.9,3.98-2.13.94-4.55,1.41-7.24,1.41-4.46,0-7.86-.93-10.2-2.78-2.34-1.85-3.83-4.6-4.48-8.24Z"/>
        <path class="cls-3" d="M180.95,102.41c0-6.36,1.77-11.06,5.3-14.12,2.95-2.54,6.55-3.81,10.79-3.81,4.72,0,8.58,1.55,11.57,4.64,3,3.09,4.49,7.36,4.49,12.81,0,4.42-.66,7.89-1.99,10.42-1.33,2.53-3.25,4.5-5.79,5.9-2.53,1.4-5.29,2.1-8.29,2.1-4.8,0-8.69-1.54-11.65-4.62-2.96-3.08-4.44-7.52-4.44-13.32ZM186.93,102.41c0,4.4.96,7.69,2.88,9.87,1.92,2.19,4.33,3.28,7.24,3.28s5.29-1.1,7.21-3.3,2.88-5.55,2.88-10.05c0-4.24-.96-7.46-2.89-9.65-1.93-2.19-4.33-3.28-7.19-3.28s-5.32,1.09-7.24,3.26c-1.92,2.18-2.88,5.46-2.88,9.86Z"/>
        <path class="cls-3" d="M232.63,114.36l.84,5.14c-1.64.34-3.1.52-4.4.52-2.11,0-3.75-.33-4.91-1-1.16-.67-1.98-1.55-2.46-2.63-.47-1.09-.71-3.38-.71-6.87v-19.75h-4.27v-4.52h4.27v-8.5l5.79-3.49v11.99h5.85v4.52h-5.85v20.07c0,1.66.1,2.73.31,3.2.2.47.54.85,1,1.13.46.28,1.13.42,1.99.42.65,0,1.5-.08,2.55-.23Z"/>
        <path class="cls-3" d="M261.82,108.51l6.01.74c-.95,3.51-2.7,6.24-5.27,8.18-2.56,1.94-5.84,2.91-9.83,2.91-5.02,0-9-1.55-11.94-4.64-2.94-3.09-4.41-7.43-4.41-13.01s1.49-10.26,4.46-13.44c2.97-3.19,6.83-4.78,11.57-4.78s8.34,1.56,11.25,4.69c2.91,3.12,4.36,7.52,4.36,13.19,0,.35-.01.86-.03,1.55h-25.6c.21,3.77,1.28,6.66,3.2,8.66,1.92,2,4.31,3.01,7.18,3.01,2.13,0,3.95-.56,5.46-1.68,1.51-1.12,2.7-2.91,3.59-5.36ZM242.72,99.11h19.17c-.26-2.89-.99-5.05-2.2-6.5-1.85-2.24-4.26-3.36-7.21-3.36-2.67,0-4.92.89-6.74,2.68-1.82,1.79-2.83,4.18-3.02,7.17Z"/>
        <path class="cls-3" d="M297.53,106.99l5.72.74c-.62,3.94-2.22,7.03-4.8,9.26-2.57,2.23-5.74,3.35-9.49,3.35-4.7,0-8.47-1.54-11.33-4.61-2.86-3.07-4.28-7.47-4.28-13.2,0-3.71.61-6.95,1.84-9.73,1.23-2.78,3.1-4.86,5.61-6.25s5.24-2.08,8.19-2.08c3.73,0,6.78.94,9.15,2.83,2.37,1.89,3.89,4.56,4.56,8.03l-5.66.87c-.54-2.31-1.49-4.04-2.86-5.2-1.37-1.16-3.02-1.75-4.96-1.75-2.93,0-5.31,1.05-7.14,3.15-1.83,2.1-2.75,5.42-2.75,9.97s.88,7.96,2.65,10.05,4.07,3.13,6.92,3.13c2.28,0,4.19-.7,5.72-2.1,1.53-1.4,2.5-3.56,2.91-6.46Z"/>
        <path class="cls-3" d="M308.23,119.57v-47.38h5.82v17c2.71-3.15,6.14-4.72,10.28-4.72,2.54,0,4.75.5,6.63,1.5,1.88,1,3.22,2.39,4.02,4.15.81,1.77,1.21,4.33,1.21,7.69v21.75h-5.82v-21.75c0-2.91-.63-5.03-1.89-6.35s-3.04-1.99-5.35-1.99c-1.72,0-3.34.45-4.86,1.34-1.52.89-2.6,2.11-3.25,3.64s-.97,3.64-.97,6.33v18.78h-5.82Z"/>
      </g>
      <path class="cls-3" d="M59.44,137.99h-1.35v-11.84h1.45v4.23c.61-.77,1.4-1.16,2.35-1.16.53,0,1.03.11,1.5.32s.86.51,1.16.9c.3.38.54.85.72,1.39.17.54.26,1.13.26,1.75,0,1.47-.36,2.61-1.09,3.41-.73.8-1.6,1.2-2.62,1.2s-1.81-.42-2.38-1.27v1.07ZM59.42,133.63c0,1.03.14,1.77.42,2.23.46.75,1.08,1.12,1.86,1.12.64,0,1.18-.28,1.65-.83.46-.55.69-1.37.69-2.47s-.22-1.95-.67-2.48-.98-.8-1.61-.8-1.18.28-1.65.83c-.46.55-.69,1.35-.69,2.4Z"/>
      <path class="cls-3" d="M84.2,135.22l1.5.19c-.24.88-.68,1.56-1.32,2.04s-1.46.73-2.46.73c-1.25,0-2.25-.39-2.99-1.16s-1.1-1.86-1.1-3.25.37-2.56,1.11-3.36c.74-.8,1.71-1.2,2.89-1.2s2.08.39,2.81,1.17c.73.78,1.09,1.88,1.09,3.3,0,.09,0,.22,0,.39h-6.4c.05.94.32,1.66.8,2.17s1.08.75,1.79.75c.53,0,.99-.14,1.37-.42.38-.28.68-.73.9-1.34ZM79.42,132.87h4.79c-.06-.72-.25-1.26-.55-1.62-.46-.56-1.06-.84-1.8-.84-.67,0-1.23.22-1.68.67-.46.45-.71,1.04-.76,1.79Z"/>
      <path class="cls-3" d="M104.16,136.93c-.54.46-1.06.78-1.55.97-.5.19-1.03.28-1.6.28-.94,0-1.67-.23-2.17-.69-.51-.46-.76-1.05-.76-1.77,0-.42.1-.8.29-1.15s.44-.63.75-.84c.31-.21.66-.37,1.05-.48.29-.08.72-.15,1.29-.22,1.17-.14,2.04-.31,2.59-.5,0-.2,0-.33,0-.38,0-.59-.14-1.01-.41-1.25-.37-.33-.92-.49-1.66-.49-.68,0-1.19.12-1.52.36-.33.24-.57.66-.72,1.27l-1.42-.19c.13-.61.34-1.1.64-1.47.3-.37.72-.66,1.29-.86.56-.2,1.21-.3,1.95-.3s1.33.09,1.79.26.79.39,1.01.65c.22.26.37.59.45.99.05.25.07.69.07,1.34v1.94c0,1.35.03,2.21.09,2.56.06.36.18.7.37,1.03h-1.52c-.15-.3-.25-.65-.29-1.06ZM104.04,133.68c-.53.22-1.32.4-2.38.55-.6.09-1.02.18-1.27.29-.25.11-.44.27-.57.47-.13.21-.2.44-.2.69,0,.39.15.71.44.97.29.26.72.39,1.29.39s1.06-.12,1.5-.37.76-.58.96-1.01c.16-.33.23-.81.23-1.45v-.53Z"/>
      <path class="cls-3" d="M124.42,137.99v-1.26c-.67.97-1.58,1.45-2.72,1.45-.51,0-.98-.1-1.42-.29-.44-.19-.76-.44-.98-.73s-.36-.65-.45-1.08c-.06-.29-.09-.74-.09-1.36v-5.32h1.45v4.76c0,.76.03,1.27.09,1.54.09.38.29.68.58.9.3.22.66.33,1.1.33s.85-.11,1.23-.33c.38-.22.65-.53.81-.91s.24-.94.24-1.68v-4.6h1.45v8.58h-1.3Z"/>
      <path class="cls-3" d="M142.2,136.68l.21,1.28c-.41.09-.78.13-1.1.13-.53,0-.94-.08-1.23-.25-.29-.17-.5-.39-.61-.66s-.18-.84-.18-1.72v-4.94h-1.07v-1.13h1.07v-2.12l1.45-.87v3h1.46v1.13h-1.46v5.02c0,.42.03.68.08.8.05.12.13.21.25.28.12.07.28.1.5.1.16,0,.37-.02.64-.06Z"/>
      <path class="cls-3" d="M154.59,141.29l-.16-1.37c.32.09.6.13.83.13.32,0,.58-.05.78-.16.19-.11.35-.26.48-.45.09-.15.24-.51.44-1.08.03-.08.07-.2.13-.36l-3.26-8.6h1.57l1.79,4.97c.23.63.44,1.29.62,1.99.17-.67.37-1.32.6-1.96l1.83-5h1.45l-3.26,8.73c-.35.94-.62,1.59-.82,1.95-.26.48-.55.83-.89,1.05s-.73.34-1.2.34c-.28,0-.59-.06-.94-.18Z"/>
      <path class="cls-3" d="M173.87,127.71v-1.69h1.56v1.33c0,.72-.08,1.24-.25,1.56-.23.44-.59.76-1.08.99l-.36-.57c.29-.12.51-.31.65-.56.14-.26.22-.61.24-1.05h-.76Z"/>
      <path class="cls-3" d="M187.79,135.42l1.44-.23c.08.58.31,1.02.67,1.33.37.31.88.46,1.55.46s1.16-.14,1.49-.41.49-.59.49-.96c0-.33-.14-.59-.43-.78-.2-.13-.69-.29-1.49-.49-1.07-.27-1.81-.5-2.22-.7-.41-.2-.72-.47-.94-.82-.21-.35-.32-.73-.32-1.15,0-.38.09-.74.26-1.06.17-.33.41-.6.72-.81.23-.17.53-.31.92-.42s.81-.17,1.26-.17c.67,0,1.26.1,1.77.29.51.19.88.46,1.13.79.24.33.41.77.5,1.33l-1.42.19c-.06-.44-.25-.79-.56-1.03-.31-.25-.75-.37-1.31-.37-.67,0-1.14.11-1.43.33-.29.22-.43.48-.43.78,0,.19.06.36.18.51.12.16.3.29.56.39.15.05.57.18,1.28.37,1.03.27,1.75.5,2.15.67.41.17.73.43.96.76.23.33.35.75.35,1.24s-.14.94-.42,1.37-.69.76-1.22.99-1.14.35-1.81.35c-1.11,0-1.96-.23-2.55-.69-.58-.46-.96-1.15-1.12-2.06Z"/>
      <path class="cls-3" d="M223.28,137.99v-8.58h1.31v1.3c.33-.61.64-1.01.92-1.2s.59-.29.93-.29c.49,0,.99.16,1.49.47l-.5,1.35c-.36-.21-.71-.31-1.07-.31-.32,0-.6.1-.86.29-.25.19-.43.46-.54.8-.16.52-.24,1.08-.24,1.7v4.49h-1.46Z"/>
      <path class="cls-3" d="M245.72,135.22l1.5.19c-.24.88-.68,1.56-1.32,2.04s-1.46.73-2.46.73c-1.25,0-2.25-.39-2.99-1.16s-1.1-1.86-1.1-3.25.37-2.56,1.11-3.36c.74-.8,1.71-1.2,2.89-1.2s2.08.39,2.81,1.17c.73.78,1.09,1.88,1.09,3.3,0,.09,0,.22,0,.39h-6.4c.05.94.32,1.66.8,2.17s1.08.75,1.79.75c.53,0,.99-.14,1.37-.42.38-.28.68-.73.9-1.34ZM240.94,132.87h4.79c-.06-.72-.25-1.26-.55-1.62-.46-.56-1.06-.84-1.8-.84-.67,0-1.23.22-1.68.67-.46.45-.71,1.04-.76,1.79Z"/>
      <path class="cls-3" d="M259.49,135.42l1.44-.23c.08.58.31,1.02.67,1.33.37.31.88.46,1.55.46s1.16-.14,1.49-.41.49-.59.49-.96c0-.33-.14-.59-.43-.78-.2-.13-.69-.29-1.49-.49-1.07-.27-1.81-.5-2.22-.7-.41-.2-.72-.47-.94-.82-.21-.35-.32-.73-.32-1.15,0-.38.09-.74.26-1.06.17-.33.41-.6.72-.81.23-.17.53-.31.92-.42s.81-.17,1.26-.17c.67,0,1.26.1,1.77.29.51.19.88.46,1.13.79.24.33.41.77.5,1.33l-1.42.19c-.06-.44-.25-.79-.56-1.03-.31-.25-.75-.37-1.31-.37-.67,0-1.14.11-1.43.33-.29.22-.43.48-.43.78,0,.19.06.36.18.51.12.16.3.29.56.39.15.05.57.18,1.28.37,1.03.27,1.75.5,2.15.67.41.17.73.43.96.76.23.33.35.75.35,1.24s-.14.94-.42,1.37-.69.76-1.22.99-1.14.35-1.81.35c-1.11,0-1.96-.23-2.55-.69-.58-.46-.96-1.15-1.12-2.06Z"/>
      <path class="cls-3" d="M285,137.99v-1.26c-.67.97-1.58,1.45-2.72,1.45-.51,0-.98-.1-1.42-.29-.44-.19-.76-.44-.98-.73s-.36-.65-.45-1.08c-.06-.29-.09-.74-.09-1.36v-5.32h1.45v4.76c0,.76.03,1.27.09,1.54.09.38.29.68.58.9.3.22.66.33,1.1.33s.85-.11,1.23-.33c.38-.22.65-.53.81-.91s.24-.94.24-1.68v-4.6h1.45v8.58h-1.3Z"/>
      <path class="cls-3" d="M299.58,137.99v-11.84h1.45v11.84h-1.45Z"/>
      <path class="cls-3" d="M317.49,136.68l.21,1.28c-.41.09-.78.13-1.1.13-.53,0-.94-.08-1.23-.25-.29-.17-.5-.39-.61-.66s-.18-.84-.18-1.72v-4.94h-1.07v-1.13h1.07v-2.12l1.45-.87v3h1.46v1.13h-1.46v5.02c0,.42.03.68.08.8.05.12.13.21.25.28.12.07.28.1.5.1.16,0,.37-.02.64-.06Z"/>
      <path class="cls-3" d="M329.36,135.42l1.44-.23c.08.58.31,1.02.67,1.33.37.31.88.46,1.55.46s1.16-.14,1.49-.41.49-.59.49-.96c0-.33-.14-.59-.43-.78-.2-.13-.69-.29-1.49-.49-1.07-.27-1.81-.5-2.22-.7-.41-.2-.72-.47-.94-.82-.21-.35-.32-.73-.32-1.15,0-.38.09-.74.26-1.06.17-.33.41-.6.72-.81.23-.17.53-.31.92-.42s.81-.17,1.26-.17c.67,0,1.26.1,1.77.29.51.19.88.46,1.13.79.24.33.41.77.5,1.33l-1.42.19c-.06-.44-.25-.79-.56-1.03-.31-.25-.75-.37-1.31-.37-.67,0-1.14.11-1.43.33-.29.22-.43.48-.43.78,0,.19.06.36.18.51.12.16.3.29.56.39.15.05.57.18,1.28.37,1.03.27,1.75.5,2.15.67.41.17.73.43.96.76.23.33.35.75.35,1.24s-.14.94-.42,1.37-.69.76-1.22.99-1.14.35-1.81.35c-1.11,0-1.96-.23-2.55-.69-.58-.46-.96-1.15-1.12-2.06Z"/>
      <path class="cls-1" d="M339.68,69.91c2.88,0,5.21,2.33,5.21,5.21s-2.33,5.21-5.21,5.21-5.21-2.33-5.21-5.21,2.33-5.21,5.21-5.21Z"/>
      <path class="cls-3" d="M337.6,78.15v-6.06h2.69c.54,0,.95.05,1.23.16.28.11.5.3.67.58.17.28.25.58.25.91,0,.43-.14.79-.42,1.09s-.71.48-1.29.56c.21.1.37.2.48.3.23.21.46.48.67.81l1.05,1.65h-1.01l-.8-1.26c-.23-.36-.43-.64-.58-.83-.15-.19-.29-.33-.41-.4-.12-.08-.24-.13-.37-.16-.09-.02-.24-.03-.45-.03h-.93v2.69h-.8ZM338.4,74.76h1.72c.37,0,.65-.04.86-.11.21-.08.36-.2.47-.36s.16-.35.16-.54c0-.29-.1-.52-.31-.71-.21-.18-.54-.28-.99-.28h-1.92v2Z"/>
      <rect class="cls-2" x="1.38" y="1.38" width="48.7" height="49.06"/>
      <rect class="cls-2" x="35.77" y="28.99" width="39.02" height="40.18"/>
      <rect class="cls-2" x="15.64" y="58.41" width="32.09" height="32.6"/>
    </g>
  </g>
</svg>