<?xml version="1.0" encoding="UTF-8"?>
<svg id="Layer_2" data-name="Layer 2" xmlns="http://www.w3.org/2000/svg" viewBox="0 0 115.25 171.6">
  <defs>
    <style>
      .cls-1 {
        fill: #f18428;
      }

      .cls-2 {
        fill: #38b992;
      }
    </style>
  </defs>
  <g id="Layer_1-2" data-name="Layer 1">
    <g id="clinica">
      <path class="cls-2" d="M32,70.13c9.51-.97,14.3,6.82,20.21,12.68,1.75,1.73,3.77,3.3,5.43,5.14,5.14-4.1,9.18-9.86,14.15-14.12,13.97-11.97,32.61,6.35,21.24,20.53l-35.86,36.11-.45.2-7.24-7.17-.12-.6,35.28-35.27c3.24-4.4-1.11-8.59-5.51-5.98-7.34,6.89-13.8,14.72-21.51,21.2-.24,0-1.58-1.15-1.89-1.42-6.86-5.92-13-13.73-19.81-19.82-3.86-2.5-7.98,1.21-6.01,5.3,7.05,7.62,14.67,14.75,21.93,22.18l-7.63,7.41c-2.92-3.14-5.94-6.18-8.99-9.19-4.53-4.46-14.09-12.22-15.86-18.11-2.7-8.95,3.33-18.14,12.62-19.09Z"/>
      <path class="cls-2" d="M3.74,100.26C.03,92.34-1.15,84.25,1.26,75.72c6.06-21.38,31.17-30.97,50.11-19.21,2.17,1.35,4.51,3,6.04,5.05,4.54-4.01,8.99-7.23,14.92-8.9,28.5-7.99,52.92,22.05,38.78,48.22-.47.87-3.51,5.93-4.17,5.93l-8.6-6.47c-.13-.51,2.56-3.32,3.01-4.03,12.22-19.09-10.66-42.64-30.87-31.34-5.32,2.97-8.27,8.16-13.06,11.67-2.09-2.22-4.15-4.53-6.4-6.6-6.36-5.86-11.56-8.45-20.54-7.79-8.51.63-16.41,7.88-18.81,15.87-1.59,5.31-1.15,9.84.26,15.11-2.13,1.86-4.16,3.91-6.33,5.72-.27.22-1.69,1.44-1.89,1.29Z"/>
      <path class="cls-2" d="M55.83.06c16.91-1.17,29.42,14.44,24.88,30.78-4.72,17.01-26.94,23.08-39.7,10.79C25.91,27.1,34.9,1.51,55.83.06ZM55.35,11.61c-14.7,1.99-13.24,25.58,2.52,25.19,17.24-.42,16-27.69-2.52-25.19Z"/>
      <path class="cls-1" d="M91.5,106.16c.28.29-1.31,4.83-1.18,5.66l3.88-4.25c.78-.85,2.07-1.29,3.19-.82.3.13,2.61,2.24,2.85,2.58.14.21.34.32.12.6l-37.29,40.58c-.95.62-2.47,3.27-3.66,2.71l-6.39-5.89c-.47-.83-.12-2.02-.22-2.96l6.84,5.79,9.16-9.96c.17-.64-.4-.99-.91-.67l-6.71,7.21c-.91.71-1.27-.44-1.26-1.25.67-1.24,2.35-8.53,3.01-9.03.29-.22.77-.3.71.23-.09.77-1.42,4.81-1.17,5.08.46.12.46-.19.66-.4,1.02-1.01,3.38-4.11,4.52-4.45,1.83-.55,2.35.94,2.99,1.05.26.04,3.56-3.41,3.61-3.67.08-.43-.74-.73-.88-1.2-.21-.69.04-1.69-.05-2.43.47-.48,2.08,1.6,2.48,1.88.15,0,1.93-1.98,1.97-2.28.07-.45-.73-.73-.86-1.18-.12-.4-.14-1.89.06-2.2.57-.89,1.96,1.78,2.58,1.65.38-.85,3.83-3.72,3.9-4.15.07-.39-.97-.97-1.12-1.67s.13-1.27.19-1.95c.26-.24,2.22,1.58,2.48,1.88.41-.4,1.53-1.47,1.54-2,0-.97-4.38-3.85-4.83-4.84-.32-.71-.03-1.81-.12-2.59l.84.22,5.85,5.42,8.28-8.72c.42-1.03-.03-1.23-.95-.71l-6.47,6.98c-.49.66-1.06.15-1.18-.49-.37-1.99,2.32-7.12,2.64-9.38.05-.4.77-.53.9-.4ZM62.36,142.02v.24c.15-.08.15-.16,0-.24Z"/>
      <path class="cls-1" d="M26.62,121.26c-1.75.85-2.25,2.58-3.76-.09,1.26-.91,6.32-6.97,7.23-7.2.42-.11,1.87,1.19,1.93,1.54.05.31-1.48,2.26-1.39,2.91.33.34,1.89-1.71,2.27-1.87.27-.05,1.69,1.36,1.72,1.55.1.58-6.59,6.48-7.45,7.38-2.63-1.52-1.45-2.12-.56-4.23.1-.05.31.13.49-.14.12-.18.31-.98.33-1.27-.75.39-.63.94-.83,1.41ZM30.51,118.66v.24c.15-.08.15-.16,0-.24Z"/>
      <path class="cls-1" d="M15.53,167.26c.41-.78,1.17-3.37,1.75-3.79.39-.28,1.68-.37,2.04-.12.5.36.96,6.86,1.4,7.92-.52-.11-1.99.18-2.33-.03-.27-.17-.56-3.41-.51-3.98-.78.32-1.83,5.04-3.05,4-.03-.03-.08-.6-.2-.85-.48-1.02-1.02-2.26-1.7-3.14.03.56-.31,3.82-.5,3.98s-1.88-.07-2.33.02c.4-1.09.87-7.54,1.4-7.91.37-.26,1.64-.17,2.04.11.79.57,1.06,3.11,1.98,3.79Z"/>
      <path class="cls-1" d="M37.24,133.29c.53.53,1.71-1.48,2.21-1.4.26.05,1.93,1.73,1.79,2.19-.04.13-1.59,1.33-1.86,1.46-2.28,1.12-5.13-1.43-4.68-3.73.2-1.05,4.8-5.68,5.84-5.96,2.84-.78,5.44,2.64,3.51,5.39-1.59,2.26-1.97,1.13-3.48-.46-.13-.29,2.88-2.71,1.52-2.68-.31,0-4.13,3.73-4.49,4.23-.16.22-.56.73-.34.95Z"/>
      <path class="cls-1" d="M9.87,105.92c.91.37,1.97-1.48,2.44-1.4.19.03,1.83,1.69,1.78,1.96-1.38,1.61-2.79,2.75-4.82,1.33-3.81-2.66-.53-5.71,1.9-7.78.36-.31,1.39-1.25,1.67-1.39,2.63-1.37,6.11,2.24,4.34,4.81-.14.2-1.51,1.59-1.65,1.67-.57.29-1.65-1.3-2.1-1.7l1.87-2.09-.59-.59c-1.31,1.5-3.12,2.85-4.37,4.36-.22.27-.57.38-.47.82Z"/>
      <path class="cls-1" d="M48.5,132.37c.32-.05.42,0,.67.19.16.12,2.22,2.52,2.2,2.69l-5.86,7.83c-.56,1.08-2.33-.96-2.38-1.43-.09-.89,1.22-1.13.84-1.76-.6-.65-1.32.78-1.86.68-.35-.06-1.59-1.68-2.03-1.98,1.66-.9,7.03-6,8.42-6.22ZM47.14,136.59c-.17-.16-2.03,1.1-2.09,1.21-.16.28.06.86.33.91.38.08,1.92-1.97,1.76-2.12Z"/>
      <path class="cls-1" d="M72.51,167.03c.61.17-.03,1.94-.23,2.36-1.8,3.78-8.45,2.6-7.91-2.72.46-4.52,7.52-4.67,8.26-.35-.68-.07-1.54.14-2.19-.05-.45-.13-.69-.79-1.49-.89-2.93-.38-2.99,4.17-.25,4,.46-.03,1.43-.3,1.33-.93h-1.65s0-1.42,0-1.42c1.11.2,3.17-.27,4.13,0Z"/>
      <path class="cls-1" d="M83.89,163.31c3.71-.63,6.85,2.04,5.3,5.77-1.15,2.76-4.98,3.25-7.13,1.38-2.4-2.08-1.32-6.61,1.83-7.15ZM86.7,168.84c1.84-2.02-1.11-4.72-2.99-3.1-2.14,1.85,1.12,5.15,2.99,3.1Z"/>
      <path class="cls-1" d="M27.8,171.27v-7.67c0-.71,4.08-.26,4.77-.05,2.84.88,3.63,4.89,1.49,6.78-.16.15-1.56.94-1.65.94h-4.6ZM30.16,165.37v4.01c3.72.44,3.92-4.5,0-4.01Z"/>
      <path class="cls-1" d="M77.46,163.25c2.2.31,3.45,2.67,2.21,4.58-.19.29-.69.35-.7.51-.03.4,1.56,2.83,1.43,2.93-.68-.11-2.05.22-2.6-.11-.6-.37-.75-2.76-1.89-2.12v2.24c-.44-.02-2.36.16-2.36-.36v-7.31s.33-.35.35-.35c1.06,0,2.55-.14,3.54,0ZM75.93,167.03c2.65.49,2.66-2.14,0-1.65v1.65Z"/>
      <path class="cls-1" d="M47.62,166.55c-.65-.1-1.61.15-2.19,0-.25-.06-.45-1.2-1.7-1.2-2.22,0-2.4,3.58-.42,3.98,1.68.34,1.76-1.14,2.34-1.34s1.56.05,2.2-.04c-1.03,5.42-8.85,4.53-8.26-1.3.46-4.56,7.71-4.7,8.02-.12Z"/>
      <path class="cls-1" d="M92.68,163.25v5.07c0,1.36,2.36,1.15,2.36.24v-5.31c.55.08,1.95-.21,2.26.22.18.26.17,4.68.08,5.3-.54,3.8-6.52,3.6-7.04,0-.09-.63-.1-5.04.08-5.3.3-.43,1.71-.15,2.26-.22Z"/>
      <path class="cls-1" d="M55.87,171.27c-.63-.1-1.66.17-2.21-.03-.47-.17-.29-.95-.77-1.12-.32-.11-2.33-.11-2.47.11s-.13.93-.23,1.02c-.2.17-2.09-.07-2.57.02.47-.96,2.74-7.76,3.1-7.98.3-.19,1.87-.1,2.21.19.28.24,2.64,6.13,2.83,6.84.08.32.17.61.12.94ZM52.57,168.44c.16-.15-.63-2.6-.94-2.36-.32,1.58-1.56,2.6.94,2.36Z"/>
      <path class="cls-1" d="M98.58,163.6c.23-.73,4.09-.32,4.89.07,2.4,1.17,1.87,5.01-.77,5.46-.38.07-1.69-.05-1.76.01-.1.1.11,2.02,0,2.13-.09.09-1.96-.07-2.36,0v-7.67ZM100.93,167.26c2.45.38,2.57-2.3,0-1.89v1.89Z"/>
      <path class="cls-1" d="M16.24,114.88c-.02-.88-2.92-2.8-2.82-3.39.97-.79,7.1-7.3,7.62-7.21.19.03,1.83,1.69,1.78,1.96-.53.93-5.88,5.51-5.88,5.93,0,.27,2.32,1.49-.71,2.71Z"/>
      <path class="cls-1" d="M26.62,163.25v2.12c-.65.1-2.55-.29-2.83.35-.45,1.06,1.95.43,2.59.59v1.89c-4.24-.29-2.88,1.74.47,1.18v1.89h-5.19v-8.02h4.95Z"/>
      <path class="cls-1" d="M26.06,109.48c.48-.09,1.41,1.72,1.97,1.99l-7.18,7.21c-.64.6-2.42-1.57-2.14-2.13l7.36-7.07Z"/>
      <path class="cls-1" d="M36.92,120.57c.27-.05,2.39,1.78,1.87,2.34l-7.33,7.07-1.99-2.2,7.45-7.21Z"/>
      <path class="cls-1" d="M58.94,163.25v5.9h2.83s0,2.12,0,2.12h-5.19v-7.67c0-.52,1.92-.34,2.36-.35Z"/>
      <path class="cls-1" d="M38.65,163.49v7.43c0,.52-1.92.34-2.36.35v-7.79h2.36Z"/>
      <path class="cls-1" d="M79.17,136.41c1.19,1.19-1.15,3.13-1.95,1.35-.6-1.34,1.07-2.22,1.95-1.35Z"/>
      <path class="cls-1" d="M86.25,130.4c-.78.79-2.56.03-1.95-1.35.78-1.77,3.15.15,1.95,1.35Z"/>
      <path class="cls-1" d="M76.1,138.28c1.57-.24,1.71,2.14.4,2.33-1.61.23-1.99-2.09-.4-2.33Z"/>
      <path class="cls-1" d="M86.95,126.25c1.56-.46,2.34,1.74.78,2.23s-1.94-1.89-.78-2.23Z"/>
      <path class="cls-1" d="M74.44,125.07c1.88-.56,2.45,2.46.2,2.08-1.12-.19-1.13-1.81-.2-2.08Z"/>
    </g>
  </g>
</svg>