<?xml version="1.0" encoding="UTF-8"?>
<svg xmlns="http://www.w3.org/2000/svg" xmlns:xlink="http://www.w3.org/1999/xlink" viewBox="0 0 470.92 83.94">
  <defs>
    <style>
      .cls-1 {
        mask: url(#mask-5);
      }

      .cls-2 {
        mask: url(#mask-1);
      }

      .cls-3 {
        mask: url(#mask-6);
      }

      .cls-4 {
        mask: url(#mask-7);
      }

      .cls-5 {
        fill: #fff;
      }

      .cls-6 {
        mask: url(#mask);
      }

      .cls-7 {
        mask: url(#mask-8);
      }

      .cls-8 {
        mask: url(#mask-2);
      }

      .cls-9 {
        mask: url(#mask-9);
      }

      .cls-10 {
        isolation: isolate;
      }

      .cls-11 {
        fill: #253b7f;
      }

      .cls-12 {
        mix-blend-mode: multiply;
      }

      .cls-13 {
        fill: #fcee23;
      }

      .cls-14 {
        mask: url(#mask-4);
      }

      .cls-15 {
        mask: url(#mask-3);
      }
    </style>
    <mask id="mask" x="0" y="-.14" width="67.3" height="84.08" maskUnits="userSpaceOnUse">
      <g id="mask0_437_84" data-name="mask0 437 84">
        <path class="cls-5" d="M67.3-.14H.02v83.83h67.28V-.14Z"/>
      </g>
    </mask>
    <mask id="mask-1" x="49.14" y=".53" width="24.01" height="13.41" maskUnits="userSpaceOnUse">
      <g id="mask1_437_84" data-name="mask1 437 84">
        <path class="cls-5" d="M73.15.53h-24.01v13.41h24.01V.53Z"/>
      </g>
    </mask>
    <mask id="mask-2" x="68.57" y="34.81" width="15.13" height="20.71" maskUnits="userSpaceOnUse">
      <g id="mask2_437_84" data-name="mask2 437 84">
        <path class="cls-5" d="M83.68,34.81h-15.1v20.7h15.1v-20.7Z"/>
      </g>
    </mask>
    <mask id="mask-3" x="62.21" y="14.67" width="21.04" height="20.82" maskUnits="userSpaceOnUse">
      <g id="mask3_437_84" data-name="mask3 437 84">
        <path class="cls-5" d="M83.17,14.7h-20.96v20.79h20.96V14.7Z"/>
      </g>
    </mask>
    <mask id="mask-4" x="57.03" y="55.49" width="23.5" height="25.31" maskUnits="userSpaceOnUse">
      <g id="mask4_437_84" data-name="mask4 437 84">
        <path class="cls-5" d="M80.54,55.52h-23.5v25.28h23.5v-25.28Z"/>
      </g>
    </mask>
    <mask id="mask-5" x="0" y="-.14" width="67.3" height="84.08" maskUnits="userSpaceOnUse">
      <g id="mask5_437_84" data-name="mask5 437 84">
        <path class="cls-5" d="M67.3-.14H.02v83.83h67.28V-.14Z"/>
      </g>
    </mask>
    <mask id="mask-6" x="49.14" y=".53" width="24.01" height="13.41" maskUnits="userSpaceOnUse">
      <g id="mask6_437_84" data-name="mask6 437 84">
        <path class="cls-5" d="M73.15.53h-24.01v13.41h24.01V.53Z"/>
      </g>
    </mask>
    <mask id="mask-7" x="68.57" y="34.81" width="15.13" height="20.71" maskUnits="userSpaceOnUse">
      <g id="mask7_437_84" data-name="mask7 437 84">
        <path class="cls-5" d="M83.68,34.81h-15.1v20.7h15.1v-20.7Z"/>
      </g>
    </mask>
    <mask id="mask-8" x="62.21" y="14.67" width="21.04" height="20.82" maskUnits="userSpaceOnUse">
      <g id="mask8_437_84" data-name="mask8 437 84">
        <path class="cls-5" d="M83.17,14.7h-20.96v20.79h20.96V14.7Z"/>
      </g>
    </mask>
    <mask id="mask-9" x="57.03" y="55.49" width="23.5" height="25.31" maskUnits="userSpaceOnUse">
      <g id="mask9_437_84" data-name="mask9 437 84">
        <path class="cls-5" d="M80.54,55.52h-23.5v25.28h23.5v-25.28Z"/>
      </g>
    </mask>
  </defs>
  <g class="cls-10">
    <g id="Layer_2" data-name="Layer 2">
      <g id="Layer_1-2" data-name="Layer 1">
        <g>
          <path class="cls-11" d="M167.84,47.88c0,6.79-2.63,10.01-8.32,10.18-5.68-.17-8.32-3.4-8.32-10.18v-21.13h-10.18v23.67c0,11.2,7.38,16.8,17.56,16.8h1.78c10.27,0,17.56-5.6,17.56-16.8v-23.67h-10.18v21.13h.09Z"/>
          <path class="cls-11" d="M234.96,26.16c-13.75,0-20.19,6.62-20.19,20.79s6.45,20.79,20.19,20.79,20.2-6.62,20.2-20.79-6.45-20.79-20.2-20.79ZM234.96,58.57c-7.13,0-10.1-3.39-10.1-11.62s2.97-11.62,10.1-11.62,10.1,3.39,10.1,11.62-2.97,11.62-10.1,11.62Z"/>
          <path class="cls-11" d="M186.17,41.77v25.45h10.18v-24.52c0-5.01,1.78-6.79,7.13-6.79h7.55v-9.17h-8.66c-11.88,0-16.21,3.99-16.21,15.02Z"/>
          <path class="cls-11" d="M332.87,41.77v25.54h10.18v-24.52c0-5.01,1.78-6.79,7.13-6.79h7.55v-9.16h-8.65c-11.88,0-16.21,3.99-16.21,15.02"/>
          <path class="cls-11" d="M408.81,26.75h-1.78c-5.09,0-9.42,1.36-12.47,4.07-3.14-2.72-7.47-4.07-12.47-4.07h-1.78c-10.27,0-17.56,5.6-17.56,16.8v23.67h10.18v-21.13c0-6.79,2.63-10.01,8.32-10.18,5.68.17,8.31,3.39,8.31,10.18v21.13h10.18v-21.13c0-6.79,2.63-10.01,8.32-10.18,5.68.17,8.32,3.39,8.32,10.18v21.13h10.18v-23.67c0-11.2-7.38-16.8-17.56-16.8"/>
          <path class="cls-11" d="M307.25,26.75h-31.9v-.76c0-5,1.78-6.79,7.13-6.79h5.6v-9.16h-6.7c-11.88,0-16.21,3.99-16.21,15.02v1.7h-5.6v9.17h5.6v31.31h10.18v-31.31h32.41c3.23.25,5.26,1.36,5.18,3.9,0,1.61-1.19,3.65-4.16,3.65l-10.27.17c-10.1,0-13.66,5.18-13.66,11.2,0,7.98,7.13,12.9,15.78,12.9,6.36,0,10.69-2.04,12.56-5.6v5.17h10.18v-25.71c0-11.03-4.33-15.02-16.21-15.02M313.19,50.42c0,6.53-3.48,9.84-10.44,9.84-4.84,0-7.38-2.21-7.55-5.26-.17-2.89,1.95-4.33,5.6-4.33h6.87c2.38,0,5.01-.34,5.6-.85v.51l-.09.08Z"/>
          <path class="cls-11" d="M454.8,26.75h-18.75v9.17h19.18c3.23.25,5.26,1.36,5.26,3.9,0,1.61-1.19,3.65-4.16,3.65l-10.27.17c-10.1,0-13.66,5.18-13.66,11.2,0,7.98,7.13,12.9,15.78,12.9,6.36,0,10.69-2.04,12.56-5.6v5.17h10.18v-25.71c0-11.03-4.33-15.02-16.21-15.02M460.74,50.42c0,6.53-3.48,9.84-10.44,9.84-4.84,0-7.38-2.21-7.55-5.26-.17-2.89,1.95-4.33,5.6-4.33h6.87c2.38,0,5.01-.34,5.6-.85v.51l-.08.08Z"/>
          <path class="cls-11" d="M114.31,26.16c-13.75,0-20.28,6.62-20.28,20.79,0,.85,0,1.61.08,2.46,0,0,0,.85.09,1.19v.09c1.1,11.54,7.55,17.05,20.02,17.05,10.52,0,16.72-3.9,19.09-11.96h-11.37c-1.61,1.95-4.16,2.8-7.81,2.8-5.85,0-8.91-2.38-9.76-7.89h29.87v-1.27c0-.85.08-1.87.08-2.46,0-14.17-6.45-20.79-20.19-20.79M104.63,42.87c.93-5.26,3.9-7.55,9.76-7.55s8.82,2.29,9.76,7.55v.76h-19.51v-.76Z"/>
          <g class="cls-12">
            <g class="cls-6">
              <path class="cls-11" d="M66.79,55.6c-4.58.25-10.1,1.02-16.04,2.21l-.42-1.87c6.11-1.27,11.79-2.04,16.63-2.38.51-6.19.25-12.56-.76-18.67-5.85.26-12.81,1.02-20.19,2.55l-.42-1.95c7.47-1.44,14.34-2.29,20.28-2.55-1.27-6.79-3.31-12.9-5.94-17.99-5.35.34-11.71,1.19-18.5,2.55l-.42-1.95c6.53-1.36,12.64-2.21,17.9-2.55-3.65-6.36-8.15-10.95-12.98-12.81-4.41-.43-8.91-.17-13.49.85C19.28,4.1,9.01,13.01,3.83,24.46c5.26-4.75,16.97-9.93,31.05-13.15l2.88,12.47C18.94,28.11,3.83,34.98.02,40.58c-.08,3.05.17,6.28.76,9.42,3.05-4.84,18.75-13.66,38.86-18.24l2.72,11.79c-20.28,4.67-36.06,12.56-37.16,18.58,1.44,2.63,3.05,5,5.01,7.21.17-5.18,14.93-12.73,34.19-17.14l2.8,12.13c-15.87,3.65-28.08,9.59-27.41,13.24,9.08,5.69,20.28,7.89,31.56,5.26,1.02-.25,1.95-.51,2.89-.85,6.53-4.07,11.2-13.83,12.64-26.13"/>
            </g>
          </g>
          <g class="cls-12">
            <g class="cls-2">
              <path class="cls-11" d="M61.19,12.84c5.26-.26,9.42.17,11.96,1.1-6.28-7.04-14.76-11.79-24.01-13.41,4.5,2.12,8.65,6.36,12.05,12.3Z"/>
            </g>
          </g>
          <g class="cls-12">
            <g class="cls-8">
              <path class="cls-11" d="M83.51,37.87c-2.12-2.12-7.55-3.14-14.93-3.06.93,6.11,1.19,12.39.68,18.58,6.53-.25,11.03.42,12.13,2.12,1.95-5.52,2.72-11.54,2.12-17.65Z"/>
            </g>
          </g>
          <g class="cls-12">
            <g class="cls-15">
              <path class="cls-11" d="M62.21,14.79c2.63,5.09,4.75,11.28,6.02,18.07,4.75,0,10.78.17,15.02,2.63-.17-1.02-.34-2.04-.59-3.14-1.44-6.19-4.16-11.71-7.81-16.37-2.55-1.02-6.96-1.44-12.64-1.27"/>
            </g>
          </g>
          <g class="cls-12">
            <g class="cls-14">
              <path class="cls-11" d="M69,55.52c-1.44,11.62-5.77,20.96-11.96,25.28,10.86-4.24,19.18-12.64,23.5-22.99-1.02-1.7-5.35-2.46-11.54-2.29Z"/>
            </g>
          </g>
          <path class="cls-13" d="M37.77,23.61l-2.88-12.47c-14.08,3.31-25.79,8.4-31.05,13.15C1.54,29.3.27,34.73.02,40.33c3.82-5.51,18.92-12.39,37.76-16.8"/>
          <path class="cls-13" d="M69.25,53.4c.59-6.19.34-12.47-.68-18.58,7.47,0,12.81,1.02,14.93,3.06,0-.85-.17-1.61-.34-2.46-4.24-2.46-10.27-2.72-15.02-2.63-1.27-6.79-3.31-12.9-6.02-18.07,5.68-.25,10.01.17,12.64,1.27-.51-.68-1.1-1.44-1.7-2.04-2.55-1.02-6.7-1.36-11.96-1.1-3.39-5.94-7.55-10.27-12.05-12.3-1.1-.17-2.12-.34-3.22-.42,4.84,1.95,9.42,6.45,12.98,12.81-5.18.34-11.28,1.19-17.9,2.55l.42,1.95c6.79-1.36,13.07-2.21,18.5-2.55,2.63,5.09,4.75,11.28,5.94,17.99-5.85.25-12.81,1.1-20.28,2.55l.42,1.95c7.38-1.44,14.34-2.29,20.19-2.55,1.02,6.11,1.27,12.47.76,18.67-4.84.34-10.52,1.1-16.63,2.38l.42,1.87c5.85-1.19,11.37-1.87,16.04-2.21-1.44,12.3-6.11,22.06-12.64,26.13,1.02-.34,1.95-.68,2.88-1.02,6.11-4.24,10.52-13.58,11.96-25.28,6.19-.17,10.44.59,11.54,2.29.34-.76.59-1.53.85-2.29-1.19-1.7-5.68-2.38-12.13-2.12"/>
          <path class="cls-13" d="M42.35,43.21l-2.71-11.79C19.53,36.08,3.92,44.82.78,49.66c.08.51.17.93.25,1.44.85,3.82,2.29,7.38,4.07,10.69,1.1-6.02,16.88-13.92,37.16-18.58"/>
          <path class="cls-13" d="M47.11,64.09l-2.8-12.13c-19.18,4.41-34.02,11.96-34.19,17.14,2.8,3.22,6.02,6.02,9.59,8.23-.68-3.65,11.45-9.59,27.41-13.24Z"/>
          <path class="cls-11" d="M167.84,47.88c0,6.79-2.63,10.01-8.32,10.18-5.68-.17-8.32-3.4-8.32-10.18v-21.13h-10.18v23.67c0,11.2,7.38,16.8,17.56,16.8h1.78c10.27,0,17.56-5.6,17.56-16.8v-23.67h-10.18v21.13h.09Z"/>
          <path class="cls-11" d="M234.96,26.16c-13.75,0-20.19,6.62-20.19,20.79s6.45,20.79,20.19,20.79,20.2-6.62,20.2-20.79-6.45-20.79-20.2-20.79ZM234.96,58.57c-7.13,0-10.1-3.39-10.1-11.62s2.97-11.62,10.1-11.62,10.1,3.39,10.1,11.62-2.97,11.62-10.1,11.62Z"/>
          <path class="cls-11" d="M186.17,41.77v25.45h10.18v-24.52c0-5.01,1.78-6.79,7.13-6.79h7.55v-9.17h-8.66c-11.88,0-16.21,3.99-16.21,15.02Z"/>
          <path class="cls-11" d="M332.87,41.77v25.54h10.18v-24.52c0-5.01,1.78-6.79,7.13-6.79h7.55v-9.16h-8.65c-11.88,0-16.21,3.99-16.21,15.02"/>
          <path class="cls-11" d="M408.81,26.75h-1.78c-5.09,0-9.42,1.36-12.47,4.07-3.14-2.72-7.47-4.07-12.47-4.07h-1.78c-10.27,0-17.56,5.6-17.56,16.8v23.67h10.18v-21.13c0-6.79,2.63-10.01,8.32-10.18,5.68.17,8.31,3.39,8.31,10.18v21.13h10.18v-21.13c0-6.79,2.63-10.01,8.32-10.18,5.68.17,8.32,3.39,8.32,10.18v21.13h10.18v-23.67c0-11.2-7.38-16.8-17.56-16.8"/>
          <path class="cls-11" d="M307.25,26.75h-31.9v-.76c0-5,1.78-6.79,7.13-6.79h5.6v-9.16h-6.7c-11.88,0-16.21,3.99-16.21,15.02v1.7h-5.6v9.17h5.6v31.31h10.18v-31.31h32.41c3.23.25,5.26,1.36,5.18,3.9,0,1.61-1.19,3.65-4.16,3.65l-10.27.17c-10.1,0-13.66,5.18-13.66,11.2,0,7.98,7.13,12.9,15.78,12.9,6.36,0,10.69-2.04,12.56-5.6v5.17h10.18v-25.71c0-11.03-4.33-15.02-16.21-15.02M313.19,50.42c0,6.53-3.48,9.84-10.44,9.84-4.84,0-7.38-2.21-7.55-5.26-.17-2.89,1.95-4.33,5.6-4.33h6.87c2.38,0,5.01-.34,5.6-.85v.51l-.09.08Z"/>
          <path class="cls-11" d="M454.8,26.75h-18.75v9.17h19.18c3.23.25,5.26,1.36,5.26,3.9,0,1.61-1.19,3.65-4.16,3.65l-10.27.17c-10.1,0-13.66,5.18-13.66,11.2,0,7.98,7.13,12.9,15.78,12.9,6.36,0,10.69-2.04,12.56-5.6v5.17h10.18v-25.71c0-11.03-4.33-15.02-16.21-15.02M460.74,50.42c0,6.53-3.48,9.84-10.44,9.84-4.84,0-7.38-2.21-7.55-5.26-.17-2.89,1.95-4.33,5.6-4.33h6.87c2.38,0,5.01-.34,5.6-.85v.51l-.08.08Z"/>
          <path class="cls-11" d="M114.31,26.16c-13.75,0-20.28,6.62-20.28,20.79,0,.85,0,1.61.08,2.46,0,0,0,.85.09,1.19v.09c1.1,11.54,7.55,17.05,20.02,17.05,10.52,0,16.72-3.9,19.09-11.96h-11.37c-1.61,1.95-4.16,2.8-7.81,2.8-5.85,0-8.91-2.38-9.76-7.89h29.87v-1.27c0-.85.08-1.87.08-2.46,0-14.17-6.45-20.79-20.19-20.79M104.63,42.87c.93-5.26,3.9-7.55,9.76-7.55s8.82,2.29,9.76,7.55v.76h-19.51v-.76Z"/>
          <g class="cls-12">
            <g class="cls-1">
              <path class="cls-11" d="M66.79,55.6c-4.58.25-10.1,1.02-16.04,2.21l-.42-1.87c6.11-1.27,11.79-2.04,16.63-2.38.51-6.19.25-12.56-.76-18.67-5.85.26-12.81,1.02-20.19,2.55l-.42-1.95c7.47-1.44,14.34-2.29,20.28-2.55-1.27-6.79-3.31-12.9-5.94-17.99-5.35.34-11.71,1.19-18.5,2.55l-.42-1.95c6.53-1.36,12.64-2.21,17.9-2.55-3.65-6.36-8.15-10.95-12.98-12.81-4.41-.43-8.91-.17-13.49.85C19.28,4.1,9.01,13.01,3.83,24.46c5.26-4.75,16.97-9.93,31.05-13.15l2.88,12.47C18.94,28.11,3.83,34.98.02,40.58c-.08,3.05.17,6.28.76,9.42,3.05-4.84,18.75-13.66,38.86-18.24l2.72,11.79c-20.28,4.67-36.06,12.56-37.16,18.58,1.44,2.63,3.05,5,5.01,7.21.17-5.18,14.93-12.73,34.19-17.14l2.8,12.13c-15.87,3.65-28.08,9.59-27.41,13.24,9.08,5.69,20.28,7.89,31.56,5.26,1.02-.25,1.95-.51,2.89-.85,6.53-4.07,11.2-13.83,12.64-26.13"/>
            </g>
          </g>
          <g class="cls-12">
            <g class="cls-3">
              <path class="cls-11" d="M61.19,12.84c5.26-.26,9.42.17,11.96,1.1-6.28-7.04-14.76-11.79-24.01-13.41,4.5,2.12,8.65,6.36,12.05,12.3Z"/>
            </g>
          </g>
          <g class="cls-12">
            <g class="cls-4">
              <path class="cls-11" d="M83.51,37.87c-2.12-2.12-7.55-3.14-14.93-3.06.93,6.11,1.19,12.39.68,18.58,6.53-.25,11.03.42,12.13,2.12,1.95-5.52,2.72-11.54,2.12-17.65Z"/>
            </g>
          </g>
          <g class="cls-12">
            <g class="cls-7">
              <path class="cls-11" d="M62.21,14.79c2.63,5.09,4.75,11.28,6.02,18.07,4.75,0,10.78.17,15.02,2.63-.17-1.02-.34-2.04-.59-3.14-1.44-6.19-4.16-11.71-7.81-16.37-2.55-1.02-6.96-1.44-12.64-1.27"/>
            </g>
          </g>
          <g class="cls-12">
            <g class="cls-9">
              <path class="cls-11" d="M69,55.52c-1.44,11.62-5.77,20.96-11.96,25.28,10.86-4.24,19.18-12.64,23.5-22.99-1.02-1.7-5.35-2.46-11.54-2.29Z"/>
            </g>
          </g>
          <path class="cls-13" d="M37.77,23.61l-2.88-12.47c-14.08,3.31-25.79,8.4-31.05,13.15C1.54,29.3.27,34.73.02,40.33c3.82-5.51,18.92-12.39,37.76-16.8"/>
          <path class="cls-13" d="M69.25,53.4c.59-6.19.34-12.47-.68-18.58,7.47,0,12.81,1.02,14.93,3.06,0-.85-.17-1.61-.34-2.46-4.24-2.46-10.27-2.72-15.02-2.63-1.27-6.79-3.31-12.9-6.02-18.07,5.68-.25,10.01.17,12.64,1.27-.51-.68-1.1-1.44-1.7-2.04-2.55-1.02-6.7-1.36-11.96-1.1-3.39-5.94-7.55-10.27-12.05-12.3-1.1-.17-2.12-.34-3.22-.42,4.84,1.95,9.42,6.45,12.98,12.81-5.18.34-11.28,1.19-17.9,2.55l.42,1.95c6.79-1.36,13.07-2.21,18.5-2.55,2.63,5.09,4.75,11.28,5.94,17.99-5.85.25-12.81,1.1-20.28,2.55l.42,1.95c7.38-1.44,14.34-2.29,20.19-2.55,1.02,6.11,1.27,12.47.76,18.67-4.84.34-10.52,1.1-16.63,2.38l.42,1.87c5.85-1.19,11.37-1.87,16.04-2.21-1.44,12.3-6.11,22.06-12.64,26.13,1.02-.34,1.95-.68,2.88-1.02,6.11-4.24,10.52-13.58,11.96-25.28,6.19-.17,10.44.59,11.54,2.29.34-.76.59-1.53.85-2.29-1.19-1.7-5.68-2.38-12.13-2.12"/>
          <path class="cls-13" d="M42.35,43.21l-2.71-11.79C19.53,36.08,3.92,44.82.78,49.66c.08.51.17.93.25,1.44.85,3.82,2.29,7.38,4.07,10.69,1.1-6.02,16.88-13.92,37.16-18.58"/>
          <path class="cls-13" d="M47.11,64.09l-2.8-12.13c-19.18,4.41-34.02,11.96-34.19,17.14,2.8,3.22,6.02,6.02,9.59,8.23-.68-3.65,11.45-9.59,27.41-13.24Z"/>
        </g>
      </g>
    </g>
  </g>
</svg>