<?xml version="1.0" encoding="UTF-8"?>
<svg id="Layer_2" data-name="Layer 2" xmlns="http://www.w3.org/2000/svg" viewBox="0 0 611.58 297.5">
  <defs>
    <style>
      .cls-1 {
        fill: #0b82ab;
      }

      .cls-2 {
        fill: #12b3a1;
      }
    </style>
  </defs>
  <g id="Layer_1-2" data-name="Layer 1">
    <g id="esthetic">
      <path class="cls-2" d="M260.96,297.5l-.41-45.04h-15.92s-.62-.58-.62-.62v-9.3h44.45s.62.58.62.62v8.68s-.58.62-.62.62h-16.33l-.41,45.04h-10.75Z"/>
      <path class="cls-1" d="M197.7.02v40.08l-92.43-.02c-56.02-2.1-85.19,61.41-51.21,104.93,12.27,15.72,29.25,21.57,48.74,22.36,34.42,1.4,70.91-.1,105.43-.45,41.64-.41,83.3-.72,124.87-2.07,3.38-.11,7.05.28,10.37.03,25.35-1.9,27.9-41.32-3.31-43-26.22-1.41-54.16,1.74-80.25.03-22.03-1.44-43.21-19.16-49.82-39.87C197.21,41.68,222.84,1.28,265.7,0h244.8c28.94.38,54.7,11.24,74,32.65,57.19,63.47,18.86,170.82-69.04,174.79-32.41,1.47-65.91-1.14-98.43,0-1.92.16-3.92-2.72-3.92-4.35v-35.12c0-.34,1-.73,1.43-.64,31.45-1,63.79,1.4,95.14.04,22.27-.97,40.81-9.51,52.46-28.97,17.21-28.77,11.23-63.74-14.23-85.29-19.5-16.51-45.31-12.13-68.83-11.75-70.34,1.12-140.82,1.59-211.31,1.21-22.63.07-26.22,32.25-4.13,36.8,28.31,1.22,58.35-2.04,86.42.82,37.61,3.83,60.08,39.91,53.76,76.03-4.19,23.98-25.5,46.97-50.09,50.34-84.78,2.04-169.79.29-254.66.9C37.4,206.37-5.04,152.99.48,92.78,5.13,42.11,47.3.01,99.07,0l98.63.02Z"/>
      <rect class="cls-2" x="94.34" y="83.89" width="102.95" height="39.66"/>
      <rect class="cls-2" x="414.77" y="83.89" width="102.95" height="39.66"/>
      <path class="cls-2" d="M227.06,242.55v9.92h-29.15c-1.86,0-4.89,2.19-5.39,4.12-1.22,4.7.38,8.13,5.39,8.69,10.95,1.23,30.15-4.76,31.62,11.78.48,5.4.13,13.33-4.82,16.66-1.33.89-7.18,2.96-8.61,2.96h-33.28v-8.88s.58-.62.62-.62h29.36c.34,0,3.51-1.15,3.92-1.46,2.53-1.92,2.02-8.01-.67-9.64-4.01-2.42-16.25-.87-21.45-1.29-12.42-.98-16-10.79-13.23-21.93,1.54-6.19,8.25-10.32,14.48-10.32h31.22Z"/>
      <path class="cls-2" d="M408.57,242.55v9.5h-20.05c-3.37,0-7.03,3.1-8.43,6.04-.49,1.02-2.19,6.04-1.31,6.57s17.95.27,20.5.21c1.12-.03,9.29-1.25,9.29.19v8.68s-.58.62-.62.62h-29.56c-.03,3.68,1.07,8.64,3.99,11.09.62.52,3.93,2.13,4.48,2.13h21.29v9.09h-22.95c-25.73,0-26.5-54.13,2.07-54.13h21.29Z"/>
      <path class="cls-2" d="M162.56,242.55v9.5h-20.05c-.48,0-3.17.88-3.79,1.17-4.06,1.85-6.36,7.38-5.92,11.64,7.09-.16,14.22.2,21.31.02,1.1-.03,8.46-1.24,8.46.19v8.68s-.58.62-.62.62h-29.56c.1,3.75.98,8.56,3.99,11.09.62.52,3.93,2.13,4.48,2.13h21.29v9.09h-22.95c-25.64,0-26.51-54.13,2.07-54.13h21.29Z"/>
      <path class="cls-2" d="M316.37,242.55v21.9h19.85v-21.9h10.75v54.13h-10.34v-22.1s-.58-.62-.62-.62h-19.64v22.72h-10.75v-53.51s.58-.62.62-.62h10.13Z"/>
      <path class="cls-2" d="M107.98,296.67h-11.78l-4.71-12.56c-7.33-.44-14.96-.34-22.39-.06l-4.53,12.62h-11.16l21.69-54.15c3.1.45,7.44-.51,10.35.03.47.09.78.21.99.66l21.54,53.46ZM87.72,274.36l-7.01-19.23-1.05-1.02-6.83,20.25h14.88Z"/>
      <path class="cls-2" d="M558.66,242.55v8.88s-.58.62-.62.62h-20.26c-.43,0-3.37,1.12-3.91,1.47-5.21,3.33-6.28,15.8-5.76,21.41.3,3.23,1.7,8.47,4.28,10.59.41.34,3.91,2.06,4.14,2.06h21.71v9.09h-22.95c-25.81,0-26.6-54.13,2.07-54.13h21.29Z"/>
      <path class="cls-2" d="M468.52,242.96v9.09h-16.54v44.62h-10.75v-44s-.58-.62-.62-.62h-15.92v-9.09h43.83Z"/>
      <path class="cls-2" d="M497.05,296.67h-11.16v-53.51s.58-.62.62-.62h9.92s.62.58.62.62v53.51Z"/>
    </g>
  </g>
</svg>