<?xml version="1.0" encoding="UTF-8"?>
<svg id="Layer_2" data-name="Layer 2" xmlns="http://www.w3.org/2000/svg" viewBox="0 0 920.17 432.34">
  <defs>
    <style>
      .cls-1 {
        fill: #1d76bc;
      }

      .cls-2 {
        fill: #00b09e;
      }
    </style>
  </defs>
  <g id="Layer_1-2" data-name="Layer 1">
    <g>
      <path class="cls-1" d="M167.82,0h129.8v57.61h-138.22c-24.96,0-43.89,4.58-56.76,13.77-17.54,9.18-31,26.95-40.31,53.27-2.07,8.93-3.08,16.6-3.08,23.05,0,22.34,8.36,43.33,25.09,62.93,10.96,10.56,21.26,17.55,30.85,20.97,10.55,4.82,25.02,7.21,43.4,7.21h152.39l202.39-3.29c17.01,0,27.82-8.37,32.51-25.09l.41-5.56c0-11.8-5.84-20.83-17.49-27.16-4.13-2.19-9.38-3.28-15.83-3.28h-113.76c-29.73,0-54.57-13.03-74.46-39.07-8.62-14.41-12.95-29.02-12.95-43.84v-8.01c0-30.45,14.81-54.52,44.42-72.18C368.56,3.9,384.88.2,405.17.2h355.63c31.39,0,56.89,5.16,76.5,15.43,8.52,3.98,17.95,9.94,28.41,17.9,36.31,31.27,54.46,69.59,54.46,114.98s-18.57,84.25-55.71,115.78c-18.23,14.43-39.84,24.23-64.8,29.43-11.78,1.78-24.28,2.66-37.44,2.66h-134.3c-3.98-.66-5.97-3.22-5.97-7.6v-49.77h135.96c22.87,0,39.75-2.96,50.6-8.85,21.64-9.87,37.15-26.75,46.48-50.59,3.83-11.93,5.77-22.85,5.77-32.72,0-26.19-11.93-49.7-35.8-70.54-15.5-12.21-34.96-18.3-58.4-18.3l-161.67,2.96v.12h-201.55c-15.78,0-25.45,7.75-29.02,23.23v4.34c0,9.18,5.15,16.85,15.46,23.02,3.13,1.23,6.42,1.87,9.84,1.87h101.42c26.04,0,43.73,2.65,53.07,8.01,23.05,10.28,38.94,25.99,47.73,47.1,4.92,13.03,7.4,25.7,7.4,38.05,0,29.64-13.88,54.58-41.57,74.88-8.21,5.2-17.69,9.23-28.38,12.14-7.96,1.78-21.19,2.66-39.71,2.66H165.16c-33.86,0-58.96-4.08-75.28-12.35-36.49-15.91-62.6-41.93-78.38-78.15C3.85,187.78,0,168.53,0,148.1c0-44.17,17.47-81.88,52.45-113.14,22.89-17.27,43.6-27.49,62.12-30.63,9.43-2.88,27.21-4.33,53.25-4.33"/>
      <polygon class="cls-2" points="90.04 431.07 15.83 431.07 15.83 332.64 88.82 332.64 88.82 352.38 45.52 352.38 45.52 370.43 86.82 370.43 86.82 390.27 45.52 390.27 45.52 411.28 90.04 411.28 90.04 431.07"/>
      <path class="cls-2" d="M178.73,402.46c0,6.17-1.58,11.47-4.74,15.96-3.14,4.49-7.55,7.96-13.16,10.36-5.64,2.39-12.08,3.57-19.38,3.57-2.04,0-4.53-.1-7.5-.36-2.95-.31-6.88-1.02-11.78-2.19-4.89-1.17-10.02-2.91-15.3-5.25v-24.13c4.95,3.06,9.84,5.61,14.63,7.65,4.82,2.04,9.98,3.06,15.46,3.06,5.07,0,8.37-.87,9.84-2.55,1.48-1.63,2.24-3.21,2.24-4.69,0-2.65-1.27-4.89-3.85-6.73-2.55-1.79-6.27-3.67-11.14-5.61-5.41-2.29-10.15-4.74-14.2-7.44-4.06-2.65-7.4-6.02-9.98-10.04-2.6-4.03-3.88-8.78-3.88-14.28s1.3-10.1,3.9-14.38c2.61-4.28,6.58-7.7,11.93-10.25,5.36-2.54,11.89-3.82,19.61-3.82,5.48,0,10.56.51,15.23,1.58,4.67,1.07,8.49,2.29,11.55,3.57,3.01,1.38,5.1,2.39,6.22,3.16v23.05c-4.03-2.86-8.52-5.46-13.47-7.75-4.94-2.25-10.2-3.37-15.86-3.37-3.68,0-6.38.72-8.01,2.09-1.68,1.43-2.5,3.21-2.5,5.3,0,1.93.82,3.57,2.5,5,1.63,1.43,4.59,3.16,8.88,5.2,7.57,3.57,13.62,6.73,18.15,9.59,4.57,2.86,8.11,6.12,10.72,9.85,2.58,3.72,3.88,8.31,3.88,13.87"/>
      <path class="cls-2" d="M288.79,403.17c0,8.47-2.9,15.24-8.72,20.29-5.76,5.05-13.87,7.6-24.29,7.6h-56.9v-98.43h47.58c6.17,0,11.53.61,16.09,1.79,4.57,1.17,8.24,2.8,11.04,4.84,2.81,2.09,4.87,4.49,6.25,7.29,1.38,2.81,2.06,5.86,2.06,9.18,0,3.57-.71,6.94-2.14,9.94-1.43,3.06-3.17,5.61-5.31,7.55-2.09,1.99-4.21,3.37-6.33,4.18,6.71,2.65,11.83,5.97,15.35,10.05,3.52,4.03,5.3,9.28,5.3,15.71M254.14,361c0-4.74-1.56-7.91-4.69-9.44-3.14-1.58-7.98-2.35-14.62-2.35h-6.28v23.56h6.4c6.76,0,11.66-.76,14.67-2.34,3.01-1.58,4.52-4.69,4.52-9.44ZM258.96,401.95c0-8.42-6.1-12.65-18.31-12.65h-12.09v25.24h12.09c12.21,0,18.31-4.18,18.31-12.59Z"/>
      <path class="cls-2" d="M443.81,424.13c-2.12.77-3.95,1.42-5.48,1.99-1.5.51-2.96.96-4.36,1.37-1.4.46-3.42,1.02-6.07,1.68-4.52,1.02-8.97,1.83-13.44,2.34-4.49.56-9.2.82-14.18.82-10,0-19.23-1.83-27.69-5.46-8.47-3.62-15.25-9.28-20.35-16.98-5.1-7.65-7.64-17.09-7.64-28.26,0-7.19,1.32-14.28,3.94-21.21,2.63-6.94,6.66-12.45,12.04-16.63,4.46-3.47,8.95-6.12,13.53-7.91,4.57-1.84,9.03-3.06,13.37-3.68,4.39-.61,9.18-.92,14.44-.92,8.67,0,15.81.66,21.44,1.94,5.64,1.33,11.81,3.01,18.54,5.15v23.31c-4.47-2.61-9.18-4.8-14.13-6.53-4.99-1.78-11.17-2.65-18.61-2.65-8.57,0-15.43,1.63-20.56,4.9-5.15,3.21-8.72,7.08-10.71,11.58-2.03,4.48-3.03,8.88-3.03,13.05,0,5,1.15,9.59,3.49,13.77,2.3,4.18,5.82,7.54,10.51,10.09,4.69,2.5,10.33,3.78,16.96,3.78,3.8,0,7.83-.51,12.06-1.48v-11.58h-13.34v-19.84h39.27v47.33Z"/>
      <path class="cls-2" d="M562.46,431.07h-31.88l-7.75-17.44c-2.83-6.42-5.38-11.07-7.64-14.02-2.3-2.96-4.5-4.9-6.66-5.72-2.15-.82-4.93-1.23-8.34-1.23h-3.34v38.4h-29.68v-98.43h50.5c8.13,0,14.81,1.68,20.01,4.99,5.21,3.32,8.98,7.34,11.27,12.03,2.3,4.74,3.44,9.28,3.44,13.52,0,5-.97,9.18-2.88,12.6-1.92,3.41-3.93,5.91-6.07,7.49-2.14,1.58-4.54,3.06-7.19,4.49,3.19,1.83,5.82,4.03,7.86,6.58,2.07,2.5,4.87,7.65,8.42,15.35l9.94,21.37ZM522.11,363.75c0-4.54-1.48-7.71-4.46-9.49-2.98-1.84-7.83-2.7-14.56-2.7h-6.25v23.72h6.4c7.24,0,12.19-.82,14.87-2.4,2.68-1.58,4-4.64,4-9.13Z"/>
      <path class="cls-2" d="M681.26,381.8c0,9.18-2.12,17.64-6.35,25.35-4.23,7.7-10.55,13.82-18.92,18.42-8.38,4.54-18.59,6.78-30.6,6.78s-22.49-2.34-30.9-7.09c-8.42-4.74-14.68-10.96-18.77-18.66-4.11-7.75-6.17-15.97-6.17-24.79s2.04-17.14,6.12-24.84c4.08-7.69,10.35-13.87,18.77-18.61,8.47-4.69,18.77-7.04,30.95-7.04,9.08,0,17.19,1.33,24.33,4.03,7.09,2.7,12.96,6.38,17.54,10.96,4.6,4.64,8.09,10,10.46,16.12,2.35,6.17,3.54,12.6,3.54,19.38M650.99,381.8c0-3.73-.51-7.09-1.63-10.15-1.07-3.01-2.71-5.66-4.92-7.96-2.19-2.24-4.87-3.98-8.06-5.25-3.18-1.23-6.83-1.83-10.99-1.83-7.95,0-14.23,2.29-18.77,6.94-4.53,4.64-6.81,10.71-6.81,18.26s2.27,13.62,6.87,18.26c4.56,4.68,10.81,7.03,18.71,7.03,5.43,0,10.08-1.12,13.9-3.27,3.85-2.14,6.76-5.15,8.75-8.92,1.99-3.82,2.95-8.22,2.95-13.11Z"/>
      <path class="cls-2" d="M802.26,387.01c0,8.42-1.58,15.61-4.72,21.52-3.13,5.97-7.32,10.66-12.49,14.08-5.18,3.47-10.79,5.97-16.75,7.5-6,1.48-11.98,2.24-17.96,2.24-8.31,0-16.42-1.43-24.29-4.23-7.88-2.86-14.48-7.7-19.79-14.48-5.28-6.84-7.93-15.71-7.93-26.62v-54.36h29.57v46.66c0,6.48.97,11.83,2.81,16.07,1.89,4.28,4.49,7.34,7.83,9.33,3.33,1.93,7.26,2.95,11.8,2.95s8.21-.97,11.58-2.91c3.37-1.93,5.99-5.05,7.85-9.23,1.89-4.23,2.8-9.59,2.8-16.07v-46.81h29.68v54.36Z"/>
      <path class="cls-2" d="M910.79,363.6c0,3.67-.66,7.24-1.88,10.71-1.28,3.47-3.29,6.73-6.07,9.74-2.81,3.01-6.57,5.41-11.35,7.29-4.77,1.89-10.35,2.81-16.8,2.81h-19.44v36.92h-29.68v-98.43h49.11c6.45,0,12.03.97,16.8,2.85,4.78,1.89,8.54,4.33,11.35,7.39,2.78,3.01,4.79,6.33,6.07,9.84,1.23,3.57,1.88,7.19,1.88,10.87M880.52,363.75c0-4.7-1.4-7.91-4.15-9.59-2.76-1.74-7.72-2.6-14.89-2.6h-6.22v23.72h6.37c4.95,0,8.72-.31,11.38-.92,2.65-.61,4.56-1.78,5.76-3.42,1.17-1.68,1.76-4.07,1.76-7.19Z"/>
      <rect class="cls-2" x="141.75" y="119.69" width="154.89" height="57"/>
      <rect class="cls-2" x="624.21" y="119.8" width="154.86" height="56.99"/>
    </g>
  </g>
</svg>