<?xml version="1.0" encoding="UTF-8"?>
<svg id="Layer_2" data-name="Layer 2" xmlns="http://www.w3.org/2000/svg" viewBox="0 0 376.95 148.66">
  <defs>
    <style>
      .cls-1 {
        fill: #03719b;
        fill-rule: evenodd;
      }
    </style>
  </defs>
  <g id="Layer_1-2" data-name="Layer 1">
    <g>
      <path class="cls-1" d="M48.31,115.28c0,3.36,2.32,5.59,5.27,5.59h318.11c2.95,0,5.27-2.71,5.27-4.47v-1.36c-.08-1.28-.4-2.56-1.68-3.59-.96-.88-2.32-1.36-4.07-1.36H54.14c-2.32,0-4.15,1.04-5.27,2.95-.32.64-.56,1.27-.56,2.23Z"/>
      <path class="cls-1" d="M54.78,95.8c0,2.55,1.52,4.47,2.87,5.75,1.52,1.2,3.99,2.07,6.55,2.07h60.76c8.15,0,7.67-9.18,2.32-11.26-1.36-.56-38.57-.24-43.36-.24-2.16,0-3.43.24-4.47-.96-1.04-1.27-.72-2.55-.08-4.07l7.98-19.16c.56-1.44,1.04-2.56,1.68-3.91l16.13-38.25c.72-1.84,3.19-6.55,3.19-8.06,0-3.83-4.71-6.71-9.5-6.71-2.79,0-4.39.88-6.31,1.84-1.68.88-3.11,2.24-4.31,3.68-1.36,1.52-2.16,3.27-2.95,5.11-.4.96-.72,1.76-1.2,2.71l-5.91,14.21c-.88,1.92-1.52,3.75-2.32,5.67l-3.59,8.54c-.32.96-.72,1.91-1.2,2.87-.88,1.92-1.52,3.67-2.32,5.67l-7.19,17.09c-.4,1.04-.72,1.84-1.2,2.79l-3.52,8.54c-.72,1.68-2.16,4.39-2.16,6.15"/>
      <path class="cls-1" d="M311.72,97.16c0,3.75,2.79,6.55,6.23,6.55,6.55,0,6.63-4.15,7.35-8.47l1.92-13.26c.24-1.75,1.2-7.42,1.2-8.86.32.48.24.32.4.88l.96,3.35c1.68,5.91,4.47,16.45,6.23,21.72,2,5.99,11.42,6.47,13.57-.08l4.95-17.09c.4-1.36.88-2.88,1.28-4.31l1.2-4.39,3.43,22.04c.64,3.83.56,8.54,7.27,8.54,3.19,0,6.07-2.63,6.07-5.75,0-2.79,0-2.07-.4-4.79l-6.23-36.89c-.4-2.63-1.04-3.67-2.63-5.19-3.67-3.59-10.22-2.79-13.33,2.16-1.28,2.24-7.58,25.79-8.31,26.91l-5.35-18.05c-.56-1.52-.88-3.04-1.28-4.47-.56-1.52-.88-3.11-1.6-4.39-1.92-3.51-6.71-5.43-11.02-3.67-1.04.48-1.6.95-2.32,1.59-2.95,2.24-2.88,7.43-3.83,11.9l-1.59,10.22c-.24.96-.4,2.24-.64,3.35-.32,2.16-.72,4.55-1.2,6.87l-1.6,10.06c-.24,1.28-.56,2.32-.56,3.59"/>
      <path class="cls-1" d="M139.73,56.84v38.57c0,4.95,2.16,8.22,7.27,8.22h29.7c6.86,0,7.26-7.19,4.39-9.66-.95-.88-2.55-1.52-4.39-1.52h-23.31v-12.14h21.56c2.47,0,4.95-2.47,4.95-4.87,0-1.84-.24-2.95-1.68-4.31-.72-.8-2.24-1.43-3.75-1.43h-21.08v-10.06h22.75c6.31,0,7.35-7.26,3.52-9.9-1.36-.88-3.27-1.2-5.43-1.2h-25.23c-6.23,0-9.26,1.91-9.26,8.22"/>
      <path class="cls-1" d="M240.5,55.16v42.32c0,6.23,8.14,8.14,11.74,3.91,1.2-1.36,1.52-3.11,1.52-5.59v-12.86h15.89v14.77c0,3.59,2.88,5.91,6.87,5.91,3.19,0,6.23-2.79,6.23-5.91v-43.11c0-1.2-.56-2.47-1.2-3.27l-.72-.8c-3.75-3.51-11.1-1.28-11.1,4.47v14.77h-15.89v-13.1c0-2.71-.32-3.99-1.52-5.59-2.79-3.99-11.74-2.71-11.74,4.07"/>
      <path class="cls-1" d="M189.55,55.16v42.32c0,6.23,7.99,8.14,11.66,3.99,1.2-1.36,1.68-2.87,1.6-5.43v-14.21c.72.48,4.31,4.47,5.43,5.67l5.35,5.83c.4.56.88.96,1.36,1.44.56.56.72.96,1.27,1.44l1.84,1.92s.08.16.08.24c1.68,1.92,4.79,5.27,7.51,5.27,6.63,0,8.86-5.43,5.91-9.82-1.36-2.23-3.2-3.59-4.95-5.51l-12.7-13.26s0-.16-.4-.32c.32-.96,7.26-7.42,7.51-7.66l.08-.08c2.56-2.55,9.18-8.22,9.18-11.5,0-6.55-7.26-8.86-11.66-4.31-.4.56-.64.88-1.2,1.36l-5.43,5.75c-1.2,1.44-4.31,4.39-5.35,5.75l-3.83,3.91c0-4.15.24-8.78,0-12.85-.4-9.02-13.26-7.9-13.26,0"/>
      <path class="cls-1" d="M28.98,46.62c0,3.99-.08,5.99,1.84,9.74,2.87,5.75,8.78,10.22,15.49,10.22,6.07,0,9.82-1.52,13.89-5.51,6.23-6.23,6.87-17.57,1.2-24.27-1.2-1.36-1.84-2.16-3.43-3.35-.88-.72-1.68-1.12-2.79-1.68-.56-.32-.72-.48-1.52-.72-5.75-2.23-12.06-1.43-17.09,2.08-3.91,2.71-7.59,8.62-7.59,13.49ZM37.69,49.73c0,4.15.56,5.75,2.95,8.86.4.48.88.72,1.36,1.2,1.2,1.04,3.99,2.4,5.67,2.4v.24c-2.47,0-4.31-.32-5.99-1.04-9.82-4.15-11.66-17.01-4.31-23.71,9.74-8.86,23.48-.72,23.48,9.82v-.16c-.08.24-.24-.64-.64-1.68-.32-.56-.56-1.12-.96-1.75-.4-.88-1.52-2.08-2.32-2.63-1.04-.88-1.6-1.28-3.11-1.92-4.31-1.84-9.5-.64-12.7,2.47-1.6,1.6-3.51,4.63-3.51,7.83l.08.08ZM45.27,50.69c0-6.07,8.22-5.51,8.22-.56,0,1.36-.08,2.64-1.28,3.59-3.11,2.56-6.95.08-6.95-3.03Z"/>
      <path class="cls-1" d="M20.52,47.33c0,7.51,2.32,14.37,7.67,19.72,4.63,4.47,11.1,7.9,18.05,7.9,4.39,0,6.55-.24,10.46-1.76,2.16-.88,1.6-.64,3.11-4.07l3.11-7.51c-.64.4-.88.96-1.36,1.44-.56.48-.96.88-1.52,1.28-3.68,3.27-8.23,4.71-13.57,4.71-6.55,0-12.86-3.84-16.37-9.02-3.75-5.67-4.95-13.49-1.92-20.04.4-1.12,1.04-2.16,1.68-3.27.32-.48.72-1.04,1.04-1.44,4.15-4.79,8.78-7.74,16.53-7.74,4.63,0,9.82,2.08,12.85,5.03.64.64.88.56,1.36,1.27.64.88.64.64,1.68,2.08.24.32.32.4.56.72,2.32,3.27,4.31,9.74,3.27,13.81.56-.16.4-.24.72-1.11.24-.48.4-.96.56-1.36.4-.96.88-1.84,1.2-2.79,2.47-6.15,3.11-4.79.88-9.18-.64-1.2-1.27-2.16-2-3.27-3.43-5.11-9.1-8.94-15.17-10.46-7.67-1.92-16.05-.24-22.12,4.39-.72.56-1.2.8-1.84,1.43-3.19,3.27-4.39,4.39-6.63,9.02-1.2,2.47-2.32,6.79-2.32,10.3"/>
      <path class="cls-1" d="M291.99,55v42.72c0,5.51,7.19,7.74,11.1,4.31.88-.8,2-2.39,2-3.99v-43.43c0-.96-.32-1.76-.64-2.4-.24-.4-.88-1.36-1.28-1.76-3.83-3.59-11.18-1.11-11.18,4.47"/>
      <path class="cls-1" d="M66.75,24.42c0,1.52,1.2,3.19,2.32,3.67,2.63,1.2,4.71-.16,5.75-2.55.96-2.16,4.79-9.74,4.79-11.18,0-3.99-5.59-5.91-7.67-1.92-.4.64-.64,1.2-.96,1.92-.32.72-.64,1.27-.96,2-.56,1.36-1.04,2.55-1.68,3.83-.4.72-.56,1.28-.88,1.92-.4.72-.72,1.36-.72,2.32Z"/>
      <path class="cls-1" d="M50.54,18.99c5.67,0,4.63-4.87,4.07-8.06-.32-1.52-.4-2.95-.64-4.39-.32-1.44-.24-3.11-.72-4.23-.72-1.75-2.55-2.55-4.31-2.23-1.68.24-3.19,1.43-3.51,3.59-.08.8.24,2.16.32,2.95l1.28,9.18c.4,1.84,1.6,3.36,3.51,3.36"/>
      <path class="cls-1" d="M15.09,81.83c2.55,0,3.51-1.43,5.43-3.43.56-.56.96-.8,1.6-1.36.96-.96,1.84-1.91,2.87-2.87.4-.48.96-.88,1.28-1.44,2.16-2.95-.64-6.39-3.11-6.39s-3.59,1.68-4.95,2.95c-1.36,1.36-2.56,2.56-3.91,3.91-1.28,1.28-3.19,2.24-2.95,4.63.08,2.08,1.68,3.99,3.75,3.99Z"/>
      <path class="cls-1" d="M42.24,95.24c3.43,0,3.91-3.19,5.35-5.83.32-.64.56-1.12.88-1.76l1.68-3.75c2.48-4.79-3.19-8.06-6.07-5.19-1.52,1.44-3.83,7.43-5.11,10.06-.4,1.12-.88,1.59-.72,2.87.32,2,1.92,3.68,4.07,3.68"/>
      <path class="cls-1" d="M25.95,27.77c2.32,0,4.07-1.75,4.07-4.31,0-1.36-1.04-2.79-1.68-3.75l-4.15-6.63c-1.28-2.16-2.32-2.32-4.15-2.32-.64,0-1.04.16-1.52.4-.08.08-.96.64-1.04.8-2.55,2.56-.08,5.51,1.28,7.74.4.8.96,1.52,1.36,2.32,1.84,2.79,3.11,5.75,5.91,5.75"/>
      <path class="cls-1" d="M0,45.26c0,4.31,2,4.63,5.99,5.03,1.36.16,2.95.4,4.31.56,2.95.32,4.71.96,6.55-.4,2-1.52,2.16-5.03-.32-6.7-.88-.56-2.79-.72-3.99-.88l-8.78-.96c-2,0-3.75,2.08-3.75,3.36Z"/>
      <path class="cls-1" d="M50.22,137.8c0,10.7,12.69,7.11,12.69,4.87v-4.87h-5.43c-.88,0-.88,1.92,0,1.92h3.52v2c0,1.6-8.78,3.67-8.78-3.19,0-1.76,0-3.2,1.28-4.47,1.52-1.75,4.71-1.84,6.07-.64,1.04.8.88,1.11,1.36,2.16.72-.16.88-.32,1.68-.4-.08-2.32-2.55-4.31-5.27-4.31-2.47,0-3.83.32-5.43,2-1.04,1.12-1.84,2.88-1.84,4.87"/>
      <path class="cls-1" d="M304.93,135.96c0-1.28.08-1.12-1.68-1.12v10.06h1.92v-6.47c0-2.23,3.83-3.27,3.83-.24v6.71h1.92c0-1.84-.32-6.63.4-7.75.96-1.27,3.43-1.2,3.43.64v7.11h1.92v-7.67c0-2.08-3.27-4.23-6.23-.96-.32-1.12-1.36-1.68-2.79-1.68-1.52,0-1.92.72-2.79,1.28"/>
      <path class="cls-1" d="M177.97,135.96c0-1.12.08-1.12-1.04-1.12-.4,0-.64.16-.64.56v9.5h1.68c0-4.15-.72-8.55,2.64-8.55.96,0,1.52.8,1.52,1.68v6.87h1.84v-6.15c0-1.52.96-2.4,2.47-2.4,1.6,0,1.68,1.76,1.68,3.36v5.19h1.6v-7.11c0-2.07-1.04-3.19-3.11-3.19-1.6,0-2.16.88-2.95,1.44-.64-.96-1.36-1.44-2.88-1.44s-1.91.72-2.79,1.28"/>
      <path class="cls-1" d="M134.38,144.9c2.55,0,2,.96,2-5.59,2.79,0,8.31.8,8.31-3.51,0-1.52.24-2.95-1.68-4.07-1.59-.88-6.63-.64-8.62-.64v13.81ZM139.97,137.64h-3.52v-4.71h4.47c1.2,0,2,1.11,2,2.23,0,1.76-1.28,2.47-2.95,2.47Z"/>
      <path class="cls-1" d="M277.47,137.8c0,3.27,1.59,6.71,5.11,7.27,3.99.56,6.39-1.28,7.19-4.63-.72,0-1.2-.32-2-.4-.08.96-.4,1.68-.96,2.23-2.16,2.24-7.27,1.68-7.27-4.23,0-6.71,7.03-6.79,7.99-2.63.72,0,1.52-.24,2.16-.4-1.36-2.87-2.23-4.15-6.23-4.15-3.27,0-5.99,3.27-5.99,6.95Z"/>
      <path class="cls-1" d="M96.3,135.96v-1.12c-1.2,0-1.68-.16-1.68.56v13.25h1.92v-4.47c1.52,1.04,2.95,1.36,4.71.4,3.51-2.08,2.87-9.9-2.16-9.9-1.52,0-1.92.72-2.79,1.28ZM96.3,140.03c0-4.71,5.27-5.83,5.27.24,0,4.63-5.27,4.47-5.27-.24Z"/>
      <path class="cls-1" d="M321.14,135.96c0-.74-.4-1.12-1.2-1.12-.4,0-.56.16-.56.56v13.25h1.92v-4.47c1.2.8,1.04.96,2.79.96,5.35,0,5.67-10.46-.24-10.46-1.52,0-1.92.72-2.8,1.28M321.14,140.03c0-5.27,5.27-4.79,5.27-.72,0,1.92-.24,4.23-2.88,4.23-1.59,0-2.32-1.84-2.32-3.51h-.08Z"/>
      <path class="cls-1" d="M255.99,137.8c.72.16.88.24,1.92.24.24-1.28,1.04-1.92,2.55-1.84,1.68.08,2,.48,2,2.39-3.43.8-6.71.24-6.71,3.91,0,2.55,2.32,2.63,3.91,2.63s2.16-1.04,3.2-1.12c0,.8-.08.48.24.96h1.84c-.24-.96-.56-1.28-.56-2.95-.08-4.55.96-7.26-4.15-7.26-2.24,0-3.75,1.04-4.31,3.19M259.9,143.55c-3.2,0-2.88-2.55-.32-2.87,1.27-.24,1.84-.4,2.87-.64,0,1.12.08,1.84-.4,2.55-.4.56-1.2.96-2.16.96Z"/>
      <path class="cls-1" d="M330.24,137.8c.88.16.96.24,1.92.24.32-1.28,1.04-1.92,2.56-1.84,1.68.08,2,.48,2,2.39-3.43.8-6.63.24-6.63,3.91,0,2.55,2.32,2.63,3.83,2.63,1.59,0,2.16-1.04,3.19-1.12,0,.8,0,.48.24.96h1.84c-.08-.64-.24-.48-.32-1.28-.96-4.87,1.84-8.94-4.31-8.94-1.04,0-2.32.4-2.95.8-.72.56-1.04,1.36-1.36,2.39M334.15,143.55c-3.19,0-2.87-2.55-.32-2.87,1.28-.24,1.84-.4,2.88-.64,0,1.52,0,3.51-2.56,3.51Z"/>
      <path class="cls-1" d="M194.18,137.96c.24-2.07,2.79-2.23,4.15-1.36.56.4.56.96.56,1.92-.72.16-1.36.32-2.24.4-.56.08-1.52.16-2.23.4-.56.16-1.28.48-1.6.96-1.68,1.92-.56,4.79,2.16,4.79,2.47,0,2.24,0,4.15-1.27l.24,1.12h2c-2.16-3.99,2.24-10.22-4.71-10.22-2.32,0-4.39,1.6-4.31,2.79,0,.8.96.56,1.84.56M196.5,143.55c-1.52,0-2.47.24-2.47-1.68,0-1.28,3.2-1.44,4.95-1.92,0,1.68-.4,3.52-2.47,3.52v.08Z"/>
      <path class="cls-1" d="M356.67,139.88c0,1.36.56,2.87,1.2,3.67,1.84,2.08,5.59,2.16,7.26.16.24-.24.88-1.2.88-1.59-.08-.56,0-.24-.64-.32-.4-.08-.72-.16-1.2-.16-.56,1.12-.88,2-2.55,2-1.84,0-2.79-1.36-2.79-3.2h7.26c0-1.59,0-3.03-1.28-4.31-2.63-2.71-6.63-1.28-7.67,1.6-.08.4-.4,1.84-.4,2.16M364.18,138.92h-5.35c.24-2.79,4.31-4.55,5.35,0Z"/>
      <path class="cls-1" d="M159.93,137.96c.08-.56.32-1.2.72-1.44.56-.32,3.99-1.43,4.07,2-.72,0-1.28.32-2.16.4-.72.08-1.6.16-2.24.32-3.75,1.04-2.95,5.75.32,5.75,1.04,0,1.84,0,2.79-.4.88-.4.64-.64,1.52-.8,0,.8-.08.48.24.96h1.84c-.56-2.16-.56-4.07-.56-6.47,0-2.23-.4-3.75-3.75-3.75-3.75,0-5.59,3.04-4.07,3.36.32.08.95,0,1.27,0M161.93,143.55c-3.2,0-2.88-2.55-.32-2.87,1.27-.24,2-.4,3.11-.64,0,1.92-.64,3.51-2.79,3.51Z"/>
      <path class="cls-1" d="M213.11,139.88c0,7.19,8.94,6.31,9.1,1.84l-1.68-.16c-.56,1.04-.96,2-2.56,2-2.16,0-2.55-1.44-2.95-3.19h7.51c0-7.26-6.39-6.47-8.15-4.23-.72.88-1.2,2.16-1.2,3.67M220.37,138.92h-5.27c0-3.59,5.27-3.67,5.27,0Z"/>
      <path class="cls-1" d="M147.24,131.65v13.26h1.84c0-4.63-.72-8.55,2.88-8.55,1.6,0,1.84,1.68,1.84,3.2v5.43h1.68v-7.26c0-2-1.59-2.95-3.51-2.95-1.28,0-2,.64-2.88,1.12v-4.71c-1.27,0-1.84-.16-1.84.56"/>
      <path class="cls-1" d="M110.82,139.72c0,2.71,1.36,5.43,4.15,5.43,2.32,0,4.47-.64,5.11-3.11,2-7.83-6.87-9.5-8.78-4.47-.24.4-.56,1.75-.56,2.16M112.74,139.88c0-3.27,3.11-4.95,5.03-2.56,1.04,1.36,1.52,6.31-2.47,6.31-1.68,0-2.56-1.92-2.56-3.68v-.08Z"/>
      <path class="cls-1" d="M291.44,139.47c0,1.52-.08,1.36.4,2.79,1.52,4.47,8.86,3.43,8.86-1.27,0-2.4.32-3.43-1.36-5.11-2.79-2.63-7.9-1.04-7.9,3.59ZM293.35,140.03c0-5.51,5.59-4.47,5.59-.96,0,1.68.08,4.47-2.79,4.47-1.92,0-2.79-1.68-2.79-3.51Z"/>
      <path class="cls-1" d="M71.78,139.88c0,7.03,9.5,7.03,9.5,0,0-1.52-.4-2.88-1.04-3.68-1.92-2.16-5.59-1.91-7.19-.08-.64.88-1.28,2.24-1.28,3.75ZM79.45,139.88c0,4.79-5.03,4.79-5.59,1.28-.24-1.28-.24-2.88.56-3.83,1.84-2.16,5.03-1.04,5.03,2.56Z"/>
      <path class="cls-1" d="M368.17,137.24c0,2.79,1.59,2.71,4.71,3.67,2.95.96.88,2.63-.64,2.63-1.27,0-2.47-.32-2.55-2-.4,0-1.6.08-1.68.4-.24.32.24,1.2.4,1.59,1.84,2.56,7.83,2.08,7.83-1.59,0-2.4-2.32-2.72-4.79-3.36-.95-.32-1.27-.24-1.52-1.28,1.2-1.75,3.91-1.36,4.07.56.96,0,1.04-.16,1.92-.16-.4-4.31-7.67-3.52-7.67-.4"/>
      <path class="cls-1" d="M83.52,142.11c0,2.32,1.84,2.95,3.75,2.95,1.52,0,2-.72,2.87-1.28v1.12h1.6v-9.5c0-.72-.32-.56-1.28-.56s-.56,3.43-.56,5.27c-.08,4.47-3.59,3.91-4.31,2.56-.72-1.36.56-7.83-.72-7.83h-1.36v7.27Z"/>
      <path class="cls-1" d="M224.69,135.4c0,6.23-.96,9.66,3.99,9.66,1.52,0,1.68-.72,2.56-1.27v1.12h1.68v-9.5c0-.72-.4-.56-1.36-.56-.88,0-.56,1.36-.56,2.24v2.95c0,1.76-.32,3.51-2.32,3.51s-2.16-1.52-2.16-3.51v-2.79c0-2.32.4-2.47-1.27-2.47-.4,0-.56.16-.56.56"/>
      <path class="cls-1" d="M343.34,135.96c0-.74-.4-1.12-1.2-1.12-.4,0-.56.16-.56.56v9.5h1.84v-5.75c0-3.59,4.47-3.84,4.47-.56v6.31h1.92v-6.87c0-2.08-1.52-3.36-3.52-3.36-1.52,0-2.23.72-2.95,1.28Z"/>
      <path class="cls-1" d="M245.69,139.88c0,7.19,8.63,6.39,8.78,1.44-2.88-.4-1.04-.16-2.32,1.36-1.04,1.36-3.11,1.04-3.99-.32-1.2-1.92-.64-6.31,2.24-6.31,1.6,0,2,1.68,2.23,2.07.88,0,.72-.16,1.68-.16-.08-4.47-8.63-5.11-8.63,1.84"/>
      <path class="cls-1" d="M203.21,139.08c0,1.76-.08,3.27,1.2,4.63,1.68,1.84,4.79,1.76,6.38.16.64-.64.96-1.52,1.2-2.55-.88,0-.88-.16-1.84-.16-.32,3.59-5.11,3.03-5.11-.56,0-1.68,0-3.67,2.16-4.31,1.36-.4,2.64.48,2.8,1.92l1.84-.24c-1.04-4.63-5.67-3.51-7.19-2.16-.64.48-1.36,2.24-1.36,3.27"/>
      <path class="cls-1" d="M122.96,133.49v1.28c-1.68,0-1.52-.16-1.52,1.52h1.52v8.54h1.84v-8.54h1.92c0-1.76.24-1.52-1.92-1.52,0-1.36-.24-2.24,1.68-2.16.32,0,.88.72.96-1.52-2-.48-4.47-.32-4.47,2.4Z"/>
      <path class="cls-1" d="M236.18,132.77v2c-1.52,0-1.28-.16-1.28,1.52h1.28v7.11c0,2.24,3.2,1.52,3.52,1.44,0-.64-.03-1.2-.08-1.68-1.28.24-.4.24-1.52,0-.4-1.76-.24-5.03-.24-6.95h1.68v-1.52h-1.68v-3.35c-.56.24-1.68.64-1.68,1.28"/>
      <path class="cls-1" d="M267.4,144.91c1.28,0,1.84.24,1.84-.56v-12.69c0-.72-.56-.56-1.84-.56v13.82Z"/>
      <path class="cls-1" d="M67.31,135.96c0-1.12.08-1.12-1.04-1.12-.4,0-.56.16-.56.56v9.5h1.84c0-1.52-.08-6.15.32-7.35.72-1.76,2.47-.72,2.87-.64.08-.56,1.2-2.24-1.28-2.24-1.28,0-1.52.88-2.16,1.28Z"/>
      <path class="cls-1" d="M171.11,135.96c0-.74-.4-1.12-1.2-1.12-.4,0-.56.16-.56.56v9.5h1.84c0-1.68-.24-6.31.4-7.43.72-1.59,2.23-.56,2.79-.56,0-.48,1.27-2.24-1.28-2.24-1.28,0-1.52.88-2,1.28Z"/>
      <path class="cls-1" d="M241.69,135.4v9.5h1.84v-9.5c0-.88-1.84-.88-1.84,0Z"/>
      <path class="cls-1" d="M352.68,135.4v9.5h1.84v-9.5c0-.88-1.84-.88-1.84,0Z"/>
      <path class="cls-1" d="M352.68,131.65v1.52h1.84v-2.08h-1.27c-.4,0-.56.16-.56.56Z"/>
      <path class="cls-1" d="M241.69,133.17h1.84v-1.52c0-.4-.08-.56-.56-.56h-1.28v2.08Z"/>
      <path class="cls-1" d="M48.31,115.28c0,3.36,2.32,5.59,5.27,5.59h318.11c2.95,0,5.27-2.71,5.27-4.47v-1.36c-.08-1.28-.4-2.56-1.68-3.59-.96-.88-2.32-1.36-4.07-1.36H54.14c-2.32,0-4.15,1.04-5.27,2.95-.32.64-.56,1.27-.56,2.23Z"/>
      <path class="cls-1" d="M54.78,95.8c0,2.55,1.52,4.47,2.87,5.75,1.52,1.2,3.99,2.07,6.55,2.07h60.76c8.15,0,7.67-9.18,2.32-11.26-1.36-.56-38.57-.24-43.36-.24-2.16,0-3.43.24-4.47-.96-1.04-1.27-.72-2.55-.08-4.07l7.98-19.16c.56-1.44,1.04-2.56,1.68-3.91l16.13-38.25c.72-1.84,3.19-6.55,3.19-8.06,0-3.83-4.71-6.71-9.5-6.71-2.79,0-4.39.88-6.31,1.84-1.68.88-3.11,2.24-4.31,3.68-1.36,1.52-2.16,3.27-2.95,5.11-.4.96-.72,1.76-1.2,2.71l-5.91,14.21c-.88,1.92-1.52,3.75-2.32,5.67l-3.59,8.54c-.32.96-.72,1.91-1.2,2.87-.88,1.92-1.52,3.67-2.32,5.67l-7.19,17.09c-.4,1.04-.72,1.84-1.2,2.79l-3.52,8.54c-.72,1.68-2.16,4.39-2.16,6.15"/>
      <path class="cls-1" d="M311.72,97.16c0,3.75,2.79,6.55,6.23,6.55,6.55,0,6.63-4.15,7.35-8.47l1.92-13.26c.24-1.75,1.2-7.42,1.2-8.86.32.48.24.32.4.88l.96,3.35c1.68,5.91,4.47,16.45,6.23,21.72,2,5.99,11.42,6.47,13.57-.08l4.95-17.09c.4-1.36.88-2.88,1.28-4.31l1.2-4.39,3.43,22.04c.64,3.83.56,8.54,7.27,8.54,3.19,0,6.07-2.63,6.07-5.75,0-2.79,0-2.07-.4-4.79l-6.23-36.89c-.4-2.63-1.04-3.67-2.63-5.19-3.67-3.59-10.22-2.79-13.33,2.16-1.28,2.24-7.58,25.79-8.31,26.91l-5.35-18.05c-.56-1.52-.88-3.04-1.28-4.47-.56-1.52-.88-3.11-1.6-4.39-1.92-3.51-6.71-5.43-11.02-3.67-1.04.48-1.6.95-2.32,1.59-2.95,2.24-2.88,7.43-3.83,11.9l-1.59,10.22c-.24.96-.4,2.24-.64,3.35-.32,2.16-.72,4.55-1.2,6.87l-1.6,10.06c-.24,1.28-.56,2.32-.56,3.59"/>
      <path class="cls-1" d="M139.73,56.84v38.57c0,4.95,2.16,8.22,7.27,8.22h29.7c6.86,0,7.26-7.19,4.39-9.66-.95-.88-2.55-1.52-4.39-1.52h-23.31v-12.14h21.56c2.47,0,4.95-2.47,4.95-4.87,0-1.84-.24-2.95-1.68-4.31-.72-.8-2.24-1.43-3.75-1.43h-21.08v-10.06h22.75c6.31,0,7.35-7.26,3.52-9.9-1.36-.88-3.27-1.2-5.43-1.2h-25.23c-6.23,0-9.26,1.91-9.26,8.22"/>
      <path class="cls-1" d="M240.5,55.16v42.32c0,6.23,8.14,8.14,11.74,3.91,1.2-1.36,1.52-3.11,1.52-5.59v-12.86h15.89v14.77c0,3.59,2.88,5.91,6.87,5.91,3.19,0,6.23-2.79,6.23-5.91v-43.11c0-1.2-.56-2.47-1.2-3.27l-.72-.8c-3.75-3.51-11.1-1.28-11.1,4.47v14.77h-15.89v-13.1c0-2.71-.32-3.99-1.52-5.59-2.79-3.99-11.74-2.71-11.74,4.07"/>
      <path class="cls-1" d="M189.55,55.16v42.32c0,6.23,7.99,8.14,11.66,3.99,1.2-1.36,1.68-2.87,1.6-5.43v-14.21c.72.48,4.31,4.47,5.43,5.67l5.35,5.83c.4.56.88.96,1.36,1.44.56.56.72.96,1.27,1.44l1.84,1.92s.08.16.08.24c1.68,1.92,4.79,5.27,7.51,5.27,6.63,0,8.86-5.43,5.91-9.82-1.36-2.23-3.2-3.59-4.95-5.51l-12.7-13.26s0-.16-.4-.32c.32-.96,7.26-7.42,7.51-7.66l.08-.08c2.56-2.55,9.18-8.22,9.18-11.5,0-6.55-7.26-8.86-11.66-4.31-.4.56-.64.88-1.2,1.36l-5.43,5.75c-1.2,1.44-4.31,4.39-5.35,5.75l-3.83,3.91c0-4.15.24-8.78,0-12.85-.4-9.02-13.26-7.9-13.26,0"/>
      <path class="cls-1" d="M28.98,46.62c0,3.99-.08,5.99,1.84,9.74,2.87,5.75,8.78,10.22,15.49,10.22,6.07,0,9.82-1.52,13.89-5.51,6.23-6.23,6.87-17.57,1.2-24.27-1.2-1.36-1.84-2.16-3.43-3.35-.88-.72-1.68-1.12-2.79-1.68-.56-.32-.72-.48-1.52-.72-5.75-2.23-12.06-1.43-17.09,2.08-3.91,2.71-7.59,8.62-7.59,13.49ZM37.69,49.73c0,4.15.56,5.75,2.95,8.86.4.48.88.72,1.36,1.2,1.2,1.04,3.99,2.4,5.67,2.4v.24c-2.47,0-4.31-.32-5.99-1.04-9.82-4.15-11.66-17.01-4.31-23.71,9.74-8.86,23.48-.72,23.48,9.82v-.16c-.08.24-.24-.64-.64-1.68-.32-.56-.56-1.12-.96-1.75-.4-.88-1.52-2.08-2.32-2.63-1.04-.88-1.6-1.28-3.11-1.92-4.31-1.84-9.5-.64-12.7,2.47-1.6,1.6-3.51,4.63-3.51,7.83l.08.08ZM45.27,50.69c0-6.07,8.22-5.51,8.22-.56,0,1.36-.08,2.64-1.28,3.59-3.11,2.56-6.95.08-6.95-3.03Z"/>
      <path class="cls-1" d="M20.52,47.33c0,7.51,2.32,14.37,7.67,19.72,4.63,4.47,11.1,7.9,18.05,7.9,4.39,0,6.55-.24,10.46-1.76,2.16-.88,1.6-.64,3.11-4.07l3.11-7.51c-.64.4-.88.96-1.36,1.44-.56.48-.96.88-1.52,1.28-3.68,3.27-8.23,4.71-13.57,4.71-6.55,0-12.86-3.84-16.37-9.02-3.75-5.67-4.95-13.49-1.92-20.04.4-1.12,1.04-2.16,1.68-3.27.32-.48.72-1.04,1.04-1.44,4.15-4.79,8.78-7.74,16.53-7.74,4.63,0,9.82,2.08,12.85,5.03.64.64.88.56,1.36,1.27.64.88.64.64,1.68,2.08.24.32.32.4.56.72,2.32,3.27,4.31,9.74,3.27,13.81.56-.16.4-.24.72-1.11.24-.48.4-.96.56-1.36.4-.96.88-1.84,1.2-2.79,2.47-6.15,3.11-4.79.88-9.18-.64-1.2-1.27-2.16-2-3.27-3.43-5.11-9.1-8.94-15.17-10.46-7.67-1.92-16.05-.24-22.12,4.39-.72.56-1.2.8-1.84,1.43-3.19,3.27-4.39,4.39-6.63,9.02-1.2,2.47-2.32,6.79-2.32,10.3"/>
      <path class="cls-1" d="M291.99,55v42.72c0,5.51,7.19,7.74,11.1,4.31.88-.8,2-2.39,2-3.99v-43.43c0-.96-.32-1.76-.64-2.4-.24-.4-.88-1.36-1.28-1.76-3.83-3.59-11.18-1.11-11.18,4.47"/>
      <path class="cls-1" d="M66.75,24.42c0,1.52,1.2,3.19,2.32,3.67,2.63,1.2,4.71-.16,5.75-2.55.96-2.16,4.79-9.74,4.79-11.18,0-3.99-5.59-5.91-7.67-1.92-.4.64-.64,1.2-.96,1.92-.32.72-.64,1.27-.96,2-.56,1.36-1.04,2.55-1.68,3.83-.4.72-.56,1.28-.88,1.92-.4.72-.72,1.36-.72,2.32Z"/>
      <path class="cls-1" d="M50.54,18.99c5.67,0,4.63-4.87,4.07-8.06-.32-1.52-.4-2.95-.64-4.39-.32-1.44-.24-3.11-.72-4.23-.72-1.75-2.55-2.55-4.31-2.23-1.68.24-3.19,1.43-3.51,3.59-.08.8.24,2.16.32,2.95l1.28,9.18c.4,1.84,1.6,3.36,3.51,3.36"/>
      <path class="cls-1" d="M15.09,81.83c2.55,0,3.51-1.43,5.43-3.43.56-.56.96-.8,1.6-1.36.96-.96,1.84-1.91,2.87-2.87.4-.48.96-.88,1.28-1.44,2.16-2.95-.64-6.39-3.11-6.39s-3.59,1.68-4.95,2.95c-1.36,1.36-2.56,2.56-3.91,3.91-1.28,1.28-3.19,2.24-2.95,4.63.08,2.08,1.68,3.99,3.75,3.99Z"/>
      <path class="cls-1" d="M42.24,95.24c3.43,0,3.91-3.19,5.35-5.83.32-.64.56-1.12.88-1.76l1.68-3.75c2.48-4.79-3.19-8.06-6.07-5.19-1.52,1.44-3.83,7.43-5.11,10.06-.4,1.12-.88,1.59-.72,2.87.32,2,1.92,3.68,4.07,3.68"/>
      <path class="cls-1" d="M25.95,27.77c2.32,0,4.07-1.75,4.07-4.31,0-1.36-1.04-2.79-1.68-3.75l-4.15-6.63c-1.28-2.16-2.32-2.32-4.15-2.32-.64,0-1.04.16-1.52.4-.08.08-.96.64-1.04.8-2.55,2.56-.08,5.51,1.28,7.74.4.8.96,1.52,1.36,2.32,1.84,2.79,3.11,5.75,5.91,5.75"/>
      <path class="cls-1" d="M0,45.26c0,4.31,2,4.63,5.99,5.03,1.36.16,2.95.4,4.31.56,2.95.32,4.71.96,6.55-.4,2-1.52,2.16-5.03-.32-6.7-.88-.56-2.79-.72-3.99-.88l-8.78-.96c-2,0-3.75,2.08-3.75,3.36Z"/>
      <path class="cls-1" d="M50.22,137.8c0,10.7,12.69,7.11,12.69,4.87v-4.87h-5.43c-.88,0-.88,1.92,0,1.92h3.52v2c0,1.6-8.78,3.67-8.78-3.19,0-1.76,0-3.2,1.28-4.47,1.52-1.75,4.71-1.84,6.07-.64,1.04.8.88,1.11,1.36,2.16.72-.16.88-.32,1.68-.4-.08-2.32-2.55-4.31-5.27-4.31-2.47,0-3.83.32-5.43,2-1.04,1.12-1.84,2.88-1.84,4.87"/>
      <path class="cls-1" d="M304.93,135.96c0-1.28.08-1.12-1.68-1.12v10.06h1.92v-6.47c0-2.23,3.83-3.27,3.83-.24v6.71h1.92c0-1.84-.32-6.63.4-7.75.96-1.27,3.43-1.2,3.43.64v7.11h1.92v-7.67c0-2.08-3.27-4.23-6.23-.96-.32-1.12-1.36-1.68-2.79-1.68-1.52,0-1.92.72-2.79,1.28"/>
      <path class="cls-1" d="M177.97,135.96c0-1.12.08-1.12-1.04-1.12-.4,0-.64.16-.64.56v9.5h1.68c0-4.15-.72-8.55,2.64-8.55.96,0,1.52.8,1.52,1.68v6.87h1.84v-6.15c0-1.52.96-2.4,2.47-2.4,1.6,0,1.68,1.76,1.68,3.36v5.19h1.6v-7.11c0-2.07-1.04-3.19-3.11-3.19-1.6,0-2.16.88-2.95,1.44-.64-.96-1.36-1.44-2.88-1.44s-1.91.72-2.79,1.28"/>
      <path class="cls-1" d="M134.38,144.9c2.55,0,2,.96,2-5.59,2.79,0,8.31.8,8.31-3.51,0-1.52.24-2.95-1.68-4.07-1.59-.88-6.63-.64-8.62-.64v13.81ZM139.97,137.64h-3.52v-4.71h4.47c1.2,0,2,1.11,2,2.23,0,1.76-1.28,2.47-2.95,2.47Z"/>
      <path class="cls-1" d="M277.47,137.8c0,3.27,1.59,6.71,5.11,7.27,3.99.56,6.39-1.28,7.19-4.63-.72,0-1.2-.32-2-.4-.08.96-.4,1.68-.96,2.23-2.16,2.24-7.27,1.68-7.27-4.23,0-6.71,7.03-6.79,7.99-2.63.72,0,1.52-.24,2.16-.4-1.36-2.87-2.23-4.15-6.23-4.15-3.27,0-5.99,3.27-5.99,6.95Z"/>
      <path class="cls-1" d="M96.3,135.96v-1.12c-1.2,0-1.68-.16-1.68.56v13.25h1.92v-4.47c1.52,1.04,2.95,1.36,4.71.4,3.51-2.08,2.87-9.9-2.16-9.9-1.52,0-1.92.72-2.79,1.28ZM96.3,140.03c0-4.71,5.27-5.83,5.27.24,0,4.63-5.27,4.47-5.27-.24Z"/>
      <path class="cls-1" d="M321.14,135.96c0-.74-.4-1.12-1.2-1.12-.4,0-.56.16-.56.56v13.25h1.92v-4.47c1.2.8,1.04.96,2.79.96,5.35,0,5.67-10.46-.24-10.46-1.52,0-1.92.72-2.8,1.28M321.14,140.03c0-5.27,5.27-4.79,5.27-.72,0,1.92-.24,4.23-2.88,4.23-1.59,0-2.32-1.84-2.32-3.51h-.08Z"/>
      <path class="cls-1" d="M255.99,137.8c.72.16.88.24,1.92.24.24-1.28,1.04-1.92,2.55-1.84,1.68.08,2,.48,2,2.39-3.43.8-6.71.24-6.71,3.91,0,2.55,2.32,2.63,3.91,2.63s2.16-1.04,3.2-1.12c0,.8-.08.48.24.96h1.84c-.24-.96-.56-1.28-.56-2.95-.08-4.55.96-7.26-4.15-7.26-2.24,0-3.75,1.04-4.31,3.19M259.9,143.55c-3.2,0-2.88-2.55-.32-2.87,1.27-.24,1.84-.4,2.87-.64,0,1.12.08,1.84-.4,2.55-.4.56-1.2.96-2.16.96Z"/>
      <path class="cls-1" d="M330.24,137.8c.88.16.96.24,1.92.24.32-1.28,1.04-1.92,2.56-1.84,1.68.08,2,.48,2,2.39-3.43.8-6.63.24-6.63,3.91,0,2.55,2.32,2.63,3.83,2.63,1.59,0,2.16-1.04,3.19-1.12,0,.8,0,.48.24.96h1.84c-.08-.64-.24-.48-.32-1.28-.96-4.87,1.84-8.94-4.31-8.94-1.04,0-2.32.4-2.95.8-.72.56-1.04,1.36-1.36,2.39M334.15,143.55c-3.19,0-2.87-2.55-.32-2.87,1.28-.24,1.84-.4,2.88-.64,0,1.52,0,3.51-2.56,3.51Z"/>
      <path class="cls-1" d="M194.18,137.96c.24-2.07,2.79-2.23,4.15-1.36.56.4.56.96.56,1.92-.72.16-1.36.32-2.24.4-.56.08-1.52.16-2.23.4-.56.16-1.28.48-1.6.96-1.68,1.92-.56,4.79,2.16,4.79,2.47,0,2.24,0,4.15-1.27l.24,1.12h2c-2.16-3.99,2.24-10.22-4.71-10.22-2.32,0-4.39,1.6-4.31,2.79,0,.8.96.56,1.84.56M196.5,143.55c-1.52,0-2.47.24-2.47-1.68,0-1.28,3.2-1.44,4.95-1.92,0,1.68-.4,3.52-2.47,3.52v.08Z"/>
      <path class="cls-1" d="M356.67,139.88c0,1.36.56,2.87,1.2,3.67,1.84,2.08,5.59,2.16,7.26.16.24-.24.88-1.2.88-1.59-.08-.56,0-.24-.64-.32-.4-.08-.72-.16-1.2-.16-.56,1.12-.88,2-2.55,2-1.84,0-2.79-1.36-2.79-3.2h7.26c0-1.59,0-3.03-1.28-4.31-2.63-2.71-6.63-1.28-7.67,1.6-.08.4-.4,1.84-.4,2.16M364.18,138.92h-5.35c.24-2.79,4.31-4.55,5.35,0Z"/>
      <path class="cls-1" d="M159.93,137.96c.08-.56.32-1.2.72-1.44.56-.32,3.99-1.43,4.07,2-.72,0-1.28.32-2.16.4-.72.08-1.6.16-2.24.32-3.75,1.04-2.95,5.75.32,5.75,1.04,0,1.84,0,2.79-.4.88-.4.64-.64,1.52-.8,0,.8-.08.48.24.96h1.84c-.56-2.16-.56-4.07-.56-6.47,0-2.23-.4-3.75-3.75-3.75-3.75,0-5.59,3.04-4.07,3.36.32.08.95,0,1.27,0M161.93,143.55c-3.2,0-2.88-2.55-.32-2.87,1.27-.24,2-.4,3.11-.64,0,1.92-.64,3.51-2.79,3.51Z"/>
      <path class="cls-1" d="M213.11,139.88c0,7.19,8.94,6.31,9.1,1.84l-1.68-.16c-.56,1.04-.96,2-2.56,2-2.16,0-2.55-1.44-2.95-3.19h7.51c0-7.26-6.39-6.47-8.15-4.23-.72.88-1.2,2.16-1.2,3.67M220.37,138.92h-5.27c0-3.59,5.27-3.67,5.27,0Z"/>
      <path class="cls-1" d="M147.24,131.65v13.26h1.84c0-4.63-.72-8.55,2.88-8.55,1.6,0,1.84,1.68,1.84,3.2v5.43h1.68v-7.26c0-2-1.59-2.95-3.51-2.95-1.28,0-2,.64-2.88,1.12v-4.71c-1.27,0-1.84-.16-1.84.56"/>
      <path class="cls-1" d="M110.82,139.72c0,2.71,1.36,5.43,4.15,5.43,2.32,0,4.47-.64,5.11-3.11,2-7.83-6.87-9.5-8.78-4.47-.24.4-.56,1.75-.56,2.16M112.74,139.88c0-3.27,3.11-4.95,5.03-2.56,1.04,1.36,1.52,6.31-2.47,6.31-1.68,0-2.56-1.92-2.56-3.68v-.08Z"/>
      <path class="cls-1" d="M291.44,139.47c0,1.52-.08,1.36.4,2.79,1.52,4.47,8.86,3.43,8.86-1.27,0-2.4.32-3.43-1.36-5.11-2.79-2.63-7.9-1.04-7.9,3.59ZM293.35,140.03c0-5.51,5.59-4.47,5.59-.96,0,1.68.08,4.47-2.79,4.47-1.92,0-2.79-1.68-2.79-3.51Z"/>
      <path class="cls-1" d="M71.78,139.88c0,7.03,9.5,7.03,9.5,0,0-1.52-.4-2.88-1.04-3.68-1.92-2.16-5.59-1.91-7.19-.08-.64.88-1.28,2.24-1.28,3.75ZM79.45,139.88c0,4.79-5.03,4.79-5.59,1.28-.24-1.28-.24-2.88.56-3.83,1.84-2.16,5.03-1.04,5.03,2.56Z"/>
      <path class="cls-1" d="M368.17,137.24c0,2.79,1.59,2.71,4.71,3.67,2.95.96.88,2.63-.64,2.63-1.27,0-2.47-.32-2.55-2-.4,0-1.6.08-1.68.4-.24.32.24,1.2.4,1.59,1.84,2.56,7.83,2.08,7.83-1.59,0-2.4-2.32-2.72-4.79-3.36-.95-.32-1.27-.24-1.52-1.28,1.2-1.75,3.91-1.36,4.07.56.96,0,1.04-.16,1.92-.16-.4-4.31-7.67-3.52-7.67-.4"/>
      <path class="cls-1" d="M83.52,142.11c0,2.32,1.84,2.95,3.75,2.95,1.52,0,2-.72,2.87-1.28v1.12h1.6v-9.5c0-.72-.32-.56-1.28-.56s-.56,3.43-.56,5.27c-.08,4.47-3.59,3.91-4.31,2.56-.72-1.36.56-7.83-.72-7.83h-1.36v7.27Z"/>
      <path class="cls-1" d="M224.69,135.4c0,6.23-.96,9.66,3.99,9.66,1.52,0,1.68-.72,2.56-1.27v1.12h1.68v-9.5c0-.72-.4-.56-1.36-.56-.88,0-.56,1.36-.56,2.24v2.95c0,1.76-.32,3.51-2.32,3.51s-2.16-1.52-2.16-3.51v-2.79c0-2.32.4-2.47-1.27-2.47-.4,0-.56.16-.56.56"/>
      <path class="cls-1" d="M343.34,135.96c0-.74-.4-1.12-1.2-1.12-.4,0-.56.16-.56.56v9.5h1.84v-5.75c0-3.59,4.47-3.84,4.47-.56v6.31h1.92v-6.87c0-2.08-1.52-3.36-3.52-3.36-1.52,0-2.23.72-2.95,1.28Z"/>
      <path class="cls-1" d="M245.69,139.88c0,7.19,8.63,6.39,8.78,1.44-2.88-.4-1.04-.16-2.32,1.36-1.04,1.36-3.11,1.04-3.99-.32-1.2-1.92-.64-6.31,2.24-6.31,1.6,0,2,1.68,2.23,2.07.88,0,.72-.16,1.68-.16-.08-4.47-8.63-5.11-8.63,1.84"/>
      <path class="cls-1" d="M203.21,139.08c0,1.76-.08,3.27,1.2,4.63,1.68,1.84,4.79,1.76,6.38.16.64-.64.96-1.52,1.2-2.55-.88,0-.88-.16-1.84-.16-.32,3.59-5.11,3.03-5.11-.56,0-1.68,0-3.67,2.16-4.31,1.36-.4,2.64.48,2.8,1.92l1.84-.24c-1.04-4.63-5.67-3.51-7.19-2.16-.64.48-1.36,2.24-1.36,3.27"/>
      <path class="cls-1" d="M122.96,133.49v1.28c-1.68,0-1.52-.16-1.52,1.52h1.52v8.54h1.84v-8.54h1.92c0-1.76.24-1.52-1.92-1.52,0-1.36-.24-2.24,1.68-2.16.32,0,.88.72.96-1.52-2-.48-4.47-.32-4.47,2.4Z"/>
      <path class="cls-1" d="M236.18,132.77v2c-1.52,0-1.28-.16-1.28,1.52h1.28v7.11c0,2.24,3.2,1.52,3.52,1.44,0-.64-.03-1.2-.08-1.68-1.28.24-.4.24-1.52,0-.4-1.76-.24-5.03-.24-6.95h1.68v-1.52h-1.68v-3.35c-.56.24-1.68.64-1.68,1.28"/>
      <path class="cls-1" d="M267.4,144.91c1.28,0,1.84.24,1.84-.56v-12.69c0-.72-.56-.56-1.84-.56v13.82Z"/>
      <path class="cls-1" d="M67.31,135.96c0-1.12.08-1.12-1.04-1.12-.4,0-.56.16-.56.56v9.5h1.84c0-1.52-.08-6.15.32-7.35.72-1.76,2.47-.72,2.87-.64.08-.56,1.2-2.24-1.28-2.24-1.28,0-1.52.88-2.16,1.28Z"/>
      <path class="cls-1" d="M171.11,135.96c0-.74-.4-1.12-1.2-1.12-.4,0-.56.16-.56.56v9.5h1.84c0-1.68-.24-6.31.4-7.43.72-1.59,2.23-.56,2.79-.56,0-.48,1.27-2.24-1.28-2.24-1.28,0-1.52.88-2,1.28Z"/>
      <path class="cls-1" d="M241.69,135.4v9.5h1.84v-9.5c0-.88-1.84-.88-1.84,0Z"/>
      <path class="cls-1" d="M352.68,135.4v9.5h1.84v-9.5c0-.88-1.84-.88-1.84,0Z"/>
      <path class="cls-1" d="M352.68,131.65v1.52h1.84v-2.08h-1.27c-.4,0-.56.16-.56.56Z"/>
      <path class="cls-1" d="M241.69,133.17h1.84v-1.52c0-.4-.08-.56-.56-.56h-1.28v2.08Z"/>
    </g>
  </g>
</svg>