<?xml version="1.0" encoding="UTF-8"?>
<svg id="Layer_2" data-name="Layer 2" xmlns="http://www.w3.org/2000/svg" viewBox="0 0 4580.69 2421.61">
  <defs>
    <style>
      .cls-1 {
        fill: #00b09e;
      }

      .cls-2 {
        fill: #fff;
      }

      .cls-3 {
        fill: #06b09e;
      }
    </style>
  </defs>
  <g id="Layer_1-2" data-name="Layer 1">
    <rect class="cls-1" y="2411.45" width="27.62" height="10.16"/>
  </g>
  <g id="Layer_2-2" data-name="Layer 2">
    <g>
      <circle class="cls-3" cx="3522.14" cy="178.56" r="150.07"/>
      <g>
        <path class="cls-2" d="M3573.4,275.06c-17.24-.4-32.61-.18-46.1.69-13.49.86-25.3,2.11-35.43,3.72-10.14,1.62-18.72,3.31-25.75,5.09,1.11-4.27,1.72-8.68,1.82-13.21.11-4.54-.29-9.22-1.19-14.04,6.94,2.1,15.41,4.19,25.42,6.27,10.01,2.09,21.73,3.88,35.16,5.37,13.43,1.49,28.81,2.44,46.14,2.84l-.08,3.28ZM3574.33,234.93c-7.59.58-14.34,1.22-20.24,1.92-5.91.71-11.29,1.49-16.15,2.34-4.86.86-9.4,1.86-13.64,3.03-4.23,1.16-8.48,2.58-12.72,4.25.38-2.01.72-4.02,1.02-6.04.3-2.01.47-4.07.52-6.18-11.66,1.67-21.19,3.47-28.6,5.4-7.41,1.93-13.24,3.82-17.49,5.65.39-2.43.72-4.84.99-7.24.27-2.39.43-4.85.49-7.37.05-2.11.02-4.21-.11-6.32-.12-2.11-.36-4.22-.74-6.33,4,1.69,9.84,3.87,17.52,6.53,7.68,2.66,17.02,4.75,28.01,6.27-.04-1.85-.15-3.73-.31-5.62-.16-1.9-.39-3.9-.68-6.01,6.92,3.02,15.38,5.6,25.38,7.72,10.01,2.13,22.28,3.7,36.82,4.71l-.08,3.28Z"/>
        <path class="cls-2" d="M3579.85,85.3c-1.46-.03-2.95-.07-4.47-.1-1.53-.04-3.06-.03-4.58,0-1.58,8.48-2.96,17.03-4.14,25.67-1.18,8.64-2.13,16.95-2.82,24.94-.7,7.99-1.12,15.26-1.27,21.8-.1,4.3-.08,8.19.05,11.68.14,3.49.44,6.45.89,8.86-6.05-2.76-12.71-4.23-19.98-4.4-.51-.01-1.04-.02-1.58-.04-.55-.01-1.07.01-1.59.07,1.74-2.87,3.61-6.68,5.62-11.44,2.01-4.76,4.03-10.2,6.06-16.34-3.71-.01-7.22.01-10.54.08-3.31.07-6.43.22-9.34.44.26,4.23.6,7.87,1,10.94.4,3.06.81,5.19,1.22,6.36-2.54-.49-5-.77-7.4-.83-2.4-.06-4.95.11-7.66.48.39-.94.83-2.84,1.34-5.7.5-2.87.98-6.36,1.44-10.5-3.79.42-7.15.93-10.08,1.51-2.92.59-5.41,1.22-7.47,1.9,1.49,4.91,2.93,9.3,4.33,13.15,1.4,3.85,2.73,6.96,3.99,9.32-.58-.08-1.13-.13-1.63-.14-.51-.01-1.02-.02-1.53-.04-7.27-.17-14,.99-20.17,3.46.9-4.35,1.44-10.41,1.62-18.2.14-6.04.08-12.77-.18-20.2-.27-7.43-.7-15.21-1.31-23.34-.61-8.12-1.37-16.17-2.28-24.13-2.34.46-4.44.9-6.31,1.33-1.87.43-3.49.88-4.89,1.36.96-3.69,1.48-7.5,1.58-11.43.09-3.92-.25-7.97-1.03-12.14,2.88,1.16,6.88,2.31,11.98,3.44,5.1,1.14,10.96,2.19,17.56,3.14,6.6.95,13.64,1.85,21.12,2.67l.11-4.8,2.84.07-.12,5.02c8.21.85,16.6,1.55,25.17,2.11,8.58.56,16.75.94,24.54,1.12l-.07,2.83ZM3526.98,86.37c-6.92.42-13.49.94-19.69,1.56-6.2.62-11.75,1.34-16.65,2.18,1.74,9.87,3.71,19.74,5.92,29.62,2.21,9.87,4.49,18.92,6.85,27.12.29-3.19.16-6.73-.41-10.6,1.87.77,4.46,1.6,7.75,2.47,3.29.88,7.29,1.66,12.01,2.36l.88-9.37c-9.19.95-16.07,2.32-20.62,4.11.5-2.54.77-5.01.83-7.4.05-2.4-.1-4.95-.48-7.66,1.94.85,4.65,1.71,8.13,2.59,3.47.88,7.71,1.67,12.72,2.37l.76-9.48c-9.92,1.01-17.12,2.37-21.6,4.08.5-2.54.77-5,.83-7.4.06-2.4-.1-4.95-.47-7.66,1.94.85,4.74,1.71,8.4,2.6,3.66.89,8.1,1.68,13.32,2.38.11-1.67.22-3.29.33-4.85.11-1.56.22-3.14.33-4.74-5.11.46-9.54,1.05-13.31,1.76-3.76.72-6.78,1.52-9.06,2.41.5-2.53.77-5.01.83-7.4.06-2.4-.1-4.95-.47-7.65,1.94.85,4.82,1.71,8.62,2.6,3.8.89,8.42,1.72,13.86,2.51.11-1.53.2-2.98.27-4.36.07-1.38.12-2.76.15-4.14M3556.85,130.51c-4.95-.04-9.55-.02-13.81.06s-8.18.26-11.75.54l.51,11.15c3.05.36,6.34.67,9.86.94,3.52.26,7.25.48,11.17.64.71-2.09,1.39-4.26,2.06-6.5.67-2.24,1.32-4.52,1.96-6.83M3561.14,115.11c-5.82-.06-11.28-.02-16.38.11-5.1.14-9.76.33-13.99.6.03,1.82.06,3.62.09,5.41.03,1.78.1,3.59.2,5.41,3.78.38,7.84.75,12.2,1.1,4.36.36,9.08.63,14.17.82.63-2.17,1.25-4.37,1.85-6.62.6-2.24,1.21-4.52,1.85-6.84M3564.88,99.69c-6.77-.16-13.05-.15-18.83,0-5.79.16-11.02.4-15.69.73l.19,10.49c4.35.47,9.13.9,14.32,1.31,5.19.42,10.78.73,16.74.94.56-2.24,1.11-4.49,1.63-6.73.53-2.25,1.07-4.49,1.63-6.73M3567.84,85.14c-6.11,0-12.36.09-18.73.27-6.37.18-12.66.45-18.85.82-.03,1.38-.05,2.84-.05,4.37,0,1.53.02,3.09.06,4.69,4.86.62,10.22,1.15,16.06,1.58,5.85.43,12.16.72,18.92.88.97-4.05,1.83-8.26,2.59-12.6"/>
      </g>
    </g>
    <g>
      <g>
        <polygon class="cls-2" points="3911.14 38.69 3910.26 38.69 3851.13 38.69 3850.25 38.69 3743.29 347.45 3802.85 347.45 3880.7 123.68 3958.54 347.45 4018.1 347.45 3911.14 38.69"/>
        <polygon class="cls-2" points="4296.25 38.69 4226.6 39.27 4021.58 305.15 4021.58 347.44 4277.8 347.44 4277.8 301.2 4092.99 301.2 4296.25 38.69"/>
        <path class="cls-3" d="M4080.54,120.84c24.45,0,44.2-19.89,44.2-44.34s-19.76-44.17-44.2-44.17-44.18,19.88-44.18,44.17,19.76,44.34,44.18,44.34"/>
        <path class="cls-2" d="M4558.73,234.33c0,20.05-2.94,37.47-8.49,52.41-5.55,14.9-13.76,27.35-24.58,37.31-10.69,9.96-24,17.4-39.64,22.38-15.67,4.98-33.67,7.47-54.01,7.47s-39.52-2.33-55.76-7.02c-16.22-4.69-30-11.84-41.24-21.64-11.27-9.83-19.76-22.25-25.63-37.19-5.84-15.06-8.78-32.94-8.78-53.72V38.85h54.29v195.47c0,24.61,6.45,43.03,19.47,55.19,12.86,12.13,32.18,18.29,57.65,18.29,24.13,0,42.13-6.16,54.13-18.29,12-12.16,18-30.58,18-55.19V38.85h54.58v195.47Z"/>
      </g>
      <g>
        <path class="cls-2" d="M3773.55,429.06c-2.84,2.69-6.75,4.04-11.71,4.04-.97,0-1.89-.04-2.75-.11v13.65h-7.61v-39.55c3.62-.17,7.32-.26,11.08-.26,4.83,0,8.54,1.06,11.13,3.18,2.58,2.12,3.86,5.12,3.86,9.02,0,4.14-1.34,7.49-4.01,10.05ZM3762.04,413.12c-.99,0-1.97.02-2.95.06v13.28c.97.21,2.05.31,3.23.31,4.88,0,7.33-2.33,7.33-6.98s-2.54-6.67-7.61-6.67Z"/>
        <path class="cls-2" d="M3808.76,446.63v-17.17h-16.77v17.17h-7.61v-39.55h7.61v15.83h16.77v-15.83h7.67v39.55h-7.67Z"/>
        <path class="cls-2" d="M3848.61,446.63l-2.69-8.1h-15l-2.78,8.1h-7.67l13.65-39.55h8.99l13.94,39.55h-8.44ZM3839.94,420.73c-.69-2.08-1.21-3.9-1.57-5.47h-.06c-.63,2.35-1.14,4.17-1.54,5.47l-4.04,11.76h11.25l-4.04-11.76Z"/>
        <path class="cls-2" d="M3881.73,446.63l-10.68-16.34h-.66v16.34h-7.61v-39.55c2.77-.17,6.55-.26,11.36-.26,9.58,0,14.37,3.72,14.37,11.16,0,2.86-.93,5.31-2.8,7.36-1.79,1.95-4.1,3.17-6.93,3.66,1.49,1.95,2.55,3.39,3.18,4.32l9.19,13.31h-9.42ZM3873.4,413.03c-1.24,0-2.24.07-3,.2v11.42c.71.08,1.62.11,2.75.11,2.29,0,4.09-.54,5.41-1.63,1.34-1.09,2-2.56,2-4.41,0-3.8-2.39-5.7-7.16-5.7Z"/>
        <path class="cls-2" d="M3935.4,446.63l-2.89-19.12c-.42-2.86-.83-6.16-1.23-9.9h-.11c-.78,3.76-1.52,6.77-2.2,9.04l-6.41,19.98h-7.38l-6.1-18.57c-1.09-3.55-1.95-7.03-2.58-10.45h-.12c-.3,3.72-.66,7.24-1.06,10.56l-2.29,18.46h-7.67l6.04-39.55h8.96l6.7,20.44c.88,2.86,1.6,5.64,2.17,8.33h.12c.82-3.49,1.54-6.23,2.15-8.21l6.75-20.55h8.9l6.15,39.55h-7.9Z"/>
        <path class="cls-2" d="M3974.91,446.63l-2.69-8.1h-15l-2.78,8.1h-7.67l13.65-39.55h8.99l13.94,39.55h-8.44ZM3966.24,420.73c-.69-2.08-1.21-3.9-1.57-5.47h-.06c-.63,2.35-1.14,4.17-1.54,5.47l-4.04,11.76h11.25l-4.04-11.76Z"/>
        <path class="cls-2" d="M4014.58,445.29c-3.19,1.2-6.62,1.8-10.3,1.8-6.43,0-11.21-1.93-14.34-5.78-2.63-3.26-3.95-7.66-3.95-13.19,0-6.49,1.65-11.62,4.95-15.4,3.47-4.01,8.42-6.01,14.85-6.01,3,0,5.81.39,8.44,1.17l-1.06,7.04c-2.4-.94-4.98-1.4-7.73-1.4-3.61,0-6.38,1.25-8.33,3.75-1.83,2.35-2.75,5.53-2.75,9.56,0,8.91,3.84,13.37,11.53,13.37,2.75,0,5.25-.55,7.5-1.66l1.17,6.75Z"/>
        <path class="cls-2" d="M4022.64,446.63v-39.55h21.52v6.38h-13.91v9.73h13.19v6.21h-13.19v10.68h13.91v6.55h-21.52Z"/>
        <path class="cls-2" d="M4084.81,431.26c0,10.69-5.47,16.03-16.4,16.03-10.21,0-15.31-4.79-15.31-14.37v-25.84h7.61v25.36c0,2.75.55,4.79,1.66,6.12,1.3,1.58,3.48,2.38,6.55,2.38s5.08-.69,6.35-2.06c1.32-1.41,1.97-3.79,1.97-7.13v-24.67h7.56v24.18Z"/>
        <path class="cls-2" d="M4109.43,413.57v33.06h-7.64v-33.06h-10.25v-6.5h28.13v6.5h-10.25Z"/>
        <path class="cls-2" d="M4126.24,446.63v-39.55h7.61v39.55h-7.61Z"/>
        <path class="cls-2" d="M4169.84,445.29c-3.19,1.2-6.62,1.8-10.3,1.8-6.43,0-11.21-1.93-14.34-5.78-2.63-3.26-3.95-7.66-3.95-13.19,0-6.49,1.65-11.62,4.95-15.4,3.47-4.01,8.42-6.01,14.85-6.01,3,0,5.81.39,8.44,1.17l-1.06,7.04c-2.4-.94-4.98-1.4-7.73-1.4-3.61,0-6.38,1.25-8.33,3.75-1.83,2.35-2.75,5.53-2.75,9.56,0,8.91,3.84,13.37,11.53,13.37,2.75,0,5.25-.55,7.5-1.66l1.17,6.75Z"/>
        <path class="cls-2" d="M4201.99,446.63l-2.69-8.1h-15l-2.78,8.1h-7.67l13.65-39.55h8.99l13.94,39.55h-8.44ZM4193.31,420.73c-.69-2.08-1.21-3.9-1.57-5.47h-.06c-.63,2.35-1.14,4.17-1.54,5.47l-4.04,11.76h11.25l-4.04-11.76Z"/>
        <path class="cls-2" d="M4216.16,446.63v-39.55h7.61v32.89h12.85v6.67h-20.46Z"/>
        <path class="cls-2" d="M4255.9,446.63v-39.55h7.61v39.55h-7.61Z"/>
        <path class="cls-2" d="M4295.98,446.63l-12.25-21.81c-1.68-3.28-2.85-5.86-3.52-7.73.27,4.03.4,10.29.4,18.8v10.73h-7.33v-39.55h10.07l11.96,21.27c1.33,2.35,2.6,4.99,3.81,7.93-.27-4.66-.4-11.07-.4-19.23v-9.96h7.33v39.55h-10.07Z"/>
        <path class="cls-2" d="M4342.58,441.59c-3.87,3.51-9.12,5.27-15.74,5.27-1.77,0-5.45-.1-11.02-.29v-39.44c5.17-.21,9.43-.31,12.76-.31,13.38,0,20.06,6.45,20.06,19.35,0,6.62-2.02,11.76-6.07,15.43ZM4328.07,413.23c-1.85,0-3.4.06-4.64.17v26.67c1.18.19,2.58.29,4.18.29,3.89,0,6.95-1.1,9.19-3.29,2.42-2.37,3.63-5.8,3.63-10.3,0-9.02-4.12-13.54-12.36-13.54Z"/>
        <path class="cls-2" d="M4387.76,431.26c0,10.69-5.47,16.03-16.4,16.03-10.21,0-15.31-4.79-15.31-14.37v-25.84h7.61v25.36c0,2.75.55,4.79,1.66,6.12,1.3,1.58,3.48,2.38,6.55,2.38s5.08-.69,6.35-2.06c1.32-1.41,1.97-3.79,1.97-7.13v-24.67h7.56v24.18Z"/>
        <path class="cls-2" d="M4416.56,443.63c-2.86,2.44-6.55,3.66-11.08,3.66-3.45,0-6.51-.35-9.16-1.06l.83-7.33c2.71,1.13,5.58,1.69,8.62,1.69,4.43,0,6.64-1.72,6.64-5.15,0-1.64-.87-2.99-2.6-4.04-.46-.27-2.37-1.1-5.72-2.49-5.55-2.27-8.33-5.8-8.33-10.59,0-3.59,1.3-6.45,3.89-8.59,2.67-2.21,6.35-3.32,11.05-3.32,2.37,0,4.75.26,7.16.77l-.69,6.67c-2.29-.74-4.56-1.12-6.81-1.12-4.33,0-6.5,1.58-6.5,4.75,0,1.53.88,2.81,2.63,3.86.38.23,2.33,1.09,5.84,2.58,5.63,2.4,8.44,5.92,8.44,10.56,0,3.7-1.4,6.75-4.21,9.13Z"/>
        <path class="cls-2" d="M4442.81,413.57v33.06h-7.64v-33.06h-10.25v-6.5h28.13v6.5h-10.25Z"/>
        <path class="cls-2" d="M4478.57,446.63l-10.68-16.34h-.66v16.34h-7.61v-39.55c2.77-.17,6.55-.26,11.36-.26,9.58,0,14.37,3.72,14.37,11.16,0,2.86-.93,5.31-2.8,7.36-1.79,1.95-4.1,3.17-6.93,3.66,1.49,1.95,2.55,3.39,3.18,4.32l9.19,13.31h-9.42ZM4470.24,413.03c-1.24,0-2.24.07-3,.2v11.42c.71.08,1.62.11,2.75.11,2.29,0,4.09-.54,5.41-1.63,1.34-1.09,2-2.56,2-4.41,0-3.8-2.39-5.7-7.16-5.7Z"/>
        <path class="cls-2" d="M4494.43,446.63v-39.55h7.61v39.55h-7.61Z"/>
        <path class="cls-2" d="M4511.81,446.63v-39.55h21.52v6.38h-13.91v9.73h13.19v6.21h-13.19v10.68h13.91v6.55h-21.52Z"/>
        <path class="cls-2" d="M4561.3,443.63c-2.86,2.44-6.55,3.66-11.08,3.66-3.45,0-6.51-.35-9.16-1.06l.83-7.33c2.71,1.13,5.58,1.69,8.62,1.69,4.43,0,6.64-1.72,6.64-5.15,0-1.64-.87-2.99-2.6-4.04-.46-.27-2.37-1.1-5.72-2.49-5.55-2.27-8.33-5.8-8.33-10.59,0-3.59,1.3-6.45,3.89-8.59,2.67-2.21,6.35-3.32,11.05-3.32,2.37,0,4.75.26,7.16.77l-.69,6.67c-2.29-.74-4.56-1.12-6.81-1.12-4.33,0-6.5,1.58-6.5,4.75,0,1.53.88,2.81,2.63,3.86.38.23,2.33,1.09,5.84,2.58,5.63,2.4,8.44,5.92,8.44,10.56,0,3.7-1.4,6.75-4.21,9.13Z"/>
      </g>
      <g>
        <path class="cls-2" d="M4093.89,104.28c-4.88-.11-9.22-.05-13.04.2-3.81.24-7.16.6-10.02,1.05-2.87.46-5.29.94-7.28,1.44.31-1.21.49-2.45.52-3.74.03-1.29-.08-2.61-.34-3.97,1.96.59,4.36,1.18,7.19,1.77,2.83.59,6.15,1.1,9.94,1.52,3.8.42,8.15.69,13.05.8l-.02.93ZM4094.15,92.93c-2.15.16-4.05.35-5.73.54-1.67.2-3.19.42-4.57.66-1.37.24-2.66.53-3.86.86-1.2.33-2.4.73-3.6,1.2.11-.57.2-1.14.29-1.71.08-.57.13-1.15.15-1.75-3.3.47-5.99.98-8.09,1.53-2.09.55-3.74,1.08-4.95,1.6.11-.69.2-1.37.28-2.05.08-.68.12-1.37.14-2.08.01-.6,0-1.19-.03-1.79-.03-.6-.1-1.19-.21-1.79,1.13.48,2.78,1.1,4.96,1.85,2.17.75,4.81,1.34,7.92,1.77-.01-.52-.04-1.05-.09-1.59-.05-.54-.11-1.1-.19-1.7,1.96.86,4.35,1.58,7.18,2.18,2.83.6,6.3,1.05,10.41,1.33l-.02.93Z"/>
        <path class="cls-2" d="M4095.71,50.61c-.41,0-.83-.02-1.27-.03-.43-.01-.86,0-1.3,0-.45,2.4-.84,4.82-1.17,7.26-.34,2.44-.6,4.79-.8,7.05-.2,2.26-.32,4.31-.36,6.17-.03,1.21-.02,2.32.01,3.3.04.99.12,1.82.25,2.51-1.71-.78-3.59-1.2-5.65-1.24-.14,0-.29,0-.45-.01-.15,0-.3,0-.45.02.49-.81,1.02-1.89,1.59-3.24.57-1.35,1.14-2.88,1.71-4.62-1.05,0-2.04,0-2.98.02-.94.02-1.82.06-2.64.12.07,1.2.17,2.23.28,3.09.11.87.23,1.47.34,1.8-.72-.14-1.42-.22-2.09-.23-.68-.02-1.4.03-2.17.14.11-.27.23-.8.38-1.61.14-.81.28-1.8.41-2.97-1.07.12-2.02.26-2.85.43-.83.17-1.53.35-2.11.54.42,1.39.83,2.63,1.23,3.72.4,1.09.77,1.97,1.13,2.63-.16-.02-.32-.04-.46-.04-.14,0-.29,0-.43-.01-2.06-.05-3.96.28-5.7.98.26-1.23.41-2.94.46-5.15.04-1.71.02-3.61-.05-5.71-.08-2.1-.2-4.3-.37-6.6-.17-2.3-.39-4.57-.64-6.82-.66.13-1.26.25-1.78.38-.53.12-.99.25-1.38.38.27-1.04.42-2.12.45-3.23.03-1.11-.07-2.25-.29-3.43.82.33,1.94.65,3.39.97,1.44.32,3.1.62,4.97.89,1.87.27,3.86.52,5.97.76l.03-1.36.8.02-.03,1.42c2.32.24,4.69.44,7.12.6,2.43.16,4.74.27,6.94.32l-.02.8ZM4080.76,50.91c-1.96.12-3.81.27-5.57.44-1.75.18-3.32.38-4.71.62.49,2.79,1.05,5.58,1.67,8.38.62,2.79,1.27,5.35,1.94,7.67.08-.9.04-1.9-.11-3,.53.22,1.26.45,2.19.7.93.25,2.06.47,3.4.67l.25-2.65c-2.6.27-4.54.66-5.83,1.16.14-.72.22-1.42.23-2.09.02-.68-.03-1.4-.13-2.17.55.24,1.32.48,2.3.73.98.25,2.18.47,3.6.67l.22-2.68c-2.81.28-4.84.67-6.11,1.15.14-.72.22-1.42.23-2.09.02-.68-.03-1.4-.13-2.17.55.24,1.34.48,2.38.74,1.03.25,2.29.47,3.77.67.03-.47.06-.93.09-1.37.03-.44.06-.89.09-1.34-1.44.13-2.7.3-3.76.5-1.06.2-1.92.43-2.56.68.14-.72.22-1.42.23-2.09.02-.68-.03-1.4-.13-2.16.55.24,1.36.48,2.44.74,1.07.25,2.38.49,3.92.71.03-.43.06-.84.08-1.23.02-.39.03-.78.04-1.17M4089.21,63.4c-1.4-.01-2.7,0-3.91.02-1.2.02-2.31.07-3.32.15l.14,3.15c.86.1,1.79.19,2.79.27,1,.07,2.05.13,3.16.18.2-.59.39-1.2.58-1.84.19-.63.37-1.28.55-1.93M4090.42,59.04c-1.65-.02-3.19,0-4.63.03-1.44.04-2.76.09-3.96.17,0,.51.02,1.02.03,1.53,0,.5.03,1.01.06,1.53,1.07.11,2.22.21,3.45.31,1.23.1,2.57.18,4.01.23.18-.61.35-1.24.52-1.87.17-.63.34-1.28.52-1.93M4091.48,54.68c-1.91-.04-3.69-.04-5.33,0-1.64.05-3.12.11-4.44.21l.05,2.97c1.23.13,2.58.26,4.05.37,1.47.12,3.05.21,4.73.26.16-.63.31-1.27.46-1.9.15-.64.3-1.27.46-1.9M4092.32,50.56c-1.73,0-3.49.03-5.3.08-1.8.05-3.58.13-5.33.23,0,.39-.01.8-.01,1.24,0,.43,0,.87.02,1.33,1.38.18,2.89.33,4.54.45,1.66.12,3.44.2,5.35.25.27-1.15.52-2.34.73-3.56"/>
      </g>
    </g>
    <g>
      <g>
        <path class="cls-2" d="M3049.22,82.01l-151.77,196.83v39.47h25.36l41.28-43.16,123.58-159.6c-18-3.47-32.61-16.47-38.45-33.53M3153.78,30.17l-19.68.16c3.74,3.91,6.86,8.42,9.21,13.36l10.47-13.52Z"/>
        <path class="cls-3" d="M3097.33,103.73c21.1,0,38.16-17.17,38.16-38.27s-17.06-38.13-38.16-38.13-38.14,17.17-38.14,38.13,17.06,38.27,38.14,38.27"/>
        <path class="cls-2" d="M2926.13,82.01l-151.77,196.83v39.47h25.36l41.27-43.16,123.59-159.6c-18-3.47-32.61-16.47-38.45-33.53"/>
        <path class="cls-2" d="M2905.76,150.43c41.55,0,75.12-33.8,75.12-75.35S2947.31,0,2905.76,0s-75.08,33.79-75.08,75.08,33.58,75.35,75.08,75.35"/>
        <polygon class="cls-2" points="3300.98 30.17 3235.99 30.71 3044.66 278.84 3044.66 318.31 3077.97 318.31 3111.3 275.15 3300.98 30.17"/>
      </g>
      <g>
        <path class="cls-2" d="M2784.71,446.63c-11.04,0-16.56-4.78-16.56-14.33,0-4.38,1.31-7.98,3.92-10.8,2.94-3.14,7.09-4.71,12.46-4.71,4.85,0,9.15.71,12.91,2.14v21.27h6.03v6.43h-18.76ZM2775.69,411.67c-.78-.8-1.18-1.79-1.18-2.96s.39-2.16,1.18-2.99c.8-.82,1.77-1.24,2.9-1.24s2.15.41,2.96,1.24c.78.8,1.18,1.8,1.18,2.99s-.39,2.13-1.18,2.96c-.8.82-1.79,1.24-2.96,1.24s-2.11-.41-2.9-1.24ZM2789.54,424.34c-1.57-.74-3.53-1.12-5.88-1.12s-4.07.78-5.4,2.35c-1.31,1.53-1.96,3.52-1.96,5.97,0,5.77,3.1,8.66,9.29,8.66h3.95v-15.87ZM2785.95,411.67c-.78-.8-1.18-1.79-1.18-2.96s.39-2.16,1.18-2.99c.8-.82,1.77-1.24,2.9-1.24s2.11.41,2.9,1.24c.79.8,1.18,1.8,1.18,2.99s-.39,2.13-1.18,2.96c-.78.82-1.75,1.24-2.9,1.24s-2.11-.41-2.9-1.24Z"/>
        <path class="cls-2" d="M2802.57,440.21h18.19v6.43h-18.19v-6.43Z"/>
        <path class="cls-2" d="M2820.06,440.21h18.19v6.43h-18.19v-6.43Z"/>
        <path class="cls-2" d="M2837.56,440.21h8.66v-22.62h8.14v22.62h8.42v6.43h-25.22v-6.43ZM2845.76,458.85c-.8.82-1.79,1.24-2.96,1.24s-2.11-.4-2.9-1.21c-.78-.8-1.18-1.8-1.18-2.99s.39-2.13,1.18-2.96c.8-.83,1.77-1.24,2.9-1.24s2.15.4,2.96,1.21c.78.82,1.18,1.82,1.18,2.99s-.39,2.15-1.18,2.96ZM2855.96,458.85c-.8.82-1.77,1.24-2.9,1.24s-2.11-.4-2.9-1.21c-.79-.8-1.18-1.8-1.18-2.99s.39-2.13,1.18-2.96c.8-.83,1.77-1.24,2.9-1.24s2.11.4,2.9,1.21c.78.82,1.18,1.82,1.18,2.99s-.39,2.13-1.18,2.96Z"/>
        <path class="cls-2" d="M2861.81,440.21h8.66v-22.62h8.14v29.05h-16.8v-6.43ZM2865.34,408.08c1.53,0,2.67.08,3.44.24-.76-.38-1.15-1.19-1.15-2.41,0-1.93.67-3.51,2.02-4.74,1.59-1.45,3.89-2.17,6.91-2.17,1,0,2.22.1,3.65.3l-.72,4.65c-1.03-.2-2.06-.3-3.11-.3-1.97,0-2.96.69-2.96,2.08,0,1.57,1.42,2.35,4.25,2.35h3.53v4.65h-15.87v-4.65Z"/>
        <path class="cls-2" d="M2888.42,403.07h8.14v43.56h-8.14v-43.56Z"/>
        <path class="cls-2" d="M2901.96,461.38l.51-6.67c3.22.7,6.42,1.06,9.62,1.06,7.14,0,10.71-2.74,10.71-8.21v-.94h-4.83c-11.04,0-16.56-4.78-16.56-14.33,0-4.38,1.31-7.98,3.92-10.8,2.94-3.14,7.09-4.71,12.46-4.71,4.85,0,9.15.71,12.91,2.14v27.81c0,4.58-1.5,8.22-4.49,10.92-3.34,3.02-8.29,4.52-14.84,4.52-3.1,0-6.23-.27-9.41-.81ZM2922.81,424.34c-1.57-.74-3.53-1.12-5.88-1.12s-4.07.78-5.4,2.35c-1.31,1.53-1.96,3.52-1.96,5.97,0,5.77,3.1,8.66,9.29,8.66h3.95v-15.87Z"/>
        <path class="cls-2" d="M2938.13,440.21h18.34c-.36-9.15-5.22-14.91-14.57-17.28l1.96-6.82c6.54,1.73,11.45,4.44,14.75,8.14,3.48,3.92,5.4,9.24,5.76,15.96h4.04v6.43h-30.29v-6.43Z"/>
        <path class="cls-2" d="M2967.48,440.21h7.66v-37.13h8.14v43.56h-15.81v-6.43Z"/>
        <path class="cls-2" d="M2993.78,403.07h8.14v43.56h-8.14v-43.56Z"/>
        <path class="cls-2" d="M3045,446.63c-8.06,0-13.95-1.64-17.65-4.92-3.36-2.96-5.04-7.41-5.04-13.36,0-3.54.53-6.78,1.6-9.71l8.72-1.42c-1.41,3.08-2.11,6.48-2.11,10.2,0,4.48,1.12,7.7,3.35,9.65,2.35,2.09,6.34,3.14,11.98,3.14h8.42v-22.62h8.14v29.05h-17.41ZM3036.04,411.67c-.78-.8-1.18-1.79-1.18-2.96s.39-2.16,1.18-2.99,1.75-1.24,2.9-1.24,2.15.41,2.96,1.24c.79.8,1.18,1.8,1.18,2.99s-.39,2.13-1.18,2.96c-.8.82-1.79,1.24-2.96,1.24s-2.11-.41-2.9-1.24ZM3046.3,411.67c-.78-.8-1.18-1.79-1.18-2.96s.39-2.16,1.18-2.99,1.75-1.24,2.9-1.24,2.11.41,2.9,1.24c.78.8,1.18,1.8,1.18,2.99s-.39,2.13-1.18,2.96c-.8.82-1.77,1.24-2.9,1.24s-2.11-.41-2.9-1.24Z"/>
        <path class="cls-2" d="M3072.24,403.07h8.14v37.13h6.18v6.43h-14.33v-43.56Z"/>
        <path class="cls-2" d="M3085.63,440.21h9.44c-3.2-1.89-4.8-4.96-4.8-9.2s1.33-7.41,3.98-9.98c2.92-2.82,6.98-4.22,12.19-4.22,2.75,0,5.31.39,7.66,1.18l-1.42,6.49c-1.89-.86-4.03-1.3-6.42-1.3s-4.21.71-5.64,2.14c-1.43,1.43-2.14,3.33-2.14,5.7,0,2.78,1.12,4.97,3.35,6.58,2.43,1.75,5.99,2.62,10.68,2.62h4.83v6.43h-31.7v-6.43Z"/>
        <path class="cls-2" d="M3124.79,403.07h8.14v37.13h6.18v6.43h-14.33v-43.56Z"/>
        <path class="cls-2" d="M3138.18,440.21h8.66v-22.62h8.14v22.62h6.06v6.43h-22.87v-6.43ZM3147.89,411.19c-.82-.82-1.24-1.84-1.24-3.05s.41-2.17,1.24-3.02c.84-.82,1.85-1.24,3.02-1.24s2.17.41,3.02,1.24c.82.84,1.24,1.85,1.24,3.02s-.41,2.17-1.24,3.02c-.84.82-1.85,1.24-3.02,1.24s-2.19-.4-3.02-1.21Z"/>
        <path class="cls-2" d="M3160.11,440.21h18.19v6.43h-18.19v-6.43Z"/>
        <path class="cls-2" d="M3177.61,440.21h18.19v6.43h-18.19v-6.43Z"/>
        <path class="cls-2" d="M3195.1,440.21h8.27v-22.62h8.17v1.57c0,3.46-.25,6.51-.75,9.14h.12c1.33-3.64,3.47-6.5,6.42-8.57,2.78-1.95,5.84-2.93,9.2-2.93,4.24,0,7.49,1.25,9.74,3.74,2.21,2.43,3.32,5.86,3.32,10.29,0,3.78-.9,6.91-2.68,9.38h6.52v6.43h-48.32v-6.43ZM3221.41,440.21c6.52,0,9.77-2.97,9.77-8.9,0-5.35-2.1-8.02-6.3-8.02-3.22,0-6.13,1.73-8.75,5.19-2.47,3.28-4.04,7.19-4.71,11.73h9.98Z"/>
        <path class="cls-2" d="M3242.1,440.21h7.66v-37.13h8.14v37.13h6.18v6.43h-21.99v-6.43Z"/>
        <path class="cls-2" d="M3263.15,440.21h7.66v-37.13h8.14v43.56h-15.81v-6.43Z"/>
      </g>
      <g>
        <path class="cls-2" d="M3110.35,90.61c-4.42-.1-8.35-.05-11.81.18-3.45.22-6.48.54-9.08.95-2.6.41-4.79.85-6.6,1.3.28-1.09.44-2.22.47-3.38.03-1.16-.07-2.36-.3-3.6,1.78.54,3.95,1.07,6.51,1.61,2.56.53,5.57.99,9.01,1.37,3.44.38,7.38.62,11.82.73l-.02.84ZM3110.59,80.33c-1.94.15-3.67.31-5.19.49-1.51.18-2.89.38-4.14.6-1.24.22-2.41.48-3.49.78-1.08.3-2.17.66-3.26,1.09.1-.52.19-1.03.26-1.55.08-.52.12-1.04.13-1.58-2.99.43-5.43.89-7.33,1.38-1.9.49-3.39.98-4.48,1.45.1-.62.19-1.24.25-1.85.07-.61.11-1.24.12-1.89.01-.54,0-1.08-.03-1.62-.03-.54-.09-1.08-.19-1.62,1.02.43,2.52.99,4.49,1.67,1.97.68,4.36,1.22,7.17,1.61-.01-.47-.04-.95-.08-1.44-.04-.49-.1-1-.17-1.54,1.77.77,3.94,1.43,6.5,1.98,2.56.55,5.71.95,9.43,1.21l-.02.84Z"/>
        <path class="cls-2" d="M3112,42.01c-.37,0-.75-.02-1.15-.03-.39,0-.78,0-1.17,0-.4,2.17-.76,4.36-1.06,6.57-.3,2.21-.54,4.34-.72,6.39-.18,2.05-.29,3.91-.33,5.58-.03,1.1-.02,2.1.01,2.99.04.9.11,1.65.23,2.27-1.55-.71-3.26-1.08-5.12-1.13-.13,0-.27,0-.41,0-.14,0-.28,0-.41.02.45-.74.93-1.71,1.44-2.93.51-1.22,1.03-2.61,1.55-4.19-.95,0-1.85,0-2.7.02-.85.02-1.65.06-2.39.11.07,1.08.15,2.02.26,2.8.1.78.21,1.33.31,1.63-.65-.13-1.28-.2-1.9-.21-.61-.01-1.27.03-1.96.12.1-.24.21-.73.34-1.46.13-.73.25-1.63.37-2.69-.97.11-1.83.24-2.58.39-.75.15-1.39.31-1.91.49.38,1.26.75,2.38,1.11,3.37.36.99.7,1.78,1.02,2.39-.15-.02-.29-.03-.42-.04-.13,0-.26,0-.39,0-1.86-.04-3.58.25-5.17.89.23-1.11.37-2.67.42-4.66.04-1.55.02-3.27-.05-5.17-.07-1.9-.18-3.9-.34-5.98-.16-2.08-.35-4.14-.58-6.18-.6.12-1.14.23-1.62.34-.48.11-.9.23-1.25.35.25-.95.38-1.92.4-2.93.02-1-.06-2.04-.26-3.11.74.3,1.76.59,3.07.88,1.31.29,2.81.56,4.5.8,1.69.24,3.49.47,5.41.68l.03-1.23.73.02-.03,1.29c2.1.22,4.25.4,6.45.54,2.2.14,4.29.24,6.29.29l-.02.73ZM3098.46,42.28c-1.77.11-3.45.24-5.04.4-1.59.16-3.01.34-4.26.56.44,2.53.95,5.06,1.52,7.59.57,2.53,1.15,4.85,1.75,6.95.08-.82.04-1.72-.1-2.72.48.2,1.14.41,1.98.63.84.22,1.87.43,3.08.6l.22-2.4c-2.35.24-4.12.59-5.28,1.05.13-.65.2-1.28.21-1.9.01-.62-.03-1.27-.12-1.96.5.22,1.19.44,2.08.66.89.23,1.98.43,3.26.61l.2-2.43c-2.54.26-4.39.61-5.53,1.04.13-.65.2-1.28.21-1.9.01-.62-.03-1.27-.12-1.96.5.22,1.22.44,2.15.67.94.23,2.07.43,3.41.61.03-.43.06-.84.08-1.24.03-.4.06-.81.08-1.21-1.31.12-2.44.27-3.41.45-.96.18-1.74.39-2.32.62.13-.65.2-1.28.21-1.9.01-.62-.03-1.27-.12-1.96.5.22,1.23.44,2.21.67.97.23,2.16.44,3.55.64.03-.39.05-.76.07-1.12s.03-.71.04-1.06M3106.11,53.59c-1.27-.01-2.45,0-3.54.02-1.09.02-2.09.07-3.01.14l.13,2.86c.78.09,1.62.17,2.53.24.9.07,1.86.12,2.86.16.18-.54.36-1.09.53-1.66.17-.57.34-1.16.5-1.75M3107.21,49.64c-1.49-.02-2.89,0-4.2.03-1.31.04-2.5.09-3.58.15,0,.47.02.93.02,1.38,0,.46.02.92.05,1.39.97.1,2.01.19,3.13.28,1.12.09,2.33.16,3.63.21.16-.56.32-1.12.47-1.69.15-.57.31-1.16.47-1.75M3108.17,45.69c-1.73-.04-3.34-.04-4.82,0-1.48.04-2.82.1-4.02.19l.05,2.69c1.12.12,2.34.23,3.67.34,1.33.11,2.76.19,4.29.24.14-.57.28-1.15.42-1.72.13-.58.27-1.15.42-1.73M3108.92,41.96c-1.57,0-3.16.02-4.8.07-1.63.05-3.24.12-4.83.21,0,.35-.01.73-.01,1.12,0,.39,0,.79.01,1.2,1.25.16,2.62.29,4.11.4,1.5.11,3.11.18,4.85.22.25-1.04.47-2.12.66-3.23"/>
      </g>
    </g>
  </g>
</svg>