<?xml version="1.0" encoding="UTF-8"?>
<svg id="Layer_2" data-name="Layer 2" xmlns="http://www.w3.org/2000/svg" xmlns:xlink="http://www.w3.org/1999/xlink" viewBox="0 0 926.65 441.26">
  <defs>
    <style>
      .cls-1 {
        fill: #00b2a0;
      }

      .cls-2 {
        fill: none;
      }

      .cls-3 {
        fill: #0a82ab;
      }

      .cls-4 {
        clip-path: url(#clippath);
      }
    </style>
    <clipPath id="clippath">
      <rect class="cls-2" x="0" width="926.63" height="441.23"/>
    </clipPath>
  </defs>
  <g id="Layer_1-2" data-name="Layer 1">
    <g class="cls-4">
      <g>
        <path class="cls-3" d="M121.02,441.23c-2.61,0-4.75-2.14-4.75-4.75V94.31c0-2.61-2.14-4.75-4.75-4.75H3.69c-2.61,0-4.21-2.07-3.54-4.58L21.1,4.58c.65-2.52,3.33-4.58,5.93-4.58h318.43c2.61,0,4.75,2.14,4.75,4.75v80.09c0,2.61-2.14,4.75-4.75,4.75h-111.5c-2.61,0-4.75,2.14-4.75,4.75v342.19c0,2.61-2.14,4.75-4.75,4.75h-103.45v-.04Z"/>
        <path class="cls-1" d="M364.8,89.49c24.76.58,42.18,25.65,42.18,49.35s-17.29,45.75-40.45,51.45c-8.56,1.49-26.23,3.79-29.09,3.95-17.33.97-35.27-.04-52.68-.13h-40.52c-2.61,0-4.75,2.14-4.75,4.75v237.04c0,2.61,1.24,3,2.77.9l22.09-30.69c1.53-2.12,2.77-5.99,2.77-8.59l1.22-119.7,104.42-.14c76.59-.11,139.24-62.47,139.24-138.84S449.35,0,372.78,0h-7.17c-2.61,0-4.75,2.14-4.75,4.75v80.09c0,2.34,1.71,4.28,3.94,4.67"/>
        <path class="cls-1" d="M335.21,411.15h-6.58c-3.87,0-6.76.11-8.72.32-1.94.22-2.91.65-2.91,1.29,0,.9,1.17,1.33,3.51,1.33,1.04,0,1.85.04,2.45.09.61.05,1.92.2,3.96.45,1.2.16,2.03.36,2.48.61.72.41,1.1,1.11,1.1,2.1,0,5.05-1.55,8.74-4.64,11.02-3.36,2.52-8.92,3.78-16.67,3.78-5.39,0-9.69-.99-12.87-2.97-3.38-2.1-5.07-5.11-5.07-9.01,0-3.13.79-6.45,2.41-9.98.58-1.28,2.1-3.99,4.55-8.14l1.51.81c-.95,1.76-1.89,3.51-2.82,5.23-1.42,2.97-2.14,5.41-2.14,7.3,0,3.33,1.6,5.86,4.82,7.59,3.06,1.65,7.26,2.48,12.6,2.48,3.58,0,6.74-.29,9.49-.9,3.36-.74,5.05-1.73,5.05-3,0-.47-.2-.81-.56-1.04-.38-.23-1.01-.34-1.89-.34-.68-.09-1.74-.16-3.18-.27-1.44-.09-2.39-.14-2.84-.14-1.58,0-2.72-.22-3.38-.67-.68-.45-1.02-1.11-1.02-2.01,0-3.34.92-6.09,2.75-8.23,1.51-1.73,3.52-3.02,6.06-3.85,1.91-.63,3.92-.93,6.02-.93h6.58v7.07l-.04.02ZM311.84,437.15l-3.42,3.49-4.37-2.88,3.51-3.81,4.28,3.2ZM319.62,437.15l-3.49,3.49-4.21-2.88,3.38-3.81,4.33,3.2h-.02Z"/>
        <path class="cls-1" d="M365.57,411.15h-3.92c-1.67,0-3.58-.4-5.68-1.22-2.43-.95-4.57-2.25-6.44-3.88-1.46,1.92-2.95,3.25-4.46,3.99-1.51.74-3.72,1.11-6.63,1.11h-5.88v-7.07h5.75c2.28,0,4.31-.63,6.09-1.87,1.38-.97,2.64-2.34,3.76-4.1,1.53-2.37,3.42-4.44,5.65-6.2,2.01-1.56,3.85-2.57,5.54-3,1.74,2.84,3.11,5.39,4.13,7.66,1.38,3.07,2.07,5.59,2.07,7.5v7.07l.02.02ZM361.26,403.17c-.32-1.56-.83-3.11-1.51-4.62-.58-1.28-1.33-2.59-2.28-3.94-1.2.32-2.21.93-3.06,1.82-.56.58-1.2,1.53-1.96,2.88.9,1.06,2.18,2,3.81,2.84,1.64.84,3.18,1.35,4.66,1.55l.34-.52Z"/>
        <path class="cls-1" d="M381.52,411.15h-18.59v-7.07h14.8l-4.48-34.39-1.96-1.01c0-1.87.14-3.61.45-5.25.31-1.64.76-3.22,1.37-4.76l.56.45c0,1.56.81,2.73,2.45,3.52,1.26.54,2.52,1.08,3.79,1.62,0,1.35-.09,2.8-.29,4.33-.2,1.55-.45,2.7-.72,3.45l-1.82-.65,4.44,31.8v7.95Z"/>
        <path class="cls-1" d="M411.9,411.15h-5.54c-1.64,0-3.29-.41-4.96-1.26-2.01-1.01-3.47-2.39-4.37-4.17-1.69,1.62-3.61,2.88-5.75,3.78-2.64,1.11-5.63,1.65-8.99,1.65h-3.38v-7.07h3.38c2.1,0,4.06-.23,5.88-.72,2.05-.58,4.08-1.47,6.06-2.71l-1.58-2.19c-.81-1.02-1.71-1.55-2.71-1.55-.45,0-.85.09-1.2.27-.36.18-.74.56-1.17,1.15h-.79v-2.39c0-2.97.72-5.02,2.18-6.13,1.33-1.01,3.63-1.49,6.92-1.49,2.84,0,5.14.41,6.92,1.22,2.34,1.06,3.49,2.68,3.49,4.87,0,1.17-.47,2.36-1.38,3.61-.68.92-1.92,2.19-3.72,3.81.4.65,1.17,1.19,2.32,1.62,1.13.43,2.1.65,2.88.65h5.54v7.07-.02Z"/>
        <path class="cls-1" d="M427.85,411.15h-18.59v-7.07h14.78l-4.48-34.39-1.96-1.01c0-1.87.14-3.61.45-5.25.31-1.64.76-3.22,1.35-4.76l.56.45c0,1.56.81,2.73,2.45,3.52,1.26.54,2.52,1.08,3.79,1.62,0,1.35-.11,2.8-.31,4.33-.2,1.55-.43,2.7-.72,3.45l-1.82-.65,4.44,31.8v7.95h.05Z"/>
        <path class="cls-1" d="M440.56,400.81c0,2.16-.36,4.26-1.1,6.29-.38,1.08-1.19,2.8-2.44,5.16l-.68-.41c.07-.79.14-1.69.22-2.71.07-1.02.09-1.73.09-2.07,0-2.8-.2-6.74-.61-11.78-.41-5.05-.92-10.32-1.49-15.8-.34-3.33-.74-6.72-1.17-10.18.5-1.19,1.08-2.48,1.71-3.85.65-1.38,1.24-2.68,1.83-3.9.4,3.07.9,7.3,1.53,12.66.61,5.36,1.1,10.18,1.44,14.47.45,5.36.68,9.4.68,12.12Z"/>
        <path class="cls-1" d="M482.9,411.15h-5.27c-1.71,0-3.07-.74-4.1-2.23-.9-1.29-1.58-3.24-2.05-5.81-.47-2.57-.83-5.73-1.08-9.49-.14-3.06-.31-6.18-.47-9.4-.16-3.22-.38-5.66-.65-7.32-.27-1.67-.63-3.02-1.08-4.08-.56-1.29-1.31-2.43-2.3-3.42l4.62-7.87c.97,3.24,1.67,7.12,2.07,11.63.25,2.8.5,9.46.75,19.96.45,4.82,1.1,7.89,1.96,9.24.7,1.13,1.47,1.71,2.3,1.71h5.27v7.07l.02.02Z"/>
        <path class="cls-1" d="M513.26,411.15h-3.92c-1.67,0-3.58-.4-5.68-1.22-2.43-.95-4.58-2.25-6.44-3.88-1.46,1.92-2.95,3.25-4.46,3.99-1.53.74-3.74,1.11-6.63,1.11h-5.86v-7.07h5.75c2.28,0,4.31-.63,6.09-1.87,1.38-.97,2.62-2.34,3.76-4.1,1.53-2.37,3.42-4.44,5.65-6.2,1.99-1.56,3.85-2.57,5.52-3,1.73,2.84,3.11,5.39,4.14,7.66,1.39,3.07,2.07,5.59,2.07,7.5v7.07l.02.02ZM508.93,403.17c-.32-1.56-.82-3.11-1.51-4.62-.57-1.28-1.33-2.59-2.28-3.94-1.2.32-2.21.93-3.06,1.82-.56.58-1.21,1.53-1.96,2.88.9,1.06,2.18,2,3.81,2.84,1.65.84,3.2,1.35,4.65,1.55l.34-.52Z"/>
        <path class="cls-1" d="M550.93,411.15c0,2.97-1.18,6.06-3.54,9.24-2.05,2.82-4.62,5.23-7.68,7.26-2.91,1.94-5.3,2.91-7.19,2.91-1.72,0-3.59-.27-5.61-.81-1.53-.4-3.36-1.04-5.5-1.91-1.82-.74-3.59-1.46-5.38-2.19l.63-1.62c1.65.36,3.38.7,5.18,1.08,1.8.36,3.42.56,4.87.56,3.22,0,6.56-1.11,10.05-3.33,3.16-2.03,5.86-4.58,8.09-7.68,2.23-3.09,3.35-5.88,3.35-8.38,0-2.14-.58-4.39-1.73-6.72-.94-1.89-2.23-3.83-3.92-5.84l2.14-6.36c2.05,2.05,3.58,4.12,4.55,6.17,1.11,2.32,1.66,4.93,1.66,7.78v9.85l.04-.02Z"/>
        <path class="cls-1" d="M568.62,411.15h-5.27c-1.71,0-3.08-.74-4.1-2.23-.9-1.29-1.58-3.24-2.05-5.81-.47-2.57-.83-5.73-1.08-9.49-.15-3.06-.31-6.18-.47-9.4-.16-3.22-.38-5.66-.65-7.32-.27-1.67-.63-3.02-1.08-4.08-.54-1.29-1.32-2.43-2.28-3.42l4.62-7.87c.97,3.24,1.67,7.12,2.06,11.63.26,2.8.51,9.46.76,19.96.45,4.82,1.09,7.89,1.96,9.24.7,1.13,1.48,1.71,2.3,1.71h5.27v7.08Z"/>
        <path class="cls-1" d="M589.24,411.17h-23.25v-7.07h20.05c0-2.41-.27-4.66-.79-6.78-1.31.47-2.3.79-3,.97-1.15.32-2.17.49-3.06.49-1.83,0-3.32-.5-4.48-1.51-1.33-1.13-1.99-2.77-1.99-4.91,0-3.76.63-7.05,1.89-9.85,1.4-3.15,3.24-4.71,5.48-4.71,3.06,0,5.41,2.59,7.07,7.75,1.39,4.28,2.07,9.29,2.07,15.05v10.55l.02.02ZM584.22,366.22l-2.9,5.91-6.06-3.49,2.79-5.91,6.16,3.49ZM583.11,390.08c-.36-.97-.92-1.96-1.69-2.97-1.04-1.35-2.05-2.03-3-2.03-.68,0-1.24.31-1.67.92-.43.61-.66,1.33-.66,2.17,0,2.16,1.09,3.25,3.31,3.25.57,0,1.18-.13,1.85-.36.65-.25,1.28-.58,1.89-.97l-.02-.02Z"/>
        <path class="cls-1" d="M667.48,396.75h-6.58c-3.87,0-6.76.11-8.7.32-1.94.22-2.93.65-2.93,1.29,0,.9,1.17,1.33,3.5,1.33,1.03,0,1.84.04,2.45.09.59.05,1.92.2,3.95.45,1.2.16,2.03.36,2.48.61.74.41,1.09,1.11,1.09,2.1,0,5.05-1.55,8.74-4.62,11.04-3.36,2.52-8.92,3.78-16.67,3.78-5.4,0-9.69-.99-12.88-2.97-3.38-2.1-5.07-5.11-5.07-9.01,0-3.13.79-6.45,2.41-9.98.58-1.28,2.1-3.99,4.55-8.14l1.51.81c-.95,1.76-1.89,3.51-2.82,5.23-1.42,2.97-2.14,5.41-2.14,7.3,0,3.33,1.6,5.86,4.81,7.59,3.06,1.65,7.26,2.48,12.6,2.48,3.58,0,6.76-.31,9.48-.9,3.36-.74,5.05-1.73,5.05-3,0-.47-.2-.81-.58-1.04-.38-.23-1-.34-1.89-.34-.68-.09-1.74-.16-3.18-.27-1.44-.09-2.39-.14-2.84-.14-1.59,0-2.72-.22-3.38-.67-.68-.45-1.02-1.11-1.02-2.01,0-3.36.92-6.09,2.75-8.23,1.51-1.73,3.52-3.02,6.06-3.85,1.91-.63,3.92-.93,6.02-.93h6.58v7.07h-.02Z"/>
        <path class="cls-1" d="M686.28,396.75h-21.44v-7.05h18.69c0-3.2-.34-5.63-1.06-7.3-.49-1.17-1.65-2.84-3.54-5.03l2.93-6.62c1.8,2.46,2.93,4.39,3.38,5.75.68,2.09,1.02,5.54,1.02,10.34v9.89l.02.02ZM682.45,406.6l-2.93,5.88-6.1-3.4,2.79-5.91,6.25,3.45-.02-.02Z"/>
        <path class="cls-1" d="M719.58,394.32c0,4.46-1.53,8.9-4.58,13.3-3.41,4.93-7.35,7.37-11.81,7.37-1.65,0-3.36-.2-5.13-.61-1.28-.31-2.95-.81-4.99-1.55-1.64-.63-3.27-1.22-4.89-1.83l.64-1.42c1.41.36,2.88.72,4.43,1.11,1.55.4,2.93.59,4.15.59,3.06,0,5.95-.85,8.7-2.52,2.14-1.33,4.26-3.25,6.4-5.75,1.08-1.28,2.61-3.34,4.59-6.2-3.38,0-5.92-.58-7.6-1.74-1.91-1.33-2.86-3.51-2.86-6.53,0-2.79.61-5.36,1.82-7.75,1.4-2.75,3.18-4.13,5.34-4.13s3.75,1.37,4.71,4.1c.75,2.14,1.13,5.11,1.13,8.92v4.62l-.04.02ZM717.22,389.9c-.56-2.59-1.22-4.4-1.99-5.39-.68-.86-1.51-1.29-2.48-1.29-.7,0-1.32.25-1.82.75-.52.5-.77,1.13-.77,1.89,0,1.33.56,2.34,1.65,3.02,1.1.68,2.91,1.04,5.43,1.04l-.02-.02Z"/>
        <path class="cls-1" d="M764.4,396.75h-47.44v-7.07l5.75-.04c1.71,0,3.31-.23,4.78-.74,1.71-.58,3.65-1.56,5.79-3,.45-1.19.82-2.46,1.09-3.83s.41-2.68.41-3.95c0-2.89-.25-6.08-.75-9.56-.38-2.53-.93-5.52-1.69-8.95-.39-1.78-.93-3.95-1.58-6.53l-2.33-1.26c.18-1.62.43-3.18.77-4.69.34-1.51.81-2.97,1.42-4.39.4,1.28,1.32,2.26,2.75,2.97,1.19.58,2.68.95,4.51,1.13-.25,2.79-.43,4.55-.56,5.3-.13.75-.36,1.69-.72,2.8-.18-.04-.65-.16-1.4-.41l-.49-.16c.88,3.16,1.6,6.42,2.16,9.76.56,3.34.84,6.15.84,8.41,0,1.92-.18,4.05-.52,6.4-.13.85-.36,2.14-.68,3.9,4.39-2.73,7.19-4.4,8.43-5.03,3.72-1.89,6.9-2.84,9.55-2.84,3.4,0,5.93,1.08,7.6,3.2,1.53,1.94,2.3,4.71,2.3,8.31v10.27ZM758.45,386.57c0-1.38-.67-2.43-1.98-3.15-1.32-.72-3.2-1.08-5.66-1.08-1.84,0-3.94.43-6.33,1.29-1.96.7-4.05,1.67-6.24,2.91-1.64.92-3.31,1.96-5.03,3.13h16.38c5.91,0,8.88-1.04,8.88-3.13l-.02.02Z"/>
        <path class="cls-1" d="M840.79,396.75h-35.9c-4.82,0-8.65-.9-11.5-2.71-3.6-2.28-5.38-5.82-5.38-10.66,0-2.52.52-5.09,1.58-7.71.38-.94,1.28-2.75,2.72-5.39l1.11.77c-.56,1.24-1.08,2.48-1.62,3.72-.74,1.92-1.1,3.63-1.1,5.14,0,3.2,1.57,5.66,4.67,7.42,2.79,1.56,6.31,2.36,10.57,2.36h31.87v-1.1c0-3.02-.34-5.5-1.02-7.41-.68-1.91-1.83-3.54-3.45-4.89l2.9-6.6c1.1,1.49,1.76,2.43,2,2.8,1.71,3.02,2.55,7.44,2.55,13.21v11.04ZM819.23,406.6l-2.93,5.88-6.09-3.4,2.79-5.91,6.26,3.45-.02-.02Z"/>
        <path class="cls-1" d="M859.59,396.75h-21.44v-7.07h18.69c0-3.2-.36-5.63-1.06-7.3-.47-1.17-1.65-2.84-3.54-5.03l2.93-6.6c1.8,2.46,2.93,4.39,3.4,5.75.68,2.09,1.01,5.54,1.01,10.34v9.89l.02.02ZM850.75,360.35l-2.86,5.88-6.09-3.4,2.79-5.88,6.16,3.4ZM859.42,356.7l-2.93,5.84-6.09-3.49,2.82-5.81,6.2,3.45Z"/>
        <path class="cls-1" d="M889.96,396.75h-33.01v-7.07h28.64c-1.76-2.86-3.75-5.36-6.02-7.48-2.25-2.12-5.31-4.4-9.15-6.87l-1.24,1.26-4.44-3.65c-1.57-1.4-2.34-2.5-2.34-3.29,0-4.66,1.06-8.31,3.17-10.95,1.96-2.43,5.32-4.62,10.12-6.56l10.61-4.46v7.01l-7.88,2.84c-3.14,1.11-5.66,2.12-7.6,3.04-2.46,1.17-3.68,2.05-3.68,2.68s.81,1.58,2.41,2.88c1.01.81,2.01,1.62,3.06,2.43,3.81,3.11,7.14,6.36,9.98,9.78,3.06,3.65,5.52,7.44,7.37,11.36v7.07l.02-.02Z"/>
        <path class="cls-1" d="M920.32,396.75h-3.92c-1.69,0-3.58-.41-5.68-1.22-2.42-.95-4.58-2.25-6.44-3.88-1.46,1.92-2.95,3.25-4.46,3.99-1.53.74-3.74,1.11-6.65,1.11h-5.86v-7.05h5.75c2.28,0,4.32-.63,6.09-1.87,1.39-.97,2.63-2.34,3.76-4.1,1.53-2.37,3.41-4.44,5.65-6.2,2.01-1.56,3.85-2.57,5.54-3,1.73,2.84,3.11,5.39,4.13,7.66,1.39,3.07,2.07,5.59,2.07,7.5v7.05l.02.02ZM916.01,388.77c-.32-1.56-.82-3.11-1.51-4.62-.57-1.28-1.33-2.59-2.28-3.94-1.2.32-2.23.94-3.06,1.83-.56.58-1.2,1.53-1.96,2.88.9,1.06,2.18,2,3.83,2.84,1.64.84,3.18,1.35,4.64,1.55l.34-.52v-.02Z"/>
        <path class="cls-1" d="M294.74,299.63h-9.82v-4.8h27.78v4.8h-9.83v33.74h-8.13v-33.74Z"/>
        <path class="cls-1" d="M321.76,325.61c0,1.15.4,2.1,1.17,2.86.77.75,1.74,1.13,2.89,1.13,1.91-.05,3.25-.54,4.06-1.46.81-.92,1.29-1.67,1.46-2.28v-20.01h5.38v27.54h-5.38v-2.57c-.49.45-1.55.99-3.16,1.65-1.62.67-3.87.99-6.72.99-2.12-.09-3.81-.77-5.05-2.09-1.24-1.31-1.87-3.15-1.87-5.54v-20.01h7.21v19.78h.02Z"/>
        <path class="cls-1" d="M340.1,294.83h7.21v12.24c1.73-.94,3.92-1.38,6.6-1.38,1.82,0,3.42.29,4.82.88,1.4.59,2.59,1.87,3.56,3.85.97,1.98,1.46,4.8,1.46,8.49,0,3.97-.52,7.03-1.55,9.19-1.03,2.16-2.32,3.6-3.88,4.31-1.56.74-3.33,1.11-5.25,1.13-1.71,0-3.02-.23-3.94-.68-.94-.45-1.55-.83-1.82-1.13v1.65h-7.21v-38.54ZM347.33,327.52c0,.18.41.56,1.22,1.15.83.59,1.8.95,2.91,1.08,2.41,0,4.12-.9,5.11-2.68.99-1.78,1.49-4.53,1.49-8.25,0-3.09-.43-5.47-1.29-7.12-.84-1.65-2.55-2.48-5.07-2.48-1.4.11-2.48.36-3.24.75-.76.4-1.15.67-1.15.83v16.7l.02.02Z"/>
        <path class="cls-1" d="M381.3,333.38v-2.89c-.2.5-.88,1.11-2.01,1.85-1.15.74-3.07,1.11-5.82,1.11-2.34-.09-4.28-.74-5.82-1.94-1.55-1.2-2.34-3.09-2.37-5.68,0-2.77.92-4.85,2.77-6.24,1.83-1.38,4.6-2.23,8.29-2.52,1.71-.14,3-.61,3.92-1.4.92-.79,1.38-1.67,1.38-2.66s-.43-1.85-1.26-2.57c-.84-.72-1.98-1.08-3.42-1.08-2.97,0-5.27.59-6.9,1.76-1.64,1.17-2.71,2.16-3.24,2.97l1.06-5.47c0-.09.4-.38,1.17-.86.77-.49,1.87-.94,3.27-1.37,1.4-.43,3.07-.65,5-.65,3.96,0,6.8.72,8.56,2.18,1.76,1.46,2.64,3.34,2.64,5.68v19.78h-7.21ZM377.78,329.08c2.36-.68,3.52-1.8,3.52-3.31v-6.27s-.11.23-.27.58c-.16.34-.52.68-1.1,1.02-.58.34-1.46.58-2.63.72-2,.29-3.52.77-4.57,1.44-1.04.67-1.58,1.82-1.58,3.42.16,1.87,1.55,2.8,4.17,2.8.79,0,1.6-.14,2.45-.41v.02Z"/>
        <path class="cls-1" d="M439.03,306c0,3.16-.59,5.59-1.78,7.3-1.17,1.71-2.7,2.84-4.57,3.38-1.87.56-4.08.83-6.63.83h-7.37v15.87h-8.13v-38.54h16.43c3.76,0,6.69.81,8.79,2.45,2.1,1.62,3.18,4.53,3.25,8.72ZM431.36,305.76c-.04-1.94-.54-3.45-1.51-4.53-.97-1.06-2.23-1.6-3.79-1.6h-7.37v13.14h7.14c1.83,0,3.2-.5,4.14-1.51.93-1.01,1.38-2.84,1.38-5.52l.02.02Z"/>
        <path class="cls-1" d="M441.03,333.38v-38.54h7.21v12.75s.29-.18.86-.52c.59-.34,1.38-.65,2.37-.94.99-.29,2.16-.43,3.51-.45,1.91,0,3.49.31,4.73.92,1.24.61,2.12,1.4,2.68,2.39.54.99.83,2.03.83,3.13v21.27h-5.38v-19.78c0-1.65-.36-2.79-1.08-3.38-.72-.61-1.94-.92-3.67-.92-.99.05-1.83.29-2.55.68-.72.4-1.28.81-1.67,1.26-.4.43-.59.7-.59.79v21.34h-7.24Z"/>
        <path class="cls-1" d="M481.62,333.38v-2.89c-.2.5-.86,1.11-2.01,1.85-1.15.74-3.07,1.11-5.82,1.11-2.34-.09-4.28-.74-5.83-1.94-1.55-1.2-2.34-3.09-2.37-5.68,0-2.77.92-4.85,2.77-6.24,1.83-1.38,4.6-2.23,8.29-2.52,1.69-.14,3-.61,3.92-1.4.92-.79,1.38-1.67,1.38-2.66s-.43-1.85-1.26-2.57c-.85-.72-1.98-1.08-3.42-1.08-2.97,0-5.27.59-6.9,1.76-1.64,1.17-2.72,2.16-3.24,2.97l1.06-5.47c0-.09.4-.38,1.17-.86.77-.49,1.87-.94,3.27-1.37,1.4-.43,3.06-.65,5-.65,3.95,0,6.8.72,8.56,2.18,1.76,1.46,2.64,3.34,2.64,5.68v19.78h-7.21ZM478.1,329.08c2.36-.68,3.52-1.8,3.52-3.31v-6.27s-.11.23-.27.58c-.16.34-.54.68-1.1,1.02-.58.34-1.46.58-2.62.72-2,.29-3.52.77-4.57,1.44-1.04.67-1.58,1.82-1.58,3.42.16,1.87,1.55,2.8,4.17,2.8.79,0,1.6-.14,2.45-.41v.02Z"/>
        <path class="cls-1" d="M491.83,333.38v-27.54h7.21v3.4s.18-.22.43-.58c.27-.36.67-.74,1.2-1.11.54-.4,1.28-.75,2.19-1.11.99-.45,2.25-.67,3.76-.67,1.17,0,1.91.05,2.21.16l.61,3.97c-.88-.23-1.69-.34-2.46-.34-1.67,0-3.04.34-4.14,1.01-1.24.67-2.19,1.56-2.86,2.71-.67,1.15-.99,2.19-.99,3.15v16.97h-7.21l.04-.02Z"/>
        <path class="cls-1" d="M511.46,333.38v-27.54h7.21v2.25c1.49-1.6,3.75-2.41,6.83-2.41,2.17,0,3.7.43,4.58,1.28.88.85,1.4,1.56,1.55,2.12,0-.04.27-.32.75-.92.49-.58,1.22-1.11,2.18-1.58.95-.49,2.19-.75,3.66-.83,2.74,0,4.78.68,6.15,2.01,1.37,1.35,2.05,3.09,2.05,5.25v20.35h-5.52v-19.69c0-2.48-1.39-3.72-4.14-3.72-1.46.11-2.48.67-3.11,1.69-.61,1.02-.99,1.87-1.11,2.52v19.18h-5.52v-19.69c0-1.06-.34-1.94-1.01-2.66-.68-.7-1.72-1.06-3.14-1.06-1.53.16-2.59.77-3.18,1.85-.59,1.08-.93,1.94-1.02,2.61v18.95h-7.21v.04Z"/>
        <path class="cls-1" d="M565.11,333.38v-2.89c-.2.5-.86,1.11-2.01,1.85-1.15.74-3.08,1.11-5.83,1.11-2.33-.09-4.28-.74-5.82-1.94-1.55-1.2-2.34-3.09-2.37-5.68,0-2.77.92-4.85,2.77-6.24,1.85-1.38,4.6-2.23,8.29-2.52,1.69-.14,3-.61,3.92-1.4.92-.79,1.39-1.67,1.39-2.66s-.41-1.85-1.26-2.57c-.84-.72-1.97-1.08-3.41-1.08-2.97,0-5.27.59-6.9,1.76s-2.72,2.16-3.24,2.97l1.08-5.47c0-.09.4-.38,1.17-.86.77-.49,1.87-.94,3.27-1.37,1.4-.43,3.05-.65,4.99-.65,3.96,0,6.8.72,8.56,2.18,1.76,1.46,2.65,3.34,2.65,5.68v19.78h-7.23ZM561.59,329.08c2.35-.68,3.52-1.8,3.52-3.31v-6.27s-.11.23-.25.58c-.17.34-.54.68-1.11,1.02-.58.34-1.46.58-2.63.72-2,.29-3.52.77-4.57,1.44s-1.58,1.82-1.58,3.42c.16,1.87,1.55,2.8,4.17,2.8.79,0,1.6-.14,2.44-.41v.02Z"/>
        <path class="cls-1" d="M600.19,307.44c0,1.37,1.06,2.41,3.17,3.11,2.1.7,4.24,1.35,6.38,1.94,2.14.59,4.01,1.62,5.61,3.07,1.6,1.46,2.42,3.69,2.48,6.67,0,2.97-.47,5.36-1.39,7.17-.92,1.82-2.21,3.15-3.89,3.97-1.67.85-3.68,1.35-6.07,1.53-.58.05-1.39.07-2.44.07-1.75,0-3.38-.14-4.93-.41-1.55-.27-2.82-.58-3.82-.92-1.01-.34-1.51-.54-1.51-.59l-1.3-5.5s.54.23,1.56.72c1.03.49,2.27.92,3.7,1.33,1.44.41,3.04.63,4.8.68,2.83,0,4.73-.49,5.7-1.49.97-.99,1.46-2.48,1.46-4.49,0-2.37-.67-3.94-1.98-4.69-1.31-.75-3.47-1.47-6.44-2.16-2.97-.68-5.22-1.67-6.71-2.98-1.49-1.31-2.25-3.6-2.25-6.89.07-2.09.61-3.81,1.64-5.18,1.02-1.37,2.35-2.37,4.01-3.04,1.65-.67,3.5-1.04,5.57-1.15,3.42,0,6.11.22,8.06.63,1.94.41,3.23.77,3.87,1.06l1.37,5.81c-1.87-.9-3.54-1.55-5-1.92s-3.2-.56-5.2-.56-3.49.25-4.58.75c-1.11.5-1.73,1.64-1.85,3.42"/>
        <path class="cls-1" d="M639.02,333.59c0,.11-.68.31-2.03.59-1.35.31-3.08.49-5.16.56-2.93,0-5.23-.45-6.94-1.31-1.71-.88-2.93-2.32-3.68-4.31-.75-2-1.13-4.73-1.13-8.2.09-2.77.5-5.03,1.24-6.8.74-1.76,1.89-3.07,3.48-3.96,1.6-.88,3.72-1.31,6.39-1.31,1.69.04,3.22.2,4.57.47,1.35.27,2.32.5,2.89.68l.72,3.72c-.43-.23-1.22-.54-2.39-.88-1.15-.36-2.61-.54-4.37-.59-2.3,0-3.83.83-4.58,2.46-.77,1.64-1.15,3.7-1.15,6.22,0,3.02.33,5.48.94,7.37.63,1.89,1.9,2.91,3.87,3.07,1.55,0,2.89-.14,4.01-.43s2.01-.61,2.7-.95c.68-.34,1.02-.56,1.02-.63l-.42,4.26.04-.04Z"/>
        <path class="cls-1" d="M644.99,298.54c1.18,0,2.12.4,2.8,1.2.67.81,1.01,1.76,1.01,2.89s-.34,2.12-1.02,2.95c-.68.81-1.64,1.22-2.84,1.22s-2.1-.41-2.79-1.24c-.68-.83-1.03-1.78-1.03-2.86s.35-2.09,1.03-2.91c.68-.83,1.64-1.26,2.86-1.26M641.59,308.91h6.67v25.76h-6.67v-25.76Z"/>
        <path class="cls-1" d="M657.18,323.08c.11,1.37.54,3.07,1.3,5.16.75,2.09,2.14,3.16,4.15,3.27,2.44,0,4.37-.34,5.77-1.01,1.39-.67,2.3-1.24,2.72-1.69l-1.01,4.48c0,.27-.7.61-2.08,1.04-1.39.43-3.17.65-5.31.65-.86,0-1.53-.02-2-.07-3.48-.27-6.04-1.35-7.65-3.24-1.62-1.89-2.44-4.91-2.48-9.06,0-4.76.92-8.25,2.77-10.46,1.83-2.21,4.53-3.34,8.09-3.38,4.26,0,7.15,1.2,8.68,3.63,1.29,2.01,1.94,4.71,1.94,8.13,0,.65,0,1.19-.05,1.64-.04.45-.06.75-.09.94h-14.73l-.02-.02ZM662.07,312c-3.25.11-4.89,2.66-4.89,7.64h10.41c0-5.11-1.84-7.64-5.52-7.64Z"/>
        <path class="cls-1" d="M694.81,314.86v19.81h-5.03v-18.88c0-2.16-1.53-3.25-4.58-3.25-1.49.18-2.57.68-3.22,1.51-.65.81-1.04,1.47-1.17,1.98v18.64h-6.74v-25.76h6.74v2.1c.09-.05.41-.29.95-.68.54-.4,1.31-.75,2.32-1.08,1-.32,2.16-.49,3.47-.49,2.5,0,4.33.61,5.5,1.83,1.17,1.22,1.76,2.64,1.76,4.26Z"/>
        <path class="cls-1" d="M707.79,312.15v14.94c0,1.49.41,2.55,1.22,3.18.6.5,1.69.75,3.31.75v3.65c-.14,0-.39.02-.75.04-.38.02-.79.04-1.26.04-3.07,0-5.32-.56-6.74-1.71-1.67-1.24-2.51-3.33-2.51-6.27v-14.62h-4.51v-3.25h4.51v-10.3h6.74v10.3h4.53v3.25h-4.53Z"/>
        <path class="cls-1" d="M717.3,298.54c1.18,0,2.12.4,2.79,1.2.66.81,1,1.76,1,2.89s-.34,2.12-1.02,2.95c-.68.81-1.64,1.22-2.84,1.22s-2.1-.41-2.79-1.24c-.68-.83-1.04-1.78-1.04-2.86s.34-2.09,1.04-2.91c.68-.83,1.64-1.26,2.86-1.26ZM713.9,308.91h6.69v25.76h-6.69v-25.76Z"/>
        <path class="cls-1" d="M727.06,334.67v-22.51h-4.51v-3.25h4.51v-1.55c0-2.84.94-5.09,2.81-6.72,1.62-1.35,4.41-2.01,8.32-2.01v4.26c-1.58,0-2.73.36-3.45,1.08-.72.83-1.06,1.96-1.06,3.4v1.55h4.51v3.25h-4.51v22.51h-6.62Z"/>
        <path class="cls-1" d="M743.01,298.54c1.19,0,2.12.4,2.79,1.2.67.81,1.01,1.76,1.01,2.89s-.34,2.12-1.02,2.95c-.68.81-1.64,1.22-2.84,1.22s-2.1-.41-2.79-1.24c-.68-.83-1.02-1.78-1.02-2.86s.34-2.09,1.02-2.91c.68-.83,1.64-1.26,2.86-1.26ZM739.63,308.91h6.69v25.76h-6.69v-25.76Z"/>
        <path class="cls-1" d="M767.76,333.59c0,.11-.68.31-2.03.59-1.35.31-3.07.49-5.16.56-2.93,0-5.23-.45-6.94-1.31-1.71-.88-2.95-2.32-3.68-4.31-.76-2-1.13-4.73-1.13-8.2.09-2.77.5-5.03,1.24-6.8.72-1.76,1.89-3.07,3.49-3.96,1.6-.88,3.72-1.31,6.38-1.31,1.69.04,3.22.2,4.57.47,1.35.27,2.32.5,2.91.68l.72,3.72c-.43-.23-1.22-.54-2.39-.88-1.15-.36-2.61-.54-4.37-.59-2.3,0-3.83.83-4.58,2.46-.76,1.64-1.13,3.7-1.13,6.22,0,3.02.31,5.48.93,7.37.63,1.89,1.92,2.91,3.87,3.07,1.55,0,2.9-.14,4.01-.43,1.11-.29,2.03-.61,2.72-.95.68-.34,1.02-.56,1.02-.63l-.43,4.26v-.04Z"/>
        <path class="cls-1" d="M803.52,298.61c6.51,0,9.76,2.86,9.76,8.59,0,3.42-.9,5.66-2.68,6.78-1.78,1.1-3.27,1.65-4.44,1.65,5.56.58,8.32,3.47,8.32,8.67-.05,4.01-1.06,6.74-3.02,8.2-1.96,1.44-4.53,2.18-7.73,2.18h-15.57v-36.06h15.37-.02ZM807.6,307.58c-.25-2.98-1.89-4.48-4.94-4.48h-6.91v10.52h6.67c3.45,0,5.16-2.01,5.16-6.04h.02ZM803,330.18c3.54,0,5.3-2.09,5.3-6.26,0-1.87-.52-3.29-1.56-4.3-1.04-1.01-2.35-1.51-3.96-1.51h-7.05v12.06h7.26Z"/>
        <path class="cls-1" d="M823.69,327.39c0,1.08.36,1.96,1.1,2.66.73.7,1.64,1.06,2.71,1.06,1.78-.05,3.04-.5,3.79-1.37.76-.86,1.2-1.56,1.37-2.14v-18.71h5.03v25.76h-5.03v-2.39c-.45.41-1.44.94-2.97,1.55-1.51.61-3.61.94-6.29.94-1.98-.07-3.56-.72-4.73-1.94-1.17-1.22-1.74-2.95-1.74-5.18v-18.71h6.74v18.5l.02-.02Z"/>
        <path class="cls-1" d="M840.84,334.67v-25.76h6.74v3.16s.16-.2.41-.54c.26-.34.63-.68,1.13-1.04.5-.36,1.18-.7,2.05-1.04.94-.41,2.1-.63,3.52-.63,1.1,0,1.78.05,2.07.14l.58,3.72c-.83-.22-1.58-.32-2.3-.32-1.55,0-2.84.31-3.87.95-1.15.61-2.05,1.46-2.66,2.53-.63,1.08-.93,2.05-.93,2.95v15.87h-6.74Z"/>
        <path class="cls-1" d="M865.17,323.08c.11,1.37.54,3.07,1.3,5.16.75,2.09,2.14,3.16,4.15,3.27,2.44,0,4.39-.34,5.77-1.01,1.38-.67,2.28-1.24,2.71-1.69l-1,4.48c0,.27-.7.61-2.09,1.04-1.38.43-3.16.65-5.3.65-.86,0-1.53-.02-2-.07-3.48-.27-6.02-1.35-7.64-3.24-1.62-1.89-2.44-4.91-2.48-9.06,0-4.76.92-8.25,2.77-10.46,1.84-2.21,4.53-3.34,8.09-3.38,4.26,0,7.16,1.2,8.68,3.63,1.3,2.01,1.94,4.71,1.94,8.13,0,.65,0,1.19-.06,1.64-.04.45-.07.75-.09.94h-14.72l-.04-.02ZM870.06,312c-3.25.11-4.89,2.66-4.89,7.64h10.41c0-5.11-1.83-7.64-5.52-7.64Z"/>
        <path class="cls-1" d="M896.32,334.67v-2.7c-.18.47-.81,1.04-1.89,1.74-1.07.7-2.88,1.04-5.45,1.04-2.17-.09-3.99-.68-5.45-1.82-1.44-1.11-2.19-2.89-2.23-5.3,0-2.59.86-4.53,2.59-5.84,1.72-1.29,4.3-2.09,7.75-2.35,1.6-.14,2.83-.58,3.67-1.31.86-.74,1.28-1.56,1.28-2.48s-.4-1.73-1.18-2.39c-.79-.67-1.85-1.01-3.2-1.01-2.77,0-4.92.56-6.45,1.65-1.53,1.1-2.53,2.03-3.02,2.77l.99-5.12c0-.09.36-.36,1.09-.81.74-.45,1.75-.88,3.06-1.28,1.32-.4,2.86-.61,4.67-.61,3.69,0,6.36.68,8,2.03,1.66,1.35,2.46,3.13,2.46,5.32v18.48h-6.74l.05-.02ZM893.03,330.65c2.19-.65,3.29-1.67,3.29-3.09v-5.88s-.09.22-.25.54c-.14.32-.5.65-1.02.95-.54.32-1.37.54-2.44.68-1.87.27-3.29.74-4.28,1.35-.99.63-1.48,1.69-1.48,3.2.16,1.76,1.46,2.62,3.89,2.62.73,0,1.51-.13,2.3-.38Z"/>
        <path class="cls-1" d="M912.63,327.39c0,1.08.36,1.96,1.1,2.66.73.7,1.63,1.06,2.71,1.06,1.78-.05,3.06-.5,3.81-1.37.75-.86,1.2-1.56,1.37-2.14v-18.71h5.03v25.76h-5.03v-2.39c-.45.41-1.44.94-2.97,1.55-1.53.61-3.61.94-6.29.94-1.99-.07-3.56-.72-4.73-1.94-1.16-1.22-1.74-2.95-1.74-5.18v-18.71h6.74v18.5-.02Z"/>
      </g>
    </g>
  </g>
</svg>