<?xml version="1.0" encoding="UTF-8"?>
<svg id="Layer_2" data-name="Layer 2" xmlns="http://www.w3.org/2000/svg" viewBox="0 0 402.31 114.15">
  <defs>
    <style>
      .cls-1 {
        fill: #6d6e70;
      }

      .cls-2 {
        fill: #00aeef;
      }
    </style>
  </defs>
  <g id="Layer_1-2" data-name="Layer 1">
    <g>
      <path class="cls-2" d="M43.95,104.99h-8.54v-43.32h8.54c11.95,0,21.66,9.72,21.66,21.66s-9.72,21.66-21.66,21.66M9.17,83.33h0v-30.59c4.54,4.49,10.47,7.56,17.08,8.55v43.21c-9.75-2.11-17.08-10.79-17.08-21.16ZM30.83,9.17h8.54v43.32h-8.54c-11.95,0-21.66-9.72-21.66-21.66S18.88,9.17,30.83,9.17ZM65.62,30.83h0v30.59c-4.54-4.49-10.47-7.56-17.08-8.55V9.67c9.75,2.11,17.08,10.79,17.08,21.16ZM43.95,0h-13.12C13.83,0,0,13.83,0,30.83v52.5c0,17,13.83,30.83,30.83,30.83h13.12c17,0,30.83-13.83,30.83-30.83V30.83C74.78,13.83,60.95,0,43.95,0Z"/>
      <path class="cls-1" d="M120.49,30.92h0c0-1.93-.23-3.73-.68-5.4-.45-1.66-1.18-3.11-2.18-4.33-1-1.22-2.28-2.17-3.85-2.86-1.57-.69-3.63-1.03-6.18-1.03h-4.2v27.79h4.33c2.27,0,4.19-.29,5.75-.88,1.56-.59,2.86-1.48,3.9-2.67,1.04-1.19,1.82-2.67,2.34-4.44.52-1.77.78-3.83.78-6.19M129.08,30.64c0,3.75-.49,6.95-1.47,9.61-.98,2.66-2.38,4.84-4.22,6.52-1.83,1.69-4.06,2.92-6.68,3.71-2.62.79-5.74,1.18-9.36,1.18h-9.76c-.7,0-1.28-.2-1.75-.61-.47-.41-.71-1.08-.71-2.01V13.43c0-.93.24-1.6.71-2,.48-.41,1.06-.62,1.75-.62h10.48c3.64,0,6.73.43,9.27,1.28,2.54.85,4.67,2.11,6.41,3.79,1.74,1.68,3.06,3.74,3.96,6.21.91,2.46,1.36,5.32,1.36,8.56Z"/>
      <path class="cls-1" d="M162.32,31.21h0c0-2.15-.17-4.1-.5-5.86-.34-1.75-.91-3.26-1.72-4.51-.81-1.25-1.89-2.22-3.24-2.9-1.35-.68-3.03-1.03-5.05-1.03s-3.75.38-5.12,1.15c-1.37.77-2.47,1.79-3.31,3.08-.84,1.29-1.44,2.79-1.78,4.5-.35,1.71-.52,3.53-.52,5.45,0,2.23.17,4.24.5,6.02.34,1.78.91,3.3,1.71,4.56.8,1.26,1.87,2.23,3.22,2.89,1.35.66,3.04.99,5.08.99s3.75-.38,5.12-1.13c1.37-.76,2.47-1.79,3.31-3.1.84-1.31,1.44-2.83,1.78-4.56.35-1.74.52-3.58.52-5.54M171.04,30.76c0,3.39-.42,6.42-1.26,9.1-.84,2.67-2.1,4.94-3.76,6.8-1.66,1.86-3.72,3.28-6.17,4.26-2.45.98-5.29,1.47-8.51,1.47s-5.95-.42-8.32-1.25c-2.37-.83-4.34-2.1-5.92-3.81-1.58-1.7-2.76-3.87-3.55-6.5-.79-2.63-1.19-5.75-1.19-9.35,0-3.3.42-6.28,1.26-8.92.84-2.64,2.1-4.89,3.76-6.74,1.66-1.85,3.72-3.27,6.17-4.26,2.45-.99,5.3-1.49,8.54-1.49s5.83.41,8.2,1.23c2.37.82,4.35,2.08,5.94,3.79,1.59,1.7,2.79,3.86,3.6,6.46.81,2.6,1.22,5.67,1.22,9.2Z"/>
      <path class="cls-1" d="M178.34,51.73c-1.07,0-1.94-.87-1.94-1.94V13.77c0-.99.29-1.73.87-2.23.58-.5,1.29-.74,2.13-.74h4.45c.8,0,1.48.07,2.02.2.55.14,1.04.36,1.47.68.43.31.83.76,1.21,1.31.38.56.77,1.25,1.17,2.07l7.96,14.94c.46.91.92,1.8,1.37,2.67.45.87.89,1.74,1.31,2.62.42.87.83,1.73,1.23,2.57.4.84.79,1.69,1.17,2.53h.03c-.06-1.47-.11-3.01-.14-4.61-.03-1.6-.05-3.13-.05-4.58V12.75c0-1.07.87-1.94,1.94-1.94h3.6c1.07,0,1.94.87,1.94,1.94v36.01c0,.49-.08.92-.25,1.3-.17.38-.39.7-.68.95-.28.25-.62.44-1.01.55-.39.11-.78.17-1.18.17h-3.54c-.74,0-1.37-.07-1.91-.22-.54-.15-1.03-.42-1.48-.81-.46-.39-.89-.91-1.31-1.58-.42-.66-.89-1.52-1.42-2.57l-10.17-19.1c-.59-1.14-1.19-2.36-1.8-3.68-.61-1.31-1.16-2.59-1.64-3.84h-.07c.09,1.51.15,3.02.19,4.53.04,1.5.07,3.06.07,4.66v20.67c0,1.07-.87,1.94-1.94,1.94h-3.6Z"/>
      <path class="cls-1" d="M330.49,51.73c-1.07,0-1.94-.87-1.94-1.94V13.77c0-.99.29-1.73.87-2.23.58-.5,1.29-.74,2.13-.74h4.45c.8,0,1.47.07,2.02.2.55.14,1.04.36,1.47.68.43.31.83.76,1.22,1.31.37.56.76,1.25,1.17,2.07l7.96,14.94c.46.91.92,1.8,1.37,2.67.45.87.89,1.74,1.31,2.62.42.87.83,1.73,1.23,2.57.4.84.79,1.69,1.17,2.53h.03c-.06-1.47-.11-3.01-.14-4.61-.03-1.6-.05-3.13-.05-4.58V12.75c0-1.07.87-1.94,1.94-1.94h3.6c1.07,0,1.94.87,1.94,1.94v36.01c0,.49-.08.92-.25,1.3-.17.38-.39.7-.68.95-.28.25-.62.44-1.01.55-.39.11-.78.17-1.18.17h-3.54c-.74,0-1.37-.07-1.91-.22-.54-.15-1.03-.42-1.48-.81-.46-.39-.89-.91-1.31-1.58-.42-.66-.89-1.52-1.42-2.57l-10.17-19.1c-.59-1.14-1.19-2.36-1.8-3.68-.61-1.31-1.16-2.59-1.64-3.84h-.07c.09,1.51.15,3.02.19,4.53.04,1.5.07,3.06.07,4.66v20.67c0,1.07-.87,1.94-1.95,1.94h-3.6Z"/>
      <path class="cls-1" d="M234.05,30.37c0-1.07.87-1.94,1.94-1.94h11.86c.34,0,.64.06.9.17l.7.52c.2.23.35.51.46.84.11.33.16.7.16,1.12v16.26c0,.63-.11,1.18-.33,1.66-.22.47-.67.85-1.36,1.12-.68.28-1.53.56-2.54.86-1.01.29-2.06.55-3.14.76-1.09.21-2.18.37-3.29.48-1.1.1-2.21.15-3.33.15-3.26,0-6.19-.47-8.76-1.4-2.58-.94-4.76-2.29-6.55-4.07-1.79-1.78-3.16-3.95-4.11-6.5-.94-2.56-1.42-5.46-1.42-8.7s.51-6.35,1.52-9.02c1.01-2.66,2.45-4.93,4.3-6.79,1.85-1.86,4.09-3.29,6.71-4.28,2.62-.99,5.54-1.48,8.76-1.48,1.77,0,3.38.12,4.83.36,1.46.24,2.72.54,3.81.88,1.08.35,1.98.72,2.7,1.12.72.4,1.22.75,1.5,1.04.28.3.49.71.61,1.25.13.54.19,1.33.19,2.38,0,.61-.03,1.14-.08,1.58-.05.44-.12.79-.22,1.06l-.35.55-.49.16c-.28,0-.71-.19-1.32-.57-.61-.38-1.42-.79-2.43-1.23-1.01-.44-2.22-.85-3.62-1.23-1.4-.38-3.03-.57-4.88-.57-1.98,0-3.77.34-5.37,1.03-1.6.68-2.97,1.65-4.1,2.9-1.14,1.25-2.01,2.76-2.62,4.51-.61,1.76-.91,3.7-.91,5.83,0,2.34.31,4.39.93,6.18.62,1.78,1.49,3.27,2.61,4.47,1.11,1.2,2.45,2.1,4.02,2.71,1.57.61,3.3.91,5.19.91.93,0,1.84-.1,2.75-.31.9-.21,1.75-.52,2.53-.95v-9.47h-5.79c-1.07,0-1.94-.87-1.94-1.94v-2.4Z"/>
      <path class="cls-1" d="M277.94,39.7h0c0-.94-.16-1.79-.47-2.54-.32-.75-.78-1.38-1.39-1.88-.61-.51-1.39-.89-2.34-1.17-.95-.27-2.18-.41-3.69-.41h-4.93v11.62h6c1.16,0,2.13-.12,2.92-.37.79-.24,1.47-.6,2.06-1.07.58-.47,1.03-1.06,1.36-1.77.32-.71.49-1.51.49-2.42M275.83,22.21h0c0-.82-.13-1.56-.38-2.21-.25-.65-.63-1.19-1.14-1.62-.5-.43-1.14-.76-1.91-.99-.77-.23-1.79-.35-3.08-.35h-4.2v10.61h4.64c1.2,0,2.16-.14,2.87-.43.71-.28,1.31-.67,1.78-1.17.47-.49.83-1.07,1.06-1.74.23-.66.35-1.36.35-2.1ZM286.56,39.42c0,1.45-.2,2.77-.6,3.95-.4,1.18-.95,2.22-1.66,3.12-.7.91-1.55,1.69-2.53,2.34-.98.65-2.06,1.19-3.24,1.61-1.18.42-2.43.73-3.77.93-1.34.2-2.82.3-4.47.3h-10.86c-.69,0-1.28-.2-1.75-.61-.47-.41-.71-1.08-.71-2V13.43c0-.93.24-1.6.71-2.01.47-.41,1.06-.61,1.75-.61h10.26c2.5,0,4.63.21,6.36.63,1.74.42,3.2,1.05,4.39,1.91,1.19.86,2.1,1.93,2.73,3.24.63,1.3.95,2.84.95,4.61,0,.99-.13,1.92-.38,2.8-.25.87-.62,1.67-1.1,2.38-.48.72-1.08,1.35-1.78,1.9-.71.55-1.51.99-2.41,1.32,1.16.21,2.23.58,3.2,1.11.98.52,1.84,1.2,2.56,2.03.73.83,1.3,1.8,1.72,2.92.42,1.11.63,2.37.63,3.76Z"/>
      <path class="cls-1" d="M402.31,17.15c0,.61-.03,1.14-.08,1.58-.05.44-.12.79-.22,1.06l-.34.55-.49.16c-.28,0-.72-.19-1.33-.57-.61-.38-1.42-.79-2.43-1.23-1.01-.44-2.21-.86-3.61-1.23-1.4-.38-3.03-.57-4.88-.57-1.98,0-3.77.34-5.37,1.03-1.6.68-2.97,1.65-4.1,2.9-1.14,1.26-2.01,2.76-2.62,4.51-.61,1.76-.92,3.7-.92,5.83,0,2.34.31,4.39.93,6.18.62,1.78,1.49,3.27,2.61,4.47,1.11,1.2,2.46,2.1,4.03,2.71,1.57.61,3.3.92,5.19.92.93,0,1.84-.1,2.75-.32.9-.21,1.75-.52,2.52-.95v-9.47h-7.73c-.38,0-.67-.24-.89-.71-.21-.47-.31-1.28-.31-2.41,0-.59.03-1.08.08-1.48s.13-.72.23-.96l.38-.54.51-.17h13.8c.34,0,.64.06.9.17l.69.52c.2.23.35.51.46.84.11.33.16.7.16,1.12v16.26c0,.63-.11,1.18-.33,1.66-.22.47-.68.85-1.36,1.12-.68.27-1.53.56-2.54.85-1.01.29-2.06.55-3.14.76-1.09.21-2.18.37-3.29.48-1.1.1-2.21.16-3.33.16-3.26,0-6.19-.47-8.76-1.41-2.58-.94-4.76-2.29-6.55-4.07-1.79-1.78-3.16-3.95-4.11-6.5-.95-2.56-1.42-5.46-1.42-8.7s.51-6.35,1.52-9.02c1.01-2.66,2.44-4.93,4.29-6.79,1.85-1.86,4.09-3.29,6.71-4.28,2.62-.99,5.54-1.48,8.76-1.48,1.77,0,3.38.12,4.83.36,1.45.24,2.72.54,3.81.88,1.08.35,1.98.72,2.7,1.12.71.4,1.22.75,1.5,1.04.28.3.49.71.61,1.25.13.54.19,1.33.19,2.38"/>
      <path class="cls-1" d="M299.88,35.97h0l5.78-17.37h.03l5.78,17.37h-11.59ZM324.48,49.09l-12.46-36.2c-.47-1.36-1.75-2.28-3.19-2.28h-5.45c-1.44,0-2.72.91-3.19,2.27l-12.58,36.19c-.44,1.27.5,2.59,1.84,2.59h4.08c.84,0,1.58-.54,1.85-1.33l2.68-7.99h15.35l2.58,7.97c.26.8,1,1.34,1.84,1.34h4.82c1.33,0,2.27-1.31,1.84-2.57Z"/>
      <path class="cls-1" d="M276.79,87.37h0l5.78-17.37h.03l5.78,17.37h-11.59ZM301.39,100.49l-12.46-36.2c-.47-1.36-1.75-2.28-3.19-2.28h-5.45c-1.44,0-2.72.91-3.19,2.27l-12.58,36.19c-.44,1.27.5,2.59,1.84,2.59h4.08c.84,0,1.58-.53,1.85-1.33l2.68-7.99h15.34l2.58,7.97c.26.8,1.01,1.34,1.85,1.34h4.82c1.33,0,2.27-1.31,1.83-2.57Z"/>
      <path class="cls-1" d="M136.97,104.07c-1.09,0-1.97-.88-1.97-1.97v-33.19h-.06l-11.88,33.32-.41.68c-.19.18-.45.32-.77.43-.33.11-.75.18-1.25.21-.51.03-1.12.05-1.84.05s-1.33-.02-1.84-.08c-.51-.06-.92-.14-1.25-.26-.33-.12-.59-.26-.77-.43l-.38-.6-11.47-33.32h-.06v33.19c0,1.09-.88,1.97-1.97,1.97h-3.95c-1.09,0-1.97-.88-1.97-1.97v-36.36c0-1.08.29-1.9.86-2.47s1.33-.86,2.28-.86h5.45c.97,0,1.81.08,2.5.24.7.16,1.3.42,1.81.79.51.37.93.86,1.27,1.46.34.6.63,1.35.89,2.23l8.87,24.42h.13l9.18-24.36c.27-.88.58-1.64.9-2.25.33-.61.71-1.11,1.14-1.49.43-.38.95-.65,1.54-.81.59-.16,1.28-.24,2.06-.24h5.61c.57,0,1.06.07,1.47.22.41.15.75.37,1.01.65.26.29.46.63.6,1.04.13.41.2.88.2,1.41v36.36c0,1.09-.88,1.97-1.96,1.97h-3.96Z"/>
      <path class="cls-1" d="M168.92,85.33h-10.42v11.56h14.03c1.08,0,1.96.88,1.96,1.97v2.59c0,1.09-.88,1.97-1.96,1.97h-19.86c-.7,0-1.28-.21-1.76-.62-.48-.41-.71-1.08-.71-2.02v-35.72c0-.93.24-1.6.71-2.01.48-.41,1.06-.62,1.76-.62h19.86c1.08,0,1.96.88,1.96,1.97v2.59c0,1.08-.88,1.96-1.96,1.96h-14.03v10.01h10.42c1.09,0,1.97.88,1.97,1.97v2.44c0,1.08-.88,1.96-1.97,1.96"/>
      <path class="cls-1" d="M205.66,82.6h0c0-1.94-.23-3.75-.68-5.42-.45-1.67-1.18-3.11-2.18-4.34-1-1.22-2.29-2.18-3.86-2.87-1.58-.69-3.64-1.03-6.2-1.03h-4.21v27.87h4.34c2.28,0,4.21-.3,5.77-.89,1.56-.59,2.87-1.48,3.91-2.68,1.05-1.19,1.83-2.68,2.35-4.45.51-1.77.78-3.84.78-6.21M214.27,82.32c0,3.76-.49,6.97-1.47,9.64-.98,2.67-2.39,4.85-4.23,6.54-1.84,1.69-4.07,2.93-6.7,3.72-2.63.79-5.76,1.19-9.39,1.19h-9.79c-.69,0-1.28-.21-1.76-.62-.47-.41-.71-1.08-.71-2.01v-35.72c0-.93.24-1.6.71-2.01.48-.41,1.07-.62,1.76-.62h10.51c3.65,0,6.75.43,9.3,1.28,2.55.86,4.69,2.12,6.43,3.8,1.74,1.68,3.07,3.75,3.98,6.22.91,2.47,1.36,5.33,1.36,8.58Z"/>
      <path class="cls-1" d="M219.49,102.11v-37.72c0-1.08.88-1.96,1.97-1.96h4.43c1.09,0,1.97.88,1.97,1.96v37.72c0,1.09-.88,1.97-1.97,1.97h-4.43c-1.09,0-1.97-.88-1.97-1.97"/>
      <path class="cls-1" d="M263.51,97.2c0,.53-.02.98-.05,1.35-.03.37-.08.69-.14.95l-.25.68-.5.65c-.23.24-.68.55-1.35.93-.67.38-1.48.75-2.44,1.09-.96.35-2.06.64-3.29.87-1.23.23-2.57.34-4.01.34-2.81,0-5.34-.43-7.6-1.3-2.26-.87-4.18-2.16-5.76-3.88-1.59-1.72-2.8-3.87-3.64-6.44-.84-2.58-1.27-5.57-1.27-9s.47-6.58,1.4-9.28c.93-2.7,2.22-4.97,3.9-6.81,1.67-1.84,3.67-3.23,6-4.18,2.33-.95,4.9-1.42,7.71-1.42,1.14,0,2.23.09,3.29.28,1.06.19,2.03.44,2.93.74.9.31,1.71.66,2.42,1.06.72.4,1.22.75,1.5,1.03l.58.71.25.73c.07.29.11.64.14,1.04.03.4.05.9.05,1.49,0,.63-.02,1.17-.06,1.61-.04.45-.12.8-.22,1.08l-.38.6-.51.19c-.32,0-.72-.19-1.2-.56-.49-.37-1.11-.78-1.89-1.23-.77-.45-1.69-.87-2.75-1.23-1.07-.37-2.34-.56-3.82-.56-1.63,0-3.08.33-4.35,1-1.28.67-2.37,1.61-3.26,2.85-.9,1.23-1.58,2.73-2.04,4.48-.47,1.75-.7,3.73-.7,5.92,0,2.41.25,4.49.75,6.25.5,1.76,1.2,3.22,2.12,4.35.92,1.14,2.03,1.99,3.32,2.55,1.3.56,2.76.84,4.39.84,1.48,0,2.76-.17,3.83-.52,1.08-.35,2-.73,2.77-1.16.77-.42,1.4-.8,1.9-1.14.5-.34.88-.51,1.16-.51l.51.13.32.51c.08.25.14.61.19,1.06.04.46.07,1.06.07,1.82"/>
      <path class="cls-1" d="M305.55,63.98c0-1.09.88-1.97,1.96-1.97h4.43c1.09,0,1.97.88,1.97,1.97v32.56h11.95c1.09,0,1.97.88,1.97,1.96v2.94c0,1.08-.88,1.96-1.97,1.96h-18.08c-1.23,0-2.23-1-2.23-2.23v-37.2Z"/>
    </g>
  </g>
</svg>