<?xml version="1.0" encoding="UTF-8"?>
<svg id="Layer_2" data-name="Layer 2" xmlns="http://www.w3.org/2000/svg" viewBox="0 0 2069.74 436">
  <defs>
    <style>
      .cls-1 {
        fill: #f7f8f8;
      }
    </style>
  </defs>
  <g id="Layer_1-2" data-name="Layer 1">
    <g>
      <path class="cls-1" d="M62.88,318.84c.29.04.58.05.86.05h1.88c.33,0,.66-.02.97-.07,7.97-.37,16.83-2.34,26.41-5.83,6.01-2.19,12.32-5.03,18.86-8.41,4.18-2.17,8.46-4.57,12.83-7.22,21.11-12.77,43.29-30.43,64.16-51.06,20.9-20.65,38.78-42.61,51.73-63.5,6.83-11.09,12.17-21.69,15.82-31.5,3.98-10.67,5.99-20.5,5.99-29.2v-5.35c0-.9-.16-1.74-.48-2.5-1.74-14.55-8.22-28.01-18.73-38.52-12.39-12.41-28.87-19.22-46.42-19.22s-33.99,6.82-46.4,19.22c-12.39,12.37-19.21,28.85-19.21,46.38v65.55h-65.55c-17.53,0-34.01,6.83-46.42,19.22C6.82,219.26,0,235.75,0,253.27s6.82,34.01,19.21,46.42c11.77,11.73,27.19,18.47,43.67,19.15M196.77,69.97c26.97,0,49.21,20.56,51.88,46.84-1.97,6.45-11.15,31.34-39.07,49.98-16.89,11.27-35.34,16.36-47.84,18.62-6.96,1.26-12.92,1.83-17.1,2.06v-65.37c0-28.74,23.39-52.14,52.13-52.14M65.62,201.13h72.22c1.24.02,11.55.16,25.93-2.41,13.85-2.49,34.37-8.1,53.29-20.74,8.19-5.45,14.97-11.38,20.52-17.32-2.45,4.84-5.28,9.87-8.48,15.04-12.39,20.01-29.59,41.12-49.72,61.03-1.41,1.39-2.8,2.74-4.2,4.09-.53.51-1.04.99-1.57,1.48-.88.86-1.77,1.7-2.67,2.52-.6.57-1.21,1.13-1.83,1.7-.8.75-1.61,1.48-2.43,2.23-.64.57-1.26,1.13-1.9,1.7-.8.71-1.59,1.43-2.39,2.12-.62.57-1.26,1.11-1.88,1.66-.84.71-1.66,1.43-2.48,2.14-.6.49-1.19,1.01-1.79,1.52-.93.79-1.86,1.55-2.8,2.32-.48.4-.95.8-1.44,1.19-1.43,1.17-2.83,2.32-4.26,3.44-.05.04-.09.07-.15.11-1.39,1.1-2.76,2.17-4.15,3.23-.37.27-.71.55-1.08.82-1.08.8-2.16,1.63-3.22,2.41-.42.29-.82.6-1.22.9-1.04.75-2.08,1.52-3.11,2.25-.4.27-.79.55-1.19.82-1.08.77-2.16,1.52-3.23,2.27-.31.22-.64.44-.95.66-1.22.82-2.43,1.63-3.64,2.43-.18.11-.35.22-.51.33-5.79,3.78-11.48,7.18-16.98,10.14-16.59,8.92-31.67,13.96-43.66,14.22-28.31-.55-51.18-23.72-51.18-52.15s23.39-52.14,52.15-52.14"/>
      <path class="cls-1" d="M204.73,246.19c-20.89,20.65-38.76,42.61-51.71,63.54-6.85,11.06-12.17,21.65-15.83,31.47-4,10.69-6.01,20.5-6.01,29.2v5.37c0,.88.16,1.72.48,2.5,1.74,14.55,8.22,28.01,18.75,38.52,12.39,12.39,28.87,19.21,46.42,19.21s33.99-6.82,46.38-19.21c12.41-12.39,19.22-28.87,19.22-46.4v-65.55h65.55c17.52,0,34.01-6.82,46.4-19.21,12.39-12.41,19.21-28.87,19.21-46.42s-6.82-34.01-19.21-46.38c-11.77-11.75-27.15-18.49-43.66-19.19-.29-.02-.59-.05-.88-.05h-1.86c-.33,0-.66.04-.99.07-7.95.38-16.83,2.34-26.39,5.83-7,2.56-14.38,5.96-22.07,10.12-3.14,1.7-6.36,3.53-9.61,5.5-21.11,12.77-43.29,30.43-64.18,51.06M196.81,422.55c-26.95,0-49.21-20.56-51.9-46.78,1.94-6.36,11.06-31.34,39.09-50.05,16.87-11.27,35.32-16.34,47.84-18.62,6.96-1.26,12.92-1.83,17.1-2.06v65.37c0,28.74-23.39,52.15-52.14,52.15M328.93,187.09c28.31.51,51.17,23.7,51.17,52.14s-23.39,52.15-52.14,52.15h-72.22c-1.26-.04-11.55-.18-25.93,2.39-13.87,2.49-34.35,8.1-53.3,20.74-8.17,5.46-14.93,11.4-20.5,17.34,2.45-4.86,5.28-9.87,8.46-15.06,12.39-20.01,29.58-41.12,49.76-61.03,1.41-1.39,2.81-2.74,4.22-4.11.48-.46.97-.91,1.44-1.37.93-.9,1.86-1.77,2.81-2.65.55-.51,1.12-1.04,1.68-1.55.86-.8,1.74-1.61,2.61-2.39.57-.51,1.13-1.02,1.72-1.53.88-.79,1.75-1.57,2.63-2.34.55-.49,1.1-.97,1.65-1.44.93-.82,1.88-1.63,2.81-2.43.48-.4.97-.82,1.44-1.22,1.13-.95,2.25-1.88,3.36-2.8.31-.26.6-.49.89-.73,2.92-2.39,5.85-4.71,8.75-6.94.2-.15.38-.29.59-.44,1.24-.95,2.48-1.88,3.73-2.8.29-.22.58-.44.88-.64,1.15-.86,2.3-1.7,3.45-2.5.31-.22.6-.44.91-.66,1.17-.82,2.32-1.63,3.49-2.43.26-.16.51-.35.77-.51,1.26-.88,2.52-1.72,3.78-2.54.15-.09.27-.18.42-.27,5.72-3.75,11.33-7.09,16.79-10.03,16.65-8.99,31.8-14.09,43.86-14.33"/>
      <path class="cls-1" d="M685.71,328v-107.3c0-52.5-27.87-80.37-73.86-80.37-14.86,0-28.32,5.12-35.76,12.54v-78.49h-54.35v253.62c0,52.03,29.73,80.35,81.76,80.35s82.21-28.32,82.21-80.35M631.37,328.46c0,22.29-10.69,31.6-27.87,31.6s-27.41-9.3-27.41-31.6v-109.15c0-19.06,10.69-31.14,27.41-31.14,19.5,0,27.87,13.01,27.87,35.31v104.98Z"/>
      <path class="cls-1" d="M865.48,353.07h-64.56c-16.26,0-26.48-.46-26.48-26v-6.96h31.12c41.35,0,71.07-7.44,71.07-66.9v-32.05c0-52.96-26.48-80.83-78.03-80.83s-78.5,28.34-78.5,80.83v104.98c0,64.56,35.76,75.25,72.93,75.25h72.46v-48.32ZM774.44,219.76c0-22.29,6.96-31.12,24.16-31.12s23.68,8.83,23.68,30.19v28.8c0,19.97-6.51,26.48-25.07,26.48h-22.77v-54.35Z"/>
      <path class="cls-1" d="M1061.03,217.43c0-46.45-19.97-70.13-67.36-70.13h-65.49v48.32h58.99c14.88,0,20.91,6.03,20.91,20.91v18.57h-32.05c-43.2,0-68.29,16.72-68.29,65.51v39.47c0,47.38,27.89,68.29,76.18,68.29s77.12-20.91,77.12-68.29v-122.64ZM1008.08,338.68c0,18.11-11.15,21.36-24.16,21.36-13.93,0-23.68-6.03-23.68-23.68v-33.92c0-17.18,10.69-21.36,21.36-21.36h26.48v57.6Z"/>
      <path class="cls-1" d="M1254.26,327.53v-180.23h-53.87v182.1c0,22.29-8.37,31.12-24.16,31.12s-27.41-8.83-27.41-31.12v-182.1h-53.42v180.23c0,54.8,28.8,82.21,79.42,82.21s79.44-27.41,79.44-82.21"/>
      <path class="cls-1" d="M1474.91,140.33c-27.41.93-45.06,14.86-53.89,29.26-8.35-14.4-25.07-28.32-52.03-29.26-50.16-1.86-78.03,25.09-78.03,77.12v183.94h54.35v-182.1c0-19.97,9.74-29.73,25.07-29.73s25.09,10.69,25.09,30.21v181.62h54.35v-181.62c0-19.52,9.28-30.21,25.55-30.21,15.33,0,26.02,9.76,26.02,29.73v182.1h53.41v-183.94c0-52.03-29.73-78.98-79.89-77.12"/>
      <path class="cls-1" d="M1661.17,401.39h72.46v-48.32h-64.56c-16.26,0-26.48-.46-26.48-26v-6.96h31.12c41.35,0,71.07-7.44,71.07-66.9v-32.05c0-52.96-26.46-80.83-78.03-80.83s-78.5,28.34-78.5,80.83v104.98c0,64.56,35.76,75.25,72.93,75.25M1642.59,219.76c0-22.29,6.96-31.12,24.16-31.12s23.7,8.83,23.7,30.19v28.8c0,19.97-6.51,26.48-25.09,26.48h-22.77v-54.35Z"/>
      <path class="cls-1" d="M1937.55,74.38h-54.35v78.49c-7.89-7.42-20.89-12.54-35.76-12.54-46,0-73.86,27.87-73.86,80.37v107.3c0,52.03,30.19,80.35,81.76,80.35s82.21-28.32,82.21-80.35V74.38ZM1883.2,328.46c0,22.29-10.67,31.6-27.87,31.6s-27.41-9.3-27.41-31.6v-104.98c0-22.29,7.91-35.31,27.41-35.31,17.2,0,27.87,12.08,27.87,31.14v109.15Z"/>
      <path class="cls-1" d="M2000.86,81.35h7.88c.6,0,1-.09,1.22-.27.22-.2.33-.68.33-1.43v-22.75h7.47l11.53,23.15c.27.6.51.95.69,1.1.18.13.6.2,1.26.2h8.94c.8,0,1.26-.15,1.37-.44.11-.31-.06-.86-.48-1.68l-13.16-25.09c2.76-1.57,4.97-3.73,6.65-6.45,1.68-2.74,2.52-6.07,2.52-9.96,0-3.25-.48-6.05-1.43-8.41-.95-2.36-2.28-4.31-4.02-5.88-1.74-1.57-3.84-2.74-6.29-3.49-2.47-.77-5.23-1.15-8.26-1.15h-16.32c-.44,0-.8.11-1.1.33-.31.22-.44.66-.44,1.3v59.23c0,.75.13,1.22.4,1.43.27.18.68.27,1.21.27M2010.29,28.8h7.97c2.27,0,4.11.75,5.56,2.23,1.43,1.5,2.16,3.71,2.16,6.63,0,3.25-.9,5.61-2.69,7.11-1.79,1.48-4.3,2.23-7.55,2.23h-5.45v-18.2Z"/>
      <path class="cls-1" d="M2017.22,104.98c28.96,0,52.52-23.54,52.52-52.45S2046.18,0,2017.22,0s-52.52,23.57-52.52,52.54,23.56,52.45,52.52,52.45M2017.22,4.73c26.35,0,47.79,21.45,47.79,47.8s-21.44,47.71-47.79,47.71-47.79-21.4-47.79-47.71,21.44-47.8,47.79-47.8"/>
    </g>
  </g>
</svg>