<?xml version="1.0" encoding="UTF-8"?>
<svg id="Layer_2" data-name="Layer 2" xmlns="http://www.w3.org/2000/svg" viewBox="0 0 441.66 92.48">
  <defs>
    <style>
      .cls-1 {
        fill: #83469b;
      }

      .cls-2 {
        fill: #000001;
      }
    </style>
  </defs>
  <g id="Layer_1-2" data-name="Layer 1">
    <g>
      <path class="cls-2" d="M146.32,69.99v-22.9c0-11.2-5.95-17.15-15.76-17.15-3.17,0-6.04,1.09-7.63,2.68V15.87h-11.6v54.12c0,11.1,6.34,17.14,17.45,17.14s17.54-6.04,17.54-17.14M134.73,70.09c0,4.76-2.28,6.74-5.95,6.74s-5.85-1.98-5.85-6.74v-23.29c0-4.07,2.28-6.64,5.85-6.64,4.16,0,5.95,2.78,5.95,7.53v22.4ZM184.68,75.34h-13.78c-3.47,0-5.65-.1-5.65-5.55v-1.49h6.64c8.82,0,15.16-1.59,15.16-14.28v-6.84c0-11.3-5.65-17.25-16.65-17.25s-16.75,6.05-16.75,17.25v22.4c0,13.78,7.63,16.06,15.56,16.06h15.46v-10.31ZM165.26,46.9c0-4.76,1.49-6.64,5.16-6.64s5.05,1.88,5.05,6.44v6.15c0,4.26-1.39,5.65-5.35,5.65h-4.86v-11.6ZM226.42,46.4c0-9.91-4.26-14.97-14.37-14.97h-13.98v10.31h12.59c3.17,0,4.46,1.29,4.46,4.46v3.96h-6.84c-9.22,0-14.57,3.57-14.57,13.98v8.42c0,10.11,5.95,14.57,16.26,14.57s16.46-4.46,16.46-14.57v-26.17ZM215.11,72.27c0,3.86-2.38,4.56-5.15,4.56-2.97,0-5.05-1.29-5.05-5.05v-7.24c0-3.67,2.28-4.56,4.56-4.56h5.65v12.29ZM267.65,69.89V31.43h-11.49v38.86c0,4.76-1.79,6.64-5.16,6.64s-5.85-1.88-5.85-6.64V31.43h-11.4v38.46c0,11.69,6.14,17.55,16.95,17.55s16.95-5.85,16.95-17.55ZM314.73,29.95c-5.85.2-9.62,3.17-11.5,6.24-1.78-3.07-5.35-6.04-11.1-6.24-10.7-.4-16.65,5.35-16.65,16.46v39.25h11.6v-38.86c0-4.26,2.08-6.34,5.35-6.34s5.36,2.28,5.36,6.45v38.76h11.6v-38.76c0-4.17,1.98-6.45,5.45-6.45,3.27,0,5.55,2.08,5.55,6.34v38.86h11.4v-39.25c0-11.1-6.35-16.85-17.05-16.46ZM354.48,85.65h15.46v-10.31h-13.78c-3.47,0-5.65-.1-5.65-5.55v-1.49h6.64c8.82,0,15.16-1.59,15.16-14.28v-6.84c0-11.3-5.65-17.25-16.65-17.25s-16.75,6.05-16.75,17.25v22.4c0,13.78,7.63,16.06,15.56,16.06ZM350.51,46.9c0-4.76,1.49-6.64,5.16-6.64s5.06,1.88,5.06,6.44v6.15c0,4.26-1.39,5.65-5.36,5.65h-4.86v-11.6ZM413.45,15.87h-11.6v16.75c-1.69-1.58-4.46-2.68-7.63-2.68-9.81,0-15.76,5.95-15.76,17.15v22.9c0,11.1,6.44,17.14,17.44,17.14s17.54-6.04,17.54-17.14V15.87ZM401.86,70.09c0,4.76-2.28,6.74-5.95,6.74s-5.85-1.98-5.85-6.74v-22.4c0-4.76,1.69-7.53,5.85-7.53,3.67,0,5.95,2.58,5.95,6.64v23.29ZM426.96,17.36h1.68c.13,0,.21-.02.26-.06.05-.04.07-.14.07-.3v-4.85h1.59l2.46,4.94c.06.13.11.2.15.23.04.03.13.04.27.04h1.91c.17,0,.27-.03.29-.09.02-.07-.01-.18-.1-.36l-2.81-5.35c.59-.33,1.06-.79,1.42-1.38.36-.58.54-1.29.54-2.13,0-.69-.1-1.29-.3-1.79-.2-.5-.49-.92-.86-1.26-.37-.33-.82-.58-1.34-.74-.53-.16-1.12-.24-1.76-.24h-3.48c-.09,0-.17.02-.23.07-.07.05-.09.14-.09.28v12.64c0,.16.03.26.09.3.06.04.15.06.26.06ZM428.98,6.14h1.7c.48,0,.88.16,1.19.48.3.32.46.79.46,1.42,0,.69-.19,1.2-.57,1.52-.38.32-.92.48-1.61.48h-1.16v-3.88ZM430.45,22.4c6.18,0,11.21-5.02,11.21-11.19s-5.03-11.21-11.21-11.21-11.21,5.03-11.21,11.21,5.03,11.19,11.21,11.19ZM430.45,1.01c5.62,0,10.2,4.58,10.2,10.2s-4.57,10.18-10.2,10.18-10.2-4.57-10.2-10.18,4.57-10.2,10.2-10.2Z"/>
      <path class="cls-1" d="M13.42,67.48c.06,0,.12.01.18.01h.4c.07,0,.14,0,.21-.02,1.7-.08,3.59-.5,5.64-1.24,1.28-.47,2.63-1.07,4.02-1.8.89-.46,1.81-.98,2.74-1.54,4.5-2.73,9.24-6.49,13.69-10.89,4.46-4.41,8.28-9.1,11.04-13.55,1.46-2.37,2.6-4.63,3.38-6.72.85-2.28,1.28-4.38,1.28-6.23v-1.14c0-.19-.03-.37-.1-.54-.37-3.1-1.76-5.98-4-8.22-2.64-2.65-6.16-4.1-9.91-4.1s-7.25,1.45-9.9,4.1c-2.64,2.64-4.1,6.16-4.1,9.9v13.99h-13.99c-3.74,0-7.26,1.46-9.9,4.1-2.64,2.64-4.1,6.16-4.1,9.9s1.46,7.26,4.1,9.91c2.51,2.5,5.8,3.94,9.32,4.09M41.99,14.37c5.76,0,10.5,4.39,11.07,9.99-.42,1.38-2.38,6.69-8.34,10.66-3.6,2.41-7.54,3.49-10.21,3.98-1.49.27-2.76.39-3.65.44v-13.95c0-6.13,4.99-11.13,11.12-11.13ZM43.69,51.98c-4.46,4.41-8.27,9.09-11.04,13.56-1.46,2.36-2.6,4.62-3.38,6.71-.85,2.28-1.28,4.38-1.28,6.23v1.15c0,.19.03.37.1.53.37,3.1,1.75,5.98,4,8.22,2.64,2.64,6.16,4.1,9.9,4.1s7.25-1.46,9.9-4.1c2.65-2.64,4.1-6.16,4.1-9.9v-13.99h13.99c3.74,0,7.26-1.45,9.9-4.1,2.64-2.65,4.1-6.16,4.1-9.9s-1.45-7.26-4.1-9.9c-2.51-2.51-5.8-3.94-9.32-4.09-.06,0-.12-.01-.19-.01h-.4c-.07,0-.14,0-.21.02-1.7.08-3.59.5-5.63,1.25-1.5.55-3.07,1.27-4.71,2.16-.67.36-1.36.75-2.05,1.17-4.5,2.73-9.24,6.49-13.69,10.9ZM42,89.61c-5.75,0-10.5-4.39-11.07-9.98.41-1.36,2.36-6.69,8.34-10.68,3.6-2.4,7.54-3.49,10.21-3.97,1.49-.27,2.76-.39,3.65-.44v13.95c0,6.13-4.99,11.13-11.13,11.13ZM70.19,39.37c6.04.11,10.92,5.06,10.92,11.13s-4.99,11.13-11.13,11.13h-15.41c-.27,0-2.46-.04-5.53.51-2.96.53-7.33,1.73-11.37,4.43-1.74,1.17-3.19,2.43-4.38,3.7.52-1.04,1.13-2.11,1.81-3.21,2.64-4.27,6.31-8.77,10.62-13.03.3-.3.6-.58.9-.88.1-.1.21-.19.31-.29.2-.19.4-.38.6-.57.12-.11.24-.22.36-.33.18-.17.37-.34.56-.51.12-.11.24-.22.37-.33.19-.17.37-.33.56-.5.12-.11.23-.21.35-.31.2-.18.4-.35.6-.52.1-.09.21-.18.31-.26.24-.2.48-.4.72-.6.07-.05.13-.11.19-.16.63-.51,1.25-1,1.87-1.48.04-.03.08-.06.12-.09.27-.2.53-.4.79-.6.06-.05.13-.09.19-.14.25-.18.49-.36.74-.53.07-.05.13-.09.19-.14.25-.18.5-.35.75-.52.05-.04.11-.07.16-.11.27-.19.54-.37.81-.54.03-.02.06-.04.09-.06,1.22-.8,2.42-1.51,3.58-2.14,3.55-1.92,6.79-3.01,9.36-3.06ZM14,42.37h15.41c.27,0,2.47.03,5.53-.52,2.96-.53,7.34-1.73,11.37-4.43,1.75-1.16,3.19-2.43,4.38-3.7-.52,1.03-1.13,2.11-1.81,3.21-2.64,4.27-6.31,8.77-10.61,13.03-.3.29-.6.58-.9.87-.11.11-.22.21-.33.32-.19.18-.38.36-.57.54-.13.12-.26.24-.39.36-.17.16-.34.32-.52.48-.14.12-.27.24-.41.36-.17.15-.34.3-.51.45-.13.12-.27.24-.4.35-.18.15-.35.31-.53.46-.13.1-.25.22-.38.32-.2.17-.4.33-.6.49-.1.09-.2.17-.31.25-.31.25-.6.5-.91.73-.01,0-.02.01-.03.02-.3.23-.59.46-.88.69-.08.06-.15.12-.23.17-.23.17-.46.35-.68.52-.09.06-.18.13-.26.19-.22.16-.44.32-.66.48-.09.06-.17.12-.25.17-.23.16-.46.32-.69.48-.07.05-.14.1-.2.14-.26.18-.52.35-.78.52-.04.02-.07.05-.11.07-1.24.81-2.45,1.53-3.62,2.16-3.54,1.9-6.76,2.98-9.32,3.04-6.04-.12-10.92-5.06-10.92-11.13s4.99-11.12,11.13-11.12Z"/>
    </g>
  </g>
</svg>