<?xml version="1.0" encoding="UTF-8"?>
<svg id="Layer_2" data-name="Layer 2" xmlns="http://www.w3.org/2000/svg" viewBox="0 0 330.5 95.47">
  <defs>
    <style>
      .cls-1 {
        fill: #09c3f4;
      }

      .cls-1, .cls-2, .cls-3, .cls-4, .cls-5, .cls-6, .cls-7 {
        fill-rule: evenodd;
      }

      .cls-2 {
        fill: #00ac9d;
      }

      .cls-3 {
        fill: #3f4245;
      }

      .cls-4 {
        fill: #ee5725;
      }

      .cls-5 {
        fill: #080608;
      }

      .cls-6 {
        fill: #5f2d86;
      }

      .cls-7 {
        fill: #f4d40f;
      }
    </style>
  </defs>
  <g id="Layer_1-2" data-name="Layer 1">
    <g>
      <path class="cls-3" d="M188.28,26.51v-6.12h-10.44v58.39h10.83v-21.74c3.14,3.22,3.37,5.1,8.56,6.12,4,.78,8.56.16,12.09-1.96,7.14-4.24,9.1-12.4,9.18-20.17,0-7.93-2.2-15.77-9.65-19.7-3.61-1.88-8.32-2.43-12.24-1.33-5.42,1.57-5.02,3.53-8.24,6.44M196.45,29.1c14.2-1.49,13.89,23.78,2.51,25.12-14.28,1.65-13.89-23.94-2.51-25.12Z"/>
      <path class="cls-3" d="M307.11,44.41l10.12,17.89h13.26l-15.54-26.06,14.99-15.62h-10.75c-4.16,0-3.84,1.18-6.51,4.24-2.36,2.67-7.77,9.57-10.12,11.46.08-5.42,0-10.91,0-16.33V7.76c0-2.12.24-1.88-2.2-1.96-10.2-.24-8.56-1.65-8.63,7.85v16.4c0,3.45-.63,31.63.55,32.18.47.24,6.91.08,8.08.08,2.51,0,2.12.47,2.12-1.88v-4.16c0-1.57-.47-6.75.47-7.69.71-.71,3.53-3.92,4.08-4.16"/>
      <path class="cls-3" d="M285.76,50.06h-11.15c-1.96,2.2-1.73,3.45-5.34,4.47-2.59.71-5.88.47-8.32-.78-5.34-2.75-5.5-9.03-5.1-14.28.39-5.49,2.35-10.52,8.56-11.07,2.82-.24,5.34.31,7.53,2.12,1.41,1.18,3.61,5.02,2.98,6.75h-11.38l.16,7.22c3.85.08,7.85,0,11.69,0h5.89c1.26,0,5.18.55,5.18-.71-.08-7.14-.31-12.64-5.34-18.29-8.16-9.1-25.67-8.08-32.65,2.27-6.59,9.81-5.02,27.23,6.52,33.36,5.81,3.06,13.34,3.45,19.54,1.33,4.86-1.73,10.75-6.91,11.3-12.32"/>
      <path class="cls-3" d="M161.05,37.11h-11.3l.08,7.3c5.57.24,11.7,0,17.35,0,5.03,0,5.5,1.33,5.42-3.22,0-2.67-.24-5.18-.94-7.69-2.67-9.81-10.75-14.44-20.64-14.21-22.84.63-26.14,31.55-11.38,40.89,7.69,4.87,19.46,5.02,26.61-.94,1.49-1.26,3.06-2.98,4-4.63,1.88-2.98,2.9-4.47-.86-4.55-1.26,0-8.01-.16-8.56.08-.71.31-1.49,2.98-4.63,4.08-12.64,4.63-16.09-9.42-13.58-18.68,1.33-5.02,4.71-7.61,10.05-7.22,2.28.16,4.39,1.02,6.04,2.67.94,1.02,3.14,5.1,2.35,6.12Z"/>
      <path class="cls-1" d="M38.93,8.23h.08c8.4-.24,16.17-.47,23.31,4.63,5.73,4.08,9.58,10.67,10.2,17.66,1.49,17.03-12.4,27.94-28.73,26.84v8.16c23.47,1.18,42.23-17.82,35.87-41.2-2.59-9.5-9.34-17.35-18.29-21.35C51.8-1.27,35.32.3,24.49.22l14.44,8.01Z"/>
      <path class="cls-3" d="M237.34,62.3V5.64c-12.16-.39-10.91-2.43-10.91,8.63v39.24c0,11.54-1.33,8.79,10.91,8.79Z"/>
      <path class="cls-4" d="M.31,57.44h8.16c.39-10.36,0-21.43,0-31.87,0-9.73,3.37-17.58,14.52-17.27h15.93L24.49.22C13.11-.49,3.45,5.87.86,17.25-.63,23.77.23,49.27.39,57.44"/>
      <path class="cls-3" d="M113.96,27.61v-7.22h-10.44v41.91h10.99c.78-6.44-.39-15.54.16-22.52.71-10.05,6.12-8.56,13.19-9.18v-8.4c0-1.88.63-2.9-1.18-2.9-1.33,0-2.51.08-3.84.39-5.81,1.33-5.73,4.48-8.87,7.85"/>
      <path class="cls-6" d="M43.79,65.52h-8.16c0,5.26.78,10.99-2.12,15.54-2.51,3.84-6.83,6.2-11.46,6.2-13.03,0-13.97-11.93-13.58-21.74H.31c0,7.93-.71,14.68,4.4,21.35,8.87,11.54,25.9,11.38,34.61.08,5.65-7.38,4.16-12.95,4.47-21.43Z"/>
      <path class="cls-7" d="M23.07,8.3c11.07,2.59,12.64,7.46,12.64,18.21,0,9.97-.47,21.11,0,30.92h8.08c.16-8.95,0-17.97,0-26.92,0-3.85.31-9.34-.47-13.03-1.1-5.1-2.59-5.42-4.32-9.18h-16.01.08Z"/>
      <path class="cls-2" d="M8.47,65.52h27.16l.08-8.08-27.23-.08v8.16Z"/>
      <path class="cls-5" d="M35.63,65.52h8.16v-8.16l-8.08.08-.08,8.08Z"/>
      <path class="cls-5" d="M.31,65.52h8.16v-8.08H.31v8.08Z"/>
    </g>
  </g>
</svg>