<?xml version="1.0" encoding="UTF-8"?>
<svg id="Layer_2" data-name="Layer 2" xmlns="http://www.w3.org/2000/svg" viewBox="0 0 205.53 205.37">
  <defs>
    <style>
      .cls-1, .cls-2 {
        fill: #fff;
      }

      .cls-2, .cls-3 {
        fill-rule: evenodd;
      }

      .cls-3 {
        fill: #ea1d25;
      }
    </style>
  </defs>
  <g id="Layer_1-2" data-name="Layer 1">
    <g>
      <path class="cls-3" d="M186.9,20.95s-.4-.87-.87-1.54c-.61-.57-1.64-.96-1.64-.96-25.77-8-53.05-12.54-81.62-12.54s-56.02,4.54-81.74,12.64c0,0-.9.38-1.57,1.07-.65.68-.97,1.62-.97,1.62-8.15,25.77-12.6,53.13-12.6,81.48s4.46,55.84,12.6,81.38c0,0,.43,1.15.9,1.64.5.57,1.42.96,1.42.96,25.94,8.29,53.42,12.74,81.96,12.74s55.96-4.44,81.82-12.64c0,0,.95-.5,1.73-1.06.37-.67.58-1.54.58-1.54,8.28-25.65,12.73-53.02,12.73-81.49s-4.45-56.02-12.73-81.78"/>
      <path class="cls-2" d="M102.78,5.91c28.57,0,55.85,4.54,81.62,12.54,0,0,1.03.39,1.64.96.47.68.87,1.54.87,1.54,8.28,25.76,12.73,53.24,12.73,81.78s-4.45,55.84-12.73,81.49c0,0-.21.86-.58,1.54-.78.57-1.73,1.06-1.73,1.06-25.85,8.19-53.24,12.64-81.82,12.64s-56.02-4.44-81.96-12.74c0,0-.92-.4-1.42-.96-.47-.49-.9-1.64-.9-1.64-8.15-25.54-12.6-52.92-12.6-81.38s4.46-55.71,12.6-81.48c0,0,.32-.94.97-1.62.67-.69,1.57-1.07,1.57-1.07,25.72-8.1,53.32-12.64,81.74-12.64M102.78,0c-28.15,0-56.25,4.35-83.52,12.91l-.33.09-.35.16c-.43.2-1.95.93-3.27,2.27-1.56,1.55-2.22,3.38-2.44,4.09C4.32,46.4,0,74.43,0,102.73s4.32,56.45,12.88,83.18c.33.99,1,2.57,2.14,3.81,1.26,1.42,2.89,2.19,3.55,2.46l.22.09.23.07c27.03,8.63,55.22,13.02,83.77,13.02s56.59-4.35,83.61-12.92l.45-.15.48-.23c.22-.11,1.43-.76,2.54-1.58l.94-.71.59-.98c.69-1.14,1.04-2.31,1.2-2.97,8.61-26.71,12.95-54.67,12.95-83.1s-4.35-56.7-12.99-83.58l-.13-.34-.15-.33c-.11-.23-.65-1.38-1.38-2.43l-.32-.49-.42-.41c-1.35-1.31-3.08-2.01-3.74-2.27l-.13-.03-.14-.03C158.78,4.31,130.72,0,102.78,0Z"/>
      <path class="cls-1" d="M28.05,86.87h-5.09v-25.99h11.2c4.72,0,7.55,3.19,7.55,8.31,0,2.32-1.21,8.3-7.79,8.3h-5.87v9.38ZM28.05,73.02h4.76c3.37,0,3.8-2.43,3.8-4.04,0-2.54-1.31-3.61-4.48-3.61h-4.08v7.65Z"/>
      <polygon class="cls-1" points="50.65 70.73 60.2 70.73 60.2 60.88 65.29 60.88 65.29 86.87 60.2 86.87 60.2 75.21 50.65 75.21 50.65 86.87 45.56 86.87 45.56 60.88 50.65 60.88 50.65 70.73"/>
      <path class="cls-1" d="M82.93,60.88l8.6,25.99h-5.53l-1.58-5.37h-9.01l-1.72,5.37h-5.37l8.7-25.99h5.91ZM76.75,77.03h6.55l-3.34-10.28h-.07l-3.13,10.28Z"/>
      <path class="cls-1" d="M99.65,86.87h-5.09v-25.99h12.48c6.5,0,7.65,5.12,7.65,7.34,0,2.86-1.31,5.34-3.75,6.19,1.99.93,3.07,1.76,3.07,6.58,0,3.79.03,4.72,1.11,5.15v.72h-5.67c-.33-1.26-.54-2.58-.54-5.26,0-3.54-.2-4.91-3.98-4.91h-5.29v10.17ZM99.65,72.34h6.01c2.66,0,3.94-1,3.94-3.54,0-1.4-.61-3.43-3.61-3.43h-6.34v6.98Z"/>
      <polygon class="cls-1" points="125.99 60.88 130.41 81.36 130.47 81.36 134.82 60.88 142.21 60.88 142.21 86.87 137.45 86.87 137.45 65.15 137.42 65.15 132.84 86.87 127.81 86.87 123.36 65.15 123.29 65.15 123.29 86.87 118.54 86.87 118.54 60.88 125.99 60.88"/>
      <polygon class="cls-1" points="164.97 60.88 164.97 65.36 151.98 65.36 151.98 70.73 163.89 70.73 163.89 75.21 151.98 75.21 151.98 82.39 165.51 82.39 165.51 86.87 146.9 86.87 146.9 60.88 164.97 60.88"/>
      <polygon class="cls-1" points="174.01 60.88 178.36 69.3 182.81 60.88 188.72 60.88 181.26 73.37 189.22 86.87 182.99 86.87 178.36 77.99 173.44 86.87 167.47 86.87 175.36 73.59 167.91 60.88 174.01 60.88"/>
      <rect class="cls-1" x="88.12" y="108.25" width="34.06" height="4.04"/>
      <path class="cls-1" d="M57.29,137.97h10.22v13.99h-3.41l-.51-3.25c-1.21,1.61-3.17,3.93-7.62,3.93-5.9,0-11.23-4.47-11.23-13.6,0-7.08,3.68-13.74,11.87-13.74,7.48,0,10.52,5.19,10.79,8.76h-5.09c0-1.04-1.72-4.19-5.33-4.19s-7.14,2.54-7.14,9.16c0,7.12,3.74,9.02,7.22,9.02,1.14,0,4.89-.5,5.93-5.73h-5.7v-4.36Z"/>
      <path class="cls-1" d="M77.28,151.96h-5.09v-25.98h12.48c6.5,0,7.65,5.12,7.65,7.34,0,2.86-1.32,5.33-3.74,6.19,1.99.93,3.07,1.76,3.07,6.59,0,3.79.04,4.72,1.12,5.15v.71h-5.67c-.34-1.25-.54-2.57-.54-5.26,0-3.54-.21-4.9-3.98-4.9h-5.3v10.16ZM77.28,137.43h6.01c2.67,0,3.94-1,3.94-3.54,0-1.4-.61-3.44-3.6-3.44h-6.35v6.98Z"/>
      <path class="cls-1" d="M107.07,125.3c3.24,0,11.73,1.5,11.73,13.67s-8.49,13.67-11.73,13.67-11.74-1.5-11.74-13.67,8.5-13.67,11.74-13.67M107.07,148.06c2.77,0,6.64-1.83,6.64-9.09s-3.88-9.09-6.64-9.09-6.64,1.83-6.64,9.09,3.88,9.09,6.64,9.09Z"/>
      <path class="cls-1" d="M127.74,125.98v16.89c0,3.61,1.96,5.19,4.35,5.19,3.51,0,4.92-1.79,4.92-4.94v-17.14h5.09v16.82c0,6.83-3.74,9.84-9.92,9.84-4.15,0-9.54-1.72-9.54-9.48v-17.18h5.09Z"/>
      <path class="cls-1" d="M151.88,151.96h-5.09v-25.98h11.19c4.72,0,7.56,3.18,7.56,8.31,0,2.32-1.21,8.3-7.79,8.3h-5.87v9.37ZM151.88,138.11h4.75c3.38,0,3.81-2.43,3.81-4.04,0-2.54-1.31-3.62-4.48-3.62h-4.08v7.66Z"/>
    </g>
  </g>
</svg>