<?xml version="1.0" encoding="UTF-8"?>
<svg id="Layer_2" data-name="Layer 2" xmlns="http://www.w3.org/2000/svg" viewBox="0 0 273.04 28.13">
  <defs>
    <style>
      .cls-1 {
        fill: #fff;
        fill-rule: evenodd;
      }

      .cls-2 {
        stroke-width: 1.75px;
      }

      .cls-2, .cls-3 {
        fill: none;
        stroke: #f04923;
        stroke-linecap: round;
        stroke-linejoin: round;
      }

      .cls-3 {
        stroke-width: 1.75px;
      }
    </style>
  </defs>
  <g id="Layer_1-2" data-name="Layer 1">
    <g>
      <polygon class="cls-1" points=".99 8.58 8.9 .88 17.37 .88 25.39 8.47 25.39 18.71 17.37 18.71 25.39 26.64 17.48 26.75 8.79 18.6 8.68 26.64 .88 26.53 .99 8.58"/>
      <polygon class="cls-2" points=".99 8.58 8.9 .88 17.37 .88 25.39 8.47 25.39 18.71 17.37 18.71 25.39 26.64 17.48 26.75 8.79 18.6 8.68 26.64 .88 26.53 .99 8.58"/>
      <polygon class="cls-1" points="9.01 5.5 9.01 11.89 15.61 5.5 9.01 5.5"/>
      <polygon class="cls-2" points="9.01 5.5 9.01 11.89 15.61 5.5 9.01 5.5"/>
      <polygon class="cls-1" points="27.15 18.71 27.15 26.64 51.89 26.53 51.89 18.82 43.64 8.8 35.18 8.91 27.15 18.71"/>
      <polygon class="cls-2" points="27.15 18.71 27.15 26.64 51.89 26.53 51.89 18.82 43.64 8.8 35.18 8.91 27.15 18.71"/>
      <polygon class="cls-1" points="44.1 21.45 39.5 14.97 35.53 21.44 44.1 21.45"/>
      <polygon class="cls-3" points="44.1 21.45 39.5 14.97 35.53 21.44 44.1 21.45"/>
      <polygon class="cls-1" points="80.36 11.67 80.36 26.75 72.22 26.86 72.11 16.84 69.48 16.84 69.37 24.22 63.87 24.33 63.76 16.73 60.9 16.73 60.9 26.53 52.88 26.53 52.66 8.91 61.01 .99 69.37 1.1 61.12 8.69 66.18 8.58 68.71 6.49 74.75 6.6 72.88 8.69 77.39 8.69 79.59 6.49 85.42 6.6 80.36 11.67"/>
      <polygon class="cls-2" points="80.36 11.67 80.36 26.75 72.22 26.86 72.11 16.84 69.48 16.84 69.37 24.22 63.87 24.33 63.76 16.73 60.9 16.73 60.9 26.53 52.88 26.53 52.66 8.91 61.01 .99 69.37 1.1 61.12 8.69 66.18 8.58 68.71 6.49 74.75 6.6 72.88 8.69 77.39 8.69 79.59 6.49 85.42 6.6 80.36 11.67"/>
      <polygon class="cls-1" points="85.56 6.48 91.26 1.04 99.6 1.04 105.38 6.56 105.21 19.1 88.72 19.01 88.55 26.82 80.48 26.73 80.3 11.74 85.56 6.48"/>
      <polygon class="cls-2" points="85.56 6.48 91.26 1.04 99.6 1.04 105.38 6.56 105.21 19.1 88.72 19.01 88.55 26.82 80.48 26.73 80.3 11.74 85.56 6.48"/>
      <polygon class="cls-1" points="92.76 13.31 99.6 13.31 99.6 6.74 92.76 13.31"/>
      <polygon class="cls-2" points="92.76 13.31 99.6 13.31 99.6 6.74 92.76 13.31"/>
      <polygon class="cls-1" points="105.29 19.19 105.29 26.73 113.71 26.82 113.8 16.73 122.13 16.65 122.31 26.82 130.2 26.91 130.29 6.65 122.13 6.56 122.13 11.56 113.8 11.47 113.71 6.65 105.56 6.56 105.29 19.19"/>
      <polygon class="cls-2" points="105.29 19.19 105.29 26.73 113.71 26.82 113.8 16.73 122.13 16.65 122.31 26.82 130.2 26.91 130.29 6.65 122.13 6.56 122.13 11.56 113.8 11.47 113.71 6.65 105.56 6.56 105.29 19.19"/>
      <polygon class="cls-1" points="138.62 6.56 146.86 6.56 155.54 13.84 155.54 26.91 147.03 26.91 143.09 22 138.53 26.82 130.46 26.91 130.46 14.28 138.62 6.56"/>
      <polygon class="cls-2" points="138.62 6.56 146.86 6.56 155.54 13.84 155.54 26.91 147.03 26.91 143.09 22 138.53 26.82 130.46 26.91 130.46 14.28 138.62 6.56"/>
      <polygon class="cls-1" points="155.71 9.28 164.4 1.21 171.94 1.39 164.22 9.02 164.13 12.09 169.92 6.3 181.41 11.65 181.41 19.54 169.83 13.93 164.22 19.28 164.31 26.99 155.8 26.91 155.71 9.28"/>
      <polygon class="cls-2" points="155.71 9.28 164.4 1.21 171.94 1.39 164.22 9.02 164.13 12.09 169.92 6.3 181.41 11.65 181.41 19.54 169.83 13.93 164.22 19.28 164.31 26.99 155.8 26.91 155.71 9.28"/>
      <polygon class="cls-1" points="178.07 9.98 186.49 1.21 193.6 1.39 186.49 9.02 192.28 9.02 194.38 6.83 200.17 6.91 197.1 9.28 202.89 9.28 205.26 6.91 210.87 6.83 205.96 12 205.87 26.82 197.72 26.91 197.63 17.09 194.74 17.09 194.74 24.54 189.21 24.63 189.21 16.91 186.4 17 186.49 26.91 178.16 26.82 178.16 18.05 181.32 19.54 181.41 11.74 178.07 9.98"/>
      <polygon class="cls-2" points="178.07 9.98 186.49 1.21 193.6 1.39 186.49 9.02 192.28 9.02 194.38 6.83 200.17 6.91 197.1 9.28 202.89 9.28 205.26 6.91 210.87 6.83 205.96 12 205.87 26.82 197.72 26.91 197.63 17.09 194.74 17.09 194.74 24.54 189.21 24.63 189.21 16.91 186.4 17 186.49 26.91 178.16 26.82 178.16 18.05 181.32 19.54 181.41 11.74 178.07 9.98"/>
      <polygon class="cls-1" points="217.1 14.54 230.42 1.48 244.02 1.56 230.69 14.63 239.63 23.22 239.63 27.26 230.6 27.26 217.1 14.54"/>
      <polygon class="cls-2" points="217.1 14.54 230.42 1.48 244.02 1.56 230.69 14.63 239.63 23.22 239.63 27.26 230.6 27.26 217.1 14.54"/>
      <polygon class="cls-1" points="239.89 27.26 239.81 18.75 248.4 8.14 257.43 8.05 266.11 18.75 266.29 27.26 239.89 27.26"/>
      <polygon class="cls-2" points="239.89 27.26 239.81 18.75 248.4 8.14 257.43 8.05 266.11 18.75 266.29 27.26 239.89 27.26"/>
      <path class="cls-1" d="M270.32,23.49c1.02,0,1.84.83,1.84,1.84s-.82,1.84-1.84,1.84-1.84-.82-1.84-1.84.82-1.84,1.84-1.84Z"/>
      <path class="cls-3" d="M270.32,23.49c1.02,0,1.84.83,1.84,1.84s-.82,1.84-1.84,1.84-1.84-.82-1.84-1.84.82-1.84,1.84-1.84Z"/>
      <polygon class="cls-1" points="139 16.34 143.06 11.82 146.83 16.49 139 16.34"/>
      <polygon class="cls-2" points="139 16.34 143.06 11.82 146.83 16.49 139 16.34"/>
      <polygon class="cls-1" points="253.12 14.84 248.76 21.46 257.49 21.46 253.12 14.84"/>
      <polygon class="cls-2" points="253.12 14.84 248.76 21.46 257.49 21.46 253.12 14.84"/>
    </g>
  </g>
</svg>