<?xml version="1.0" encoding="UTF-8"?>
<svg id="Layer_2" data-name="Layer 2" xmlns="http://www.w3.org/2000/svg" viewBox="0 0 172.54 172.46">
  <defs>
    <style>
      .cls-1, .cls-2 {
        fill: #231f20;
      }

      .cls-3 {
        fill: #ec2227;
      }

      .cls-3, .cls-2 {
        fill-rule: evenodd;
      }
    </style>
  </defs>
  <g id="Layer_1-2" data-name="Layer 1">
    <g>
      <path class="cls-2" d="M112.74,134.3c0,3.83,5.51,3.83,5.51.16v-37.21s.56-4.23-3.03-4.23c-3.11,0-2.47,4.95-2.47,4.95v36.33ZM101.16,136.21v1.92c0,1.75.4,5.99,6.23,5.99h15.33c5.83,0,6.23-4.23,6.23-5.99v-47.27c0-1.76-.4-5.91-6.23-5.91h-15.33c-5.75,0-6.23,4.15-6.23,5.91v45.35Z"/>
      <path class="cls-1" d="M30.26,87.27h12.62v56.85h-12.62v-23.39h-4.63v23.39h-12.46v-56.85h12.46v22.36h4.63v-22.36Z"/>
      <path class="cls-1" d="M144.36,111.06v33.05h-10.78v-58.61h10.54v3.11s2.24-4.39,6.87-4.39c1.12,0,8.54,1.04,8.54,11.1v48.71h-10.94v-42.56c0-.88-.32-4.47-2.87-4.47-1.44,0-1.36,2.72-1.36,3.91v10.14Z"/>
      <path class="cls-1" d="M93.1,132.54c0,5.83,5.83,3.03,5.83,3.03v8.7s-3.75.8-10.94,0c-5.83-.56-5.99-4.47-5.99-10.14v-25.55h-4.23v-11.18h4.23v-10.78h11.42v10.78h5.35v11.18h-5.67v23.95Z"/>
      <path class="cls-1" d="M74.98,87.27h-12.06v56.85h12.06v-56.85Z"/>
      <path class="cls-1" d="M58.93,87.27h-11.34v9.82h11.34v-9.82Z"/>
      <path class="cls-1" d="M58.93,101.72h-11.34v42.4h11.34v-42.4Z"/>
      <path class="cls-2" d="M16.21,155.61h1.91c1.2,0,2.08.32,2.56.88.48.64.72,1.36.72,2.4,0,1.2-.4,2-.96,2.56-.64.56-1.27.8-2.07.72h-2.16v-6.55ZM13.17,172.46h3.04v-7.9h2.63c1.75,0,3.11-.56,4.15-1.6.96-.96,1.44-2.4,1.44-4.07s-.4-2.95-1.28-3.99c-.8-.96-2.16-1.52-3.91-1.52h-6.07v19.09Z"/>
      <path class="cls-1" d="M38.16,172.46h2.95v-8.94h5.67v8.94h3.03v-19.09h-3.03v7.59h-5.67v-7.59h-2.95v19.09Z"/>
      <path class="cls-2" d="M67.79,165.28l2.23-9.34,2.16,9.34h-4.47.08ZM62.76,172.46h3.2l1.2-4.71h5.59l1.2,4.71h3.11l-4.95-19h-3.91l-5.43,19Z"/>
      <path class="cls-2" d="M90.07,172.46h3.03v-8.31h2.47c1.04,0,1.76.24,2.16.72.4.48.64,1.2.64,2.24v1.92c0,.64,0,1.2.08,1.68,0,.4,0,.72.16,1.04,0,.24.16.48.32.72h3.43l-.56-.56c-.24-.24-.24-.64-.32-1.04v-3.91c0-1.28-.32-2.24-.8-2.87-.56-.64-1.27-.96-2.16-1.04,1.04-.24,1.84-.8,2.32-1.59.56-.88.8-1.92.8-3.2,0-1.76-.48-3.03-1.44-3.75-.95-.72-2.07-1.12-3.43-1.12h-6.71v19.09ZM93.1,161.84v-6.15h2.56c1.04,0,1.75.32,2.23.8.48.56.72,1.28.72,2.32s-.24,1.75-.8,2.32c-.48.56-1.28.8-2.24.8h-2.39l-.08-.08Z"/>
      <path class="cls-1" d="M116.02,172.46h2.87v-15.89h.08l3.83,15.89h2.56l3.83-15.89h.08v15.89h2.87v-19.09h-4.63l-3.27,14.05h-.08l-3.43-14.05h-4.71v19.09Z"/>
      <path class="cls-2" d="M150.03,165.28l2.24-9.34,2.16,9.34h-4.47.08ZM145.08,172.46h3.19l1.2-4.71h5.59l1.2,4.71h3.19l-5.03-19h-3.83l-5.51,19Z"/>
      <path class="cls-3" d="M86.23,13.97C41.36,13.97,4.87,54.85,4.87,105.39c0,9.74.96,15.49,3.43,24.27C2.47,117.21,0,105.39,0,91.98,0,39.84,35.69,0,86.39,0s86.15,45.83,86.15,97.97c0,13.49-2.47,19.32-8.3,31.78,2.55-8.78,3.43-14.53,3.43-24.27,0-50.46-36.65-91.42-81.52-91.42"/>
    </g>
  </g>
</svg>