<?xml version="1.0" encoding="UTF-8"?>
<svg id="Layer_2" data-name="Layer 2" xmlns="http://www.w3.org/2000/svg" viewBox="0 0 1272.97 265.78">
  <defs>
    <style>
      .cls-1 {
        fill: #231f20;
      }
    </style>
  </defs>
  <g id="Layer_1-2" data-name="Layer 1">
    <g>
      <g>
        <path class="cls-1" d="M67.17,0H0v199.68h40.16l.62-111.15c95.09,43.82,137.18-1.22,137.18-34.28S163.17,0,91.62,0M40.86,86.12h0l.34-63.42,47.87-.12c37.68.23,54.66,10.13,54.51,38.1-.18,27.65-28.81,54.28-102.72,25.44"/>
        <polyline class="cls-1" points="237.56 0 236.55 199.48 275.16 199.68 276.24 0"/>
        <polyline class="cls-1" points="1162.51 0 1162.63 199.48 1201.3 199.68 1201.3 0"/>
        <path class="cls-1" d="M501.42,57.2h-36.74l-.53,106.97c-16.66,9.29-37.27,16.98-55.26,16.82-20.11-.09-29.11-5.91-29.09-22.7l.5-101.1h-39.31l.19,108.57c-.19,24.79,24.89,33.71,57.22,33.92,26.58.12,48.83-18.47,65.61-32.72l-.11,32.24,37.45.25.05-142.26Z"/>
        <path class="cls-1" d="M665.49,55.03c-26.1-.21-42.79,21.96-58.14,37.18l.14-34.99-39.25-.04v142.49h39.25l-.25-104.55c16.73-9.58,30.65-15.19,51.31-15.08l14.82.09.23-25.05-8.11-.05Z"/>
        <path class="cls-1" d="M850.14,57.13l-54.09,114.78-59.08-114.71-33.41-.07,77.71,142.56c-19.99,35.02-71.17,63.77-112.11,65.93,0,0,113.47,6.62,148.67-65.93l67.85-142.49-35.53-.07Z"/>
        <path class="cls-1" d="M1091.83,57.2l-37.37-.23.21,31.69c-10.25-14.59-33.16-32.65-56.98-32.77-50.74-.35-75.19,21.3-75.51,73.05-.35,56.67,32.54,71.76,74.22,72.04,22.98.09,42.9-10.09,57.67-29.2l-.42,27.69,37.27.21.92-142.49ZM1053.86,168.47c-15.69,9.3-29.62,12.31-50.85,12.15-29.5-.16-45.95-20.89-45.95-53.88,0-35.37,19.25-50.69,50-50.48,18.27.11,34.72,7.38,47.22,15.17l-.42,77.03Z"/>
      </g>
      <path d="M1247.03,50.29c-3.63,0-6.99-.67-10.14-2.01-3.16-1.34-5.92-3.12-8.29-5.41-2.37-2.25-4.22-4.93-5.6-7.98-1.34-3.07-2.05-6.35-2.05-9.83s.71-6.67,2.05-9.74c1.38-3.05,3.24-5.72,5.6-7.94,2.37-2.25,5.13-4.07,8.29-5.37,3.16-1.34,6.51-2.01,10.14-2.01s6.91.67,10.07,2.01c3.16,1.3,5.92,3.12,8.25,5.37,2.37,2.22,4.22,4.9,5.57,7.94,1.34,3.07,2.05,6.31,2.05,9.74s-.71,6.76-2.05,9.83c-1.34,3.05-3.2,5.72-5.57,7.98-2.33,2.28-5.09,4.07-8.25,5.41-3.16,1.34-6.51,2.01-10.07,2.01M1247.03,46.94c3.16,0,6.08-.56,8.72-1.67,2.68-1.14,4.97-2.68,6.91-4.65,1.93-1.98,3.44-4.26,4.5-6.95,1.14-2.64,1.66-5.48,1.66-8.61s-.51-5.88-1.66-8.52c-1.06-2.69-2.57-4.97-4.5-6.95-1.93-1.9-4.22-3.44-6.91-4.58-2.64-1.15-5.57-1.71-8.72-1.71s-6.12.56-8.8,1.71c-2.68,1.14-5.01,2.68-6.95,4.58-1.97,1.98-3.47,4.26-4.58,6.95-1.07,2.64-1.62,5.48-1.62,8.52s.55,5.97,1.62,8.61c1.1,2.69,2.6,4.97,4.58,6.95,1.93,1.98,4.26,3.52,6.95,4.65,2.68,1.11,5.64,1.67,8.8,1.67M1259.98,39.12h-4.26l-8.29-12.91h-6.51v12.91h-3.59V11.09h12.71c3.83,0,6.51.67,8.05,1.98,1.5,1.34,2.21,3.12,2.21,5.44,0,1.39-.2,2.53-.63,3.52-.47.94-1.1,1.73-1.93,2.33-.83.63-1.81,1.06-2.92,1.34s-2.33.43-3.59.51l8.76,12.91ZM1246.33,23.48h3.31c1.14,0,2.29-.12,3.31-.39,1.03-.28,1.89-.75,2.53-1.46.67-.71,1.03-1.77,1.03-3.2,0-1.1-.24-1.98-.67-2.6-.47-.64-.99-1.15-1.7-1.46-.67-.36-1.46-.55-2.29-.66-.91-.13-1.74-.16-2.64-.16h-8.29v9.94h5.41Z"/>
    </g>
  </g>
</svg>