<?xml version="1.0" encoding="UTF-8"?>
<svg id="Layer_2" data-name="Layer 2" xmlns="http://www.w3.org/2000/svg" viewBox="0 0 2210.1 206.34">
  <defs>
    <style>
      .cls-1 {
        fill: #231e3b;
      }
    </style>
  </defs>
  <g id="Layer_1-2" data-name="Layer 1">
    <g>
      <path class="cls-1" d="M427.95,123.93l16.71-97.74h.79l16.46,97.74h-33.95ZM456.07.19h-22.29l-40.36,206.13h22.12l9.44-60.11h39.78l9.36,60.11h22.3L456.07.19Z"/>
      <path class="cls-1" d="M2199.71.19h-22.33l-44.59,154.66L2088.21.19h-22.33l-10.4,206.15h22.33s5.34-131.43,4.43-154.67l39.08,154.63h22.95l39.08-154.63c-.91,23.24,4.41,154.67,4.41,154.67h22.33L2199.71.19Z"/>
      <path class="cls-1" d="M1702.34,123.93l16.71-97.74h.79l16.46,97.74h-33.95ZM1730.46.19h-22.29l-40.36,206.13h22.12l9.44-60.11h39.78l9.36,60.11h22.3L1730.46.19Z"/>
      <path class="cls-1" d="M809.88,72.98c0-28.15,10.82-53.71,28.4-72.98-31.38,19.67-52.31,54.47-52.31,94.24,0,61.46,49.82,111.27,111.27,111.27,40.11,0,75.72-21.98,95.3-53.81-19.35,17.96-45.74,29.71-74.23,29.71-59.88,0-108.43-48.54-108.43-108.44"/>
      <path class="cls-1" d="M1355.58,103.25v6.27c0,51.45-16.22,74.48-47.87,74.48-3.51,0-7.36.03-10.75,0v-80.75h0V22.49c3.39-.03,7.24,0,10.75,0,31.65,0,47.87,23.03,47.87,74.48v6.27h0ZM1351.18,15.65c-10.85-9.99-25.49-15.47-46.31-15.47-11.13,0-20.83.03-30.19.03v103.04h0v103.05c9.36,0,19.06.03,30.19.03,20.81,0,35.46-5.48,46.31-15.47,15.25-13.62,26.67-39.95,26.67-82.62v-4.97h0v-4.99c0-42.67-11.43-69-26.67-82.62"/>
      <path class="cls-1" d="M80.89,103.25v6.27c0,51.45-16.22,74.48-47.87,74.48-3.51,0-7.36.03-10.75,0v-80.75h0V22.49c3.39-.03,7.24,0,10.75,0,31.65,0,47.87,23.03,47.87,74.48v6.27h0ZM76.49,15.65C65.64,5.65,51,.17,30.19.17,19.06.17,9.36.2,0,.2v103.04h0v103.05c9.36,0,19.06.03,30.19.03,20.81,0,35.46-5.48,46.31-15.47,15.25-13.62,26.67-39.95,26.67-82.62v-4.97h0v-4.99c0-42.67-11.43-69-26.67-82.62"/>
    </g>
  </g>
</svg>