<?xml version="1.0" encoding="UTF-8"?>
<svg id="Layer_2" data-name="Layer 2" xmlns="http://www.w3.org/2000/svg" viewBox="0 0 1654.9 470">
  <defs>
    <style>
      .cls-1 {
        fill: #fff;
      }

      .cls-2 {
        fill: none;
      }

      .cls-3 {
        fill: #76787b;
      }

      .cls-4 {
        fill: #b22b2d;
      }
    </style>
  </defs>
  <g id="Layer_1-2" data-name="Layer 1">
    <g>
      <rect class="cls-4" x="1453.23" y="95.53" width="201.6" height="201.6"/>
      <path class="cls-3" d="M149.79,266.67c-8.02,15.12-28.27,34.86-68.77,34.86-25.98.91-50.91-10.27-67.51-30.27-5.53-7.19-10.07-15.09-13.51-23.49l24.47-8.4c3.38,13.85,18.57,39.47,56.12,39.47,13.13.72,26.15-2.81,37.11-10.08,8.85-7.04,14.11-17.66,14.34-28.98-.07-6.29-1.97-12.41-5.48-17.63-6.34-8.82-16.46-13.86-37.98-18.51-19.83-4.63-51.08-7.99-65.4-25.17-7.01-8.98-10.73-20.1-10.53-31.49.25-14.82,6.49-28.91,17.3-39.06,13.5-12.59,37.13-16.8,54.85-16.8,17.37-.52,34.52,4,49.37,13.01,11.05,7.73,18.86,19.25,21.94,32.38l-23.63,6.29c-4.64-23.1-28.69-29.81-48.95-29.81-11.46-.67-22.88,1.95-32.91,7.55-3.58,2.24-6.62,5.25-8.88,8.82-3.03,5.23-4.63,11.17-4.64,17.22,0,23.52,24.9,28.98,42.2,32.34l21.09,4.2c18.14,3.78,35.02,10.5,46,26.04,6.54,8.86,9.96,19.64,9.7,30.66.02,9.33-2.14,18.53-6.33,26.87"/>
      <path class="cls-3" d="M327.63,296.48v-36.15c-2.16,5.16-4.85,10.09-8.02,14.7-13.14,17.56-34.22,27.35-56.12,26.04-8.02-.08-15.98-1.36-23.63-3.78-18.2-6.07-32.44-20.4-38.4-38.64-4.22-13.86-5.48-32.76-5.48-64.26v-98.22h25.32v103.72c-.88,16.31.26,32.68,3.38,48.71,3.38,12.18,12.24,29.4,41.77,29.4,18.66,1.23,36.65-7.16,47.68-22.25,15.19-20.58,13.5-47.45,13.5-71.81v-87.78h24.87v200.31h-24.89Z"/>
      <path class="cls-3" d="M398.25,10.92h24.47v38.21h-24.47V10.92ZM398.25,96.17h24.47v200.31h-24.47V96.17Z"/>
      <path class="cls-3" d="M606.97,266.67c-8.02,15.12-28.26,34.86-68.77,34.86-25.97.9-50.89-10.28-67.49-30.27-5.53-7.2-10.07-15.11-13.51-23.51l24.47-8.4c3.38,13.85,18.56,39.47,56.12,39.47,13.14.73,26.16-2.81,37.13-10.08,8.86-7.04,14.12-17.66,14.35-28.98-.07-6.29-1.98-12.42-5.49-17.63-6.33-8.82-16.46-13.86-37.98-18.51-19.83-4.63-51.08-7.99-65.41-25.17-7.02-8.98-10.74-20.1-10.55-31.49.24-14.82,6.48-28.92,17.29-39.06,13.5-12.59,37.13-16.8,54.86-16.8,17.37-.51,34.53,4.02,49.38,13.05,11.04,7.73,18.84,19.25,21.93,32.37l-23.63,6.29c-4.65-23.1-28.69-29.81-48.95-29.81-11.46-.67-22.88,1.95-32.91,7.55-3.58,2.24-6.62,5.25-8.88,8.82-3.02,5.24-4.62,11.17-4.63,17.22,0,23.52,24.89,28.98,42.2,32.34l21.1,4.2c18.14,3.78,35.02,10.5,45.99,26.04,6.55,8.86,9.96,19.64,9.71,30.66.03,9.33-2.14,18.54-6.34,26.87"/>
      <path class="cls-3" d="M793.24,266.67c-8.02,15.12-28.26,34.86-68.77,34.86-25.97.91-50.9-10.27-67.5-30.27-5.52-7.21-10.07-15.11-13.51-23.51l24.47-8.4c3.38,13.85,18.57,39.47,56.12,39.47,13.14.73,26.16-2.81,37.13-10.08,8.86-7.04,14.12-17.66,14.35-28.98-.07-6.29-1.98-12.42-5.49-17.63-6.33-8.82-16.46-13.86-37.98-18.51-19.83-4.63-51.08-7.99-65.41-25.17-7.02-8.98-10.74-20.1-10.55-31.49.25-14.82,6.49-28.91,17.29-39.06,13.5-12.59,37.13-16.8,54.86-16.8,17.37-.52,34.51,4,49.36,13.01,11.05,7.74,18.86,19.28,21.94,32.41l-23.63,6.29c-4.65-23.1-28.69-29.81-48.95-29.81-11.46-.67-22.88,1.95-32.91,7.55-3.58,2.24-6.61,5.25-8.88,8.82-3.02,5.24-4.62,11.17-4.63,17.22,0,23.52,24.89,28.98,42.2,32.34l21.09,4.2c18.14,3.78,35.02,10.5,45.99,26.04,6.55,8.86,9.96,19.64,9.71,30.66.03,9.33-2.14,18.54-6.34,26.87"/>
      <path class="cls-3" d="M997.79,269.61c-10.96,13.02-30.81,31.91-71.74,31.91-16.08.24-32-3.36-46.41-10.5-48.12-24.78-49.79-83.58-49.79-96.6-.27-13.84,1.87-27.62,6.34-40.72,12.04-37.53,47.08-62.88,86.49-62.57,24.62-.21,48.14,10.19,64.55,28.55,16.54,19.83,25.78,44.73,26.17,70.55v6.3h-156.13c-.58,11.33.7,22.68,3.8,33.6,6.56,29.94,33.97,50.63,64.56,48.71,17.72,0,45.57-4.2,64.55-41.99l23.22,6.71c-4.21,9.24-9.45,17.98-15.61,26.04M922.27,113.42c-24.15-.42-46.37,13.17-57,34.86-3.75,8.86-6.31,18.18-7.6,27.71h127.01c-5.92-51.65-40.5-62.57-62.44-62.57"/>
      <rect class="cls-3" x="1053.88" width="25.32" height="296.48"/>
      <rect class="cls-3" x="1130.5" width="25.32" height="296.48"/>
      <path class="cls-3" d="M1367.29,269.61c-10.96,13.02-30.81,31.91-71.74,31.91-16.08.24-32-3.36-46.41-10.5-48.12-24.78-49.79-83.58-49.79-96.6-.27-13.84,1.87-27.62,6.34-40.72,12.04-37.53,47.08-62.88,86.49-62.57,24.62-.21,48.14,10.19,64.55,28.55,16.55,19.83,25.78,44.73,26.17,70.55v6.3h-156.1c-.58,11.33.71,22.68,3.8,33.6,6.56,29.94,33.97,50.63,64.56,48.71,17.72,0,45.57-4.2,64.55-41.99l23.21,6.71c-4.21,9.24-9.44,17.98-15.61,26.04M1291.8,113.42c-24.15-.42-46.37,13.17-57,34.86-3.75,8.86-6.3,18.18-7.6,27.71h127.01c-5.92-51.65-40.5-62.57-62.44-62.57"/>
      <path class="cls-3" d="M34.1,440.87c-1.04,1.48-2.35,2.76-3.86,3.77-3.03,2.12-6.67,3.2-10.36,3.08-3.18.09-6.32-.82-8.96-2.6-1.41-.91-2.62-2.09-3.57-3.47-.76-.97-1.38-2.04-1.84-3.18v8.18H0v-67.97h5.49v29.86c.32-.66.67-1.3,1.07-1.92,2.89-4.34,7.78-6.92,13-6.85,4.41-.13,8.69,1.54,11.84,4.63,5.01,5.44,7.65,12.65,7.33,20.04.12,5.81-1.5,11.52-4.63,16.42M31.69,416.22c-.88-6.51-6.44-11.37-13.01-11.36-2.43-.05-4.81.64-6.84,1.96-4.86,4.12-7.26,10.45-6.36,16.76-.06,2.93.3,5.84,1.07,8.67,1.14,6.05,6.43,10.42,12.59,10.41,4.08.17,7.97-1.76,10.31-5.11,2.23-3.95,3.34-8.43,3.22-12.96.04-2.82-.29-5.64-.97-8.38"/>
      <path class="cls-3" d="M104.71,440.52c-3.96,4.94-10.06,7.66-16.38,7.33-3.67.06-7.31-.77-10.59-2.41-7.5-4.81-11.83-13.27-11.36-22.16-.05-3.18.45-6.34,1.48-9.34,2.73-8.6,10.73-14.42,19.75-14.36,5.63-.04,11,2.34,14.73,6.55,3.76,4.55,5.86,10.25,5.94,16.16v1.48h-35.65c-.13,2.6.16,5.21.87,7.71,1.48,6.85,7.74,11.59,14.73,11.16,6.45.21,12.34-3.64,14.74-9.62l5.3,1.55c-.96,2.12-2.16,4.12-3.57,5.97M87.46,404.7c-5.52-.09-10.59,3.03-13.01,8-.86,2.03-1.44,4.17-1.73,6.35h29c.16-7.77-6.01-14.19-13.78-14.35-.16,0-.31,0-.47,0"/>
      <path class="cls-3" d="M168.66,444.27c-1.48-1.62-2.22-3.78-2.03-5.97-.56,1.45-1.37,2.79-2.41,3.95-3.68,3.63-8.7,5.59-13.87,5.39-4.05.28-8.04-1.15-10.98-3.95-2.23-2.3-3.47-5.37-3.46-8.57-.03-2.63.86-5.18,2.51-7.22,3.9-3.72,8.84-6.18,14.16-7.03,2.89-.78,5.77-1.64,8.67-2.22l5.4-1.15v-2.41c.13-1.5-.03-3.01-.48-4.44-.96-2.96-3.56-6.17-10.5-6.07-5.87,0-8.88,1.64-10.36,3.95-1.24,2.17-1.84,4.64-1.73,7.13l-6.26-1.06c.41-2.8,1.32-5.51,2.69-7.99,3.53-4.83,9.3-7.49,15.27-7.03,5.16-.33,10.23,1.45,14.07,4.92,2.45,3.86,3.44,8.48,2.79,13.01v14.74c0,4.44-.1,7.51,1.54,8.88,1.61.91,3.46,1.28,5.29,1.06v4.54c-5.4,0-8.38-.48-10.3-2.41M166.64,422.44l-2.89.74c-6.71,1.32-13.24,3.43-19.46,6.27-1.79,1.3-2.86,3.37-2.89,5.59.04,1.14.34,2.26.87,3.27,1.79,2.87,5.01,4.53,8.38,4.33,6.12,0,11.77-3.31,14.74-8.67,1.03-2.57,1.45-5.33,1.24-8.09v-3.44Z"/>
      <path class="cls-3" d="M235.1,446.68v-8.28c-.49,1.18-1.1,2.31-1.82,3.38-2.99,4.02-7.81,6.26-12.81,5.97-1.83-.02-3.65-.31-5.4-.87-4.16-1.4-7.41-4.7-8.76-8.88-1.09-4.83-1.51-9.79-1.25-14.73v-22.53h5.78v23.8c-.2,3.74.04,7.49.74,11.17,1,4.35,5.1,7.25,9.54,6.74,4.27.29,8.38-1.64,10.89-5.1,2.76-5.02,3.84-10.8,3.08-16.48v-20.14h5.69v45.95h-5.67Z"/>
      <path class="cls-3" d="M286.43,447.54c-.52.01-1.03-.02-1.54-.1-2.67.05-5.09-1.56-6.07-4.04-.62-3.01-.84-6.09-.67-9.16v-28.7h-9.62v-4.8h9.62v-19.56h5.49v19.55h10.11v4.8h-10.11v30.25c-.1,2.71-.1,6.74,3.77,6.74,2.35-.32,4.56-1.32,6.34-2.89v5.78c-2.16,1.46-4.72,2.2-7.32,2.11"/>
      <path class="cls-3" d="M337.46,453.33c-4.34,10.99-5.97,16.66-13.33,16.66-2.17.05-4.29-.59-6.07-1.83v-5.79c1.69,1.38,3.79,2.16,5.97,2.22,3.28,0,4.14-2.11,6.16-6.94.58-1.44,1.26-2.88,1.84-4.33l2.41-6.66-15.9-45.95h5.49l13.39,39.11,14.92-39.11h5.78l-20.68,52.61Z"/>
      <path class="cls-3" d="M552.16,439.85c-3.27,5.45-9.37,8.56-15.7,8-5.94.21-11.63-2.36-15.41-6.94-1.26-1.65-2.3-3.46-3.08-5.39l5.58-1.92c1.6,5.66,6.94,9.44,12.81,9.05,3,.17,5.98-.64,8.48-2.31,2.03-1.62,3.23-4.07,3.27-6.66-.02-1.44-.45-2.85-1.24-4.05-1.48-2.02-3.76-3.18-8.68-4.23-4.53-1.06-11.65-1.84-14.92-5.78-1.61-2.06-2.46-4.61-2.41-7.23.05-3.4,1.48-6.63,3.95-8.96,3.6-2.7,8.02-4.07,12.52-3.86,3.97-.13,7.88.9,11.27,2.96,2.52,1.77,4.3,4.41,5,7.4l-5.4,1.44c-1.07-5.3-6.55-6.83-11.18-6.83-2.62-.15-5.22.45-7.51,1.73-.82.51-1.51,1.2-2.03,2.02-.69,1.2-1.05,2.56-1.06,3.95,0,5.4,5.69,6.66,9.62,7.4l4.82.96c4.15.55,7.91,2.69,10.5,5.98,1.5,2.03,2.28,4.5,2.22,7.03,0,2.14-.51,4.26-1.48,6.17"/>
      <path class="cls-3" d="M615.89,443.32c-3.73,3.14-8.51,4.76-13.38,4.53-5.18.17-10.23-1.69-14.07-5.18-4.73-5.01-7.26-11.71-7.03-18.6-.05-3.24.45-6.46,1.48-9.54,2.62-9.13,11.13-15.29,20.62-14.93,7.74-.46,14.86,4.26,17.43,11.57l-5.3,1.24c-2.12-4.91-7.08-7.98-12.42-7.7-3.48-.06-6.87,1.14-9.54,3.38-4.12,4.16-6.33,9.84-6.08,15.69-.05,5.11,1.47,10.12,4.34,14.35,1.24,1.44,2.79,2.6,4.52,3.38,1.95.94,4.1,1.41,6.26,1.35,5.32.17,10.22-2.87,12.43-7.71l5.78,1.35c-1.18,2.6-2.88,4.93-5,6.84"/>
      <path class="cls-3" d="M649.11,381.18h5.59v8.76h-5.59v-8.76ZM649.11,400.73h5.59v45.95h-5.59v-45.95Z"/>
      <path class="cls-3" d="M723.19,440.52c-3.96,4.93-10.06,7.66-16.38,7.33-3.68.05-7.31-.77-10.6-2.41-7.49-4.81-11.83-13.27-11.36-22.16-.05-3.18.45-6.34,1.48-9.34,2.73-8.6,10.73-14.42,19.75-14.36,5.63-.04,11,2.34,14.73,6.55,3.75,4.56,5.84,10.26,5.92,16.16v1.48h-35.65c-.13,2.6.16,5.21.87,7.71,1.48,6.85,7.74,11.59,14.73,11.16,6.45.21,12.34-3.64,14.74-9.62l5.3,1.55c-.96,2.12-2.16,4.12-3.57,5.97M705.92,404.7c-5.52-.08-10.59,3.03-13.01,8-.85,2.03-1.43,4.17-1.73,6.35h29c.16-7.77-6.01-14.19-13.78-14.35-.16,0-.31,0-.47,0"/>
      <path class="cls-3" d="M786.85,446.69v-23.89c.35-4.21,0-8.44-1.06-12.53-.65-1.69-1.87-3.09-3.46-3.95-1.91-1.06-4.09-1.56-6.27-1.44-2.09-.02-4.16.41-6.07,1.24-3.42,1.83-5.93,4.99-6.93,8.74-.53,3.86-.72,7.76-.58,11.65v20.18h-5.69v-45.96h5.69v8.2c.62-1.96,1.75-3.73,3.27-5.11,3.03-2.8,7.06-4.25,11.17-4.04,5.83-.47,11.37,2.66,13.97,7.9,1.66,4.86,2.22,10.02,1.64,15.12v23.88h-5.69Z"/>
      <path class="cls-3" d="M856.94,443.32c-3.73,3.14-8.51,4.76-13.38,4.53-5.18.17-10.23-1.69-14.07-5.18-4.73-5.01-7.26-11.71-7.03-18.6-.05-3.24.45-6.46,1.48-9.54,2.62-9.13,11.13-15.29,20.62-14.93,7.74-.46,14.86,4.26,17.43,11.57l-5.3,1.24c-2.12-4.91-7.08-7.98-12.42-7.7-3.48-.06-6.87,1.14-9.54,3.38-4.12,4.16-6.32,9.85-6.07,15.69-.05,5.11,1.46,10.12,4.33,14.35,1.24,1.44,2.79,2.6,4.53,3.38,1.95.94,4.09,1.41,6.26,1.35,5.32.17,10.22-2.87,12.43-7.71l5.78,1.35c-1.18,2.6-2.88,4.93-5,6.84"/>
      <path class="cls-3" d="M925.96,440.52c-3.96,4.94-10.06,7.66-16.38,7.33-3.67.06-7.31-.77-10.59-2.41-7.5-4.8-11.84-13.26-11.37-22.16-.05-3.18.45-6.34,1.48-9.34,2.73-8.59,10.72-14.41,19.74-14.36,5.63-.04,11,2.34,14.73,6.55,3.78,4.55,5.9,10.25,6,16.16v1.48h-35.68c-.13,2.6.17,5.21.87,7.71,1.48,6.85,7.74,11.59,14.73,11.16,6.45.21,12.34-3.63,14.74-9.62l5.3,1.55c-.96,2.12-2.16,4.12-3.57,5.97M908.72,404.7c-5.52-.09-10.59,3.03-13,8-.86,2.03-1.44,4.17-1.74,6.35h29.01c.16-7.77-6.01-14.19-13.78-14.35-.16,0-.32,0-.48,0"/>
      <path class="cls-3" d="M1096.35,381.18h5.59v8.76h-5.59v-8.76ZM1096.35,400.73h5.59v45.95h-5.59v-45.95Z"/>
      <path class="cls-3" d="M1164.6,446.69v-23.89c.35-4.2,0-8.44-1.05-12.53-.65-1.69-1.88-3.09-3.46-3.95-1.91-1.06-4.08-1.56-6.26-1.44-2.09-.02-4.16.41-6.07,1.24-3.42,1.82-5.93,4.99-6.93,8.74-.53,3.86-.72,7.76-.58,11.65v20.18h-5.69v-45.96h5.69v8.2c.62-1.96,1.75-3.73,3.27-5.11,3.03-2.8,7.05-4.26,11.17-4.04,5.83-.47,11.36,2.66,13.96,7.9,1.66,4.85,2.23,10.02,1.65,15.12v23.89h-5.7Z"/>
      <path class="cls-3" d="M1232.93,446.69v-23.89c.35-4.2,0-8.44-1.05-12.53-.65-1.69-1.88-3.09-3.46-3.95-1.91-1.06-4.08-1.56-6.26-1.44-2.09-.02-4.16.41-6.07,1.24-3.42,1.83-5.93,4.99-6.94,8.74-.52,3.86-.71,7.76-.57,11.65v20.18h-5.69v-45.96h5.69v8.2c.61-1.96,1.74-3.73,3.26-5.11,3.03-2.8,7.06-4.25,11.18-4.04,5.83-.47,11.36,2.66,13.96,7.9,1.66,4.86,2.22,10.02,1.64,15.12v23.88h-5.69Z"/>
      <path class="cls-3" d="M1308.98,432.72c-2.34,9.01-10.53,15.26-19.84,15.12-6.23.15-12.15-2.72-15.89-7.71-3.27-4.64-4.93-10.22-4.73-15.89-.04-3.98.68-7.94,2.12-11.65,2.77-8,10.42-13.27,18.88-13.01,5-.16,9.85,1.68,13.48,5.12,4.82,5.04,7.42,11.8,7.23,18.77.06,3.13-.37,6.25-1.25,9.25M1289.42,404.39c-2.97-.03-5.87.89-8.28,2.61-4.86,4.34-7.31,10.77-6.55,17.24-.39,5.93,1.82,11.74,6.07,15.89,2.45,1.87,5.48,2.82,8.57,2.7,6.74,0,14.81-4.25,14.93-18.8.19-14.92-7.4-19.65-14.74-19.65"/>
      <path class="cls-3" d="M1354.05,446.68h-4.62l-15.9-45.95h5.68l12.72,37.38,14.16-37.38h5.59l-17.63,45.95Z"/>
      <path class="cls-3" d="M1427.83,444.27c-1.48-1.62-2.22-3.78-2.03-5.97-.56,1.45-1.37,2.79-2.4,3.95-3.69,3.63-8.71,5.58-13.88,5.39-4.05.28-8.04-1.15-10.98-3.95-2.23-2.29-3.47-5.37-3.46-8.57-.03-2.63.86-5.18,2.51-7.22,3.9-3.72,8.84-6.18,14.17-7.03,2.88-.78,5.77-1.64,8.66-2.22l5.4-1.15v-2.41c.13-1.5-.03-3.01-.48-4.44-.97-2.96-3.57-6.17-10.5-6.07-5.87,0-8.88,1.64-10.36,3.95-1.23,2.17-1.83,4.64-1.73,7.13l-6.26-1.06c.41-2.8,1.32-5.51,2.69-7.99,3.53-4.85,9.34-7.52,15.32-7.04,7.79-1.64,15.43,3.34,17.06,11.13.47,2.25.4,4.58-.21,6.79v14.74c0,4.44-.1,7.51,1.54,8.88,1.61.91,3.47,1.28,5.3,1.06v4.55c-5.4,0-8.39-.48-10.31-2.41M1425.86,422.44l-2.89.74c-6.71,1.32-13.25,3.43-19.47,6.27-1.79,1.31-2.86,3.38-2.89,5.59.04,1.14.34,2.26.87,3.27,1.79,2.87,5.01,4.53,8.38,4.33,6.12,0,11.77-3.31,14.74-8.67,1.03-2.57,1.45-5.33,1.24-8.09v-3.44Z"/>
      <path class="cls-3" d="M1476.37,447.54c-.52.01-1.04-.02-1.55-.1-2.67.04-5.08-1.56-6.07-4.04-.62-3.01-.84-6.09-.67-9.16v-28.7h-9.62v-4.8h9.62v-19.56h5.49v19.55h10.11v4.8h-10.08v30.25c-.1,2.71-.1,6.74,3.76,6.74,2.36-.32,4.56-1.32,6.35-2.89v5.78c-2.16,1.46-4.72,2.19-7.32,2.11"/>
      <path class="cls-3" d="M1511.34,381.18h5.59v8.76h-5.59v-8.76ZM1511.34,400.73h5.59v45.95h-5.59v-45.95Z"/>
      <path class="cls-3" d="M1587.52,432.72c-2.34,9.01-10.53,15.25-19.84,15.12-6.23.15-12.16-2.72-15.9-7.71-3.27-4.64-4.92-10.22-4.72-15.89-.04-3.98.68-7.94,2.12-11.65,2.77-8,10.42-13.27,18.88-13.01,5-.16,9.86,1.68,13.49,5.12,4.81,5.05,7.41,11.8,7.22,18.77.06,3.13-.36,6.25-1.24,9.25M1567.97,404.39c-2.97-.03-5.87.89-8.28,2.61-4.86,4.34-7.3,10.77-6.54,17.24-.39,5.93,1.83,11.73,6.07,15.89,2.46,1.87,5.49,2.82,8.57,2.7,6.74,0,14.81-4.25,14.92-18.8.19-14.92-7.4-19.65-14.74-19.65"/>
      <path class="cls-3" d="M1648.99,446.69v-23.89c.35-4.21,0-8.44-1.06-12.53-.65-1.69-1.88-3.09-3.46-3.95-1.91-1.06-4.08-1.56-6.26-1.44-2.09-.02-4.16.41-6.07,1.24-3.42,1.83-5.93,4.99-6.94,8.74-.53,3.86-.72,7.76-.58,11.65v20.18h-5.69v-45.96h5.69v8.2c.62-1.96,1.75-3.72,3.27-5.11,3.03-2.8,7.06-4.25,11.17-4.04,5.83-.47,11.37,2.66,13.97,7.9,1.66,4.86,2.22,10.02,1.64,15.12v23.88h-5.69Z"/>
      <rect class="cls-4" x="995.2" y="406.6" width="34.22" height="34.22"/>
      <rect class="cls-4" x="429.43" y="406.6" width="34.22" height="34.22"/>
      <path class="cls-1" d="M1576.26,174.13v-44.42h-44.42v44.42h-44.42v44.42h44.42v44.42h44.42v-44.42h44.42v-44.42h-44.42Z"/>
      <rect class="cls-2" x="0" width="1654.83" height="470"/>
    </g>
  </g>
</svg>