<?xml version="1.0" encoding="UTF-8"?>
<svg id="Layer_2" data-name="Layer 2" xmlns="http://www.w3.org/2000/svg" viewBox="0 0 443.98 86.16">
  <defs>
    <style>
      .cls-1, .cls-2 {
        fill: #5586b4;
      }

      .cls-2 {
        fill-rule: evenodd;
      }
    </style>
  </defs>
  <g id="Layer_1-2" data-name="Layer 1">
    <g>
      <path class="cls-1" d="M346.57,3.14l-18.46,64.26h33.01s-4.9,17.38-5.06,17.46c-.31.15-56.6.23-56.6.23,4.21-14.86,25.81-81.95,25.73-82.1l21.29.15h.08Z"/>
      <path class="cls-2" d="M262.4,19.38c0,.38-5.36,18.69-5.44,18.69l10.34.54c5.21.15,14.4-3.45,14.55-11.56,0-3.52-1.46-7.66-6.05-7.74h-13.4v.08ZM283.46,3.14c12.1.61,21.67,7.81,21.52,19.3-.23,11.33-8.58,19.68-21.52,23.28,4.36,1.46,7.66,6.51,7.43,10.03,0,0-1.07,25.35.84,29.33.15.23-24.82,0-24.82,0,.15,0,1.46-21.83,1.46-21.83.15-9.5-2.07-9.88-9.88-10.03-.61,0-6.36.08-6.43,0-.08,0-11.41,31.86-11.49,31.86l-20.3-.15c-.54-.23-1.07-.61-1.07-1.22s5.59-18.3,8.27-27.19c5.29-17.16,10.11-35.92,16.39-53.38,0,.38,39.44,0,39.44,0h.15Z"/>
      <path class="cls-2" d="M192.39,23.67c-6.43,10.26-12.64,20.6-18.61,32.09l19.45.38-.84-32.47ZM211.08,3.14c.46,0,6.74,81.95,6.74,81.95h-23.67v-12.18l-49.94.15s-11.11,12.02-10.88,11.87l-58.59.23S92.67,23.13,99.8,3.22h60.81s-6.05,16.08-6.05,16.16h-36.46l-4.6,14.78h34.08s-5.44,15.62-5.44,15.85h-33.32l-5.05,17.54,37.22.08c1.15.08,43.04-64.41,42.97-64.26l27.19-.15-.08-.08Z"/>
      <path class="cls-1" d="M443.98,3.14s-5.82,16.24-5.9,16.24h-36.76c.15,0-4.9,15.09-4.9,15.09h34.23l-4.82,15.39h-33.62c-.08,0-5.59,18.23-5.44,18.23h37.3l-6.97,16.54h-58.28s17.31-60.89,24.58-81.49h60.58Z"/>
      <path class="cls-1" d="M52.77.15c.61,0,1.91.31,2.53.31,11.64.23,29.1,5.9,28.8,21.83,0,2.6.15,3.06-1.15,6.28l-19.91-.38c-2.76,0-1.76-3.29-1.76-4.29.15-6.59-5.97-7.97-10.03-8.04-4.37,0-12.41,1.61-12.48,7.89,0,.61.23,1.3.23,1.91-.15,9.96,35.15,11.26,34.77,33.7-.31,18-18.84,25.5-34.54,26.58-6.28.46-7.2.08-7.81.08C21.52,85.85-.3,81.87,0,64.79c0-1.46,1.3-6.59,1.91-7.74l21.44.38c.23,1.15,0,3.22,0,3.83-.15,7.5,7.97,8.73,11.95,8.81,4.37.08,14.32-.69,14.48-8.73.23-10.95-35.38-13.71-35-36.15C15.09,7.74,34.24.23,45.88.38h4.82c.61.08,1.53-.38,2.07-.38"/>
    </g>
  </g>
</svg>