<?xml version="1.0" encoding="UTF-8"?>
<svg id="Layer_2" data-name="Layer 2" xmlns="http://www.w3.org/2000/svg" viewBox="0 0 421.07 39.31">
  <defs>
    <style>
      .cls-1 {
        fill: #231e3b;
      }
    </style>
  </defs>
  <g id="Layer_1-2" data-name="Layer 1">
    <g>
      <path class="cls-1" d="M81.53,23.61l3.18-18.62h.15l3.13,18.62h-6.47ZM86.89.04h-4.25l-7.69,39.27h4.21l1.8-11.45h7.58l1.78,11.45h4.25L86.89.04Z"/>
      <path class="cls-1" d="M419.09.04h-4.25l-8.5,29.47L397.84.04h-4.25l-1.98,39.27h4.25s1.02-25.04.84-29.47l7.45,29.46h4.37l7.45-29.46c-.17,4.43.84,29.47.84,29.47h4.25L419.09.04Z"/>
      <path class="cls-1" d="M324.33,23.61l3.18-18.62h.15l3.13,18.62h-6.47ZM329.69.04h-4.25l-7.69,39.27h4.21l1.8-11.45h7.58l1.78,11.45h4.25L329.69.04Z"/>
      <path class="cls-1" d="M154.3,13.9c0-5.36,2.06-10.23,5.41-13.9-5.98,3.75-9.96,10.38-9.96,17.95,0,11.71,9.49,21.2,21.2,21.2,7.64,0,14.43-4.19,18.16-10.25-3.69,3.42-8.72,5.66-14.14,5.66-11.41,0-20.66-9.25-20.66-20.66"/>
      <path class="cls-1" d="M258.26,19.67v1.2c0,9.8-3.09,14.19-9.12,14.19-.67,0-1.4,0-2.05,0v-15.38h0V4.28c.64,0,1.38,0,2.05,0,6.03,0,9.12,4.39,9.12,14.19v1.19h0ZM257.42,2.98c-2.07-1.9-4.86-2.95-8.82-2.95-2.12,0-3.97,0-5.75,0v19.63h0v19.63c1.78,0,3.63,0,5.75,0,3.97,0,6.75-1.04,8.82-2.95,2.91-2.59,5.08-7.61,5.08-15.74v-.95h0v-.95c0-8.13-2.18-13.15-5.08-15.74Z"/>
      <path class="cls-1" d="M15.41,19.67v1.2c0,9.8-3.09,14.19-9.12,14.19-.67,0-1.4,0-2.05,0v-15.38h0V4.28c.65,0,1.38,0,2.05,0,6.03,0,9.12,4.39,9.12,14.19v1.19h0ZM14.57,2.98C12.51,1.08,9.72.03,5.75.03,3.63.03,1.78.04,0,.04v19.63h0v19.63c1.78,0,3.63,0,5.75,0,3.96,0,6.75-1.04,8.82-2.95,2.9-2.59,5.08-7.61,5.08-15.74v-.95h0v-.95c0-8.13-2.18-13.15-5.08-15.74Z"/>
    </g>
  </g>
</svg>