<?xml version="1.0" encoding="UTF-8"?>
<svg id="Layer_2" data-name="Layer 2" xmlns="http://www.w3.org/2000/svg" viewBox="0 0 1222.8 152.99">
  <defs>
    <style>
      .cls-1 {
        fill: #2f3682;
      }
    </style>
  </defs>
  <g id="Layer_1-2" data-name="Layer 1">
    <g id="martinex">
      <path class="cls-1" d="M1222.8,0h-41.06l-30.37,43.83-28.69-43.83h-42.74l49.53,76.92-49.53,75.94h42.74l26.53-40.35c.83-.91,1.65-2.74,3.28-2.36,2.51.65,24.88,38.13,29.25,42.71h41.06l-49.29-76.03L1222.8,0ZM1063.06,39.34V0h-128.8c-.12,0-1.68,1.59-1.68,1.71v151.15h130.49v-38.19h-91.11v-19.13h91.11v-38.19h-91.11v-18h91.11ZM861.71,0v83.17L806.57,0h-35.98v152.86h38.22v-82.02c20.1,26.42,37.51,54.99,56.82,82.02h34.33V0h-38.25ZM698.58,0v152.86h39.37V0h-39.37ZM543.36,0v39.34h46.1v113.52h38.25V39.34h46.13V0h-130.49ZM515.02,19.86c-7.61-9.62-25-19.86-37.48-19.86h-91.67v150.62L285.16,1.15l-33.18,47.19c2.21,1.74,9.24-8.62,19.69-1.12,7.76,5.55,24.35,34.21,30.93,43.83l-79.63.24c-13.46,19.42-25.06,40.67-39.61,59.33V0c-11.36,1.21-23.29.32-34.39,2.18l-57.29,86.6L32.06,0H.01v152.86h38.25v-78.66l53.42,78.66,53.42-78.66v78.66c12.37.06,24.76-.06,37.13,0,14.23.09,28.54.41,42.77-.53,18.36-29.49,39.82-57.53,77.6-60.15,13.87,20.31,28.42,40.29,42.18,60.68h79.34v-44.39c0-.12,1.56-1.68,1.68-1.68h26.98c2.83,0,27.07,41.73,32.64,46.07h41.06l-31.55-49.94c32.35-14.29,42.21-55.05,20.1-83.06ZM477.54,68.56h-53.42v-29.22h54.54c4.6,0,9.8,10.6,9.65,15.2-.15,4.9-5.84,14.02-10.77,14.02Z"/>
      <path class="cls-1" d="M515.02,19.86c-7.61-9.62-25-19.86-37.48-19.86h-91.67v150.62L285.16,1.15l-33.18,47.19c2.21,1.74,9.24-8.62,19.69-1.12,7.76,5.55,24.35,34.21,30.93,43.83.18.27-.18.86,0,1.12,13.87,20.31,28.42,40.29,42.18,60.68h79.34v-44.39c0-.12,1.56-1.68,1.68-1.68h26.98c2.83,0,27.07,41.73,32.64,46.07h41.06l-31.55-49.94c32.35-14.29,42.21-55.05,20.1-83.06ZM477.54,68.56h-53.42v-29.22h54.54c4.6,0,9.8,10.6,9.65,15.2-.15,4.9-5.84,14.02-10.77,14.02Z"/>
      <path class="cls-1" d="M182.24,152.87c-12.36-.06-24.76.04-37.12,0v-78.68l-53.43,78.65-53.43-78.65v78.68H0V.01h32.06l59.62,88.77L148.97,2.18c11.09-1.85,23.02-.98,34.39-2.17v150.61c-.56.72-1.23,1.18-1.13,2.25Z"/>
      <path class="cls-1" d="M1063.06.01v39.34h-91.12v17.98h91.12v38.21h-91.12v19.11h91.12v38.21h-130.49V1.7c0-.12,1.57-1.69,1.69-1.69h128.8Z"/>
      <path class="cls-1" d="M806.58.01l55.12,83.17V.01h38.25v152.86h-34.31c-19.32-27.05-36.73-55.63-56.81-82.05v82.05h-38.25V.01h36Z"/>
      <path class="cls-1" d="M1122.68.01l28.69,43.81L1181.74.01h41.06l-49.31,76.81,49.31,76.05h-41.06c-4.37-4.58-26.75-42.08-29.27-42.71-1.6-.4-2.42,1.44-3.27,2.34l-26.53,40.37h-42.75l49.53-75.95L1079.94.01h42.75Z"/>
      <polygon class="cls-1" points="673.83 .01 673.83 39.35 627.71 39.35 627.71 152.87 589.46 152.87 589.46 39.35 543.34 39.35 543.34 .01 673.83 .01"/>
      <rect class="cls-1" x="698.58" y=".01" width="39.37" height="152.86"/>
      <path class="cls-1" d="M302.61,91.05c.17.26-.17.87,0,1.12-37.77,2.63-59.24,30.67-77.61,60.14-14.21.97-28.53.62-42.75.55-.1-1.07.57-1.53,1.12-2.25,14.53-18.66,26.15-39.9,39.6-59.33l79.64-.23Z"/>
    </g>
  </g>
</svg>